<?xml version="1.0" encoding="UTF-8"?>
<svg width="90px" height="78px" viewBox="0 0 90 78" version="1.1" xmlns="http://www.w3.org/2000/svg" xmlns:xlink="http://www.w3.org/1999/xlink">
    <title>Group 13</title>
    <defs>
        <polygon id="path-1" points="0.519502954 0.669295796 63.8738824 0.669295796 63.8738824 32.9999378 0.519502954 32.9999378"></polygon>
        <polygon id="path-3" points="0 0.603942182 17.2829609 0.603942182 17.2829609 23.6520222 0 23.6520222"></polygon>
    </defs>
    <g id="01_design" stroke="none" stroke-width="1" fill="none" fill-rule="evenodd">
        <g id="Calendário-Advento" transform="translate(-1168.000000, -642.000000)">
            <g id="14" transform="translate(1129.000000, 588.000000)">
                <g id="Group-13" transform="translate(39.000000, 54.000000)">
                    <path d="M24.3249864,19.3532805 C16.2857639,22.5529966 12.1790053,31.6187027 12,40.7097216 C12.0744285,40.7912848 12.148857,40.872848 12.2232856,40.9562863 L12.2232856,41.7756686 C13.0919324,42.3962992 13.2162939,43.6253727 14.2366242,44.0847518 C14.3675807,44.059439 14.4985372,44.0331888 14.7048644,43.9910009 L14.7048644,40.981599 C14.9243814,40.7369093 15.062875,40.5822204 15.2107899,40.4181565 L15.2107899,37.5100054 C15.3737789,37.3168787 15.5056776,37.1603148 15.6168493,37.0271886 C15.6168493,36.7037482 15.6055437,36.4206207 15.6187336,36.1384307 C15.6451133,35.6003008 16.3036644,35.2421726 16.0577676,34.610292 C16.0313879,34.5437289 16.2188724,34.4077902 16.2838796,34.2915391 C16.8981504,33.1974668 17.2354341,31.9449556 18.1766252,31.0393225 C18.1379977,30.4355671 18.903952,30.3052535 18.9614221,29.8889997 C19.0518669,29.2261813 19.5436604,28.9627415 19.9110924,28.5755505 C20.6431299,27.8049186 21.4119105,27.0689745 22.0478504,26.4370939 C22.8364159,26.0461529 23.4836614,25.7264625 24.1290227,25.4077097 C24.3447712,25.4077097 24.5586354,25.4077097 24.7715575,25.4077097 C24.9260673,25.2661459 25.0805772,25.1245821 25.2266078,24.9895809 L26.076412,24.9895809 C26.4749343,25.4873979 27.2182774,25.4555226 27.5781723,26.0377153 C27.8570437,26.4905318 28.4713145,26.7239714 28.4684881,27.3717897 C29.1769723,27.6905426 28.5089999,28.6524262 29.2966232,29.0011793 L29.2966232,32.8655889 C29.47186,33.0399654 29.5726682,33.1402788 29.6942034,33.2602799 C29.6942034,40.1687792 29.6942034,47.0969662 29.6989141,54.0251532 C29.6998562,54.0785912 29.7780533,54.1320292 29.8195071,54.1854671 L30.1209897,54.4854698 C30.1209897,56.1832975 30.1209897,57.8811252 30.1209897,59.5705153 C30.2679625,59.7280167 30.4111668,59.8808306 30.5600238,60.0392695 L30.5600238,63.4124247 C30.6730798,63.5249257 30.773888,63.6243016 30.9491248,63.7996157 L30.9491248,67.6190248 C31.1243616,67.7943389 31.2251698,67.8937148 31.4004066,68.0690289 L31.4004066,70.9846799 C31.6142708,71.2631199 31.7367482,71.4224964 31.877126,71.604373 L31.877126,72.7978212 C32.1720137,73.0500109 32.534735,73.0321983 32.7222195,72.9281348 C33.4815788,72.5081311 34.4623395,72.5353188 35.0841474,71.9765638 C35.5957257,71.5181222 36.4069024,71.9812514 36.730054,71.2659325 C36.7432439,71.2368697 36.8666634,71.2378072 36.9307284,71.2546824 C37.6608816,71.4506216 38.1328904,70.5281134 38.8809441,70.8121784 C39.2012694,70.1062346 40.1330391,70.6959274 40.4872812,70.0621717 C41.1967075,70.1502975 41.7271285,69.6187302 42.402638,69.5193543 C42.9641494,69.4359161 43.4785541,69.0431001 44.1795012,68.7093471 L44.8229781,68.7093471 C44.9803144,68.5630958 45.1338821,68.4205945 45.295929,68.2715307 L46.0138345,68.2715307 C46.5715773,67.9555903 47.0134378,67.5374616 47.5005207,67.4746485 C48.0026776,67.4099605 48.4059106,67.2515215 48.8110279,67.0077694 C49.3150692,67.2674592 49.6165518,66.8071426 50,66.6383911 C46.0760153,52.5129522 41.9598354,38.3875133 38.1385432,24.2620744 C36.1647741,18.3717092 29.2579957,16.4076291 24.3249864,19.3532805" id="Fill-1" fill="#A62D29"></path>
                    <path d="M83.5898615,52.6499873 C83.5497797,52.2619965 83.6010471,51.8947235 83.3232714,51.4878981 C82.8870331,50.8494083 82.6316287,50.0800186 82.3296176,49.3539482 C82.2028475,49.0488292 81.7740663,48.8840272 81.9036328,48.4687263 C82.0574347,47.9771456 81.5699291,47.7567818 81.4673945,47.3687909 C81.3844347,47.0570798 81.1131839,46.7830377 81.0796271,46.4741517 C81.0414097,46.1313637 80.644321,46.0456667 80.6545745,45.8017598 C80.6750814,45.2866359 80.3870523,44.9033537 80.2677393,44.47016 C80.1419013,44.0153066 79.6627849,43.7553903 79.7466769,43.1639867 C79.8026049,42.7731707 79.5043223,42.2787648 79.2545106,41.9058415 C78.6271851,40.9678829 78.3307668,39.863239 77.6959842,38.9271639 C77.3697376,38.4459421 77.3613484,37.7726084 76.8803677,37.3544823 C76.4077763,36.9429483 76.2912597,36.3214095 75.9948413,35.8062857 C75.3004022,34.604644 74.9741557,33.1835802 73.897542,32.2088944 C73.9665198,31.8030107 73.7390794,31.5223765 73.4435932,31.3406235 C73.0418438,31.092008 73.1266679,30.5966604 72.8507566,30.3037838 C72.5226457,29.9581705 72.5263743,29.4383381 72.1264892,29.0993169 C71.7881249,28.8139741 71.683726,28.2432884 71.3425653,27.9654794 C70.9305625,27.6292834 71.039622,27.030346 70.6127051,26.7676046 C70.1624848,26.4897956 70.1811275,25.9313524 69.8669987,25.5857392 C69.5342272,25.219408 69.1744238,24.8785034 68.8267382,24.5272398 C68.9637617,23.7145307 67.8079167,23.5751553 67.9318904,22.76998 C67.3847283,22.2181289 66.8375662,21.6653361 66.366839,21.1907064 C66.2382047,20.2423889 65.1923514,20.0126079 65.0534636,19.2931296 C64.8800868,18.3956653 63.7074634,18.2459309 63.739156,17.2608861 C63.0614952,16.5150395 62.3251101,15.823813 61.7751516,14.9103393 C61.2783247,14.0844461 60.4412692,13.4685576 59.7775905,12.7839232 L59.3133882,12.7839232 C58.9573134,12.4241841 58.604035,12.0776291 58.2628743,11.7197734 C57.9757773,11.4174795 57.5162357,11.1321367 57.4631041,10.7874652 C57.3717551,10.1951199 56.9131456,9.999241 56.6120667,9.6442105 C56.2476026,9.21290023 55.8244142,8.83338487 55.4273255,8.4312681 L54.2332631,7.2258595 C53.7858392,6.77383128 53.3141799,6.34346274 52.8984486,5.86318275 C52.5293239,5.43658111 51.8488668,5.5505299 51.563634,4.97042701 C51.2075592,4.24624013 50.24653,4.27920052 49.798174,3.61716751 C49.57353,3.2875636 48.9956075,3.4391814 48.7905382,3.00692941 C48.3971781,3.06343294 48.1510949,2.8251764 47.9199259,2.55866809 C47.429624,2.74795491 47.2720935,2.07744638 46.8283981,2.12924128 C46.4751197,2.1706772 46.1880227,2.09063053 45.8925366,1.82035533 C45.6166252,1.5679729 45.1990296,1.47474208 44.7916874,1.28639699 C43.9415821,1.46344137 43.2061291,0.781632137 42.3345847,0.733604138 C42.2292537,0.727953785 42.1351082,0.545259045 42.03537,0.44449442 C41.4248228,0.368214657 40.7984294,0.502881399 40.2717742,0.39458297 C40.094669,0.199645799 40.0005235,0.0951142721 39.9147673,0 L35.8888846,0 L35.6959331,0 C35.5318777,0.1516178 35.37994,0.29287662 35.2205452,0.441669244 L33.5604163,0.441669244 C33.4457639,0.557501476 33.3497542,0.740196216 33.2462874,0.744904844 C32.6329439,0.773156608 32.1249314,1.20446687 31.5591266,1.24213589 C31.0949243,1.2722711 30.832995,1.72147415 30.4741237,1.67721305 C29.9241652,1.6084671 29.5867331,1.95596379 29.172866,2.14054198 C28.2798825,2.53795013 27.4195237,3.00975459 26.5256081,3.40339583 C25.831169,3.70851488 25.6298283,4.67284176 24.7331163,4.71051078 C24.5765179,4.71710286 24.4273766,4.97890254 24.2800996,5.12863689 C23.3833876,6.03175161 22.489472,6.93674978 21.5936921,7.84080623 C21.2068569,9.13662047 19.96712,9.70165575 19.2064994,10.6772833 C19.1636213,10.7328451 19.0694758,10.7752228 19.063883,10.8298429 C18.9893124,11.6199505 18.3405478,11.9975824 17.8493137,12.4430186 C17.3245228,12.9195317 17.3021516,13.7002221 16.6794867,14.105164 C16.0922429,14.4865628 15.8909021,15.1843814 15.6625295,15.8012116 C15.5236417,16.1760183 15.1750239,16.3982655 15.1358744,16.8747786 C15.1013854,17.2863127 14.5560876,17.6394597 14.4693992,18.0660613 C14.3817787,18.4983133 13.9278299,18.7629382 13.977233,19.1311528 C14.0536679,19.689596 13.6994573,20.0295589 13.5130307,20.4439181 C13.2716082,20.9816434 13.0889102,21.5617463 12.6834323,22.0147162 C12.9379046,22.6353133 12.2621082,23.0233042 12.2835472,23.5421949 C12.3115112,24.1910438 11.5919045,24.5959857 11.8174807,25.2928626 C11.8529017,25.4030444 11.5919045,25.6111658 11.3775139,25.8936834 L11.3775139,27.5426447 C11.2041371,27.7187474 11.1043989,27.8185703 11,27.9240435 L11,39.0034436 C11.1360914,39.1522362 11.2768435,39.3066792 11.4241205,39.4677143 L11.4241205,40.7145588 C11.4986912,40.7983724 11.567669,40.8755938 11.6385111,40.9546988 C11.8156164,31.8237287 15.8778523,22.7163017 23.8317436,19.5021927 C28.7123923,16.544233 35.5458597,18.5162061 37.4986784,24.4330672 C41.2794101,38.6220448 45.3518994,52.8110224 49.2351657,67 C49.3386324,66.9538555 49.4486241,66.924662 49.5707336,66.9444382 C49.9053693,66.4914682 50.3760965,66.4632165 50.8729235,66.5178366 C51.1749346,66.0027127 51.8703058,66.118545 52.2105344,65.665575 C52.8956522,65.9141905 53.3067229,65.2304978 53.903288,65.1523346 C54.0775969,65.1287915 54.2248739,64.8406235 54.39359,64.8302645 C54.813982,64.8029545 55.2362383,64.8519242 55.4944391,64.4140219 C56.0462619,64.6146094 56.22896,63.7425716 56.7854434,63.9601102 C57.2776097,64.1522222 57.4463257,63.5579934 57.8741748,63.5109071 C58.316938,63.4619374 58.6357275,63.0212099 59.1810253,63.0767717 C59.536168,63.1125573 59.7906404,62.6275687 60.2706889,62.6492283 C60.6276958,62.6652377 61.0042776,62.4128553 61.357556,62.2480533 C61.5943178,62.1369297 61.79193,61.9316335 62.0333525,61.8384027 C62.2785035,61.7442302 62.5879717,61.9401091 62.7296559,61.7979085 C62.9216753,61.6020296 63.0204814,61.501265 63.1192875,61.4005004 L63.9638,61.4005004 C64.0635383,61.3006775 64.1502266,61.1339921 64.264879,61.1104489 C64.84653,60.9927333 65.2827683,60.5548309 65.9306008,60.4992691 C66.4675094,60.4540663 66.9671327,59.9803784 67.4844666,59.6950356 C68.1537381,59.9455345 68.5461661,59.0537205 69.2079806,59.2693757 C69.7178574,58.9727321 70.2473089,58.6638462 70.7748963,58.4660838 C71.1924919,58.3088157 71.6613548,58.3088157 72.0705612,58.0065218 C72.3744366,57.7814494 72.8199962,57.5347173 73.1425142,57.6006381 C73.7288259,57.721179 73.9292345,57.069505 74.4540254,57.1109409 C74.6637553,57.1278919 74.9312775,56.6984651 75.1139756,56.739901 C75.6779161,56.867034 75.9622167,56.3264836 76.4236225,56.2916397 C76.8393539,56.2596211 77.015527,55.7049448 77.5160825,55.8490288 C78.0315521,55.9987631 78.2561961,55.2830518 78.7940369,55.3527394 C78.9366533,55.3715739 79.1044372,55.0391449 79.2750176,55.0231355 C79.6879525,54.9835831 80.1195301,55.0655132 80.3814595,54.6210188 C80.9202324,54.77452 81.1318266,53.978762 81.6650067,54.1576898 C82.1636979,54.325317 82.346396,53.78665 82.7518738,53.700953 C83.1843836,53.6105473 83.5749473,53.3195542 84,53.1086077 C83.8620443,52.9551064 83.7296814,52.8063138 83.5898615,52.6499873" id="Fill-3" fill="#CF3D3D"></path>
                    <g id="Group-7" transform="translate(26.000000, 45.000000)">
                        <mask id="mask-2" fill="white">
                            <use xlink:href="#path-1"></use>
                        </mask>
                        <g id="Clip-6"></g>
                        <path d="M57.1682824,0.725622857 C58.1301647,0.482365714 59.2906353,1.08579429 60.4915765,1.41579429 C60.8595765,1.51668 61.2031059,1.78822286 61.5024,2.04656571 C62.0868706,2.55005143 62.6986353,3.04693714 63.1711059,3.64753714 C63.5042824,4.06993714 63.7414588,4.64319429 63.8158118,5.17779429 C63.9231059,5.94528 63.8525176,6.73822286 63.8384,7.52079429 C63.8336941,7.79705143 63.2181647,9.04633714 62.9122824,9.48193714 C61.9616941,10.8321086 60.7513412,11.9305371 59.4468706,12.9139371 C58.4332235,13.6785943 57.3678118,14.3819657 56.2807529,15.0381943 C55.3518118,15.5982514 54.3824,16.1045657 53.3885176,16.5392229 C52.2779294,17.02668 51.1127529,17.3859086 49.9861647,17.8394229 C48.2798118,18.5258229 46.5565176,19.1660229 44.8144,19.75248 C43.5372235,20.1824229 42.2694588,20.6246229 41.0205176,21.13848 C39.8647529,21.6146229 38.7428706,22.1595943 37.5965176,22.6451657 C36.3259294,23.1816514 35.1127529,23.85108 33.8148706,24.3149657 C32.7325176,24.7015371 31.6802824,25.1663657 30.5988706,25.5567086 C29.7386353,25.8678514 28.8831059,26.2421657 28.0068706,26.4873086 C26.5762824,26.8861371 25.1965176,27.4311086 23.7772235,27.8516229 C22.3861647,28.2627086 21.0365176,28.7954229 19.6360471,29.1819943 C19.0111059,29.3535943 18.3645176,29.5101086 17.7546353,29.7750514 C17.1240471,30.0475371 16.4445176,30.2106514 15.7894588,30.4293943 C15.1664,30.6377657 14.5414588,30.8451943 13.9249882,31.0705371 C12.8765176,31.4533371 11.8431059,31.8804514 10.7852235,32.2321371 C10.0614588,32.4716229 9.31134118,32.6366229 8.56875294,32.8157657 C7.73204706,33.0165943 6.90851765,33.0297943 6.0944,32.96568 C5.10804706,32.88648 4.11322353,32.7356229 3.23510588,32.1642514 C2.69487059,31.8125657 2.06992941,31.5259371 1.70851765,31.0073657 C1.24169412,30.3379371 0.737223529,29.5893086 0.610164706,28.8152229 C0.4464,27.8271086 0.471811765,26.7918514 0.961223529,25.7877086 C1.68687059,24.3008229 2.71651765,23.11848 3.98522353,22.1011371 C6.36451765,20.1965657 9.14663529,18.9972514 11.8289882,17.6301086 C13.3499294,16.85508 14.9075765,16.1517086 16.4699294,15.46248 C17.5504,14.9863371 18.6779294,14.61108 19.7687529,14.16888 C21.1711059,13.6003371 22.6073412,13.1364514 24.0219294,12.6093943 C26.1216941,11.8277657 28.1254588,10.8528514 30.1339294,9.87699429 C31.6115765,9.15948 33.0911059,8.44479429 34.5885176,7.77065143 C35.4845176,7.36710857 36.4162824,7.03805143 37.3329882,6.68259429 C38.2525176,6.32525143 39.1871059,5.95565143 40.1188706,5.71145143 C41.7555765,5.28245143 43.3254588,4.71390857 44.8765176,4.06710857 C45.5447529,3.78896571 46.2412235,3.57682286 46.9207529,3.35053714 C47.8572235,3.03939429 48.7626353,2.64150857 49.7245176,2.39070857 C50.6412235,2.15122286 51.5024,1.69865143 52.4172235,1.44785143 C53.1212235,1.25550857 53.8449882,1.09616571 54.5565176,0.931165714 C55.3226353,0.753908571 56.0671059,0.807651429 57.1682824,0.725622857" id="Fill-5" fill="#B2D3D4" mask="url(#mask-2)"></path>
                    </g>
                    <g id="Group-10" transform="translate(0.000000, 35.000000)">
                        <mask id="mask-4" fill="white">
                            <use xlink:href="#path-3"></use>
                        </mask>
                        <g id="Clip-9"></g>
                        <path d="M14.5122632,1.2504 C13.6236316,1.17655385 12.7501579,0.979938462 11.8672105,0.8544 C11.4664737,0.798092308 11.0685789,0.720553846 10.6697368,0.647630769 C9.89289474,0.503630769 9.14257895,0.750092308 8.40742105,0.888553846 C7.67415789,1.02701538 6.93521053,1.23932308 6.23415789,1.55963077 C4.96942105,2.13747692 3.90552632,2.94147692 2.94868421,3.9264 C1.88384211,5.02301538 1.25952632,6.35686154 0.661736842,7.70732308 C0.492157895,8.08947692 0.579315789,8.57963077 0.411631579,8.96270769 C0.238263158,9.35686154 0.244894737,9.73901538 0.209842105,10.1368615 C0.172894737,10.5642462 0.0383684211,10.9833231 0.0127894737,11.4097846 C-0.0137368421,11.8740923 -0.0184736842,12.3282462 0.194684211,12.7944 C0.381315789,13.2042462 0.0307894737,13.7507077 0.432473684,14.1596308 C0.299842105,14.9239385 0.676894737,15.6033231 0.943105263,16.2513231 C1.34763158,17.2353231 1.84878947,18.2304 2.53089474,19.0445538 C3.43942105,20.1291692 4.46447368,21.1648615 5.68563158,21.9245538 C6.51173684,22.4387077 7.45815789,22.7950154 8.39036842,23.1116308 C9.27994737,23.4125538 10.233,23.5131692 11.1699474,23.6276308 C11.8634211,23.7125538 12.5417368,23.5574769 13.2266842,23.4420923 C13.3394211,23.4227077 13.4464737,23.3931692 13.5582632,23.3719385 C18.1823684,17.1817846 18.5016316,7.86978462 14.5122632,1.2504" id="Fill-8" fill="#B2D3D4" mask="url(#mask-4)"></path>
                    </g>
                    <path d="M22.9696869,47.0863724 C22.652814,46.6708253 22.7886167,46.2044146 22.8250276,45.7456814 C22.728588,45.1276392 22.6085306,44.512476 22.5416133,43.8915547 C22.4559986,43.1074856 22.2611513,42.3550864 21.9364058,41.6372361 C21.2623128,40.1439539 20.28414,38.8934741 18.9753172,37.8483685 C17.7786793,36.8925144 16.3291334,36.559501 14.9553616,36.0259117 C14.6316001,36.0383877 14.3107909,36.0268714 13.9909658,36 C18.1358993,42.8819578 17.8032812,52.5642994 13,59 C13.7036153,58.8666027 14.3895171,58.7005758 15.0586897,58.4289827 C16.8821849,57.6861804 18.3445237,56.5307102 19.6415376,55.0758157 C20.8116054,53.7619962 21.6313418,52.2754319 22.2601672,50.6957774 C22.5563745,49.9548944 22.8378206,49.1439539 22.7679511,48.2898273 C22.7463014,48.024952 22.652814,47.7264875 22.9135945,47.4798464 C22.9933048,47.403071 23.0306997,47.1660269 22.9696869,47.0863724" id="Fill-11" fill="#86B1B3"></path>
                </g>
            </g>
        </g>
    </g>
</svg>