<?xml version="1.0" encoding="UTF-8"?>
<svg width="270px" height="127px" viewBox="0 0 270 127" version="1.1" xmlns="http://www.w3.org/2000/svg" xmlns:xlink="http://www.w3.org/1999/xlink">
    <title>Group 25</title>
    <defs>
        <polygon id="path-1" points="0 0 48 0 48 48 0 48"></polygon>
        <polygon id="path-3" points="0 0 27 0 27 27 0 27"></polygon>
        <polygon id="path-5" points="0 0 16 0 16 16 0 16"></polygon>
        <polygon id="path-7" points="0 0 18 0 18 18 0 18"></polygon>
        <polygon id="path-9" points="0 0 18 0 18 18 0 18"></polygon>
    </defs>
    <g id="01_design" stroke="none" stroke-width="1" fill="none" fill-rule="evenodd">
        <g id="Calendário-Advento" transform="translate(-351.000000, -768.000000)">
            <g id="15" transform="translate(329.000000, 756.000000)">
                <g id="Group-25" transform="translate(22.000000, 12.000000)">
                    <g id="Group-3" transform="translate(222.000000, 9.000000)">
                        <mask id="mask-2" fill="white">
                            <use xlink:href="#path-1"></use>
                        </mask>
                        <g id="Clip-2"></g>
                        <path d="M23.5654297,43.7869196 C23.4775391,43.8895109 23.3642578,44.039978 23.2324219,44.1699269 C22.9619141,44.4356871 22.9628906,44.6867914 23.2373047,44.9398498 L24.3671875,44.9398498 C24.5791016,44.6037413 24.96875,44.5871313 25.2802734,44.4298247 C25.3330078,44.0790604 25.4941406,43.7155943 25.1601562,43.4087976 C25.0273438,43.5348383 24.8935547,43.6608789 24.7607422,43.7869196 L23.5654297,43.7869196 Z M9.93066406,12.0373725 L10.5634766,12.66953 C10.7724609,12.66953 11.0830078,12.7633277 11.2558594,12.6490117 C11.5595703,12.4496916 11.8691406,12.2953162 12.2050781,12.1731838 C12.2460937,12.1575508 12.2626953,12.0735237 12.2685547,12.0637531 L12.2685547,11.4257333 C11.9101562,11.0046207 11.6298828,10.6753516 11.4013672,10.4076373 C11.0087891,10.6079345 10.6972656,10.7671952 10.4775391,10.87858 C10.2626953,11.3329127 10.0908203,11.6973558 9.93066406,12.0373725 L9.93066406,12.0373725 Z M38.4013672,36.2958048 C38.1855469,36.0808517 37.9707031,35.8668756 37.7607422,35.6577849 C37.1533203,36.0671728 36.4023438,36.0906223 36.0771484,36.8273251 C36.2714844,37.2122865 36.4794922,37.6246056 36.6748047,38.0124982 L37.4248047,38.0124982 C37.7695312,37.6793209 38.0888672,37.3715472 38.4003906,37.0696358 C38.4003906,36.8038757 38.4003906,36.5498402 38.4013672,36.2958048 L38.4013672,36.2958048 Z M45.0214844,23.7112789 C44.7294922,23.4191382 44.4384766,23.1015938 44.1152344,22.8182466 C43.9912109,22.7088159 43.7958984,22.6795041 43.9384766,22.7371507 C43.359375,23.0996397 42.9335937,23.367354 42.6679688,23.5334541 L42.6679688,24.8427138 C43.1259766,25.060598 43.5615234,24.9433509 43.9921875,24.9423738 C44.2900391,24.5535042 44.7744141,24.3180329 45.0214844,23.7112789 L45.0214844,23.7112789 Z M37.6757812,10.3324038 C37.5849609,9.48529322 37.6894531,8.79744336 37.5771484,8.02849757 C36.9101562,8.13206587 36.2988281,7.94349339 35.7128906,8.16333177 C35.7128906,8.75152157 35.7099609,9.25568425 35.7177734,9.76082399 C35.71875,9.80967696 35.7900391,9.85559875 35.828125,9.90249761 C35.9619141,10.0373318 36.0957031,10.171189 36.2568359,10.3324038 L37.6757812,10.3324038 Z M4.4140625,23.4210923 C4.03222656,23.9066908 3.32128906,23.8382967 3.078125,24.4118306 L3.078125,25.9624239 C3.3515625,26.0777169 3.4375,26.4577931 3.79882812,26.5046919 C4.16894531,26.3366377 4.54101562,26.1676064 4.91601562,25.996621 C4.97851562,25.4260183 5.6484375,24.994158 5.31640625,24.3229182 C5.04785156,24.0552039 4.77929687,23.7865125 4.4140625,23.4210923 L4.4140625,23.4210923 Z M10.9472656,36.8722698 L10.1894531,36.8722698 C9.87011719,37.2396442 9.42773437,37.499542 9.18847656,37.9675535 C9.56835937,38.4990738 9.58984375,39.2435931 10.2158203,39.5396422 L11.3623047,39.5396422 C11.6591797,39.1253689 12.1738281,38.9192094 12.2978516,38.5049362 C12.2871094,38.3280884 12.3085937,38.2421072 12.2753906,38.2088872 C11.8369141,37.7594398 11.3916016,37.3168319 10.9472656,36.8722698 L10.9472656,36.8722698 Z M23.515625,3.06503552 C22.8212891,3.65713355 22.3408203,4.06554441 21.8798828,4.45734525 C21.9404297,4.79638488 21.7509766,5.14519511 22.0908203,5.37089584 L24.3789062,5.37089584 C24.5214844,5.50279887 24.6591797,5.63177072 24.8183594,5.78223787 C24.9814453,5.73729314 25.1523437,5.69137134 25.3457031,5.63763307 C25.3457031,4.96541617 25.3476562,4.33130458 25.3417969,3.69817005 C25.3408203,3.64736296 25.2822266,3.59655587 25.2333984,3.51936817 C25.0732422,3.37280925 24.890625,3.20573208 24.7392578,3.06503552 L23.515625,3.06503552 Z M25.0742188,26.9629328 C25.0371094,27.0117858 24.9667969,27.0606388 24.9667969,27.1094917 C24.9609375,29.1535001 24.9619141,31.1994626 24.9619141,33.2219757 C25.0742188,33.3353146 25.1650391,33.4261811 25.3232422,33.5844648 L25.3232422,35.5043866 C25.4804687,35.6636473 25.5712891,35.7525597 25.6962891,35.8776233 L25.6962891,37.482932 C25.5722656,37.6070185 25.4814453,37.696908 25.3681641,37.8102469 L25.3681641,39.3579091 C25.4570312,39.454638 25.6816406,39.5884951 25.6875,39.7321229 C25.7050781,40.0848413 25.8349609,40.3867527 26.1201172,40.5098622 C27.1933594,40.9759196 27.8671875,41.8142366 28.4082031,42.9691209 L28.4082031,43.5651271 C28.5410156,43.7087549 28.6689453,43.8465202 28.796875,43.9842856 C28.7070312,44.073198 28.6171875,44.1640646 28.4550781,44.3262564 C28.5605469,44.8890427 28.2412109,45.4430354 27.9482422,45.9286339 C27.6845703,46.3663566 27.2958984,46.8197122 26.6552734,46.9301199 C26.3974609,46.9750646 26.1972656,47.3522096 25.9677734,47.5827956 C25.5683594,47.6824557 25.0644531,47.4938832 24.7939453,48 L21.7246094,48 C21.1572266,47.4235349 20.5771484,46.833391 20.0703125,46.3184807 C19.9414062,46.0253628 19.8457031,45.8084556 19.9130859,45.961854 C19.4863281,45.3326277 19.6171875,45.0082439 19.5908203,44.7024243 C19.5693359,44.4522971 19.5859375,44.1992387 19.5859375,44.1787205 C19.8017578,43.7058237 19.9248047,43.4361553 20.0751953,43.1059092 C20.703125,42.4766829 21.3828125,41.7986036 22.0410156,41.1390885 C22.2392578,41.098052 22.4140625,41.0619008 22.6191406,41.0189102 L22.6191406,35.872738 C22.5097656,35.7642844 22.4199219,35.6734179 22.2617188,35.5151342 L22.2617188,32.8262666 C22.1035156,32.667983 22.0136719,32.5771165 21.890625,32.454007 C21.8896484,31.4173469 21.890625,30.3455127 21.8896484,29.2736784 C21.3427734,29.2258025 21.6152344,29.6019704 21.5322266,29.776864 C21.1650391,30.1305596 20.6289062,30.4256315 20.4746094,30.8565147 C20.2900391,31.3743563 19.921875,31.6625888 19.6015625,32.0827244 L19.6015625,33.2131822 C19.7041016,33.325544 19.8310547,33.4652635 19.9658203,33.6127995 L19.9658203,39.3813585 C19.65625,39.6744764 19.3310547,39.980296 18.9707031,40.3203127 L17.8339844,40.3203127 C17.5615234,40.0242636 17.2587891,39.6959717 16.8984375,39.3061249 C16.8984375,38.2000936 16.8984375,37.0012417 16.8984375,35.8307244 C16.6767578,35.7769862 16.5166016,35.6841655 16.4511719,35.7300873 C15.9628906,36.070104 15.2802734,36.1267735 14.9394531,36.8302563 C15.0205078,36.9826776 15.1308594,37.1917683 15.3261719,37.5601197 L15.3261719,39.3139414 C14.9619141,39.7985629 14.7685547,40.4629633 14.2226562,40.9124107 C13.7324219,41.3169133 13.3115234,41.805443 12.8623047,42.2548904 C12.4570312,42.1073544 12.3154297,42.4981782 12.0839844,42.6193336 L9.53710938,42.6193336 C9.08789062,42.3867934 8.71875,42.2793169 8.46582031,42.0457997 C8.14160156,41.7477965 7.80078125,41.5396829 7.40136719,41.3569727 C7.07421875,41.2055285 6.84667969,40.8371771 6.57617187,40.5665316 C6.40429688,40.1864555 6.81152344,39.6070593 6.15820313,39.4565921 L6.15820313,37.4565514 C6.27148438,37.3363731 6.53710937,37.1526859 6.50878906,37.0706129 C6.32324219,36.5371384 7.16308594,36.4042584 6.93945313,35.8873939 L8.60546875,34.2205305 L9.62988281,34.2205305 C9.88964844,34.0524762 10.0908203,33.9215503 10.3662109,33.7447025 C10.5419922,33.8599955 10.7402344,33.9918985 11.0078125,34.1677693 L12.484375,34.1677693 C12.9375,33.6899872 13.4189453,33.1819163 13.8027344,32.7764366 C14.3984375,32.5351029 14.9326172,32.7774136 15.40625,32.4969976 C15.3105469,32.4031999 15.265625,32.3181957 15.2207031,32.3181957 C13.8203125,32.3103792 12.4189453,32.3123333 11.1630859,32.3123333 C10.7363281,32.1657744 10.6152344,31.7339141 10.2109375,31.8804731 C10.0087891,31.5248234 9.78027344,31.1799214 9.61523438,30.8066847 C9.54394531,30.6454699 9.60351562,30.4275856 9.60351562,30.0914772 C9.87402344,29.8843406 10.2265625,29.6156492 10.78125,29.1916054 L15.5507812,29.1916054 C15.7089844,29.0342989 15.7988281,28.9444094 15.9140625,28.8291164 L18.1240234,28.8291164 C19.0683594,28.3601278 19.1923828,27.2599589 19.9638672,26.7010809 L19.9638672,26.3180736 C19.6953125,26.0015063 19.6064453,26.0044375 18.9736328,26.5203249 L12.8457031,26.5203249 C12.6875,26.6786085 12.5976562,26.768498 12.4951172,26.8720663 L8.30078125,26.8720663 C7.67089844,27.5218108 7.04980469,28.1627618 6.6171875,28.6102551 C6.1015625,28.8545199 5.83398438,28.9815376 5.41894531,29.1779266 L2.5078125,29.1779266 C2.38769531,29.0665418 2.25,28.93757 2.10742188,28.8046899 L1.76953125,28.8046899 C1.29882812,28.3347243 0.848632812,27.8833228 0.380859375,27.4153113 L0.380859375,26.6854479 C0.284179688,26.587742 0.193359375,26.4978525 0.009765625,26.3131883 C-0.009765625,25.5276325 0.0146484375,24.6424166 0,23.7767419 C0.169921875,23.4464958 0.33203125,23.1309056 0.573242187,22.6648483 C0.989257812,22.2476439 1.53222656,21.7043988 1.98632812,21.2510432 C2.36035156,21.0693102 2.62695313,20.9403383 3.02929688,20.7459035 L5.55371094,20.7459035 C5.77832031,21.1591996 6.36425781,21.0243654 6.61132812,21.4015104 C6.87011719,21.7952653 7.35351563,21.8050359 7.68066406,22.0776355 L7.68066406,22.4821381 C7.89941406,22.6951371 8.16015625,22.8934802 8.34667969,23.1484927 C8.47949219,23.3302257 8.51269531,23.5852383 8.58886719,23.8031225 L14.0058594,23.8031225 C14.1357422,23.6839213 14.2744141,23.5549494 14.4160156,23.4230464 L20.1650391,23.4230464 C20.3496094,23.2393592 20.5302734,23.0586032 20.6845703,22.9032508 C20.0146484,22.233965 19.3447266,21.5646793 18.3730469,20.5934822 C18.6806641,20.8055041 18.6328125,20.7478576 18.5800781,20.7419952 C18.4541016,20.7273393 18.3242188,20.7371099 18.1962891,20.7371099 C15.5732422,20.7371099 12.9501953,20.7371099 10.3271484,20.7361329 C10.2675781,20.7361329 10.2080078,20.7175688 10.1484375,20.7068211 C9.63867187,20.3169744 9.52929688,19.6828628 9.1953125,19.1337554 C9.40820312,18.6794227 9.87011719,18.4234331 10.1933594,18.043357 L15.1748047,18.043357 C15.3613281,17.8577157 15.5419922,17.6759827 15.7441406,17.4737313 C15.1347656,16.7751338 14.0576172,16.6412767 13.7236328,15.7032996 C13.2197266,15.8860097 13.0830078,15.4873695 12.8535156,15.3769618 L11.6972656,15.3769618 C11.5888672,15.4844383 11.4990234,15.5753048 11.4082031,15.6661714 C10.5615234,16.1556781 9.90039062,15.2450587 9.09960938,15.3593747 C8.67382812,14.8952714 8.24609375,14.4292141 7.62109375,13.7482036 C7.63183594,13.770676 7.50292969,13.5039388 7.30859375,13.0994362 L7.30859375,10.2493537 C7.47363281,9.95819 7.62011719,9.70122336 7.86523437,9.2713172 C8.15527344,8.96549759 8.59472656,8.50530258 9.02832031,8.04999288 C9.44921875,8.20339121 9.58105469,7.79302624 9.85253906,7.6757791 L10.8623047,7.6757791 C11.0253906,7.56341727 11.2226562,7.42662894 11.421875,7.28984062 C11.9082031,7.31524416 12.2265625,7.94740163 12.796875,7.6757791 C13.4414062,8.18580414 14.4306641,8.31575305 14.6074219,9.35143607 C14.6347656,9.51069677 14.8359375,9.63966861 14.9667969,9.79599813 C14.9697266,9.83801168 14.9775391,9.89956643 14.9785156,9.96209824 C14.9794922,10.2825737 14.9785156,10.6020722 14.9785156,10.9215706 C15.1064453,11.0612901 15.234375,11.2000326 15.3671875,11.3446374 L15.3671875,13.2508804 C15.7792969,13.6622224 16.2109375,14.0481609 16.5869141,14.4839294 C16.953125,14.9069962 17.4716797,15.0369451 17.9521484,15.3046594 C18.2001953,14.7477355 17.9296875,14.1702933 18.0810547,13.6602683 C17.9482422,13.5273882 17.8574219,13.4374987 17.6992188,13.278238 C17.5947266,12.4106092 17.7285156,11.4609074 17.6435547,10.5346551 C17.5410156,10.4310868 17.4501953,10.3411973 17.3349609,10.2239502 C17.5869141,9.78329635 17.8447266,9.33482606 18.1103516,8.87267694 L19.4882812,8.87267694 C19.6162109,9.09642356 19.8398437,9.4882244 20.0634766,9.8810023 C20.1416016,9.81553932 20.2207031,9.75105339 20.2988281,9.68656747 C20.3300781,9.98847884 20.3613281,10.2913673 20.3916016,10.5942557 C20.4824219,10.6851222 20.5732422,10.7759888 20.7314453,10.9332953 L20.7314453,13.62314 C20.8886719,13.7804466 20.9794922,13.8713131 21.0957031,13.9885603 L21.0957031,17.715065 C21.3662109,18.1918701 21.6025391,18.6071203 21.8867188,19.1083518 L21.8867188,19.8606876 C22.0888672,19.89977 22.3056641,19.9408065 22.5546875,19.9886824 C22.7753906,19.3516396 22.5644531,18.7790828 22.6816406,18.2641725 C22.5517578,18.1332465 22.4619141,18.043357 22.3710938,17.9534675 C22.3388672,17.9026605 22.2783203,17.8518534 22.2783203,17.8010463 C22.2734375,15.1766646 22.2744141,12.5522829 22.2724609,9.92790115 C22.2724609,9.86927759 22.2490234,9.81065402 22.2373047,9.75105339 C22.1464844,9.66018686 22.0566406,9.57029739 21.9414062,9.45598144 C21.9111328,9.17947361 21.8769531,8.87756224 21.8457031,8.5893297 C21.5615234,8.30989069 21.2236328,8.51409612 21.1757812,8.50334846 C20.6357422,8.22488652 20.3173828,8.06074053 20,7.8975716 C19.9892578,7.77348505 19.9794922,7.6493985 19.9677734,7.50088546 C19.7207031,7.2419647 19.4599609,6.967411 19.2109375,6.704582 L19.2109375,3.40114397 C19.4042969,3.00250371 19.5341797,2.73478942 19.7177734,2.35764447 C20.3037109,1.7714088 20.9824219,1.09235247 21.6796875,0.394732021 L22.4140625,0.394732021 C22.5625,0.261851935 22.7011719,0.136788324 22.8554688,0 L25.5253906,0 C25.65625,0.120178313 25.7949219,0.247196043 25.9384766,0.380076129 L26.3105469,0.380076129 C26.8574219,0.928206485 27.3994141,1.47047448 27.9326172,2.00394895 C28.0527344,2.28631913 28.1669922,2.5569646 28.3837891,3.06894376 L28.3837891,6.29226291 C28.1699219,6.64302726 27.9541016,7.07781871 27.6621094,7.45300955 C27.390625,7.80475095 27.0390625,8.09493761 26.8378906,8.2952348 C26.4345703,8.49846317 26.1689453,8.63232031 25.7871094,8.82382397 L25.1728516,8.82382397 C24.9589844,9.01630468 24.9589844,9.01630468 25.03125,10.2425143 C25.1220703,10.3333808 25.2128906,10.4242474 25.3701172,10.5815539 L25.3701172,19.8939076 C25.8017578,19.9075865 25.8955078,19.554868 26.1103516,19.3838826 C26.3583984,19.1865166 26.6044922,18.963747 26.7832031,18.7048263 C26.9472656,18.4674008 27.0205078,18.1664665 27.2685547,17.5685061 L27.2685547,9.78622753 C27.4257812,9.62892096 27.515625,9.53805443 27.6279297,9.42569259 L27.6279297,8.41345899 C27.8671875,7.70704501 28.5966797,7.7842327 28.9394531,7.34455595 C29.3642578,7.65819203 29.9443359,7.72463208 30.3408203,8.28253303 L30.3408203,13.2704216 C30.7402344,13.58992 30.9912109,13.4208887 31.1972656,13.1502432 C31.6708984,12.5288334 31.8837891,11.7686812 32.2578125,11.0935331 C32.3447266,10.9362265 32.4355469,10.779897 32.5986328,10.4916645 L32.5986328,7.75882916 C32.8085938,7.28984062 32.9091797,6.93419097 33.1103516,6.64986667 C33.3291016,6.34209294 33.5976562,5.9864433 33.9248047,5.85844851 C34.2666016,5.72556842 34.5380859,5.45101472 34.8779297,5.38750585 C35.2441406,5.32008875 35.6474609,5.42072587 35.8837891,4.99961325 L38.1933594,4.99961325 C38.4277344,5.13542451 38.5751953,5.51256946 38.9755859,5.36894172 C39.28125,5.82132025 39.9521484,6.00793861 39.9365234,6.69578847 C40.390625,6.97620453 40.2783203,7.61520142 40.6884766,7.90147984 L40.6884766,10.7759888 C40.4892578,11.2146885 40.3662109,11.4833798 40.2158203,11.8136259 C39.8583984,12.1722067 39.4521484,12.5796405 39.0732422,12.9577625 C38.7675781,13.0916197 38.4970703,13.2108209 38.0292969,13.4160034 L35.9169922,13.4160034 C35.8173828,13.3280681 35.6767578,13.2049586 35.5166016,13.0652391 L34.7695312,13.0652391 C34.4335938,13.3202516 34.203125,13.6407271 34.0742187,14.0882203 C33.9775391,14.4253058 33.4404297,14.5288741 33.4140625,14.9626885 C33.3837891,15.4668512 32.8115234,15.5547866 32.6787109,15.971991 C32.7236328,16.0179128 32.7685547,16.1019399 32.8144531,16.1029169 C34.4746094,16.1097563 36.1357422,16.1087793 37.8320312,16.1087793 C37.9892578,16.2924665 38.1533203,16.4869013 38.3740234,16.7458221 L38.3740234,18.240723 C38.2548828,18.3687178 38.0859375,18.552405 37.859375,18.7976469 L34.0039063,18.7976469 C33.8466797,18.9549535 33.7558594,19.04582 33.6337891,19.1689295 L30.1572266,19.1689295 C29.6992187,19.7786146 28.9013672,20.1381725 28.7177734,21.0126407 C28.0302734,21.4757669 27.9785156,22.4166751 27.2695312,22.8543978 C27.3515625,22.9364708 27.3964844,23.0204979 27.4423828,23.021475 C31.40625,23.0273373 35.3710938,23.0263602 39.3505859,23.0263602 C39.5859375,22.7801413 39.9619141,22.6023164 39.9609375,22.2026991 C40.5556641,21.6076699 41.1386719,21.0243654 41.8027344,20.359965 L42.0205078,20.359965 C42.1669922,20.2261078 42.3046875,20.097136 42.4482422,19.9642559 L43.1943359,19.9642559 C43.3427734,19.8294217 43.4824219,19.703381 43.6787109,19.5236021 C43.875,19.6232622 44.0859375,19.7297616 44.4794922,19.9281047 L45.2324219,19.9281047 L47.6054688,22.3023592 L47.6054688,22.8182466 C47.7392578,22.9628514 47.8681641,23.1006168 48,23.2422904 L48,24.7713884 C47.5361328,24.9736398 47.7138672,25.569646 47.3271484,25.8432227 C46.9765625,26.0904187 46.7050781,26.4294583 46.7802734,26.8906304 L46.265625,26.8906304 C46.0322266,27.1231706 45.8066406,27.3498484 45.5800781,27.5765261 C45.2324219,27.837401 44.6181641,27.3312842 44.4658203,28.0103405 L40.8867188,28.0103405 C40.6875,27.9468317 40.5693359,27.509109 40.1103516,27.6752092 C39.8056641,27.3146742 39.4804687,26.9414375 39.1738281,26.5525678 C39.1064453,26.4665866 39.1064453,26.3278442 39.0742188,26.2125511 C36.2070313,26.012254 30.125,26.0571987 28.7949219,26.29267 C29.2646484,26.736255 29.7236328,27.1690924 30.09375,27.5198567 C30.4394531,27.7152686 30.6972656,27.8598734 31.0214844,28.0445376 L36.296875,28.0445376 C36.3955078,28.1422436 36.4853516,28.2331101 36.6181641,28.3659902 C37.3808594,28.5184115 38.2060547,28.3366784 38.9960938,28.4558797 C39.1914062,28.6434751 39.3759766,28.8203228 39.5556641,28.9922853 L39.5556641,29.3840861 C39.6484375,29.4769068 39.7392578,29.5667963 39.8916016,29.7201946 C39.6503906,30.1393531 39.3964844,30.5790299 39.1748047,30.9649683 C38.9833984,31.0314084 38.8710938,31.1046878 38.7597656,31.1046878 C37.1601563,31.1115273 35.5605469,31.106642 33.9609375,31.1134814 C33.7880859,31.1144584 33.6142578,31.1740591 33.4238281,31.2092332 C33.8681641,32.1677285 35.0039063,32.2322145 35.4794922,33.0285179 L39.3603516,33.0285179 C39.8994141,33.57274 40.4394531,34.1179392 40.9892578,34.672909 C41.0966797,34.9279215 41.2099609,35.198567 41.4326172,35.7291103 L41.4326172,37.7838663 C41.3193359,37.9704847 41.1660156,38.2215889 40.9482422,38.5782156 C40.3300781,39.1966943 39.6123047,39.91581 38.8134766,40.7140676 C38.71875,40.7140676 38.4628906,40.7140676 38.2070312,40.7150447 C38.1162109,40.8059112 38.0263672,40.8967777 37.8427734,41.0804649 C37.3857422,41.1498361 36.8222656,41.0579925 36.3085938,41.1068455 C35.8359375,40.7492418 35.8359375,40.7492418 35.3935547,40.7218841 C34.7460938,40.0731166 34.1650391,39.4927433 33.3056641,38.6319539 C33.3623047,38.7570175 33.2392578,38.4883262 33.0400391,38.0564659 L33.0400391,35.9333157 C33.1699219,35.7623303 33.3154297,35.5737578 33.4208984,35.4359924 C33.3105469,34.5634783 32.4667969,34.6523907 32.0751953,34.2039205 C31.7138672,33.7896472 31.3007813,33.4183646 30.9130859,33.030472 C30.8144531,33.129155 30.7294922,33.1750768 30.7294922,33.2200216 C30.7236328,35.0119486 30.7246094,36.8038757 30.7246094,38.4590144 C30.3457031,39.2338225 29.9941406,39.8904065 29.2597656,40.3720968 C28.7392578,40.1063366 28.0957031,39.914833 27.6503906,39.3657256 L27.6503906,29.3733385 C26.8408203,28.5662874 26.0263672,27.7523968 25.2070312,26.9433916 C25.1875,26.9248275 25.1201172,26.9551163 25.0742188,26.9629328 L25.0742188,26.9629328 Z" id="Fill-1" fill="#C7BC98" mask="url(#mask-2)"></path>
                    </g>
                    <g id="Group-3" transform="translate(0.000000, 100.000000)">
                        <mask id="mask-4" fill="white">
                            <use xlink:href="#path-3"></use>
                        </mask>
                        <g id="Clip-2"></g>
                        <path d="M13.2555542,24.6301423 C13.2061157,24.6878499 13.142395,24.7724876 13.0682373,24.8455839 C12.9160767,24.995074 12.916626,25.1363201 13.0709839,25.2786655 L13.706543,25.2786655 C13.8257446,25.0896045 14.0449219,25.0802614 14.2201538,24.9917764 C14.2498169,24.7944715 14.3404541,24.5900218 14.1525879,24.4174487 C14.0778809,24.4883465 14.0026245,24.5592444 13.9279175,24.6301423 L13.2555542,24.6301423 Z M5.58599854,6.77102204 L5.94195557,7.12661062 C6.05950928,7.12661062 6.23419189,7.17937183 6.3314209,7.11506911 C6.5022583,7.00295153 6.6763916,6.91611537 6.86535645,6.84741588 C6.88842773,6.83862235 6.89776611,6.79135709 6.90106201,6.78586114 L6.90106201,6.42697498 C6.69946289,6.19009913 6.54180908,6.0048853 6.41326904,5.85429601 C6.19244385,5.96696318 6.01721191,6.05654732 5.89361572,6.11920125 C5.77276611,6.37476337 5.67608643,6.57976266 5.58599854,6.77102204 L5.58599854,6.77102204 Z M21.600769,20.4163902 C21.4793701,20.2954791 21.3585205,20.1751176 21.2404175,20.057504 C20.8987427,20.2877847 20.4763184,20.300975 20.293396,20.7153704 C20.40271,20.9319112 20.5197144,21.1638407 20.6295776,21.3820302 L21.0514526,21.3820302 C21.2453613,21.194618 21.4249878,21.0214953 21.6002197,20.8516702 C21.6002197,20.7021801 21.6002197,20.5592851 21.600769,20.4163902 L21.600769,20.4163902 Z M25.324585,13.3375944 C25.1603394,13.1732652 24.9966431,12.9946465 24.8148193,12.8352637 C24.7450562,12.773709 24.6351929,12.7572211 24.7153931,12.7896472 C24.3896484,12.9935473 24.1501465,13.1441366 24.0007324,13.2375679 L24.0007324,13.9740265 C24.2583618,14.0965864 24.5033569,14.0306349 24.7456055,14.0300853 C24.913147,13.8113461 25.1856079,13.6788935 25.324585,13.3375944 L25.324585,13.3375944 Z M21.192627,5.81197712 C21.1415405,5.33547744 21.2003174,4.94856189 21.137146,4.51602988 C20.7619629,4.57428705 20.4180908,4.46821503 20.088501,4.59187412 C20.088501,4.92273088 20.086853,5.20632239 20.0912476,5.49046349 C20.0917969,5.51794329 20.131897,5.5437743 20.1533203,5.5701549 C20.2285767,5.64599915 20.303833,5.72129379 20.3944702,5.81197712 L21.192627,5.81197712 Z M2.48291016,13.1743644 C2.26812744,13.4475136 1.8682251,13.4090419 1.73144531,13.7316547 L1.73144531,14.6038635 C1.88525391,14.6687158 1.93359375,14.8825086 2.13684082,14.9088892 C2.34503174,14.8143587 2.55432129,14.7192786 2.76525879,14.6230993 C2.80041504,14.3021353 3.17724609,14.0592139 2.99047852,13.6816415 C2.8394165,13.5310522 2.68835449,13.3799133 2.48291016,13.1743644 L2.48291016,13.1743644 Z M6.15783691,20.7406518 L5.73156738,20.7406518 C5.55194092,20.9472999 5.30310059,21.0934924 5.16851807,21.3567488 C5.38220215,21.655729 5.39428711,22.0745211 5.74639893,22.2410487 L6.39129639,22.2410487 C6.55828857,22.00802 6.84777832,21.8920553 6.9175415,21.6590266 C6.91149902,21.5595497 6.92358398,21.5111853 6.90490723,21.492499 C6.65826416,21.2396849 6.40777588,20.9907179 6.15783691,20.7406518 L6.15783691,20.7406518 Z M13.2275391,1.72408248 C12.8369751,2.05713762 12.5667114,2.28686873 12.3074341,2.5072567 C12.3414917,2.6979665 12.2349243,2.89417225 12.4260864,3.02112891 L13.7131348,3.02112891 C13.793335,3.09532436 13.8707886,3.16787103 13.9603271,3.2525088 C14.052063,3.22722739 14.1481934,3.20139638 14.256958,3.1711686 C14.256958,2.79304659 14.2580566,2.43635883 14.2547607,2.08022065 C14.2542114,2.05164166 14.2212524,2.02306267 14.1937866,1.97964459 C14.1036987,1.8972052 14.0009766,1.8032243 13.9158325,1.72408248 L13.2275391,1.72408248 Z M14.104248,15.1666497 C14.083374,15.1941295 14.0438232,15.2216093 14.0438232,15.2490891 C14.0405273,16.3988438 14.0410767,17.5496977 14.0410767,18.6873613 C14.104248,18.7511145 14.1553345,18.8022269 14.2443237,18.8912614 L14.2443237,19.9712175 C14.3327637,20.0608016 14.3838501,20.1108148 14.4541626,20.1811631 L14.4541626,21.0841492 C14.3843994,21.1539479 14.333313,21.2045108 14.2695923,21.2682639 L14.2695923,22.1388239 C14.3195801,22.1932339 14.4459229,22.2685285 14.4492188,22.3493191 C14.4591064,22.5477232 14.5321655,22.7175484 14.6925659,22.7867975 C15.2962646,23.0489547 15.675293,23.5205081 15.9796143,24.1701305 L15.9796143,24.505384 C16.0543213,24.5861746 16.1262817,24.6636676 16.1982422,24.7411607 C16.1477051,24.7911739 16.097168,24.8422863 16.0059814,24.9335192 C16.0653076,25.2500865 15.8856812,25.5617074 15.7208862,25.8348566 C15.5725708,26.0810756 15.3539429,26.3360881 14.9935913,26.3981924 C14.8485718,26.4234739 14.7359619,26.6356179 14.6068726,26.7653225 C14.3822021,26.8213813 14.0987549,26.7153093 13.9465942,27 L12.2200928,27 C11.9009399,26.6757384 11.574646,26.3437824 11.2895508,26.0541454 C11.217041,25.8892666 11.163208,25.7672563 11.2011108,25.8535429 C10.9610596,25.4996031 11.034668,25.3171372 11.0198364,25.1451137 C11.0077515,25.0044171 11.0170898,24.8620718 11.0170898,24.8505303 C11.1384888,24.5845258 11.2077026,24.4328373 11.2922974,24.2470739 C11.6455078,23.8931341 12.027832,23.5117145 12.3980713,23.1407373 C12.5095825,23.1176542 12.6079102,23.0973192 12.7232666,23.073137 L12.7232666,20.1784151 C12.6617432,20.11741 12.6112061,20.0662976 12.5222168,19.977263 L12.5222168,18.464775 C12.4332275,18.3757404 12.3826904,18.324628 12.3134766,18.2553789 C12.3129272,17.6722576 12.3134766,17.0693509 12.3129272,16.4664441 C12.0053101,16.4395139 12.1585693,16.6511084 12.1118774,16.749486 C11.9053345,16.9484398 11.6037598,17.1144177 11.5169678,17.3567895 C11.413147,17.6480754 11.2060547,17.8102062 11.0258789,18.0465325 L11.0258789,18.682415 C11.0835571,18.7456185 11.1549683,18.8242107 11.2307739,18.9071997 L11.2307739,22.1520142 C11.0566406,22.316893 10.8737183,22.4889165 10.6710205,22.6801759 L10.0316162,22.6801759 C9.87835693,22.5136483 9.70806885,22.3289841 9.50537109,22.1096953 C9.50537109,21.4875527 9.50537109,20.8131984 9.50537109,20.1547825 C9.38067627,20.1245547 9.29058838,20.0723431 9.25378418,20.0981741 C8.97912598,20.2894335 8.59515381,20.3213101 8.40344238,20.7170192 C8.44903564,20.8027561 8.5111084,20.9203697 8.62097168,21.1275673 L8.62097168,22.114092 C8.41607666,22.3866916 8.30731201,22.7604169 8.00024414,23.013231 C7.7244873,23.2407637 7.48773193,23.5155617 7.23504639,23.7683758 C7.00708008,23.6853869 6.9274292,23.9052252 6.79724121,23.9733751 L5.36462402,23.9733751 C5.11193848,23.8425713 4.90429687,23.7821157 4.76202393,23.6507623 C4.57965088,23.4831355 4.38793945,23.3660716 4.16326904,23.2632972 C3.97924805,23.1781098 3.85125732,22.9709121 3.69909668,22.818674 C3.60241699,22.6048812 3.83148193,22.2789708 3.46398926,22.1943331 L3.46398926,21.0693102 C3.52770996,21.0017099 3.67712402,20.8983858 3.66119385,20.8522198 C3.55682373,20.5521404 4.02923584,20.4773953 3.90344238,20.1866591 L4.84057617,19.2490484 L5.41680908,19.2490484 C5.56292725,19.1545179 5.67608643,19.080872 5.83099365,18.9813952 C5.92987061,19.0462475 6.04138184,19.1204429 6.19189453,19.2193702 L7.02246094,19.2193702 C7.27734375,18.9506178 7.54815674,18.6648279 7.76403809,18.4367456 C8.09912109,18.3009954 8.39959717,18.4372952 8.66601562,18.2795611 C8.61218262,18.2267999 8.58691406,18.1789851 8.56164551,18.1789851 C7.77392578,18.1745883 6.98565674,18.1756875 6.27923584,18.1756875 C6.03918457,18.0932481 5.97106934,17.8503267 5.74365234,17.9327661 C5.62994385,17.7327132 5.50140381,17.5387058 5.40856934,17.3287602 C5.36846924,17.2380768 5.40197754,17.1155169 5.40197754,16.9264559 C5.55413818,16.8099416 5.75244141,16.6588027 6.06445312,16.4202781 L8.74731445,16.4202781 C8.83630371,16.3317931 8.88684082,16.2812303 8.95166016,16.216378 L10.1947632,16.216378 C10.7259521,15.9525719 10.7957153,15.3337269 11.2296753,15.019358 L11.2296753,14.8039164 C11.0786133,14.6258473 11.0286255,14.6274961 10.6726685,14.9176827 L7.22570801,14.9176827 C7.13671875,15.0067173 7.08618164,15.0572801 7.02850342,15.1155373 L4.66918945,15.1155373 C4.31488037,15.4810186 3.96551514,15.8415535 3.72216797,16.0932685 C3.43212891,16.2306675 3.28161621,16.3021149 3.04815674,16.4125837 L1.41064453,16.4125837 C1.34307861,16.3499298 1.265625,16.2773831 1.1854248,16.2026381 L0.995361328,16.2026381 C0.73059082,15.9382824 0.477355957,15.6843691 0.214233398,15.4211126 L0.214233398,15.0105645 C0.159851074,14.9556049 0.108764648,14.905042 0.00549316406,14.8011684 C-0.00549316406,14.3592933 0.00823974609,13.8613593 0,13.3744173 C0.0955810547,13.1886539 0.186767578,13.0111344 0.32244873,12.7489771 C0.55645752,12.5142997 0.861877441,12.2087243 1.11730957,11.9537118 C1.32769775,11.851487 1.47766113,11.7789403 1.70397949,11.6695707 L3.1239624,11.6695707 C3.25030518,11.9020498 3.57989502,11.8262055 3.71887207,12.0383496 C3.86444092,12.2598367 4.13635254,12.2653327 4.32037354,12.41867 L4.32037354,12.6462027 C4.44342041,12.7660146 4.59008789,12.8775826 4.69500732,13.0210271 C4.76971436,13.123252 4.78839111,13.2666965 4.83123779,13.3892564 L7.8782959,13.3892564 C7.95135498,13.3222057 8.02935791,13.249659 8.10900879,13.1754636 L11.3428345,13.1754636 C11.4466553,13.0721396 11.5482788,12.9704643 11.6350708,12.8830786 C11.2582397,12.5066053 10.8814087,12.1301321 10.3348389,11.5838337 C10.5078735,11.7030961 10.480957,11.6706699 10.4512939,11.6673723 C10.3804321,11.6591284 10.307373,11.6646243 10.2354126,11.6646243 C8.75994873,11.6646243 7.28448486,11.6646243 5.809021,11.6640747 C5.7755127,11.6640747 5.74200439,11.6536324 5.70849609,11.6475869 C5.42175293,11.4282981 5.36022949,11.0716103 5.17236328,10.7627374 C5.29211426,10.5071753 5.55194092,10.3631811 5.73376465,10.1493883 L8.53582764,10.1493883 C8.64074707,10.0449651 8.74237061,9.94274024 8.8560791,9.82897388 C8.51330566,9.43601278 7.90740967,9.36071814 7.71954346,8.83310603 C7.43609619,8.93588047 7.35919189,8.71164533 7.23010254,8.64954099 L6.57971191,8.64954099 C6.51873779,8.70999654 6.46820068,8.76110896 6.41711426,8.81222139 C5.94085693,9.08756895 5.56896973,8.57534553 5.11853027,8.63964826 C4.87902832,8.37859018 4.63842773,8.11643292 4.28686523,7.73336454 C4.29290771,7.74600525 4.22039795,7.59596556 4.11108398,7.36843284 L4.11108398,5.76526147 C4.20391846,5.60148187 4.28631592,5.45693814 4.42419434,5.21511592 C4.58734131,5.04309239 4.83453369,4.7842327 5.07843018,4.52812099 C5.31518555,4.61440756 5.38934326,4.38357726 5.54205322,4.31762575 L6.11004639,4.31762575 C6.20178223,4.25442221 6.31274414,4.17747878 6.42480469,4.10053535 C6.69836426,4.11482484 6.87744141,4.47041342 7.19824219,4.31762575 C7.56079102,4.60451483 8.11724854,4.67761109 8.2166748,5.26018279 C8.23205566,5.34976693 8.34521484,5.4223136 8.41882324,5.51024895 C8.42047119,5.53388157 8.42486572,5.56850612 8.42541504,5.60368026 C8.42596436,5.78394773 8.42541504,5.9636656 8.42541504,6.14338348 C8.49737549,6.2219757 8.56933594,6.30001832 8.64404297,6.38135852 L8.64404297,7.45362021 C8.87585449,7.6850001 9.11865234,7.9020905 9.33013916,8.14721029 C9.53613281,8.38518534 9.82781982,8.4582816 10.0980835,8.60887089 C10.2376099,8.2956012 10.0854492,7.97078999 10.1705933,7.68390091 C10.0958862,7.60915586 10.0447998,7.55859303 9.95581055,7.4690089 C9.89703369,6.9809677 9.97229004,6.44676044 9.92449951,5.92574348 C9.86682129,5.86748631 9.81573486,5.81692348 9.75091553,5.75097197 C9.89263916,5.5031042 10.0376587,5.25083966 10.1870728,4.99088078 L10.9621582,4.99088078 C11.0341187,5.11673825 11.1599121,5.33712622 11.2857056,5.55806379 C11.3296509,5.52124087 11.3741455,5.48496753 11.4180908,5.4486942 C11.4356689,5.61851935 11.4532471,5.78889409 11.4702759,5.95926883 C11.5213623,6.01038126 11.5724487,6.06149368 11.661438,6.14997863 L11.661438,7.66301626 C11.7498779,7.75150121 11.8009644,7.80261363 11.866333,7.86856515 L11.866333,9.96472408 C12.0184937,10.2329269 12.1514282,10.4665052 12.3112793,10.7484479 L12.3112793,11.1716368 C12.4249878,11.1936206 12.546936,11.2167036 12.6870117,11.2436338 C12.8111572,10.8852973 12.6925049,10.5632341 12.7584229,10.273597 C12.6853638,10.1999511 12.6348267,10.1493883 12.5837402,10.0988255 C12.5656128,10.0702465 12.5315552,10.0416675 12.5315552,10.0130885 C12.5288086,8.53687382 12.5293579,7.06065911 12.5282593,5.5844444 C12.5282593,5.55146864 12.5150757,5.51849289 12.5084839,5.48496753 C12.4573975,5.43385511 12.4068604,5.38329228 12.342041,5.31898956 C12.3250122,5.16345391 12.3057861,4.99362876 12.288208,4.83149795 C12.1283569,4.67431351 11.9382935,4.78917907 11.911377,4.78313351 C11.607605,4.62649867 11.4285278,4.53416655 11.25,4.44238403 C11.2439575,4.37258534 11.2384644,4.30278665 11.2318726,4.21924807 C11.0928955,4.07360515 10.946228,3.91916869 10.8061523,3.77132738 L10.8061523,1.91314349 C10.914917,1.68890834 10.9879761,1.53831905 11.0912476,1.32617502 C11.4208374,0.996417449 11.8026123,0.614448267 12.1948242,0.222036762 L12.6079102,0.222036762 C12.6914062,0.147291713 12.7694092,0.0769434323 12.8562012,0 L14.3580322,0 C14.4316406,0.0676003013 14.5096436,0.139047774 14.5903931,0.213792823 L14.7996826,0.213792823 C15.1072998,0.522116148 15.4121704,0.827141898 15.7120972,1.12722128 C15.7796631,1.28605451 15.8439331,1.43829259 15.9658813,1.72628086 L15.9658813,3.53939789 C15.8455811,3.73670283 15.7241821,3.98127303 15.5599365,4.19231787 C15.4072266,4.39017241 15.2094727,4.55340241 15.0963135,4.66606957 C14.8694458,4.78038553 14.7200317,4.85568018 14.505249,4.96340098 L14.159729,4.96340098 C14.0394287,5.07167138 14.0394287,5.07167138 14.0800781,5.76141429 C14.1311646,5.81252672 14.182251,5.86363914 14.2706909,5.95212409 L14.2706909,11.190323 C14.5134888,11.1980174 14.5662231,10.9996132 14.6870728,10.903434 C14.8265991,10.7924156 14.9650269,10.6671077 15.0655518,10.5214648 C15.1578369,10.387913 15.1990356,10.2186374 15.338562,9.88228469 L15.338562,5.50475299 C15.427002,5.41626804 15.4775391,5.36515562 15.5407104,5.30195208 L15.5407104,4.73257068 C15.675293,4.33521282 16.0856323,4.3786309 16.2784424,4.13131272 C16.517395,4.30773302 16.843689,4.34510554 17.0667114,4.65892483 L17.0667114,7.46461213 C17.2913818,7.64433 17.4325562,7.5492499 17.5484619,7.39701183 C17.8148804,7.04746881 17.9346313,6.61988316 18.1450195,6.24011236 C18.1939087,6.15162741 18.2449951,6.06369206 18.336731,5.90156126 L18.336731,4.3643414 C18.454834,4.10053535 18.5114136,3.90048242 18.6245728,3.74055 C18.7476196,3.56742728 18.8986816,3.36737436 19.0827026,3.29537729 C19.2749634,3.22063224 19.4276733,3.06619578 19.6188354,3.03047204 C19.8248291,2.99254992 20.0516968,3.0491583 20.1846313,2.81228245 L21.4837646,2.81228245 C21.6156006,2.88867629 21.6985474,3.10082032 21.9237671,3.02002972 C22.0957031,3.27449264 22.4730835,3.37946547 22.4642944,3.76638101 C22.7197266,3.92411505 22.6565552,4.2835508 22.8872681,4.44458241 L22.8872681,6.06149368 C22.7752075,6.30826226 22.7059937,6.45940114 22.6213989,6.64516457 C22.4203491,6.84686629 22.1918335,7.07604779 21.9786987,7.28874143 C21.8067627,7.36403607 21.6546021,7.43108678 21.3914795,7.54650192 L20.2033081,7.54650192 C20.1472778,7.49703829 20.0681763,7.4277892 19.9780884,7.34919698 L19.5578613,7.34919698 C19.3688965,7.49264152 19.2392578,7.67290899 19.166748,7.92462393 C19.1123657,8.11423453 18.8102417,8.17249171 18.7954102,8.4165123 C18.7783813,8.70010381 18.4564819,8.74956745 18.3817749,8.98424492 C18.4070435,9.01007593 18.432312,9.05734118 18.4581299,9.05789077 C19.3919678,9.06173794 20.326355,9.06118835 21.2805176,9.06118835 C21.3689575,9.16451239 21.4612427,9.27388198 21.5853882,9.4195249 L21.5853882,10.2604067 C21.5183716,10.3324038 21.4233398,10.4357278 21.2958984,10.5736764 L19.1271973,10.5736764 C19.0387573,10.6621613 18.9876709,10.7132738 18.9190063,10.7825228 L16.9634399,10.7825228 C16.7058105,11.1254707 16.257019,11.327722 16.1537476,11.8196104 C15.7670288,12.0801189 15.737915,12.6093798 15.3391113,12.8555988 C15.3852539,12.9017648 15.4105225,12.9490301 15.4363403,12.9495797 C17.6660156,12.9528772 19.8962402,12.9523276 22.1347046,12.9523276 C22.2670898,12.8138295 22.4785767,12.713803 22.4780273,12.4890183 C22.812561,12.1543143 23.1405029,11.8262055 23.5140381,11.4524803 L23.6365356,11.4524803 C23.7189331,11.3771857 23.7963867,11.304639 23.8771362,11.2298939 L24.296814,11.2298939 C24.3803101,11.1540497 24.4588623,11.0831518 24.5692749,10.9820262 C24.6796875,11.038085 24.7983398,11.0979909 25.0197144,11.2095589 L25.4432373,11.2095589 L26.7780762,12.545077 L26.7780762,12.8352637 C26.8533325,12.9166039 26.9258423,12.9940969 27,13.0737883 L27,13.933906 C26.7390747,14.0476724 26.8390503,14.3829259 26.621521,14.5368128 C26.4243164,14.6758605 26.2716064,14.8665703 26.3139038,15.1259796 L26.0244141,15.1259796 C25.8931274,15.2567834 25.7662354,15.3842897 25.6387939,15.511796 C25.4432373,15.6585381 25.0977173,15.3738474 25.0120239,15.7558166 L22.9987793,15.7558166 C22.8867188,15.7200928 22.8202515,15.4738738 22.5620728,15.5673051 C22.390686,15.3645042 22.2077637,15.1545586 22.0352783,14.9358194 C21.9973755,14.887455 21.9973755,14.8094123 21.979248,14.74456 C20.3664551,14.6318928 16.9453125,14.6571743 16.1971436,14.7896269 C16.4613647,15.0391434 16.7195435,15.2826144 16.9277344,15.4799194 C17.1221924,15.5898386 17.2672119,15.6711788 17.449585,15.7750524 L20.4169922,15.7750524 C20.4724731,15.830012 20.5230103,15.8811244 20.5977173,15.9558695 C21.0267334,16.0416064 21.4909058,15.9393816 21.9353027,16.0064323 C22.045166,16.1119547 22.1489868,16.2114316 22.250061,16.3081605 L22.250061,16.5285485 C22.3022461,16.5807601 22.3533325,16.6313229 22.4390259,16.7176095 C22.3033447,16.9533861 22.1605225,17.2007043 22.0358276,17.4177947 C21.9281616,17.4551672 21.8649902,17.4963869 21.8023682,17.4963869 C20.9025879,17.5002341 20.0028076,17.4974861 19.1030273,17.5013333 C19.0057983,17.5018829 18.90802,17.5354082 18.8009033,17.5551937 C19.0508423,18.0943473 19.6896973,18.1306206 19.9572144,18.5785413 L22.1401978,18.5785413 C22.4434204,18.8846663 22.7471924,19.1913408 23.0564575,19.5035113 C23.1168823,19.6469558 23.180603,19.7991939 23.3058472,20.0976245 L23.3058472,21.2534248 C23.2421265,21.3583976 23.1558838,21.4996438 23.0333862,21.7002463 C22.6856689,22.0481405 22.2819214,22.4526431 21.8325806,22.901663 C21.7792969,22.901663 21.635376,22.901663 21.4914551,22.9022126 C21.4403687,22.9533251 21.3898315,23.0044375 21.2865601,23.1077615 C21.02948,23.1467828 20.7125244,23.0951208 20.423584,23.1226006 C20.1577148,22.9214485 20.1577148,22.9214485 19.9088745,22.9060598 C19.5446777,22.5411281 19.2178345,22.2146681 18.734436,21.7304741 C18.7662964,21.8008224 18.6970825,21.6496835 18.585022,21.4067621 L18.585022,20.2124901 C18.6580811,20.1163108 18.7399292,20.0102388 18.7992554,19.9327457 C18.7371826,19.4419566 18.2625732,19.4919698 18.0422974,19.2397053 C17.8390503,19.0066766 17.6066895,18.7978301 17.3886108,18.5796405 C17.3331299,18.6351497 17.2853394,18.6609807 17.2853394,18.6862621 C17.2820435,19.6942211 17.2825928,20.7021801 17.2825928,21.6331956 C17.069458,22.0690252 16.8717041,22.4383537 16.4586182,22.7093045 C16.1658325,22.5598144 15.803833,22.4520936 15.5533447,22.1432206 L15.5533447,16.5225029 C15.0979614,16.0685366 14.6398315,15.6107232 14.1789551,15.1556578 C14.1679688,15.1452155 14.1300659,15.1622529 14.104248,15.1666497 L14.104248,15.1666497 Z" id="Fill-1" fill="#C7BC98" mask="url(#mask-4)"></path>
                    </g>
                    <g id="Group-3-Copy-3" transform="translate(67.000000, 80.000000)">
                        <mask id="mask-6" fill="white">
                            <use xlink:href="#path-5"></use>
                        </mask>
                        <g id="Clip-2"></g>
                        <path d="M7.85514323,14.5956399 C7.82584635,14.629837 7.78808594,14.6799927 7.74414062,14.723309 C7.65397135,14.8118957 7.65429687,14.8955971 7.74576823,14.9799499 L8.12239583,14.9799499 C8.19303385,14.8679138 8.32291667,14.8623771 8.42675781,14.8099416 C8.44433594,14.6930201 8.49804688,14.5718648 8.38671875,14.4695992 C8.34244792,14.5116128 8.29785156,14.5536263 8.25358073,14.5956399 L7.85514323,14.5956399 Z M3.31022135,4.01245751 L3.52115885,4.22317666 C3.59082031,4.22317666 3.69433594,4.25444257 3.75195312,4.21633725 C3.8531901,4.14989721 3.95638021,4.09843874 4.06835937,4.05772793 C4.08203125,4.05251695 4.0875651,4.02450791 4.08951823,4.02125104 L4.08951823,3.80857777 C3.97005208,3.66820689 3.8766276,3.55845055 3.80045573,3.46921245 C3.66959635,3.53597818 3.56575521,3.58906508 3.49251302,3.62619334 C3.42089844,3.77763755 3.36360677,3.89911861 3.31022135,4.01245751 L3.31022135,4.01245751 Z M12.8004557,12.0986016 C12.7285156,12.0269506 12.656901,11.9556252 12.5869141,11.8859283 C12.3844401,12.0223909 12.1341146,12.0302074 12.0257161,12.275775 C12.0904948,12.4040955 12.1598307,12.5415352 12.2249349,12.6708327 L12.4749349,12.6708327 C12.5898437,12.5597736 12.6962891,12.4571824 12.8001302,12.3565453 C12.8001302,12.2679586 12.8001302,12.1832801 12.8004557,12.0986016 L12.8004557,12.0986016 Z M15.0071615,7.90375964 C14.9098307,7.80637938 14.8128255,7.70053128 14.7050781,7.6060822 C14.663737,7.56960531 14.5986328,7.55983471 14.6461589,7.57905022 C14.453125,7.6998799 14.3111979,7.789118 14.2226562,7.8444847 L14.2226562,8.28090459 C14.3753255,8.35353268 14.5205078,8.3144503 14.6640625,8.31412462 C14.7633464,8.18450139 14.9248047,8.10601095 15.0071615,7.90375964 L15.0071615,7.90375964 Z M12.5585937,3.44413459 C12.5283203,3.16176441 12.563151,2.93248112 12.5257161,2.67616586 C12.3033854,2.71068862 12.0996094,2.64783113 11.9042969,2.72111059 C11.9042969,2.91717386 11.9033203,3.08522808 11.9059245,3.253608 C11.90625,3.26989232 11.930013,3.28519958 11.9427083,3.30083254 C11.9873047,3.34577727 12.031901,3.39039632 12.085612,3.44413459 L12.5585937,3.44413459 Z M1.47135417,7.80703076 C1.34407552,7.96889694 1.10709635,7.94609889 1.02604167,8.13727685 L1.02604167,8.65414131 C1.1171875,8.69257231 1.14583333,8.81926436 1.26627604,8.83489731 C1.38964844,8.77887923 1.51367187,8.72253547 1.63867187,8.66554033 C1.65950521,8.47533943 1.8828125,8.331386 1.77213542,8.10763938 C1.68261719,8.01840129 1.59309896,7.9288375 1.47135417,7.80703076 L1.47135417,7.80703076 Z M3.64908854,12.2907566 L3.39648437,12.2907566 C3.29003906,12.4132147 3.14257812,12.4998473 3.06282552,12.6558512 C3.18945312,12.8330246 3.19661458,13.0811977 3.40527344,13.1798807 L3.7874349,13.1798807 C3.88639323,13.0417896 4.05794271,12.9730698 4.09928385,12.8349787 C4.09570312,12.7760295 4.10286458,12.7473691 4.09179688,12.7362957 C3.94563802,12.5864799 3.79720052,12.438944 3.64908854,12.2907566 L3.64908854,12.2907566 Z M7.83854167,1.02167851 C7.60709635,1.21904452 7.4469401,1.35518147 7.29329427,1.48578175 C7.31347656,1.59879496 7.25032552,1.71506504 7.36360677,1.79029861 L8.12630208,1.79029861 C8.17382812,1.83426629 8.21972656,1.87725691 8.27278646,1.92741262 C8.32714844,1.91243105 8.38411458,1.89712378 8.44856771,1.87921102 C8.44856771,1.65513872 8.44921875,1.44376819 8.44726562,1.23272335 C8.4469401,1.21578765 8.42740885,1.19885196 8.41113281,1.17312272 C8.3577474,1.12426975 8.296875,1.06857736 8.24641927,1.02167851 L7.83854167,1.02167851 Z M8.35807292,8.98764427 C8.34570312,9.00392859 8.32226562,9.02021292 8.32226562,9.03649724 C8.3203125,9.71783337 8.32063802,10.3998209 8.32063802,11.0739919 C8.35807292,11.1117715 8.38834635,11.1420604 8.44108073,11.1948216 L8.44108073,11.8347955 C8.49348958,11.8878824 8.52376302,11.9175199 8.56542969,11.9592078 L8.56542969,12.4943107 C8.52408854,12.5356728 8.4938151,12.565636 8.45605469,12.6034156 L8.45605469,13.119303 C8.48567708,13.151546 8.56054688,13.196165 8.5625,13.244041 C8.56835938,13.3616138 8.61165365,13.4622509 8.70670573,13.5032874 C9.06445312,13.6586399 9.2890625,13.9380789 9.46940104,14.3230403 L9.46940104,14.521709 C9.51367188,14.569585 9.5563151,14.6155067 9.59895833,14.6614285 C9.56901042,14.691066 9.5390625,14.7213549 9.48502604,14.7754188 C9.52018229,14.9630142 9.41373698,15.1476785 9.31608073,15.3095446 C9.2281901,15.4554522 9.09863281,15.6065707 8.88509115,15.6433733 C8.79915365,15.6583549 8.73242188,15.7840699 8.65592448,15.8609319 C8.52278646,15.8941519 8.35481771,15.8312944 8.26464844,16 L7.24153646,16 C7.05240885,15.807845 6.85904948,15.6111303 6.69010417,15.4394936 C6.64713542,15.3417876 6.61523438,15.2694852 6.63769531,15.320618 C6.49544271,15.1108759 6.5390625,15.002748 6.53027344,14.9008081 C6.52311198,14.8174324 6.52864583,14.7330796 6.52864583,14.7262402 C6.60058594,14.5686079 6.64160156,14.4787184 6.69173177,14.3686364 C6.90104167,14.1588943 7.12760417,13.9328679 7.34700521,13.7130295 C7.41308594,13.6993507 7.47135417,13.6873003 7.53971354,13.6729701 L7.53971354,11.9575793 C7.50325521,11.9214281 7.47330729,11.8911393 7.42057292,11.8383781 L7.42057292,10.9420889 C7.36783854,10.8893277 7.33789062,10.8590388 7.296875,10.8180023 C7.29654948,10.472449 7.296875,10.1151709 7.29654948,9.75789281 C7.11425781,9.74193417 7.20507812,9.86732347 7.17740885,9.92562135 C7.05501302,10.0435199 6.87630208,10.1418772 6.82486979,10.2855049 C6.76334635,10.4581188 6.640625,10.5541963 6.53385417,10.6942415 L6.53385417,11.0710607 C6.56803385,11.1085147 6.61035156,11.1550878 6.65527344,11.2042665 L6.65527344,13.1271195 C6.55208333,13.2248255 6.4436849,13.3267653 6.32356771,13.4401042 L5.94466146,13.4401042 C5.85384115,13.3414212 5.75292969,13.2319906 5.6328125,13.1020416 C5.6328125,12.7333645 5.6328125,12.3337472 5.6328125,11.9435748 C5.55891927,11.9256621 5.50553385,11.8947218 5.48372396,11.9100291 C5.32096354,12.023368 5.09342448,12.0422578 4.97981771,12.2767521 C5.00683594,12.3275592 5.04361979,12.3972561 5.10872396,12.5200399 L5.10872396,13.1046471 C4.98730469,13.2661876 4.92285156,13.4876544 4.74088542,13.6374702 C4.57747396,13.7723044 4.43717448,13.9351477 4.2874349,14.0849635 C4.15234375,14.0357848 4.10514323,14.1660594 4.02799479,14.2064445 L3.17903646,14.2064445 C3.02929687,14.1289311 2.90625,14.0931056 2.8219401,14.0152666 C2.71386719,13.9159322 2.60026042,13.846561 2.4671224,13.7856576 C2.35807292,13.7351762 2.28222656,13.6123924 2.19205729,13.5221772 C2.13476562,13.3954852 2.27050781,13.2023531 2.05273438,13.1521974 L2.05273438,12.4855171 C2.09049479,12.4454577 2.17903646,12.3842286 2.16959635,12.356871 C2.1077474,12.1790461 2.38769531,12.1347528 2.31315104,11.9624646 L2.86848958,11.4068435 L3.20996094,11.4068435 C3.29654948,11.3508254 3.36360677,11.3071834 3.45540365,11.2482342 C3.5139974,11.2866652 3.58007812,11.3306328 3.66927083,11.3892564 L4.16145833,11.3892564 C4.3125,11.2299957 4.47298177,11.0606388 4.60091146,10.9254789 C4.79947917,10.8450343 4.97753906,10.9258045 5.13541667,10.8323325 C5.10351562,10.8010666 5.08854167,10.7727319 5.07356771,10.7727319 C4.60677083,10.7701264 4.13964844,10.7707778 3.72102865,10.7707778 C3.57877604,10.7219248 3.53841146,10.5779714 3.40364583,10.6268244 C3.33626302,10.5082745 3.26009115,10.3933071 3.20507812,10.2688949 C3.1813151,10.2151566 3.20117188,10.1425285 3.20117188,10.0304924 C3.29134115,9.96144686 3.40885417,9.87188308 3.59375,9.73053514 L5.18359375,9.73053514 C5.23632813,9.67809962 5.26627604,9.64813646 5.3046875,9.60970546 L6.04134115,9.60970546 C6.35611979,9.45337594 6.39746094,9.08665296 6.6546224,8.90036029 L6.6546224,8.77269119 C6.56510417,8.66716877 6.53548177,8.66814583 6.32454427,8.84010829 L4.28190104,8.84010829 C4.22916667,8.8928695 4.19921875,8.92283266 4.16503906,8.95735543 L2.76692708,8.95735543 C2.55696615,9.17393694 2.3499349,9.38758727 2.20572917,9.53675168 C2.03385417,9.61817331 1.94466146,9.66051255 1.8063151,9.72597553 L0.8359375,9.72597553 C0.795898438,9.68884727 0.75,9.64585666 0.702473958,9.6015633 L0.58984375,9.6015633 C0.432942708,9.4449081 0.282877604,9.29444094 0.126953125,9.13843711 L0.126953125,8.89514931 C0.0947265625,8.86258066 0.064453125,8.8326175 0.00325520833,8.77106276 C-0.00325520833,8.50921082 0.0048828125,8.21413886 0,7.92558064 C0.056640625,7.81549861 0.110677083,7.71030187 0.191080729,7.55494942 C0.329752604,7.41588129 0.510742187,7.2347996 0.662109375,7.08368107 C0.786783854,7.02310339 0.875651042,6.98011277 1.00976562,6.91530116 L1.85123698,6.91530116 C1.92610677,7.05306654 2.12141927,7.00812181 2.20377604,7.13383679 C2.29003906,7.26508844 2.45117188,7.26834531 2.56022135,7.35921184 L2.56022135,7.49404604 C2.63313802,7.5650457 2.72005208,7.63116005 2.78222656,7.71616423 C2.8264974,7.77674191 2.8375651,7.86174609 2.86295573,7.93437417 L4.66861979,7.93437417 C4.71191406,7.89464042 4.75813802,7.85164981 4.80533854,7.80768213 L6.72167969,7.80768213 C6.78320312,7.74645307 6.84342448,7.68620107 6.89485677,7.63441692 C6.67154948,7.41132168 6.44824219,7.18822643 6.12434896,6.86449407 C6.22688802,6.93516803 6.2109375,6.91595253 6.19335938,6.91399841 C6.15136719,6.90911311 6.10807292,6.91236998 6.06542969,6.91236998 C5.19108073,6.91236998 4.31673177,6.91236998 3.44238281,6.91204429 C3.42252604,6.91204429 3.40266927,6.90585625 3.3828125,6.9022737 C3.21289062,6.77232479 3.17643229,6.56095426 3.06510417,6.37791846 C3.13606771,6.22647424 3.29003906,6.14114438 3.39778646,6.01445234 L5.05826823,6.01445234 C5.12044271,5.95257191 5.18066406,5.89199422 5.24804688,5.82457712 C5.04492188,5.59171128 4.6858724,5.54709223 4.57454427,5.2344332 C4.40657552,5.29533658 4.3610026,5.16245649 4.28450521,5.12565392 L3.89908854,5.12565392 C3.86295573,5.16147943 3.83300781,5.19176827 3.80273438,5.22205712 C3.52050781,5.38522605 3.30013021,5.08168624 3.03320312,5.11979156 C2.89127604,4.96509048 2.74869792,4.80973803 2.54036458,4.58273455 C2.54394531,4.59022533 2.50097656,4.50131292 2.43619792,4.36647872 L2.43619792,3.41645124 C2.49121094,3.31939667 2.54003906,3.23374112 2.62174479,3.09043907 C2.71842448,2.9884992 2.86490885,2.83510086 3.0094401,2.68333096 C3.14973958,2.73446374 3.1936849,2.59767541 3.28417969,2.55859303 L3.62076823,2.55859303 C3.67513021,2.52113909 3.74088542,2.47554298 3.80729167,2.42994687 C3.96940104,2.43841472 4.07552083,2.64913388 4.265625,2.55859303 C4.48046875,2.72860138 4.81022135,2.77191768 4.86914062,3.11714536 C4.87825521,3.17023226 4.9453125,3.21322287 4.98893229,3.26533271 C4.98990885,3.27933723 4.99251302,3.29985548 4.99283854,3.32069941 C4.99316406,3.42752458 4.99283854,3.53402406 4.99283854,3.64052354 C5.03548177,3.68709671 5.078125,3.73334419 5.12239583,3.78154579 L5.12239583,4.41696012 C5.25976562,4.55407413 5.40364583,4.6827203 5.52897135,4.82797647 C5.65104167,4.96899872 5.82389323,5.01231502 5.98404948,5.10155312 C6.06673177,4.91591182 5.9765625,4.72343111 6.02701823,4.55342276 C5.9827474,4.5091294 5.95247396,4.47916624 5.89973958,4.42607935 C5.86490885,4.13686975 5.90950521,3.82030248 5.8811849,3.51155169 C5.84700521,3.47702893 5.81673177,3.44706577 5.77832031,3.40798339 C5.86230469,3.26109878 5.94824219,3.11160869 6.03678385,2.95755898 L6.49609375,2.95755898 C6.53873698,3.03214119 6.61328125,3.16274147 6.68782552,3.29366743 C6.71386719,3.27184644 6.74023438,3.25035113 6.76627604,3.22885582 C6.77669271,3.32949295 6.78710938,3.43045576 6.79720052,3.53141857 C6.82747396,3.56170741 6.8577474,3.59199625 6.91048177,3.64443178 L6.91048177,4.54104667 C6.96289062,4.5934822 6.99316406,4.62377104 7.03190104,4.66285342 L7.03190104,5.90502168 C7.12207031,6.06395668 7.20084635,6.20237344 7.29557292,6.36945061 L7.29557292,6.6202292 C7.36295573,6.63325666 7.43522135,6.64693549 7.51822917,6.66289413 C7.59179688,6.45054654 7.52148438,6.25969426 7.56054687,6.08805748 C7.5172526,6.04441549 7.48730469,6.01445234 7.45703125,5.98448918 C7.44628906,5.96755348 7.42610677,5.95061779 7.42610677,5.93368209 C7.42447917,5.05888819 7.42480469,4.18409429 7.42415365,3.30930038 C7.42415365,3.2897592 7.41634115,3.27021801 7.4124349,3.25035113 C7.38216146,3.22006229 7.35221354,3.19009913 7.31380208,3.15199381 C7.30371094,3.05982454 7.29231771,2.95918741 7.28190104,2.8631099 C7.18717448,2.76996356 7.07454427,2.83803204 7.05859375,2.83444949 C6.87858073,2.74162884 6.77246094,2.68691351 6.66666667,2.63252387 C6.66308594,2.59116168 6.65983073,2.5497995 6.65592448,2.50029515 C6.57356771,2.41398823 6.48665365,2.32247033 6.40364583,2.23486067 L6.40364583,1.13371466 C6.46809896,1.00083457 6.51139323,0.911596474 6.57259115,0.785881491 C6.76790365,0.590469599 6.99414062,0.364117491 7.2265625,0.13157734 L7.47135417,0.13157734 C7.52083333,0.0872839783 7.56705729,0.045596108 7.61848958,0 L8.50846354,0 C8.55208333,0.0400594378 8.59830729,0.082398681 8.64615885,0.126692043 L8.77018229,0.126692043 C8.95247396,0.309402162 9.13313802,0.490158161 9.3108724,0.667982983 C9.35091146,0.762106377 9.3889974,0.852321534 9.46126302,1.02298125 L9.46126302,2.09742097 C9.38997396,2.21434242 9.31803385,2.3592729 9.22070312,2.48433652 C9.13020833,2.60158365 9.01302083,2.69831254 8.94596354,2.76507827 C8.81152344,2.83282106 8.72298177,2.8774401 8.59570312,2.94127466 L8.39095052,2.94127466 C8.31966146,3.00543489 8.31966146,3.00543489 8.34375,3.41417143 C8.37402344,3.44446028 8.40429688,3.47474912 8.45670573,3.52718464 L8.45670573,6.63130254 C8.60058594,6.63586215 8.63183594,6.51828933 8.70345052,6.4612942 C8.78613281,6.39550553 8.86816406,6.32124901 8.92773438,6.23494209 C8.98242188,6.15580027 9.00683594,6.05548884 9.08951823,5.85616871 L9.08951823,3.26207584 C9.14192708,3.20964032 9.171875,3.17935148 9.2093099,3.14189753 L9.2093099,2.80448633 C9.2890625,2.569015 9.53222656,2.59474423 9.64648438,2.44818532 C9.78808594,2.55273068 9.98144531,2.57487736 10.1136068,2.76084434 L10.1136068,4.42347385 C10.2467448,4.52997333 10.3304036,4.47362957 10.3990885,4.38341442 C10.5569661,4.17627781 10.6279297,3.92289372 10.7526042,3.69784436 C10.7815755,3.64540884 10.811849,3.593299 10.8662109,3.49722149 L10.8662109,2.58627639 C10.9361979,2.42994687 10.9697266,2.31139699 11.0367839,2.21662222 C11.1097005,2.11403098 11.1992187,1.9954811 11.3082682,1.95281617 C11.4222005,1.90852281 11.5126953,1.81700491 11.6259766,1.79583528 C11.7480469,1.77336292 11.882487,1.80690862 11.961263,1.66653775 L12.7311198,1.66653775 C12.8092448,1.71180817 12.8583984,1.83752315 12.991862,1.78964724 C13.09375,1.94044008 13.3173828,2.0026462 13.3121745,2.23192949 C13.4635417,2.32540151 13.4261068,2.53840047 13.5628255,2.63382661 L13.5628255,3.59199625 C13.4964193,3.73822949 13.4554036,3.82779327 13.4052734,3.9378753 C13.2861328,4.05740224 13.1507161,4.19321351 13.0244141,4.31925418 C12.922526,4.36387323 12.8323568,4.40360698 12.6764323,4.47200114 L11.9723307,4.47200114 C11.9391276,4.44268936 11.8922526,4.40165286 11.8388672,4.35507969 L11.5898438,4.35507969 C11.4778646,4.44008386 11.4010417,4.54690903 11.3580729,4.69607344 C11.3258464,4.80843528 11.1468099,4.84295805 11.1380208,4.98756285 C11.1279297,5.15561707 10.9371745,5.18492886 10.8929036,5.32399699 C10.9078776,5.33930425 10.9228516,5.36731329 10.938151,5.36763898 C11.4915365,5.36991878 12.0452474,5.3695931 12.6106771,5.3695931 C12.6630859,5.43082215 12.7177734,5.49563377 12.7913411,5.58194068 L12.7913411,6.08024101 C12.7516276,6.12290594 12.6953125,6.184135 12.6197917,6.26588231 L11.3346354,6.26588231 C11.2822266,6.31831783 11.2519531,6.34860667 11.211263,6.38964317 L10.0524089,6.38964317 C9.89973958,6.59287154 9.63378906,6.71272416 9.57259115,7.00421357 C9.34342448,7.15858896 9.32617188,7.47222505 9.08984375,7.6181326 C9.1171875,7.64549026 9.13216146,7.6734993 9.14746094,7.67382498 C10.46875,7.6757791 11.7903646,7.67545342 13.116862,7.67545342 C13.1953125,7.59338042 13.320638,7.53410548 13.3203125,7.40089971 C13.5185547,7.20255664 13.7128906,7.00812181 13.9342448,6.786655 L14.0068359,6.786655 C14.0556641,6.74203595 14.1015625,6.69904533 14.1494141,6.65475197 L14.398112,6.65475197 C14.4475911,6.60980723 14.4941406,6.56779368 14.5595703,6.50786736 C14.625,6.54108739 14.6953125,6.57658721 14.8264974,6.64270157 L15.077474,6.64270157 L15.8684896,7.43411973 L15.8684896,7.6060822 C15.9130859,7.6542838 15.9560547,7.70020559 16,7.74743013 L16,8.25712948 C15.8453776,8.32454658 15.9046224,8.52321534 15.7757161,8.61440756 C15.6588542,8.69680624 15.5683594,8.80981945 15.5934245,8.96354347 L15.421875,8.96354347 C15.3440755,9.04105685 15.2688802,9.11661612 15.1933594,9.19217538 C15.077474,9.27913367 14.8727214,9.11042807 14.8219401,9.33678018 L13.6289063,9.33678018 C13.5625,9.31561056 13.523112,9.16970301 13.3701172,9.22506972 C13.2685547,9.1048914 13.1601562,8.98047917 13.0579427,8.85085594 C13.0354818,8.82219553 13.0354818,8.77594805 13.0247396,8.73751705 C12.0690104,8.67075132 10.0416667,8.6857329 9.59830729,8.76422334 C9.75488281,8.912085 9.9078776,9.05636412 10.03125,9.17328557 C10.1464844,9.23842286 10.2324219,9.28662446 10.3404948,9.34817921 L12.0989583,9.34817921 C12.1318359,9.38074786 12.1617839,9.4110367 12.2060547,9.45533006 C12.4602865,9.50613715 12.7353516,9.44555947 12.9986979,9.48529322 C13.0638021,9.54782502 13.1253255,9.60677428 13.1852214,9.6640951 L13.1852214,9.79469538 C13.2161458,9.8256356 13.2464193,9.85559875 13.2972005,9.90673153 C13.2167969,10.046451 13.1321615,10.19301 13.0582682,10.3216561 C12.9944661,10.3438028 12.9570312,10.3682293 12.9199219,10.3682293 C12.3867188,10.3705091 11.8535156,10.3688807 11.3203125,10.3711605 C11.2626953,10.3714861 11.2047526,10.391353 11.141276,10.4030777 C11.289388,10.7225762 11.6679688,10.7440715 11.8264974,11.009506 L13.1201172,11.009506 C13.2998047,11.1909133 13.4798177,11.3726464 13.6630859,11.5576363 C13.6988932,11.6426405 13.7366536,11.7328557 13.8108724,11.9097034 L13.8108724,12.5946221 C13.773112,12.6568282 13.7220052,12.7405296 13.6494141,12.8594052 C13.4433594,13.0655648 13.2041016,13.30527 12.9378255,13.5713559 C12.90625,13.5713559 12.8209635,13.5713559 12.7356771,13.5716816 C12.7054036,13.6019704 12.6754557,13.6322592 12.6142578,13.6934883 C12.4619141,13.716612 12.2740885,13.6859975 12.1028646,13.7022818 C11.9453125,13.5830806 11.9453125,13.5830806 11.7978516,13.5739614 C11.5820312,13.3577055 11.3883464,13.1642478 11.101888,12.877318 C11.1207682,12.9190058 11.0797526,12.8294421 11.0133464,12.6854886 L11.0133464,11.9777719 C11.0566406,11.9207768 11.1051432,11.8579193 11.1402995,11.8119975 C11.1035156,11.5211594 10.8222656,11.5507969 10.6917318,11.4013068 C10.5712891,11.2632157 10.4335938,11.1394549 10.304362,11.0101573 C10.2714844,11.0430517 10.2431641,11.0583589 10.2431641,11.0733405 C10.2412109,11.6706495 10.2415365,12.2679586 10.2415365,12.8196715 C10.1152344,13.0779408 9.99804688,13.2968022 9.75325521,13.4573656 C9.5797526,13.3687789 9.36523438,13.3049443 9.21679688,13.1219085 L9.21679688,9.79111283 C8.9469401,9.52209579 8.67545573,9.25079895 8.40234375,8.98113054 C8.39583333,8.9749425 8.3733724,8.98503878 8.35807292,8.98764427 L8.35807292,8.98764427 Z" id="Fill-1" fill="#C7BC98" mask="url(#mask-6)"></path>
                    </g>
                    <g id="Group-3" transform="translate(200.000000, 101.000000)">
                        <mask id="mask-8" fill="white">
                            <use xlink:href="#path-7"></use>
                        </mask>
                        <g id="Clip-2"></g>
                        <path d="M8.83703613,16.4200949 C8.80407715,16.4585666 8.76159668,16.5149918 8.7121582,16.5637226 C8.61071777,16.6633827 8.61108398,16.7575468 8.71398926,16.8524437 L9.13769531,16.8524437 C9.21716309,16.726403 9.36328125,16.7201742 9.48010254,16.6611843 C9.49987793,16.5296476 9.56030273,16.3933479 9.43505859,16.2782991 C9.38525391,16.3255644 9.33508301,16.3728296 9.28527832,16.4200949 L8.83703613,16.4200949 Z M3.72399902,4.5140147 L3.96130371,4.75107375 C4.03967285,4.75107375 4.15612793,4.78624789 4.22094727,4.7433794 C4.33483887,4.66863436 4.45092773,4.61074358 4.5769043,4.56494392 C4.59228516,4.55908156 4.59851074,4.5275714 4.60070801,4.52390742 L4.60070801,4.28464999 C4.46630859,4.12673275 4.36120605,4.00325686 4.2755127,3.90286401 C4.1282959,3.97797545 4.01147461,4.03769821 3.92907715,4.0794675 C3.84851074,4.24984225 3.78405762,4.38650844 3.72399902,4.5140147 L3.72399902,4.5140147 Z M14.4005127,13.6109268 C14.3195801,13.5303194 14.2390137,13.4500784 14.1602783,13.3716693 C13.9324951,13.5251898 13.6508789,13.5339833 13.5289307,13.8102469 C13.6018066,13.9546074 13.6798096,14.1092271 13.7530518,14.2546868 L14.0343018,14.2546868 C14.1635742,14.1297454 14.2833252,14.0143302 14.4001465,13.9011134 C14.4001465,13.8014534 14.4001465,13.7061901 14.4005127,13.6109268 L14.4005127,13.6109268 Z M16.8830566,8.8917296 C16.7735596,8.78217681 16.6644287,8.66309769 16.5432129,8.55684247 C16.4967041,8.51580597 16.4234619,8.50481405 16.4769287,8.52643149 C16.2597656,8.66236489 16.1000977,8.76275775 16.0004883,8.82504529 L16.0004883,9.31601767 C16.1722412,9.39772427 16.3355713,9.35375659 16.4970703,9.35339019 C16.6087646,9.20756407 16.7904053,9.11926232 16.8830566,8.8917296 L16.8830566,8.8917296 Z M14.128418,3.87465141 C14.0943604,3.55698496 14.1335449,3.29904126 14.0914307,3.01068659 C13.8413086,3.0495247 13.6120605,2.97881002 13.392334,3.06124941 C13.392334,3.28182059 13.3912354,3.47088159 13.394165,3.660309 C13.3945313,3.67862886 13.4212646,3.69584953 13.4355469,3.7134366 C13.4857178,3.76399943 13.5358887,3.81419586 13.5963135,3.87465141 L14.128418,3.87465141 Z M1.65527344,8.7829096 C1.51208496,8.96500906 1.2454834,8.93936125 1.15429688,9.15443646 L1.15429688,9.73590897 C1.25683594,9.77914385 1.2890625,9.9216724 1.42456055,9.93925947 C1.56335449,9.87623914 1.70288086,9.8128524 1.84350586,9.74873288 C1.86694336,9.53475685 2.11816406,9.37280925 1.99365234,9.12109431 C1.89294434,9.02070145 1.79223633,8.91994219 1.65527344,8.7829096 L1.65527344,8.7829096 Z M4.10522461,13.8271012 L3.82104492,13.8271012 C3.70129395,13.9648666 3.53540039,14.0623283 3.44567871,14.2378326 C3.58813477,14.4371527 3.59619141,14.7163474 3.83093262,14.8273658 L4.26086426,14.8273658 C4.37219238,14.6720134 4.56518555,14.5947035 4.61169434,14.4393511 C4.60766602,14.3730332 4.61572266,14.3407902 4.60327148,14.3283327 C4.43884277,14.1597899 4.27185059,13.993812 4.10522461,13.8271012 L4.10522461,13.8271012 Z M8.81835937,1.14938832 C8.5579834,1.37142508 8.37780762,1.52457915 8.20495605,1.67150447 C8.22766113,1.79864433 8.15661621,1.92944816 8.28405762,2.01408594 L9.14208984,2.01408594 C9.19555664,2.06354958 9.24719238,2.11191402 9.30688477,2.1683392 C9.36804199,2.15148493 9.43212891,2.13426425 9.50463867,2.1141124 C9.50463867,1.86203106 9.50537109,1.62423922 9.50317383,1.38681377 C9.50280762,1.36776111 9.48083496,1.34870845 9.46252441,1.31976306 C9.40246582,1.26480347 9.33398437,1.20214953 9.27722168,1.14938832 L8.81835937,1.14938832 Z M9.40283203,10.1110998 C9.38891602,10.1294197 9.36254883,10.1477395 9.36254883,10.1660594 C9.36035156,10.9325625 9.36071777,11.6997985 9.36071777,12.4582409 C9.40283203,12.500743 9.43688965,12.5348179 9.49621582,12.5941743 L9.49621582,13.314145 C9.55517578,13.3738677 9.5892334,13.4072099 9.6361084,13.4541087 L9.6361084,14.0560995 C9.58959961,14.102632 9.55554199,14.1363405 9.51306152,14.1788426 L9.51306152,14.7592159 C9.54638672,14.7954892 9.63061523,14.8456857 9.6328125,14.8995461 C9.6394043,15.0318155 9.68811035,15.1450323 9.79504395,15.1911983 C10.1975098,15.3659698 10.4501953,15.6803387 10.6530762,16.1134203 L10.6530762,16.3369227 C10.7028809,16.3907831 10.7508545,16.4424451 10.7988281,16.4941071 C10.7651367,16.5274493 10.7314453,16.5615242 10.6706543,16.6223462 C10.7102051,16.833391 10.5904541,17.0411383 10.4805908,17.2232377 C10.3817139,17.3873837 10.2359619,17.5573921 9.99572754,17.598795 C9.89904785,17.6156492 9.82397461,17.7570786 9.73791504,17.8435484 C9.58813477,17.8809209 9.39916992,17.8102062 9.29772949,18 L8.14672852,18 C7.93395996,17.7838256 7.71643066,17.5625216 7.52636719,17.3694303 C7.47802734,17.2595111 7.44213867,17.1781709 7.46740723,17.2356952 C7.30737305,16.9997354 7.35644531,16.8780915 7.34655762,16.7634091 C7.33850098,16.6696114 7.34472656,16.5747145 7.34472656,16.5670202 C7.42565918,16.3896839 7.47180176,16.2885582 7.52819824,16.1647159 C7.76367187,15.9287561 8.01855469,15.6744764 8.26538086,15.4271582 C8.33972168,15.4117695 8.40527344,15.3982128 8.48217773,15.3820913 L8.48217773,13.4522768 C8.44116211,13.4116067 8.4074707,13.3775317 8.34814453,13.3181753 L8.34814453,12.30985 C8.28881836,12.2504936 8.25512695,12.2164187 8.20898438,12.1702526 C8.20861816,11.7815051 8.20898438,11.3795672 8.20861816,10.9776294 C8.00354004,10.9596759 8.10571289,11.1007389 8.07458496,11.166324 C7.93688965,11.2989598 7.73583984,11.4096118 7.67797852,11.571193 C7.60876465,11.7653836 7.47070313,11.8734708 7.35058594,12.0310216 L7.35058594,12.4549433 C7.38903809,12.497079 7.43664551,12.5494738 7.48718262,12.6047998 L7.48718262,14.7680094 C7.37109375,14.8779286 7.24914551,14.992611 7.11401367,15.1201172 L6.68774414,15.1201172 C6.58557129,15.0090989 6.4720459,14.8859894 6.33691406,14.7397969 C6.33691406,14.3250351 6.33691406,13.8754656 6.33691406,13.4365217 C6.25378418,13.4163698 6.19372559,13.3815621 6.16918945,13.3987827 C5.98608398,13.526289 5.73010254,13.54754 5.60229492,13.8113461 C5.63269043,13.8685041 5.67407227,13.9469131 5.74731445,14.0850449 L5.74731445,14.742728 C5.61071777,14.9244611 5.53820801,15.1736113 5.33349609,15.342154 C5.1496582,15.4938425 4.99182129,15.6770411 4.82336426,15.8455839 C4.67138672,15.7902579 4.61828613,15.9368168 4.53149414,15.9822501 L3.57641602,15.9822501 C3.40795898,15.8950475 3.26953125,15.8547438 3.17468262,15.7671749 C3.05310059,15.6554237 2.92529297,15.5773811 2.7755127,15.5088648 C2.65283203,15.4520732 2.56750488,15.3139414 2.46606445,15.2124494 C2.40161133,15.0699208 2.55432129,14.8526472 2.30932617,14.796222 L2.30932617,14.0462068 C2.35180664,14.0011399 2.45141602,13.9322572 2.4407959,13.9014798 C2.37121582,13.7014269 2.68615723,13.6515969 2.60229492,13.4577727 L3.22705078,12.8326989 L3.61120605,12.8326989 C3.70861816,12.7696786 3.78405762,12.7205814 3.8873291,12.6542634 C3.95324707,12.6974983 4.02758789,12.746962 4.12792969,12.8129135 L4.68164062,12.8129135 C4.8515625,12.6337452 5.03210449,12.4432186 5.17602539,12.2911637 C5.39941406,12.2006636 5.59973145,12.2915301 5.77734375,12.1863741 C5.74145508,12.1512 5.72460937,12.1193234 5.70776367,12.1193234 C5.18261719,12.1163922 4.65710449,12.117125 4.18615723,12.117125 C4.02612305,12.0621654 3.98071289,11.9002178 3.82910156,11.9551774 C3.7532959,11.8218088 3.66760254,11.6924705 3.60571289,11.5525068 C3.57897949,11.4920512 3.60131836,11.4103446 3.60131836,11.2843039 C3.70275879,11.2066277 3.83496094,11.1058685 4.04296875,10.946852 L5.83154297,10.946852 C5.89086914,10.8878621 5.92456055,10.8541535 5.96777344,10.8109186 L6.79650879,10.8109186 C7.15063477,10.6350479 7.19714355,10.2224846 7.4864502,10.0129053 L7.4864502,9.86927759 C7.38574219,9.75056486 7.35241699,9.75166405 7.1151123,9.94512183 L4.81713867,9.94512183 C4.7578125,10.0044782 4.72412109,10.0381867 4.68566895,10.0770249 L3.11279297,10.0770249 C2.87658691,10.3206791 2.64367676,10.5610357 2.48144531,10.7288456 C2.28808594,10.820445 2.18774414,10.8680766 2.03210449,10.9417225 L0.940429688,10.9417225 C0.895385742,10.8999532 0.84375,10.8515887 0.790283203,10.8017587 L0.663574219,10.8017587 C0.487060547,10.6255216 0.318237305,10.4562461 0.142822266,10.2807418 L0.142822266,10.007043 C0.106567383,9.97040324 0.0725097656,9.93669469 0.00366210937,9.8674456 C-0.00366210938,9.57286217 0.00549316406,9.24090622 0,8.91627822 C0.0637207031,8.79243593 0.124511719,8.6740896 0.21496582,8.49931809 C0.37097168,8.34286645 0.574584961,8.13914955 0.744873047,7.96914121 C0.885131836,7.90099131 0.985107422,7.85262687 1.13598633,7.7797138 L2.0826416,7.7797138 C2.16687012,7.93469986 2.38659668,7.88413703 2.47924805,8.02556639 C2.57629395,8.1732245 2.75756836,8.17688847 2.88024902,8.27911332 L2.88024902,8.4308018 C2.96228027,8.51067641 3.06005859,8.58505506 3.13000488,8.68068476 C3.17980957,8.74883465 3.19226074,8.84446435 3.2208252,8.92617094 L5.25219727,8.92617094 C5.30090332,8.88147047 5.35290527,8.83310603 5.40600586,8.7836424 L7.56188965,8.7836424 C7.63110352,8.7147597 7.69885254,8.6469762 7.75671387,8.58871903 C7.50549316,8.33773689 7.25427246,8.08675474 6.88989258,7.72255582 C7.00524902,7.80206404 6.98730469,7.7804466 6.9675293,7.77824821 C6.92028809,7.77275225 6.87158203,7.77641623 6.8236084,7.77641623 C5.83996582,7.77641623 4.85632324,7.77641623 3.87268066,7.77604983 C3.8503418,7.77604983 3.82800293,7.76908828 3.80566406,7.76505791 C3.61450195,7.61886539 3.57348633,7.38107354 3.44824219,7.17515826 C3.52807617,7.00478352 3.70129395,6.90878743 3.82250977,6.76625888 L5.69055176,6.76625888 C5.76049805,6.69664339 5.82824707,6.6284935 5.90405273,6.55264926 C5.67553711,6.29067519 5.27160645,6.24047876 5.1463623,5.88873735 C4.95739746,5.95725365 4.90612793,5.80776355 4.82006836,5.76636066 L4.38647461,5.76636066 C4.3458252,5.80666436 4.31213379,5.84073931 4.27807617,5.87481426 C3.96057129,6.0583793 3.71264648,5.71689702 3.41235352,5.75976551 C3.25268555,5.58572679 3.09228516,5.41095528 2.85791016,5.15557636 C2.86193848,5.1640035 2.81359863,5.06397704 2.74072266,4.91228856 L2.74072266,3.84350764 C2.8026123,3.73432125 2.85754395,3.63795876 2.94946289,3.47674395 C3.05822754,3.3620616 3.22302246,3.18948847 3.38562012,3.01874733 C3.54345703,3.0762717 3.59289551,2.92238484 3.69470215,2.87841716 L4.07336426,2.87841716 C4.13452148,2.83628147 4.20849609,2.78498585 4.28320312,2.73369023 C4.46557617,2.74321656 4.58496094,2.98027561 4.79882812,2.87841716 C5.04052734,3.06967655 5.41149902,3.11840739 5.4777832,3.50678853 C5.48803711,3.56651129 5.56347656,3.61487573 5.61254883,3.6734993 C5.61364746,3.68925438 5.61657715,3.71233741 5.61694336,3.73578684 C5.61730957,3.85596515 5.61694336,3.97577707 5.61694336,4.09558898 C5.66491699,4.1479838 5.71289062,4.20001221 5.76269531,4.25423901 L5.76269531,4.96908014 C5.91723633,5.1233334 6.07910156,5.26806033 6.22009277,5.43147353 C6.35742187,5.59012356 6.55187988,5.6388544 6.73205566,5.73924726 C6.82507324,5.5304008 6.72363281,5.31386 6.78039551,5.12260061 C6.73059082,5.07277057 6.6965332,5.03906202 6.63720703,4.97933926 C6.59802246,4.65397846 6.64819336,4.29784029 6.61633301,3.95049565 C6.57788086,3.91165754 6.54382324,3.87794899 6.50061035,3.83398131 C6.59509277,3.66873613 6.69177246,3.50055977 6.79138184,3.32725385 L7.30810547,3.32725385 C7.3560791,3.41115883 7.43994141,3.55808415 7.52380371,3.70537586 C7.55310059,3.68082724 7.58276367,3.65664502 7.61206055,3.6324628 C7.6237793,3.74567957 7.63549805,3.85926273 7.64685059,3.97284589 C7.6809082,4.00692084 7.71496582,4.04099579 7.77429199,4.09998575 L7.77429199,5.10867751 C7.83325195,5.16766747 7.86730957,5.20174242 7.91088867,5.2457101 L7.91088867,6.64314939 C8.0123291,6.82195127 8.10095215,6.97767012 8.20751953,7.16563193 L8.20751953,7.44775785 C8.2833252,7.46241374 8.36462402,7.47780243 8.45800781,7.4957559 C8.54077148,7.25686486 8.46166992,7.04215604 8.50561523,6.84906467 C8.45690918,6.79996743 8.42321777,6.76625888 8.38916016,6.73255033 C8.3770752,6.71349767 8.35437012,6.69444501 8.35437012,6.67539235 C8.35253906,5.69124921 8.35290527,4.70710607 8.35217285,3.72296293 C8.35217285,3.70097909 8.34338379,3.67899526 8.33898926,3.65664502 C8.30493164,3.62257007 8.27124023,3.58886152 8.22802734,3.54599304 C8.2166748,3.4423026 8.20385742,3.32908584 8.19213867,3.22099864 C8.08557129,3.11620901 7.9588623,3.19278604 7.94091797,3.18875567 C7.73840332,3.08433244 7.61901855,3.0227777 7.5,2.96158935 C7.49597168,2.91505689 7.49230957,2.86852444 7.48791504,2.81283205 C7.39526367,2.71573676 7.29748535,2.61277912 7.20410156,2.51421825 L7.20410156,1.27542899 C7.27661133,1.12593889 7.32531738,1.02554603 7.39416504,0.884116677 C7.6138916,0.664278299 7.8684082,0.409632178 8.12988281,0.148024508 L8.40527344,0.148024508 C8.4609375,0.0981944755 8.51293945,0.0512956216 8.57080078,0 L9.57202148,0 C9.62109375,0.0450668675 9.6730957,0.0926985161 9.72692871,0.142528548 L9.86645508,0.142528548 C10.0715332,0.348077432 10.2747803,0.551427932 10.4747314,0.751480856 C10.5197754,0.857369675 10.5626221,0.958861726 10.6439209,1.15085391 L10.6439209,2.35959859 C10.5637207,2.49113522 10.4827881,2.65418202 10.373291,2.79487858 C10.2714844,2.92678161 10.1396484,3.0356016 10.064209,3.11071305 C9.91296387,3.18692369 9.81335449,3.23712012 9.67016602,3.30893399 L9.43981934,3.30893399 C9.35961914,3.38111425 9.35961914,3.38111425 9.38671875,3.84094286 C9.42077637,3.87501781 9.45483398,3.90909276 9.51379395,3.96808272 L9.51379395,7.46021536 C9.67565918,7.46534492 9.71081543,7.3330755 9.79138184,7.26895597 C9.88439941,7.19494372 9.97668457,7.11140513 10.0437012,7.01430985 C10.1052246,6.92527531 10.1326904,6.81242494 10.225708,6.58818979 L10.225708,3.66983532 C10.284668,3.61084536 10.3183594,3.57677041 10.3604736,3.53463472 L10.3604736,3.15504712 C10.4501953,2.89014188 10.7237549,2.91908726 10.8522949,2.75420848 C11.0115967,2.87182201 11.229126,2.89673703 11.3778076,3.10594988 L11.3778076,4.97640809 C11.5275879,5.09622 11.6217041,5.03283327 11.6989746,4.93134122 C11.8765869,4.69831254 11.9564209,4.41325544 12.0966797,4.16007491 C12.1292725,4.10108494 12.1633301,4.04246138 12.2244873,3.93437417 L12.2244873,2.90956093 C12.3032227,2.73369023 12.3409424,2.60032162 12.4163818,2.4937 C12.4984131,2.37828485 12.5991211,2.24491624 12.7218018,2.19691819 C12.8499756,2.14708816 12.9517822,2.04413052 13.0792236,2.02031469 C13.2165527,1.99503328 13.3677979,2.0327722 13.4564209,1.87485497 L14.3225098,1.87485497 C14.4104004,1.92578419 14.4656982,2.06721355 14.6158447,2.01335315 C14.7304688,2.18299509 14.9820557,2.25297698 14.9761963,2.51092067 C15.1464844,2.6160767 15.1043701,2.85570053 15.2581787,2.96305494 L15.2581787,4.04099579 C15.1834717,4.20550817 15.1373291,4.30626743 15.0809326,4.43010972 C14.9468994,4.56457752 14.7945557,4.7173652 14.6524658,4.85916095 C14.5378418,4.90935738 14.4364014,4.95405785 14.2609863,5.03100128 L13.4688721,5.03100128 C13.4315186,4.99802553 13.3787842,4.95185947 13.3187256,4.89946465 L13.0385742,4.89946465 C12.9125977,4.99509435 12.8261719,5.11527266 12.777832,5.28308262 C12.7415771,5.40948969 12.5401611,5.4483278 12.5302734,5.6110082 C12.5189209,5.80006921 12.3043213,5.83304497 12.2545166,5.98949661 C12.2713623,6.00671728 12.288208,6.03822745 12.3054199,6.03859385 C12.9279785,6.04115863 13.5509033,6.04079223 14.1870117,6.04079223 C14.2459717,6.10967492 14.3074951,6.18258799 14.3902588,6.27968327 L14.3902588,6.84027113 C14.3455811,6.88826918 14.2822266,6.95715187 14.1972656,7.04911759 L12.7514648,7.04911759 C12.6925049,7.10810756 12.6584473,7.14218251 12.6126709,7.18834857 L11.30896,7.18834857 C11.137207,7.41698048 10.8380127,7.55181468 10.769165,7.87974027 C10.5113525,8.05341258 10.4919434,8.40625318 10.2260742,8.57039917 C10.2568359,8.60117654 10.2736816,8.63268671 10.2908936,8.63305311 C11.7773437,8.63525149 13.2641602,8.63488509 14.7564697,8.63488509 C14.8447266,8.54255297 14.9857178,8.47586867 14.9853516,8.32601217 C15.208374,8.10287622 15.427002,7.88413703 15.6760254,7.63498687 L15.7576904,7.63498687 C15.8126221,7.58479044 15.8642578,7.536426 15.9180908,7.48659597 L16.197876,7.48659597 C16.25354,7.43603314 16.3059082,7.38876789 16.3795166,7.32135078 C16.453125,7.35872331 16.5322266,7.39866061 16.6798096,7.47303927 L16.9621582,7.47303927 L17.8520508,8.3633847 L17.8520508,8.55684247 C17.9022217,8.61106927 17.9505615,8.66273129 18,8.7158589 L18,9.28927067 C17.8260498,9.36511491 17.8927002,9.58861726 17.7476807,9.6912085 C17.6162109,9.78390702 17.5144043,9.91104688 17.5426025,10.0839864 L17.3496094,10.0839864 C17.262085,10.171189 17.1774902,10.2561931 17.0925293,10.3411973 C16.9621582,10.4390254 16.7318115,10.2492316 16.6746826,10.5038777 L15.3325195,10.5038777 C15.2578125,10.4800619 15.213501,10.3159159 15.0413818,10.3782034 C14.927124,10.2430028 14.8051758,10.1030391 14.6901855,9.95721294 C14.664917,9.92496998 14.664917,9.87294156 14.652832,9.82970668 C13.5776367,9.75459523 11.296875,9.77144951 10.7980957,9.85975126 C10.9742432,10.0260956 11.1463623,10.1884096 11.2851562,10.3199463 C11.4147949,10.3932257 11.5114746,10.4474525 11.6330566,10.5167016 L13.6113281,10.5167016 C13.6483154,10.5533413 13.6820068,10.5874163 13.7318115,10.6372463 C14.0178223,10.6944043 14.3272705,10.6262544 14.6235352,10.6709549 C14.6967773,10.7413032 14.7659912,10.8076211 14.833374,10.872107 L14.833374,11.0190323 C14.8681641,11.05384 14.9022217,11.0875486 14.9593506,11.145073 C14.8688965,11.3022574 14.7736816,11.4671362 14.6905518,11.6118631 C14.6187744,11.6367781 14.5766602,11.6642579 14.5349121,11.6642579 C13.9350586,11.6668227 13.3352051,11.6649907 12.7353516,11.6675555 C12.6705322,11.6679219 12.6053467,11.6902722 12.5339355,11.7034625 C12.7005615,12.0628982 13.1264648,12.0870804 13.3048096,12.3856942 L14.7601318,12.3856942 C14.9622803,12.5897775 15.1647949,12.7942272 15.3709717,13.0023409 C15.4112549,13.0979706 15.4537354,13.1994626 15.5372314,13.3984163 L15.5372314,14.1689499 C15.494751,14.2389317 15.4372559,14.3330959 15.3555908,14.4668309 C15.1237793,14.6987604 14.8546143,14.9684288 14.5550537,15.2677754 C14.5195312,15.2677754 14.423584,15.2677754 14.3276367,15.2681418 C14.2935791,15.3022167 14.2598877,15.3362917 14.19104,15.4051743 C14.0196533,15.4311886 13.8083496,15.3967472 13.6157227,15.4150671 C13.4384766,15.2809657 13.4384766,15.2809657 13.272583,15.2707065 C13.0297852,15.0274187 12.8118896,14.8097787 12.489624,14.4869827 C12.5108643,14.5338816 12.4647217,14.4331223 12.3900146,14.2711747 L12.3900146,13.4749934 C12.4387207,13.4108739 12.4932861,13.3401592 12.5328369,13.2884972 C12.4914551,12.9613044 12.1750488,12.9946465 12.0281982,12.8264702 C11.8927002,12.6711177 11.737793,12.5318867 11.5924072,12.386427 C11.5554199,12.4234331 11.5235596,12.4406538 11.5235596,12.4575081 C11.5213623,13.1294807 11.5217285,13.8014534 11.5217285,14.4221304 C11.3796387,14.7126835 11.2478027,14.9589024 10.9724121,15.1395363 C10.7772217,15.0398762 10.5358887,14.9680624 10.3688965,14.7621471 L10.3688965,11.0150019 C10.0653076,10.7123578 9.7598877,10.4071488 9.45263672,10.1037719 C9.4453125,10.0968103 9.42004395,10.1081686 9.40283203,10.1110998 L9.40283203,10.1110998 Z" id="Fill-1" fill="#C7BC98" mask="url(#mask-8)"></path>
                    </g>
                    <g id="Group-3-Copy-2" transform="translate(60.000000, 0.000000)">
                        <mask id="mask-10" fill="white">
                            <use xlink:href="#path-9"></use>
                        </mask>
                        <g id="Clip-2"></g>
                        <path d="M8.83703613,16.4200949 C8.80407715,16.4585666 8.76159668,16.5149918 8.7121582,16.5637226 C8.61071777,16.6633827 8.61108398,16.7575468 8.71398926,16.8524437 L9.13769531,16.8524437 C9.21716309,16.726403 9.36328125,16.7201742 9.48010254,16.6611843 C9.49987793,16.5296476 9.56030273,16.3933479 9.43505859,16.2782991 C9.38525391,16.3255644 9.33508301,16.3728296 9.28527832,16.4200949 L8.83703613,16.4200949 Z M3.72399902,4.5140147 L3.96130371,4.75107375 C4.03967285,4.75107375 4.15612793,4.78624789 4.22094727,4.7433794 C4.33483887,4.66863436 4.45092773,4.61074358 4.5769043,4.56494392 C4.59228516,4.55908156 4.59851074,4.5275714 4.60070801,4.52390742 L4.60070801,4.28464999 C4.46630859,4.12673275 4.36120605,4.00325686 4.2755127,3.90286401 C4.1282959,3.97797545 4.01147461,4.03769821 3.92907715,4.0794675 C3.84851074,4.24984225 3.78405762,4.38650844 3.72399902,4.5140147 L3.72399902,4.5140147 Z M14.4005127,13.6109268 C14.3195801,13.5303194 14.2390137,13.4500784 14.1602783,13.3716693 C13.9324951,13.5251898 13.6508789,13.5339833 13.5289307,13.8102469 C13.6018066,13.9546074 13.6798096,14.1092271 13.7530518,14.2546868 L14.0343018,14.2546868 C14.1635742,14.1297454 14.2833252,14.0143302 14.4001465,13.9011134 C14.4001465,13.8014534 14.4001465,13.7061901 14.4005127,13.6109268 L14.4005127,13.6109268 Z M16.8830566,8.8917296 C16.7735596,8.78217681 16.6644287,8.66309769 16.5432129,8.55684247 C16.4967041,8.51580597 16.4234619,8.50481405 16.4769287,8.52643149 C16.2597656,8.66236489 16.1000977,8.76275775 16.0004883,8.82504529 L16.0004883,9.31601767 C16.1722412,9.39772427 16.3355713,9.35375659 16.4970703,9.35339019 C16.6087646,9.20756407 16.7904053,9.11926232 16.8830566,8.8917296 L16.8830566,8.8917296 Z M14.128418,3.87465141 C14.0943604,3.55698496 14.1335449,3.29904126 14.0914307,3.01068659 C13.8413086,3.0495247 13.6120605,2.97881002 13.392334,3.06124941 C13.392334,3.28182059 13.3912354,3.47088159 13.394165,3.660309 C13.3945313,3.67862886 13.4212646,3.69584953 13.4355469,3.7134366 C13.4857178,3.76399943 13.5358887,3.81419586 13.5963135,3.87465141 L14.128418,3.87465141 Z M1.65527344,8.7829096 C1.51208496,8.96500906 1.2454834,8.93936125 1.15429688,9.15443646 L1.15429688,9.73590897 C1.25683594,9.77914385 1.2890625,9.9216724 1.42456055,9.93925947 C1.56335449,9.87623914 1.70288086,9.8128524 1.84350586,9.74873288 C1.86694336,9.53475685 2.11816406,9.37280925 1.99365234,9.12109431 C1.89294434,9.02070145 1.79223633,8.91994219 1.65527344,8.7829096 L1.65527344,8.7829096 Z M4.10522461,13.8271012 L3.82104492,13.8271012 C3.70129395,13.9648666 3.53540039,14.0623283 3.44567871,14.2378326 C3.58813477,14.4371527 3.59619141,14.7163474 3.83093262,14.8273658 L4.26086426,14.8273658 C4.37219238,14.6720134 4.56518555,14.5947035 4.61169434,14.4393511 C4.60766602,14.3730332 4.61572266,14.3407902 4.60327148,14.3283327 C4.43884277,14.1597899 4.27185059,13.993812 4.10522461,13.8271012 L4.10522461,13.8271012 Z M8.81835937,1.14938832 C8.5579834,1.37142508 8.37780762,1.52457915 8.20495605,1.67150447 C8.22766113,1.79864433 8.15661621,1.92944816 8.28405762,2.01408594 L9.14208984,2.01408594 C9.19555664,2.06354958 9.24719238,2.11191402 9.30688477,2.1683392 C9.36804199,2.15148493 9.43212891,2.13426425 9.50463867,2.1141124 C9.50463867,1.86203106 9.50537109,1.62423922 9.50317383,1.38681377 C9.50280762,1.36776111 9.48083496,1.34870845 9.46252441,1.31976306 C9.40246582,1.26480347 9.33398437,1.20214953 9.27722168,1.14938832 L8.81835937,1.14938832 Z M9.40283203,10.1110998 C9.38891602,10.1294197 9.36254883,10.1477395 9.36254883,10.1660594 C9.36035156,10.9325625 9.36071777,11.6997985 9.36071777,12.4582409 C9.40283203,12.500743 9.43688965,12.5348179 9.49621582,12.5941743 L9.49621582,13.314145 C9.55517578,13.3738677 9.5892334,13.4072099 9.6361084,13.4541087 L9.6361084,14.0560995 C9.58959961,14.102632 9.55554199,14.1363405 9.51306152,14.1788426 L9.51306152,14.7592159 C9.54638672,14.7954892 9.63061523,14.8456857 9.6328125,14.8995461 C9.6394043,15.0318155 9.68811035,15.1450323 9.79504395,15.1911983 C10.1975098,15.3659698 10.4501953,15.6803387 10.6530762,16.1134203 L10.6530762,16.3369227 C10.7028809,16.3907831 10.7508545,16.4424451 10.7988281,16.4941071 C10.7651367,16.5274493 10.7314453,16.5615242 10.6706543,16.6223462 C10.7102051,16.833391 10.5904541,17.0411383 10.4805908,17.2232377 C10.3817139,17.3873837 10.2359619,17.5573921 9.99572754,17.598795 C9.89904785,17.6156492 9.82397461,17.7570786 9.73791504,17.8435484 C9.58813477,17.8809209 9.39916992,17.8102062 9.29772949,18 L8.14672852,18 C7.93395996,17.7838256 7.71643066,17.5625216 7.52636719,17.3694303 C7.47802734,17.2595111 7.44213867,17.1781709 7.46740723,17.2356952 C7.30737305,16.9997354 7.35644531,16.8780915 7.34655762,16.7634091 C7.33850098,16.6696114 7.34472656,16.5747145 7.34472656,16.5670202 C7.42565918,16.3896839 7.47180176,16.2885582 7.52819824,16.1647159 C7.76367187,15.9287561 8.01855469,15.6744764 8.26538086,15.4271582 C8.33972168,15.4117695 8.40527344,15.3982128 8.48217773,15.3820913 L8.48217773,13.4522768 C8.44116211,13.4116067 8.4074707,13.3775317 8.34814453,13.3181753 L8.34814453,12.30985 C8.28881836,12.2504936 8.25512695,12.2164187 8.20898438,12.1702526 C8.20861816,11.7815051 8.20898438,11.3795672 8.20861816,10.9776294 C8.00354004,10.9596759 8.10571289,11.1007389 8.07458496,11.166324 C7.93688965,11.2989598 7.73583984,11.4096118 7.67797852,11.571193 C7.60876465,11.7653836 7.47070313,11.8734708 7.35058594,12.0310216 L7.35058594,12.4549433 C7.38903809,12.497079 7.43664551,12.5494738 7.48718262,12.6047998 L7.48718262,14.7680094 C7.37109375,14.8779286 7.24914551,14.992611 7.11401367,15.1201172 L6.68774414,15.1201172 C6.58557129,15.0090989 6.4720459,14.8859894 6.33691406,14.7397969 C6.33691406,14.3250351 6.33691406,13.8754656 6.33691406,13.4365217 C6.25378418,13.4163698 6.19372559,13.3815621 6.16918945,13.3987827 C5.98608398,13.526289 5.73010254,13.54754 5.60229492,13.8113461 C5.63269043,13.8685041 5.67407227,13.9469131 5.74731445,14.0850449 L5.74731445,14.742728 C5.61071777,14.9244611 5.53820801,15.1736113 5.33349609,15.342154 C5.1496582,15.4938425 4.99182129,15.6770411 4.82336426,15.8455839 C4.67138672,15.7902579 4.61828613,15.9368168 4.53149414,15.9822501 L3.57641602,15.9822501 C3.40795898,15.8950475 3.26953125,15.8547438 3.17468262,15.7671749 C3.05310059,15.6554237 2.92529297,15.5773811 2.7755127,15.5088648 C2.65283203,15.4520732 2.56750488,15.3139414 2.46606445,15.2124494 C2.40161133,15.0699208 2.55432129,14.8526472 2.30932617,14.796222 L2.30932617,14.0462068 C2.35180664,14.0011399 2.45141602,13.9322572 2.4407959,13.9014798 C2.37121582,13.7014269 2.68615723,13.6515969 2.60229492,13.4577727 L3.22705078,12.8326989 L3.61120605,12.8326989 C3.70861816,12.7696786 3.78405762,12.7205814 3.8873291,12.6542634 C3.95324707,12.6974983 4.02758789,12.746962 4.12792969,12.8129135 L4.68164062,12.8129135 C4.8515625,12.6337452 5.03210449,12.4432186 5.17602539,12.2911637 C5.39941406,12.2006636 5.59973145,12.2915301 5.77734375,12.1863741 C5.74145508,12.1512 5.72460937,12.1193234 5.70776367,12.1193234 C5.18261719,12.1163922 4.65710449,12.117125 4.18615723,12.117125 C4.02612305,12.0621654 3.98071289,11.9002178 3.82910156,11.9551774 C3.7532959,11.8218088 3.66760254,11.6924705 3.60571289,11.5525068 C3.57897949,11.4920512 3.60131836,11.4103446 3.60131836,11.2843039 C3.70275879,11.2066277 3.83496094,11.1058685 4.04296875,10.946852 L5.83154297,10.946852 C5.89086914,10.8878621 5.92456055,10.8541535 5.96777344,10.8109186 L6.79650879,10.8109186 C7.15063477,10.6350479 7.19714355,10.2224846 7.4864502,10.0129053 L7.4864502,9.86927759 C7.38574219,9.75056486 7.35241699,9.75166405 7.1151123,9.94512183 L4.81713867,9.94512183 C4.7578125,10.0044782 4.72412109,10.0381867 4.68566895,10.0770249 L3.11279297,10.0770249 C2.87658691,10.3206791 2.64367676,10.5610357 2.48144531,10.7288456 C2.28808594,10.820445 2.18774414,10.8680766 2.03210449,10.9417225 L0.940429688,10.9417225 C0.895385742,10.8999532 0.84375,10.8515887 0.790283203,10.8017587 L0.663574219,10.8017587 C0.487060547,10.6255216 0.318237305,10.4562461 0.142822266,10.2807418 L0.142822266,10.007043 C0.106567383,9.97040324 0.0725097656,9.93669469 0.00366210937,9.8674456 C-0.00366210938,9.57286217 0.00549316406,9.24090622 0,8.91627822 C0.0637207031,8.79243593 0.124511719,8.6740896 0.21496582,8.49931809 C0.37097168,8.34286645 0.574584961,8.13914955 0.744873047,7.96914121 C0.885131836,7.90099131 0.985107422,7.85262687 1.13598633,7.7797138 L2.0826416,7.7797138 C2.16687012,7.93469986 2.38659668,7.88413703 2.47924805,8.02556639 C2.57629395,8.1732245 2.75756836,8.17688847 2.88024902,8.27911332 L2.88024902,8.4308018 C2.96228027,8.51067641 3.06005859,8.58505506 3.13000488,8.68068476 C3.17980957,8.74883465 3.19226074,8.84446435 3.2208252,8.92617094 L5.25219727,8.92617094 C5.30090332,8.88147047 5.35290527,8.83310603 5.40600586,8.7836424 L7.56188965,8.7836424 C7.63110352,8.7147597 7.69885254,8.6469762 7.75671387,8.58871903 C7.50549316,8.33773689 7.25427246,8.08675474 6.88989258,7.72255582 C7.00524902,7.80206404 6.98730469,7.7804466 6.9675293,7.77824821 C6.92028809,7.77275225 6.87158203,7.77641623 6.8236084,7.77641623 C5.83996582,7.77641623 4.85632324,7.77641623 3.87268066,7.77604983 C3.8503418,7.77604983 3.82800293,7.76908828 3.80566406,7.76505791 C3.61450195,7.61886539 3.57348633,7.38107354 3.44824219,7.17515826 C3.52807617,7.00478352 3.70129395,6.90878743 3.82250977,6.76625888 L5.69055176,6.76625888 C5.76049805,6.69664339 5.82824707,6.6284935 5.90405273,6.55264926 C5.67553711,6.29067519 5.27160645,6.24047876 5.1463623,5.88873735 C4.95739746,5.95725365 4.90612793,5.80776355 4.82006836,5.76636066 L4.38647461,5.76636066 C4.3458252,5.80666436 4.31213379,5.84073931 4.27807617,5.87481426 C3.96057129,6.0583793 3.71264648,5.71689702 3.41235352,5.75976551 C3.25268555,5.58572679 3.09228516,5.41095528 2.85791016,5.15557636 C2.86193848,5.1640035 2.81359863,5.06397704 2.74072266,4.91228856 L2.74072266,3.84350764 C2.8026123,3.73432125 2.85754395,3.63795876 2.94946289,3.47674395 C3.05822754,3.3620616 3.22302246,3.18948847 3.38562012,3.01874733 C3.54345703,3.0762717 3.59289551,2.92238484 3.69470215,2.87841716 L4.07336426,2.87841716 C4.13452148,2.83628147 4.20849609,2.78498585 4.28320312,2.73369023 C4.46557617,2.74321656 4.58496094,2.98027561 4.79882812,2.87841716 C5.04052734,3.06967655 5.41149902,3.11840739 5.4777832,3.50678853 C5.48803711,3.56651129 5.56347656,3.61487573 5.61254883,3.6734993 C5.61364746,3.68925438 5.61657715,3.71233741 5.61694336,3.73578684 C5.61730957,3.85596515 5.61694336,3.97577707 5.61694336,4.09558898 C5.66491699,4.1479838 5.71289062,4.20001221 5.76269531,4.25423901 L5.76269531,4.96908014 C5.91723633,5.1233334 6.07910156,5.26806033 6.22009277,5.43147353 C6.35742187,5.59012356 6.55187988,5.6388544 6.73205566,5.73924726 C6.82507324,5.5304008 6.72363281,5.31386 6.78039551,5.12260061 C6.73059082,5.07277057 6.6965332,5.03906202 6.63720703,4.97933926 C6.59802246,4.65397846 6.64819336,4.29784029 6.61633301,3.95049565 C6.57788086,3.91165754 6.54382324,3.87794899 6.50061035,3.83398131 C6.59509277,3.66873613 6.69177246,3.50055977 6.79138184,3.32725385 L7.30810547,3.32725385 C7.3560791,3.41115883 7.43994141,3.55808415 7.52380371,3.70537586 C7.55310059,3.68082724 7.58276367,3.65664502 7.61206055,3.6324628 C7.6237793,3.74567957 7.63549805,3.85926273 7.64685059,3.97284589 C7.6809082,4.00692084 7.71496582,4.04099579 7.77429199,4.09998575 L7.77429199,5.10867751 C7.83325195,5.16766747 7.86730957,5.20174242 7.91088867,5.2457101 L7.91088867,6.64314939 C8.0123291,6.82195127 8.10095215,6.97767012 8.20751953,7.16563193 L8.20751953,7.44775785 C8.2833252,7.46241374 8.36462402,7.47780243 8.45800781,7.4957559 C8.54077148,7.25686486 8.46166992,7.04215604 8.50561523,6.84906467 C8.45690918,6.79996743 8.42321777,6.76625888 8.38916016,6.73255033 C8.3770752,6.71349767 8.35437012,6.69444501 8.35437012,6.67539235 C8.35253906,5.69124921 8.35290527,4.70710607 8.35217285,3.72296293 C8.35217285,3.70097909 8.34338379,3.67899526 8.33898926,3.65664502 C8.30493164,3.62257007 8.27124023,3.58886152 8.22802734,3.54599304 C8.2166748,3.4423026 8.20385742,3.32908584 8.19213867,3.22099864 C8.08557129,3.11620901 7.9588623,3.19278604 7.94091797,3.18875567 C7.73840332,3.08433244 7.61901855,3.0227777 7.5,2.96158935 C7.49597168,2.91505689 7.49230957,2.86852444 7.48791504,2.81283205 C7.39526367,2.71573676 7.29748535,2.61277912 7.20410156,2.51421825 L7.20410156,1.27542899 C7.27661133,1.12593889 7.32531738,1.02554603 7.39416504,0.884116677 C7.6138916,0.664278299 7.8684082,0.409632178 8.12988281,0.148024508 L8.40527344,0.148024508 C8.4609375,0.0981944755 8.51293945,0.0512956216 8.57080078,0 L9.57202148,0 C9.62109375,0.0450668675 9.6730957,0.0926985161 9.72692871,0.142528548 L9.86645508,0.142528548 C10.0715332,0.348077432 10.2747803,0.551427932 10.4747314,0.751480856 C10.5197754,0.857369675 10.5626221,0.958861726 10.6439209,1.15085391 L10.6439209,2.35959859 C10.5637207,2.49113522 10.4827881,2.65418202 10.373291,2.79487858 C10.2714844,2.92678161 10.1396484,3.0356016 10.064209,3.11071305 C9.91296387,3.18692369 9.81335449,3.23712012 9.67016602,3.30893399 L9.43981934,3.30893399 C9.35961914,3.38111425 9.35961914,3.38111425 9.38671875,3.84094286 C9.42077637,3.87501781 9.45483398,3.90909276 9.51379395,3.96808272 L9.51379395,7.46021536 C9.67565918,7.46534492 9.71081543,7.3330755 9.79138184,7.26895597 C9.88439941,7.19494372 9.97668457,7.11140513 10.0437012,7.01430985 C10.1052246,6.92527531 10.1326904,6.81242494 10.225708,6.58818979 L10.225708,3.66983532 C10.284668,3.61084536 10.3183594,3.57677041 10.3604736,3.53463472 L10.3604736,3.15504712 C10.4501953,2.89014188 10.7237549,2.91908726 10.8522949,2.75420848 C11.0115967,2.87182201 11.229126,2.89673703 11.3778076,3.10594988 L11.3778076,4.97640809 C11.5275879,5.09622 11.6217041,5.03283327 11.6989746,4.93134122 C11.8765869,4.69831254 11.9564209,4.41325544 12.0966797,4.16007491 C12.1292725,4.10108494 12.1633301,4.04246138 12.2244873,3.93437417 L12.2244873,2.90956093 C12.3032227,2.73369023 12.3409424,2.60032162 12.4163818,2.4937 C12.4984131,2.37828485 12.5991211,2.24491624 12.7218018,2.19691819 C12.8499756,2.14708816 12.9517822,2.04413052 13.0792236,2.02031469 C13.2165527,1.99503328 13.3677979,2.0327722 13.4564209,1.87485497 L14.3225098,1.87485497 C14.4104004,1.92578419 14.4656982,2.06721355 14.6158447,2.01335315 C14.7304688,2.18299509 14.9820557,2.25297698 14.9761963,2.51092067 C15.1464844,2.6160767 15.1043701,2.85570053 15.2581787,2.96305494 L15.2581787,4.04099579 C15.1834717,4.20550817 15.1373291,4.30626743 15.0809326,4.43010972 C14.9468994,4.56457752 14.7945557,4.7173652 14.6524658,4.85916095 C14.5378418,4.90935738 14.4364014,4.95405785 14.2609863,5.03100128 L13.4688721,5.03100128 C13.4315186,4.99802553 13.3787842,4.95185947 13.3187256,4.89946465 L13.0385742,4.89946465 C12.9125977,4.99509435 12.8261719,5.11527266 12.777832,5.28308262 C12.7415771,5.40948969 12.5401611,5.4483278 12.5302734,5.6110082 C12.5189209,5.80006921 12.3043213,5.83304497 12.2545166,5.98949661 C12.2713623,6.00671728 12.288208,6.03822745 12.3054199,6.03859385 C12.9279785,6.04115863 13.5509033,6.04079223 14.1870117,6.04079223 C14.2459717,6.10967492 14.3074951,6.18258799 14.3902588,6.27968327 L14.3902588,6.84027113 C14.3455811,6.88826918 14.2822266,6.95715187 14.1972656,7.04911759 L12.7514648,7.04911759 C12.6925049,7.10810756 12.6584473,7.14218251 12.6126709,7.18834857 L11.30896,7.18834857 C11.137207,7.41698048 10.8380127,7.55181468 10.769165,7.87974027 C10.5113525,8.05341258 10.4919434,8.40625318 10.2260742,8.57039917 C10.2568359,8.60117654 10.2736816,8.63268671 10.2908936,8.63305311 C11.7773437,8.63525149 13.2641602,8.63488509 14.7564697,8.63488509 C14.8447266,8.54255297 14.9857178,8.47586867 14.9853516,8.32601217 C15.208374,8.10287622 15.427002,7.88413703 15.6760254,7.63498687 L15.7576904,7.63498687 C15.8126221,7.58479044 15.8642578,7.536426 15.9180908,7.48659597 L16.197876,7.48659597 C16.25354,7.43603314 16.3059082,7.38876789 16.3795166,7.32135078 C16.453125,7.35872331 16.5322266,7.39866061 16.6798096,7.47303927 L16.9621582,7.47303927 L17.8520508,8.3633847 L17.8520508,8.55684247 C17.9022217,8.61106927 17.9505615,8.66273129 18,8.7158589 L18,9.28927067 C17.8260498,9.36511491 17.8927002,9.58861726 17.7476807,9.6912085 C17.6162109,9.78390702 17.5144043,9.91104688 17.5426025,10.0839864 L17.3496094,10.0839864 C17.262085,10.171189 17.1774902,10.2561931 17.0925293,10.3411973 C16.9621582,10.4390254 16.7318115,10.2492316 16.6746826,10.5038777 L15.3325195,10.5038777 C15.2578125,10.4800619 15.213501,10.3159159 15.0413818,10.3782034 C14.927124,10.2430028 14.8051758,10.1030391 14.6901855,9.95721294 C14.664917,9.92496998 14.664917,9.87294156 14.652832,9.82970668 C13.5776367,9.75459523 11.296875,9.77144951 10.7980957,9.85975126 C10.9742432,10.0260956 11.1463623,10.1884096 11.2851562,10.3199463 C11.4147949,10.3932257 11.5114746,10.4474525 11.6330566,10.5167016 L13.6113281,10.5167016 C13.6483154,10.5533413 13.6820068,10.5874163 13.7318115,10.6372463 C14.0178223,10.6944043 14.3272705,10.6262544 14.6235352,10.6709549 C14.6967773,10.7413032 14.7659912,10.8076211 14.833374,10.872107 L14.833374,11.0190323 C14.8681641,11.05384 14.9022217,11.0875486 14.9593506,11.145073 C14.8688965,11.3022574 14.7736816,11.4671362 14.6905518,11.6118631 C14.6187744,11.6367781 14.5766602,11.6642579 14.5349121,11.6642579 C13.9350586,11.6668227 13.3352051,11.6649907 12.7353516,11.6675555 C12.6705322,11.6679219 12.6053467,11.6902722 12.5339355,11.7034625 C12.7005615,12.0628982 13.1264648,12.0870804 13.3048096,12.3856942 L14.7601318,12.3856942 C14.9622803,12.5897775 15.1647949,12.7942272 15.3709717,13.0023409 C15.4112549,13.0979706 15.4537354,13.1994626 15.5372314,13.3984163 L15.5372314,14.1689499 C15.494751,14.2389317 15.4372559,14.3330959 15.3555908,14.4668309 C15.1237793,14.6987604 14.8546143,14.9684288 14.5550537,15.2677754 C14.5195312,15.2677754 14.423584,15.2677754 14.3276367,15.2681418 C14.2935791,15.3022167 14.2598877,15.3362917 14.19104,15.4051743 C14.0196533,15.4311886 13.8083496,15.3967472 13.6157227,15.4150671 C13.4384766,15.2809657 13.4384766,15.2809657 13.272583,15.2707065 C13.0297852,15.0274187 12.8118896,14.8097787 12.489624,14.4869827 C12.5108643,14.5338816 12.4647217,14.4331223 12.3900146,14.2711747 L12.3900146,13.4749934 C12.4387207,13.4108739 12.4932861,13.3401592 12.5328369,13.2884972 C12.4914551,12.9613044 12.1750488,12.9946465 12.0281982,12.8264702 C11.8927002,12.6711177 11.737793,12.5318867 11.5924072,12.386427 C11.5554199,12.4234331 11.5235596,12.4406538 11.5235596,12.4575081 C11.5213623,13.1294807 11.5217285,13.8014534 11.5217285,14.4221304 C11.3796387,14.7126835 11.2478027,14.9589024 10.9724121,15.1395363 C10.7772217,15.0398762 10.5358887,14.9680624 10.3688965,14.7621471 L10.3688965,11.0150019 C10.0653076,10.7123578 9.7598877,10.4071488 9.45263672,10.1037719 C9.4453125,10.0968103 9.42004395,10.1081686 9.40283203,10.1110998 L9.40283203,10.1110998 Z" id="Fill-1" fill="#C7BC98" mask="url(#mask-10)"></path>
                    </g>
                </g>
            </g>
        </g>
    </g>
</svg>