<?xml version="1.0" encoding="UTF-8"?>
<svg width="129px" height="135px" viewBox="0 0 129 135" version="1.1" xmlns="http://www.w3.org/2000/svg" xmlns:xlink="http://www.w3.org/1999/xlink">
    <title>Group</title>
    <defs>
        <polygon id="path-1" points="0 0 31 0 31 30 0 30"></polygon>
        <polygon id="path-3" points="0 0 19 0 19 18 0 18"></polygon>
        <polygon id="path-5" points="0 0 12 0 12 11 0 11"></polygon>
    </defs>
    <g id="01_design" stroke="none" stroke-width="1" fill="none" fill-rule="evenodd">
        <g id="Calendário-Advento" transform="translate(-820.000000, -604.000000)">
            <g id="12" transform="translate(809.000000, 588.000000)">
                <g id="Group" transform="translate(11.000000, 16.000000)">
                    <g id="Group-3">
                        <mask id="mask-2" fill="white">
                            <use xlink:href="#path-1"></use>
                        </mask>
                        <g id="Clip-2"></g>
                        <path d="M19.9944559,11.2824121 C20.1352315,11.3039483 20.4565108,11.3763101 20.5048755,11.291888 C20.7587898,10.851687 21.2908007,10.947308 21.6328077,10.6440775 C21.8729035,10.4304379 22.2779573,10.1849246 22.5819636,10.1728643 C23.0612916,10.1539124 23.4032986,9.94113424 23.786761,9.74644652 C24.2721346,9.50093324 24.7661448,9.27437186 25.4156126,8.96424982 L25.9942609,8.96424982 C26.1384911,8.82900215 26.2792667,8.69806174 26.4252243,8.56195262 L27.1861035,8.56195262 L27.519474,8.22943288 C27.9107093,8.22943288 28.3477183,8.22943288 28.7847273,8.23029433 C29.486878,8.78592965 29.5205605,9.73094042 30.0689809,10.3572146 C29.7131554,10.8792534 29.0585056,10.8921752 28.6698613,11.3039483 C28.1931242,11.2022972 27.8442079,11.5968413 27.4590182,11.6493898 C26.9986906,11.7122757 26.6394105,12.0404882 26.258539,12.0447954 C25.7653925,12.0508256 25.4613863,12.4091888 25.0511506,12.4539842 C24.6547334,12.4979182 24.498412,13.0389088 24.0432663,12.8666188 C23.8377166,13.3369706 23.2728868,13.209476 22.9395164,13.5325197 C22.6588288,13.8038765 22.1717279,13.8512563 21.7960383,14.0399139 C21.1793893,14.3508973 20.5800134,14.6946159 19.9504095,15.0374731 C20.2751435,15.3363963 20.6145595,15.1649677 20.9220204,15.1994257 C21.1793893,15.2278536 21.4419402,15.2045944 21.6993091,15.2045944 L22.046498,15.5517588 L23.6114392,15.5517588 C23.7720789,15.7119885 23.8636262,15.8041637 24.0251295,15.9643934 L25.5892071,15.9643934 C25.7498468,16.1246231 25.8422578,16.2167983 26.0028974,16.377028 L27.566975,16.377028 C27.7276146,16.5372577 27.8200256,16.6294329 27.934028,16.7431443 L29.0662785,16.7431443 C29.2200089,16.8775305 29.3625118,17.0024408 29.5248788,17.14458 L30.1164819,17.14458 C30.4550343,17.412491 30.7011757,17.6063173 31,17.8432161 C30.8281328,18.1050969 30.6959938,18.3066762 30.5146264,18.5840632 L30.5146264,19.6548457 C30.33585,19.8417803 30.1588009,20.0269921 29.9955703,20.1984207 C29.6026077,20.4258435 29.3918761,20.1648241 29.1552349,19.9072505 L28.0186661,19.9072505 C27.8657993,19.7728643 27.7232964,19.6479541 27.5609294,19.5058148 L26.0322617,19.5058148 C25.8863041,19.3705671 25.7455285,19.2396267 25.6021619,19.1061019 C25.1720622,19.1586504 24.7091436,18.9648241 24.2963169,19.2396267 C24.4388199,19.7082556 25.1167883,19.8529792 25.0217864,20.4663317 C25.8051206,21.2373295 26.5910459,22.0126346 27.3657436,22.7758794 L27.3657436,23.584781 C27.065192,23.8923187 26.538363,23.8535535 26.2930852,24.2704953 C26.053853,24.6762383 25.4337494,24.5022254 25.2143812,24.9519024 L23.1424751,22.8844221 C23.0492004,22.0979182 22.3427314,21.7740129 21.8944949,21.2588658 C21.5956706,20.9160086 21.2692093,20.5946877 20.928066,20.2940416 C20.558422,19.9692749 20.3355993,19.4196698 19.712041,19.4636037 C19.389898,19.1414214 19.0720733,18.8149318 18.7412938,18.5022254 C18.6566557,18.4221106 18.5348805,18.3781766 18.4260601,18.3264896 C18.1013261,18.1705671 17.7740012,18.0198134 17.4078119,17.8475233 C17.307628,18.0818378 17.237672,18.2437904 17.1763526,18.3867911 C17.4630858,18.7684135 17.8387753,19.0828428 17.9510503,19.4722182 C18.0546888,19.8340273 18.5530172,20.0157933 18.3751045,20.4706389 C18.7689307,20.6618808 18.6480192,21.1977028 18.9382069,21.3958363 C19.5488104,21.8145011 19.5505377,22.6371859 20.1611411,23.0549892 C20.5273305,23.3056712 20.9781579,23.6493898 21.0662506,24.0275664 C21.1698891,24.4694903 21.4514404,24.6710696 21.6949908,24.9432879 C21.9981334,25.2818378 22.3349585,25.5902369 22.6674653,25.9218952 L22.6674653,26.7032304 C21.9670418,27.0012922 21.3486655,27.513855 20.5696495,27.6826992 C20.4452833,27.7094042 20.3096896,27.686145 20.1620048,27.686145 C19.8199978,27.2657574 19.3406697,26.995262 19.1143924,26.3965542 C18.9261158,25.8977746 18.3578314,25.5411342 17.9553686,25.1233309 C17.7748649,24.9363963 17.5874519,24.7554917 17.4034936,24.5720029 C17.35772,24.526346 17.2739455,24.4815506 17.2713545,24.4341709 C17.242854,23.8544149 16.6693876,23.6295765 16.4724745,23.2005743 C16.34379,22.9197416 16.2358333,22.6518306 16.0415111,22.4020101 C15.9439182,22.2770998 15.9724188,22.0548457 15.9283724,21.7791816 C15.6761854,22.0100503 15.5008637,22.17028 15.2633588,22.3882268 L15.2633588,23.9646805 L14.8496685,24.3773151 L14.8496685,25.9374013 L14.4852064,26.3017947 L14.4852064,29.3987078 C14.3081574,29.5856425 14.1328356,29.7708543 13.9160584,30 C13.7882376,29.8992103 13.6604168,29.7984207 13.4859587,29.6623116 L12.4366189,29.6623116 C12.3347078,29.6080402 12.2552516,29.5925341 12.2327966,29.5494616 C12.0600657,29.2134961 11.6791943,29.2996411 11.3795063,29.1307968 L11.3795063,26.7213209 C11.422689,26.6670495 11.5366914,26.520603 11.6956037,26.3164393 L11.6956037,24.8950467 C12.0367471,24.4453697 12.3001616,24.0284279 12.0229286,23.4951902 C11.8769711,23.4314429 10.9537249,24.0654702 10.4044409,24.9743001 C10.0002507,25.6410625 9.48119463,26.1570711 8.98718449,26.7290739 L8.98718449,27.1055276 C8.79977155,27.2916009 8.61494957,27.4759512 8.44308241,27.6473798 C8.18657714,27.5026561 7.93352649,27.3596554 7.38856076,27.0512563 C7.17005628,26.8367552 6.70713768,26.3810481 6.18549061,25.8676238 C6.47567839,25.2809763 6.69763749,24.6529792 7.22273918,24.1714286 C7.68306681,23.7510409 8.10021173,23.3142857 8.36535354,22.6992103 C8.60285842,22.1513281 9.32314593,21.9066762 9.46737616,21.1994257 C9.52178637,20.9340991 9.91302167,20.7454415 10.1254806,20.5007897 C10.2852566,20.3155779 10.578899,20.218234 10.556444,19.898636 C10.5814899,19.5359655 10.3163481,19.4179469 10.0710704,19.5127064 C9.73424528,19.6427854 9.48810386,19.9873654 9.05368585,19.8891601 C8.63913189,19.7944006 8.49144704,20.4310122 8.04407422,20.2750897 C7.807433,20.7040919 7.27628573,20.6291457 6.93600602,20.9220388 C6.67777344,21.1442929 6.28826545,21.2201005 5.97994094,21.4311558 C5.68975316,21.6292893 5.23547111,21.6215363 4.99451162,21.8515434 C4.27076949,22.5441493 3.30434056,22.8111989 2.51323341,23.3694185 C1.98726807,23.1325197 1.97863153,22.5467337 1.69621664,22.1444365 C1.45957542,21.8050251 1.33607288,21.3863604 1.16766033,21.0133525 C1.28252633,20.1923905 2.20577255,20.3896626 2.57800747,19.8667624 C2.98737951,19.2904523 3.76898646,19.2930366 4.32345239,18.907107 C4.78550733,18.5866475 5.32960941,18.3842067 5.85471109,18.1197416 C5.75193626,18.0232592 5.70616259,17.9414214 5.65779796,17.9405599 C5.00746643,17.9328069 4.3571349,17.9353912 3.71112164,17.9353912 C3.61439238,18.0318737 3.52198139,18.1231874 3.43043406,18.2153625 C3.31556806,18.2524049 3.20070207,18.3187365 3.08497242,18.3204594 C2.24204602,18.3290739 1.39911963,18.3256281 0.582966513,18.3256281 C0.372234914,18.1145729 0.187412938,17.931084 0,17.7432879 L0,15.7929648 C0.311779127,15.6318737 0.631331142,15.4681981 1.10029531,15.2261307 L3.65066585,15.2261307 C3.80266897,15.0917444 3.9451719,14.9668342 4.17404023,14.7661163 L5.38401961,14.7661163 C5.42806597,14.4335966 5.42806597,14.4335966 4.10840252,14.4232592 C3.96330863,14.2888729 3.82253301,14.1579325 3.68953028,14.0347452 C3.47966234,14.0347452 3.28447651,14.0364681 3.08929069,14.0338837 C3.02710759,14.0321608 2.96578815,14.0183776 2.90446871,14.0097631 C2.81205773,13.9184494 2.72051039,13.8262742 2.5736892,13.6798277 C2.19281774,13.6600144 1.75408146,13.6376167 1.33693654,13.6169419 C1.27129882,13.5514716 1.20911573,13.5127064 1.18406976,13.4567121 C1.15902379,13.4033022 1.1702513,13.3318019 1.1702513,13.2680546 C1.16938764,12.3747308 1.16938764,11.4805456 1.16938764,10.5045226 C1.73680838,10.5389806 2.17209004,10.5656856 2.60737171,10.593252 C2.92433276,11.1928212 3.78539589,10.6337401 4.07903828,11.2936109 L5.24238034,11.2936109 C5.38920154,11.4288586 5.5291135,11.559799 5.67334373,11.6941852 C6.12244386,11.6941852 6.57931688,11.6941852 7.01287123,11.6399139 C7.07678163,11.8880115 7.04828105,12.189519 7.39028807,11.9259153 C7.28319496,11.8346016 7.17696551,11.7441493 7.01287123,11.6399139 C7.06555413,11.309117 6.79609405,11.3134243 6.5318159,11.3005025 C6.47654204,11.2987796 6.40831337,11.2643216 6.37117624,11.222972 C6.03348749,10.8447954 5.66384354,10.5174444 5.15083301,10.4002872 C4.48236474,9.53194544 3.35788711,9.2045944 2.69114615,8.33625269 C2.48732379,8.07092606 2.07795175,8.26302943 1.87326573,7.93137114 C1.70744414,7.66259871 1.42589291,7.46532663 1.18320611,7.2223977 L1.18320611,6.28513999 C1.52694044,6.0120603 1.98035883,5.65197416 2.3007745,5.39784637 C2.41650415,4.85340991 2.41650415,4.85340991 2.73605617,4.65699928 C3.26461247,4.78363245 3.4934808,5.29791816 3.87089764,5.62613065 C4.20081351,5.91471644 4.68273249,5.89834889 4.97119296,6.29547739 C5.27260824,6.71069634 5.68802585,7.04407753 6.0464423,7.40588658 L6.33749373,7.40588658 C7.12169165,7.9615219 7.82470608,8.46891601 8.54326628,8.95391242 C8.608904,8.99870782 8.77127096,8.90222541 8.96645679,8.85139986 C8.42408202,8.05025126 8.23926004,7.06216798 7.43778905,6.44020101 C7.46542598,5.91040919 7.08714548,5.53137114 6.85654984,5.12907394 C6.6484092,4.765542 6.65704575,4.24953338 6.19844542,4.03244795 C5.8037555,3.84637473 5.9410765,3.35017947 5.65434334,3.08485284 C5.53343177,2.97286432 5.49974926,2.7661163 5.40820193,2.56453697 C6.28308352,2.21306533 6.9852343,1.5850682 7.83334262,1.49461594 C8.69267844,1.97616655 8.98459353,2.74888729 9.38187441,3.44321608 C9.68242603,3.9695621 9.86033878,4.54587222 10.2809383,5.02914573 C10.6652644,5.46934673 10.7473115,6.19210337 11.1601382,6.58234027 C11.5980108,6.99583632 11.6446481,7.6074659 12.0963392,7.96582915 C12.0531565,8.32591529 12.2638881,8.55161522 12.5074386,8.771285 C12.7008971,8.94702082 13.2026801,10.0936109 13.2994094,10.3890883 C13.5040954,11.0153625 13.6768262,11.6735104 14.3055664,12.0559943 C14.6389369,11.6580043 14.3971137,11.188514 14.468797,10.7396985 C14.5871176,10.6113424 14.7175294,10.4709261 14.8531231,10.3227566 L14.8531231,6.83474515 C14.9446704,6.73998564 15.0327631,6.64694903 15.1217195,6.55391242 C15.1640386,6.50653266 15.2417674,6.45829146 15.2417674,6.4109117 C15.247813,4.85513281 15.2469494,3.29849246 15.2469494,1.75735822 C15.3868613,1.605743 15.5164094,1.46532663 15.6520031,1.31801866 L15.6520031,0.564249821 L16.2176966,0 C16.3101075,0.0861450108 16.4016549,0.173151472 16.5726584,0.335104092 C17.0442135,0.510839914 17.632362,0.280832735 18.2084192,0.422110553 C18.2541929,0.501363963 18.3673316,0.605599426 18.3681952,0.710696339 C18.3794227,2.25613783 18.3751045,3.80157933 18.3751045,5.25915291 C18.1963281,5.43747308 18.1047807,5.52878679 17.9847328,5.64852836 C17.9847328,6.3954056 17.9821419,7.16984925 17.9890511,7.94429289 C17.9899147,7.99511845 18.0555525,8.04508256 18.1384633,8.16137832 C18.4657882,7.90638909 18.4407422,7.43948313 18.7620215,7.17329505 C19.0755279,6.91486001 19.3078509,6.50136396 19.4494902,6.11026561 C19.577311,5.75965542 19.9106815,5.45470208 19.9046359,5.14458004 C19.8959993,4.65441493 20.1559592,4.32878679 20.3304173,3.94285714 C20.5031482,3.5603733 20.6750153,3.177028 20.855519,2.77386935 C21.3970301,2.75750179 21.954087,2.54816942 22.4498245,3.04608758 C22.5862818,3.1839196 22.937789,3.10811199 23.2616593,3.13653984 C23.3981167,3.26317301 23.5838023,3.43632448 23.7815791,3.6189519 C23.7401237,3.70940416 23.6960773,3.79727207 23.6606675,3.88858579 C23.3367972,4.72849964 22.6130551,5.41162958 22.6769655,6.40143575 C22.1665459,7.08628859 21.8806764,7.88743719 21.497214,8.63862168 C21.3866663,8.85656856 21.2208447,9.06159368 21.03775,9.22440775 C20.561013,9.64651831 20.6560149,10.480402 19.9400457,10.6337401 C19.9400457,10.9154343 19.9400457,11.110122 19.9944559,11.2824121 C19.7457235,11.3461594 19.4434446,11.3177315 19.7077227,11.6588658 C19.7984064,11.5520459 19.8899538,11.4460876 19.9944559,11.2824121" id="Fill-1" fill="#899B6A" mask="url(#mask-2)"></path>
                    </g>
                    <circle id="Oval" fill="#112515" cx="54" cy="3" r="3"></circle>
                    <circle id="Oval-Copy" fill="#112515" cx="126" cy="52" r="3"></circle>
                    <circle id="Oval-Copy-2" fill="#112515" cx="18" cy="91" r="3"></circle>
                    <circle id="Oval-Copy-3" fill="#112515" cx="89" cy="132" r="3"></circle>
                    <g id="Group-3" transform="translate(62.000000, 111.000000)">
                        <mask id="mask-4" fill="white">
                            <use xlink:href="#path-3"></use>
                        </mask>
                        <g id="Clip-2"></g>
                        <path d="M12.2546665,6.76944724 C12.3409483,6.78236899 12.5378615,6.82578607 12.5675043,6.77513281 C12.7231292,6.5110122 13.0492004,6.56838478 13.2588176,6.38644652 C13.4059731,6.25826274 13.6542319,6.11095477 13.8405583,6.10371859 C14.13434,6.09234745 14.3439572,5.96468055 14.5789826,5.84786791 C14.8764696,5.70055994 15.17925,5.56462312 15.577311,5.37854989 L15.9319663,5.37854989 C16.0203655,5.29740129 16.1066474,5.21883704 16.1961052,5.13717157 L16.6624505,5.13717157 L16.8667744,4.93765973 C17.1065638,4.93765973 17.374408,4.93765973 17.6422522,4.9381766 C18.0726027,5.27155779 18.0932468,5.83856425 18.4293754,6.21432879 C18.2112888,6.52755205 17.8100518,6.5353051 17.5718504,6.78236899 C17.2796568,6.72137832 17.0658049,6.95810481 16.8297208,6.98963388 C16.5475846,7.0273654 16.3273806,7.22429289 16.0939433,7.22687724 C15.7916922,7.23049533 15.6053658,7.44551328 15.353931,7.47239052 C15.1109656,7.4987509 15.0151557,7.8233453 14.7361955,7.71997128 C14.6102134,8.00218234 14.2640274,7.92568557 14.0597036,8.11951184 C13.8876692,8.28232592 13.5891235,8.31075377 13.3588622,8.42394831 C12.980916,8.61053841 12.6135566,8.81676956 12.2276704,9.02248385 C12.4267008,9.20183776 12.63473,9.09898062 12.8231738,9.11965542 C12.980916,9.13671213 13.1418343,9.12275664 13.2995765,9.12275664 L13.5123698,9.33105528 L14.4715273,9.33105528 C14.5699838,9.42719311 14.6260935,9.48249821 14.7250794,9.57863604 L15.6837076,9.57863604 C15.7821641,9.67477387 15.8388031,9.73007897 15.9372597,9.8262168 L16.8958879,9.8262168 C16.9943445,9.92235463 17.0509835,9.97765973 17.1208559,10.0458866 L17.8148158,10.0458866 C17.9090377,10.1265183 17.9963782,10.2014645 18.0958935,10.286748 L18.4584889,10.286748 C18.6659887,10.4474946 18.8168496,10.5637904 19,10.7059296 C18.8946621,10.8630581 18.8136736,10.9840057 18.702513,11.1504379 L18.702513,11.7929074 C18.5929403,11.9050682 18.4844264,12.0161953 18.3843818,12.1190524 C18.1435337,12.2555061 18.0143757,12.0988945 17.8693375,11.9443503 L17.1727308,11.9443503 C17.0790383,11.8637186 16.9916978,11.7887724 16.8921825,11.7034889 L15.9552571,11.7034889 C15.8657993,11.6223403 15.7795175,11.543776 15.6916476,11.4636612 C15.4280381,11.4951902 15.1443138,11.3788945 14.891291,11.543776 C14.9786315,11.8249533 15.3941606,11.9117875 15.3359336,12.279799 C15.8160417,12.7423977 16.2977378,13.2075808 16.7725525,13.6655276 L16.7725525,14.1508686 C16.5883435,14.3353912 16.2654483,14.3121321 16.1151167,14.5622972 C15.9684906,14.805743 15.588427,14.7013352 15.4539756,14.9711414 L14.1840976,13.7306533 C14.1269293,13.2587509 13.6939321,13.0644078 13.4192066,12.7553195 C13.2360562,12.5496052 13.035967,12.3568126 12.8268791,12.176425 C12.6003232,11.981565 12.4637544,11.6518019 12.0815735,11.6781622 C11.8841311,11.4848528 11.6893353,11.2889591 11.4865994,11.1013352 C11.4347245,11.0532663 11.360088,11.026906 11.2933917,10.9958938 C11.0943612,10.9023403 10.8937427,10.811888 10.6693041,10.708514 C10.607901,10.8491027 10.5650248,10.9462742 10.5274419,11.0320747 C10.7031816,11.2610481 10.9334429,11.4497057 11.0022566,11.6833309 C11.065777,11.9004164 11.3712041,12.009476 11.2621608,12.2823833 C11.5035382,12.3971285 11.4294311,12.7186217 11.6072881,12.8375018 C11.9815289,13.0887006 11.9825876,13.5823116 12.3568284,13.8329935 C12.5812671,13.9834027 12.8575807,14.1896339 12.911573,14.4165398 C12.9750933,14.6816942 13.147657,14.8026418 13.2969298,14.9659727 C13.4827269,15.1691027 13.6891681,15.3541421 13.8929626,15.5531371 L13.8929626,16.0219383 C13.4636708,16.2007753 13.084666,16.508313 12.6072045,16.6096195 C12.5309801,16.6256425 12.4478743,16.611687 12.3573578,16.611687 C12.1477406,16.3594544 11.8539589,16.1971572 11.7152727,15.8379325 C11.5998774,15.5386648 11.2515741,15.3246805 11.0049033,15.0739986 C10.894272,14.9618378 10.779406,14.853295 10.6666574,14.7432017 C10.6386026,14.7158076 10.5872569,14.6889304 10.5856689,14.6605025 C10.5682008,14.312649 10.2167215,14.1777459 10.0960328,13.9203446 C10.0171616,13.7518449 9.9509946,13.5910983 9.83189391,13.441206 C9.7720789,13.3662599 9.789547,13.2329074 9.76255084,13.067509 C9.60798462,13.2060302 9.50052934,13.302168 9.35496183,13.4329361 L9.35496183,14.3788083 L9.10140971,14.6263891 L9.10140971,15.5624408 L8.87802975,15.7810768 L8.87802975,17.6392247 C8.7695158,17.7513855 8.66206051,17.8625126 8.52919708,18 C8.4508553,17.9395262 8.37251351,17.8790524 8.26558756,17.7973869 L7.62244386,17.7973869 C7.55998217,17.7648241 7.51128322,17.7555205 7.49752048,17.729677 C7.3916532,17.5280976 7.15821586,17.5797846 6.97453613,17.4784781 L6.97453613,16.0327925 C7.00100295,16.0002297 7.07087536,15.9123618 7.16827325,15.7898636 L7.16827325,14.937028 C7.37736112,14.6672218 7.53880871,14.4170567 7.36889174,14.0971141 C7.27943389,14.0588658 6.7135733,14.4392821 6.37691536,14.98458 C6.12918594,15.3846375 5.81105477,15.6942426 5.50827436,16.0374444 L5.50827436,16.2633166 C5.39340837,16.3749605 5.28013038,16.4855707 5.17479244,16.5884279 C5.01757954,16.5015937 4.86248398,16.4157933 4.52847273,16.2307538 C4.39455062,16.1020531 4.11082632,15.8286289 3.79110715,15.5205743 C3.96896417,15.1685858 4.10500362,14.7917875 4.42684014,14.5028571 C4.70897643,14.2506246 4.9646459,13.9885714 5.12715217,13.6195262 C5.27271967,13.2907968 5.71418621,13.1440057 5.80258539,12.7196554 C5.83593358,12.5604594 6.07572296,12.4472649 6.20593971,12.3004738 C6.30386694,12.1893467 6.48384131,12.1309404 6.47007856,11.9391816 C6.48542932,11.7215793 6.32292305,11.6507681 6.17259152,11.7076238 C5.96615033,11.7856712 5.81528946,11.9924192 5.54903326,11.9334961 C5.2949518,11.8766403 5.20443528,12.2586073 4.93023904,12.1650538 C4.78520087,12.4224551 4.459659,12.3774874 4.25110046,12.5532233 C4.09282889,12.6865757 3.85409818,12.7320603 3.66512509,12.8586935 C3.48726807,12.9775736 3.20883713,12.9729218 3.06115228,13.1109261 C2.6175684,13.5264896 2.02524099,13.6867193 1.54036886,14.0216511 C1.21800301,13.8795118 1.21270965,13.5280402 1.03961665,13.2866619 C0.894578481,13.0830151 0.818883379,12.8318162 0.715662785,12.6080115 C0.786064523,12.1154343 1.35192511,12.2337976 1.58006909,11.9200574 C1.83097454,11.5742714 2.31002396,11.575822 2.64985791,11.3442642 C2.93305288,11.1519885 3.2665348,11.030524 3.58837132,10.8718449 C3.52538029,10.8139555 3.49732546,10.7648528 3.46768262,10.764336 C3.06909233,10.7596841 2.67050203,10.7612347 2.27455842,10.7612347 C2.21527275,10.8191242 2.15863375,10.8739124 2.1025241,10.9292175 C2.03212236,10.9514429 1.96172062,10.9912419 1.89078955,10.9922757 C1.37415724,10.9974444 0.857524935,10.9953769 0.357302056,10.9953769 C0.228143979,10.8687437 0.114865994,10.7586504 0,10.6459727 L0,9.47577889 C0.191090433,9.37912419 0.386944893,9.28091888 0.674374547,9.13567839 L2.23750488,9.13567839 C2.33066808,9.05504666 2.41800858,8.9801005 2.55828272,8.85966978 L3.29988299,8.85966978 C3.32687914,8.66015793 3.32687914,8.66015793 2.51805316,8.65395549 C2.42912464,8.57332376 2.34284281,8.49475951 2.26132501,8.42084709 C2.13269627,8.42084709 2.01306625,8.42188083 1.89343623,8.42033022 C1.85532401,8.41929648 1.81774113,8.41102656 1.78015824,8.40585786 C1.72351925,8.35106963 1.66740959,8.29576454 1.57742241,8.20789663 C1.34398507,8.19600861 1.07508219,8.18256999 0.819412715,8.17016511 C0.77918315,8.13088299 0.741070931,8.10762383 0.725720176,8.07402728 C0.710369421,8.04198134 0.717250794,7.99908112 0.717250794,7.96083274 C0.716721458,7.42483848 0.716721458,6.88832735 0.716721458,6.30271357 C1.06449546,6.32338837 1.33128099,6.33941134 1.59806653,6.35595118 C1.79233298,6.71569275 2.32008135,6.38024408 2.50005572,6.77616655 L3.21307182,6.77616655 C3.30305901,6.85731515 3.3888115,6.9358794 3.47721068,7.01651113 C3.75246559,7.01651113 4.03248454,7.01651113 4.2982114,6.98394831 C4.33738229,7.13280689 4.31991419,7.31371141 4.5295314,7.15554917 C4.46389369,7.10076095 4.39878531,7.04648959 4.2982114,6.98394831 C4.33050092,6.78547021 4.16534797,6.78805456 4.00337104,6.78030151 C3.96949351,6.77926777 3.92767593,6.75859296 3.90491447,6.7337832 C3.69794395,6.50687724 3.47138798,6.31046662 3.15696217,6.24017229 C2.74725581,5.71916726 2.05805984,5.52275664 1.64941216,5.00175162 C1.52448877,4.84255564 1.27358333,4.95781766 1.14813061,4.75882268 C1.04649802,4.59755922 0.873934362,4.47919598 0.72519084,4.33343862 L0.72519084,3.77108399 C0.935866719,3.60723618 1.21376832,3.39118449 1.41015211,3.23870782 C1.48108319,2.91204594 1.48108319,2.91204594 1.67693765,2.79419957 C2.00089151,2.87017947 2.14116565,3.1787509 2.37248565,3.37567839 C2.57469215,3.54882986 2.87006185,3.53900933 3.0468602,3.77728643 C3.2315986,4.0264178 3.48620939,4.22644652 3.70588399,4.44353195 L3.88427035,4.44353195 C4.36490778,4.77691314 4.7957876,5.08134961 5.23619546,5.37234745 C5.27642503,5.39922469 5.37594027,5.34133525 5.49557029,5.31083991 C5.16314704,4.83015075 5.04986906,4.23730079 4.5586449,3.8641206 C4.57558366,3.54624551 4.34373433,3.31882268 4.20240152,3.07744436 C4.07483145,2.8593252 4.08012481,2.54972003 3.79904719,2.41946877 C3.55714047,2.30782484 3.64130495,2.01010768 3.46556528,1.8509117 C3.39145818,1.78371859 3.37081406,1.65966978 3.31470441,1.53872218 C3.85092216,1.3278392 4.28127264,0.951040919 4.80108096,0.896769562 C5.32777066,1.18569993 5.50668635,1.64933238 5.75018109,2.06592965 C5.93439015,2.38173726 6.04343344,2.72752333 6.30122026,3.01748744 C6.53677495,3.28160804 6.5870619,3.71526202 6.84008469,3.94940416 C7.10845824,4.19750179 7.1370424,4.56447954 7.41388533,4.77949749 C7.38741851,4.99554917 7.51657659,5.13096913 7.66584945,5.262771 C7.78442079,5.36821249 8.09196523,6.05616655 8.15125091,6.23345298 C8.27670363,6.60921752 8.3825709,7.00410625 8.76792779,7.23359655 C8.97225163,6.99480258 8.82403744,6.7131084 8.86797236,6.4438191 C8.94049145,6.36680546 9.02042124,6.28255564 9.10352705,6.19365398 L9.10352705,4.10084709 C9.15963671,4.04399139 9.21362902,3.98816942 9.26815067,3.93234745 C9.29408815,3.9039196 9.34172842,3.87497487 9.34172842,3.84654702 C9.34543378,2.91307968 9.34490444,1.97909548 9.34490444,1.05441493 C9.43065693,0.9634458 9.51005739,0.87919598 9.5931632,0.790811199 L9.5931632,0.338549892 L9.93987853,0 C9.99651752,0.0516870065 10.0526272,0.103890883 10.1574358,0.201062455 C10.4464534,0.306503948 10.8069315,0.168499641 11.1599989,0.253266332 C11.1880537,0.300818378 11.2573968,0.363359655 11.2579261,0.426417803 C11.2648075,1.3536827 11.2621608,2.2809476 11.2621608,3.15549174 C11.1525882,3.26248385 11.0964785,3.31727207 11.0229008,3.38911701 C11.0229008,3.83724336 11.0213128,4.30190955 11.0255474,4.76657574 C11.0260768,4.79707107 11.0663063,4.82704953 11.1171226,4.89682699 C11.3177411,4.74383345 11.3023904,4.46368988 11.4993035,4.30397703 C11.6914526,4.14891601 11.8338441,3.90081838 11.9206553,3.66615937 C11.998997,3.45579325 12.2033209,3.27282125 12.1996155,3.08674803 C12.1943222,2.79264896 12.3536524,2.59727207 12.4605784,2.36571429 C12.5664456,2.13622398 12.6717836,1.9062168 12.7824149,1.66432161 C13.1143088,1.65450108 13.4557308,1.52890165 13.7595698,1.82765255 C13.843205,1.91035176 14.0586449,1.86486719 14.257146,1.88192391 C14.3407812,1.9579038 14.4545885,2.06179469 14.5758065,2.17137114 C14.5503984,2.2256425 14.5234022,2.27836324 14.5016994,2.33315147 C14.3031983,2.83709978 13.8596144,3.24697775 13.8987853,3.84086145 C13.5859475,4.25177315 13.4107372,4.73246231 13.1757118,5.18317301 C13.1079568,5.31394113 13.0063242,5.43695621 12.8941049,5.53464465 C12.6019112,5.78791098 12.6601382,6.28824121 12.2213183,6.38024408 C12.2213183,6.54926059 12.2213183,6.66607322 12.2546665,6.76944724 C12.1022176,6.80769562 11.9169499,6.79063891 12.0789268,6.99531945 C12.1345072,6.93122757 12.1906168,6.86765255 12.2546665,6.76944724" id="Fill-1" fill="#899B6A" mask="url(#mask-4)"></path>
                    </g>
                    <g id="Group-3-Copy" transform="translate(107.000000, 19.000000)">
                        <mask id="mask-6" fill="white">
                            <use xlink:href="#path-5"></use>
                        </mask>
                        <g id="Clip-2"></g>
                        <path d="M7.73978938,4.13688442 C7.79428317,4.14478105 7.91864936,4.17131371 7.93737115,4.14035894 C8.03566056,3.9789519 8.24160027,4.01401292 8.37399008,3.90282843 C8.46693041,3.8244939 8.62372541,3.73447236 8.74140525,3.73005025 C8.92695158,3.72310122 9.05934139,3.64508256 9.20777846,3.57369706 C9.39566501,3.48367552 9.58689475,3.40060302 9.83830167,3.2868916 L10.0622945,3.2868916 C10.1181256,3.23730079 10.1726194,3.1892893 10.2291191,3.13938263 L10.523653,3.13938263 L10.6526996,3.01745872 C10.8041455,3.01745872 10.9733103,3.01745872 11.1424751,3.01777459 C11.4142754,3.22150754 11.4273138,3.56801149 11.6396055,3.79764537 C11.5018666,3.98905958 11.2484538,3.99379756 11.0980108,4.14478105 C10.9134674,4.10750897 10.7784031,4.25217516 10.6292974,4.27144293 C10.451106,4.29450108 10.3120299,4.41484566 10.1645958,4.41642498 C9.97370034,4.41863604 9.8560205,4.55003589 9.69721959,4.56646088 C9.54376776,4.58256999 9.48325625,4.78093324 9.30707082,4.71776023 C9.2275032,4.89022254 9.00885942,4.84347452 8.87981278,4.96192391 C8.77115953,5.06142139 8.58260433,5.07879397 8.43717613,5.14796841 C8.19847328,5.26199569 7.96645679,5.38802584 7.72273918,5.51374013 C7.84844264,5.6233453 7.9798295,5.56048816 8.0988466,5.57312276 C8.19847328,5.5835463 8.30010587,5.57501795 8.39973255,5.57501795 L8.53412827,5.70231156 L9.13991196,5.70231156 C9.20209506,5.76106246 9.23753274,5.79486001 9.30005015,5.85361091 L9.90549953,5.85361091 C9.96768262,5.91236181 10.0034546,5.94615937 10.0656377,6.00491027 L10.6710871,6.00491027 C10.7332702,6.06366116 10.7690422,6.09745872 10.8131721,6.13915291 L11.2514626,6.13915291 C11.3109712,6.18842785 11.3661336,6.23422828 11.4289853,6.28634602 L11.657993,6.28634602 C11.7890455,6.38458004 11.8843261,6.45564968 12,6.54251256 C11.9334708,6.63853553 11.8823202,6.71244795 11.8121134,6.8141565 L11.8121134,7.20677674 C11.7429097,7.27531945 11.6743745,7.34323044 11.6111885,7.40608758 C11.4590739,7.48947595 11.3775004,7.39376884 11.2858974,7.2993252 L10.8459353,7.2993252 C10.786761,7.25005025 10.7315986,7.20424982 10.6687469,7.15213209 L10.0770045,7.15213209 C10.0205048,7.10254128 9.96601103,7.05452979 9.91051429,7.00557071 C9.74402407,7.02483848 9.56482978,6.95376884 9.40502591,7.05452979 C9.46018833,7.22636037 9.72262774,7.2794257 9.68585279,7.50432161 C9.98907895,7.78702082 10.2933081,8.07129935 10.5931911,8.35115578 L10.5931911,8.64775305 C10.4768485,8.76051687 10.2729147,8.74630294 10.1779685,8.89918162 C10.0853625,9.04795406 9.84532234,8.98414932 9.76040564,9.14903087 L8.95837744,8.39095477 C8.92227113,8.10256999 8.64879924,7.98380474 8.47528835,7.79491744 C8.35961442,7.66920316 8.23324232,7.5513855 8.10118683,7.4411486 C7.95809885,7.32206748 7.87184488,7.12054559 7.63046749,7.1366547 C7.50576698,7.01852118 7.38273806,6.89880833 7.25469438,6.78414932 C7.22193124,6.75477387 7.17479244,6.73866475 7.13266841,6.71971285 C7.00696495,6.66254128 6.88025854,6.6072649 6.73850783,6.54409189 C6.69972697,6.63000718 6.67264724,6.68938981 6.64891068,6.7418234 C6.75990416,6.88175162 6.90533237,6.99704235 6.94879367,7.13981335 C6.9889118,7.27247667 7.18181312,7.33912419 7.11294367,7.50590093 C7.26539254,7.57602297 7.21858806,7.77249103 7.33091882,7.84513999 C7.56728144,7.99865039 7.56795008,8.30030151 7.8043127,8.45349605 C7.94606341,8.54541278 8.12057726,8.67144293 8.15467766,8.81010768 C8.19479579,8.97214645 8.30378336,9.04605887 8.39806096,9.14587222 C8.51540647,9.27000718 8.64579038,9.38308686 8.7745027,9.5046949 L8.7745027,9.79118449 C8.50337104,9.9004738 8.26399955,10.0884135 7.96244498,10.150323 C7.91430323,10.1601149 7.86181535,10.1515865 7.80464702,10.1515865 C7.6722572,9.99744436 7.48671087,9.89826274 7.39911963,9.67873654 C7.32623837,9.49585068 7.10625731,9.36508256 6.95046526,9.21188801 C6.88059286,9.1433453 6.80804591,9.07701364 6.73683624,9.00973439 C6.7191174,8.99299354 6.68668858,8.97656856 6.68568563,8.95919598 C6.67465315,8.74661881 6.45266618,8.66417803 6.37644175,8.50687724 C6.32662841,8.40390524 6.28483869,8.30567121 6.20961721,8.21407035 C6.1718393,8.16826992 6.18287179,8.08677674 6.16582159,7.98569993 C6.06820081,8.07035176 6.00033432,8.12910266 5.90839695,8.20901651 L5.90839695,8.78704953 L5.74825876,8.93834889 L5.74825876,9.51038047 L5.60717669,9.64399139 L5.60717669,10.7795262 C5.53864156,10.8480689 5.47077506,10.9159799 5.38686131,11 C5.33738229,10.9630438 5.28790327,10.9260876 5.22037109,10.8761809 L4.81417507,10.8761809 C4.77472558,10.8562814 4.74396835,10.8505958 4.73527609,10.8348026 C4.66841255,10.7116152 4.52097844,10.7432017 4.40497019,10.6812922 L4.40497019,9.79781766 C4.42168608,9.77791816 4.46581601,9.72422111 4.52733047,9.64936109 L4.52733047,9.12818378 C4.65938597,8.96330223 4.76135287,8.81042355 4.65403689,8.61490309 C4.59753719,8.59152907 4.24015156,8.82400574 4.02752549,9.15724336 C3.8710648,9.4017229 3.67013986,9.59092606 3.47891012,9.80066045 L3.47891012,9.93869347 C3.40636318,10.0069203 3.33481919,10.0745154 3.26828996,10.1373726 C3.1689976,10.0843073 3.07104251,10.0318737 2.86008804,9.91879397 C2.77550566,9.84014358 2.59631136,9.67305097 2.39438346,9.48479541 C2.50671421,9.26969131 2.59263387,9.0394257 2.79589904,8.86285714 C2.97409038,8.708715 3.13556583,8.54857143 3.23820137,8.32304379 C3.33013874,8.12215363 3.60895971,8.03244795 3.66479077,7.77312276 C3.68585279,7.67583632 3.83729871,7.60666188 3.91954087,7.51695621 C3.98138965,7.44904523 4.09505767,7.41335248 4.08636541,7.29616655 C4.09606062,7.16318737 3.99342508,7.11991385 3.89847885,7.15465901 C3.76809495,7.20235463 3.6728144,7.32870065 3.50465259,7.29269203 C3.34418009,7.25794688 3.28701176,7.49137114 3.11383518,7.43419957 C3.02223213,7.59150036 2.81662673,7.5640201 2.68490556,7.67141421 C2.58494456,7.75290739 2.43416727,7.78070352 2.31481585,7.85809045 C2.2024851,7.93073941 2.02663398,7.92789663 1.93335934,8.01223259 C1.65320109,8.26618808 1.27909957,8.36410625 0.972864546,8.56878679 C0.769265058,8.48192391 0.765921881,8.26713568 0.656599989,8.1196267 C0.564996935,7.99517588 0.517189502,7.84166547 0.451997548,7.70489591 C0.496461804,7.40387653 0.85384744,7.47620962 0.997938374,7.28447954 C1.15640497,7.07316583 1.4589625,7.07411342 1.67359447,6.93260589 C1.85245445,6.81510409 2.06307461,6.74087581 2.26633978,6.64390524 C2.22655597,6.60852836 2.20883713,6.57852118 2.19011534,6.57820531 C1.9383741,6.57536253 1.68663286,6.57631012 1.43656321,6.57631012 C1.39911963,6.61168701 1.36334763,6.6451687 1.32790996,6.67896626 C1.2834457,6.69254846 1.23898145,6.71687006 1.19418287,6.71750179 C0.867888784,6.72066045 0.541594695,6.71939698 0.225664456,6.71939698 C0.144090934,6.64201005 0.0725469438,6.5747308 0,6.50587222 L0,5.79075377 C0.120688694,5.73168701 0.244386248,5.67167265 0.425920767,5.58291457 L1.41316097,5.58291457 C1.47200089,5.53363963 1.52716331,5.4878392 1.61575751,5.41424264 L2.08413662,5.41424264 C2.10118683,5.29231874 2.10118683,5.29231874 1.59034936,5.28852836 C1.53418399,5.23925341 1.4796902,5.19124192 1.42820527,5.14607322 C1.34696607,5.14607322 1.27141026,5.14670495 1.19585446,5.14575736 C1.17178359,5.14512563 1.14804703,5.14007179 1.12431047,5.13691314 C1.08853847,5.10343144 1.0531008,5.06963388 0.996266786,5.01593683 C0.848832674,5.00867193 0.678999276,5.00045944 0.51752382,4.99287868 C0.492115674,4.96887294 0.468044799,4.95465901 0.458349585,4.93412778 C0.448654371,4.91454415 0.453000501,4.88832735 0.453000501,4.86495334 C0.452666184,4.53740129 0.452666184,4.20953338 0.452666184,3.85165829 C0.672312921,3.86429289 0.840809049,3.87408471 1.00930518,3.88419239 C1.13199978,4.10403446 1.46531454,3.89903805 1.57898256,4.14099067 L2.02930852,4.14099067 C2.08614253,4.19058148 2.140302,4.23859296 2.19613306,4.28786791 C2.36997827,4.28786791 2.54683234,4.28786791 2.71465983,4.26796841 C2.73939934,4.35893754 2.72836686,4.46949031 2.86075667,4.37283561 C2.81930128,4.33935391 2.7781802,4.30618808 2.71465983,4.26796841 C2.73505321,4.14667624 2.63074609,4.14825556 2.52844487,4.14351759 C2.50704853,4.14288586 2.48063743,4.13025126 2.46626177,4.11508973 C2.33554354,3.97642498 2.19245556,3.85639627 1.99387084,3.81343862 C1.73510893,3.49504666 1.29982727,3.37501795 1.04173399,3.05662599 C0.962835014,2.95933955 0.804368418,3.02977746 0.72513512,2.90816942 C0.660946119,2.80961953 0.551958545,2.73728643 0.458015267,2.64821249 L0.458015267,2.30455133 C0.591073717,2.20442211 0.766590517,2.07239052 0.890622388,1.97921034 C0.935420962,1.77958363 0.935420962,1.77958363 1.05911852,1.7075664 C1.26372096,1.75399856 1.35231515,1.94256999 1.49841199,2.06291457 C1.62612136,2.16872936 1.81267064,2.16272793 1.92433276,2.30834171 C2.04100964,2.46058866 2.20181646,2.58282843 2.34055831,2.71549174 L2.45322338,2.71549174 C2.75678386,2.91922469 3.02891848,3.1052692 3.30707082,3.28310122 C3.33247897,3.2995262 3.3953307,3.26414932 3.4708865,3.24551328 C3.26093498,2.95175879 3.18939098,2.58946159 2.87914415,2.36140704 C2.88984231,2.16715004 2.74341116,2.02816942 2.65414833,1.88066045 C2.57357776,1.7473654 2.57692093,1.55816224 2.39939823,1.47856425 C2.24661503,1.4103374 2.29977155,1.22839914 2.18877807,1.13111271 C2.14197359,1.09005025 2.1289352,1.01424264 2.09349752,0.940330223 C2.43216136,0.811457286 2.70396166,0.581191673 3.03226166,0.548025844 C3.36490778,0.724594401 3.47790717,1.00792534 3.63169332,1.26251256 C3.74803588,1.4555061 3.81690533,1.66681981 3.97971806,1.8440201 C4.12848944,2.00542714 4.16024962,2.2704379 4.32005349,2.41352477 C4.48955257,2.56513999 4.50760573,2.78940416 4.68245389,2.92080402 C4.66573801,3.05283561 4.74731153,3.13559225 4.84158912,3.21613783 C4.91647629,3.2805743 5.11071488,3.70099067 5.14815847,3.80933238 C5.22739176,4.03896626 5.29425531,4.28028715 5.5376386,4.42053123 C5.66668524,4.27460158 5.57307628,4.10245513 5.60082465,3.93788945 C5.64662618,3.89082556 5.69710815,3.83933955 5.74959603,3.78501077 L5.74959603,2.50607322 C5.78503371,2.47132807 5.81913412,2.43721464 5.85356884,2.40310122 C5.86995041,2.38572864 5.900039,2.3680402 5.900039,2.35066762 C5.90237923,1.78021536 5.90204491,1.20944724 5.90204491,0.644364681 C5.95620438,0.588772434 6.00635204,0.537286432 6.05883992,0.48327351 L6.05883992,0.206891601 L6.27781802,0 C6.31359002,0.0315865039 6.34902769,0.0634888729 6.4152226,0.1228715 C6.59776007,0.187307968 6.82543043,0.102972003 7.04842035,0.154773869 C7.06613919,0.183833453 7.10993481,0.222053123 7.11026913,0.260588658 C7.11461526,0.827250538 7.11294367,1.39391242 7.11294367,1.92835607 C7.0437399,1.99374013 7.00830222,2.02722182 6.96183206,2.07112706 C6.96183206,2.34498205 6.96082911,2.62894472 6.96350365,2.91290739 C6.96383797,2.93154343 6.98924611,2.9498636 7.02134061,2.99250538 C7.14804703,2.89900933 7.13835181,2.72781048 7.262718,2.63020818 C7.38407533,2.53544867 7.4740068,2.38383345 7.5288349,2.24043073 C7.57831392,2.11187365 7.70736056,2.00005743 7.70502034,1.88634602 C7.70167716,1.70661881 7.80230679,1.58722182 7.86983897,1.44571429 C7.93670251,1.30547021 8.00323174,1.16491027 8.07310414,1.01708543 C8.28272135,1.01108399 8.49835627,0.934328787 8.69025464,1.11689878 C8.74307684,1.16743719 8.87914415,1.13964106 9.00451329,1.15006461 C9.05733549,1.19649677 9.1292138,1.25998564 9.20577255,1.32694903 C9.1897253,1.36011486 9.1726751,1.39233309 9.15896807,1.42581479 C9.03359893,1.7337832 8.75344069,1.98426418 8.7781802,2.34719311 C8.58059843,2.59830581 8.46993927,2.8920603 8.3215022,3.16749462 C8.27870953,3.24740847 8.21452053,3.32258435 8.14364518,3.38228284 C7.9591018,3.53705671 7.99587675,3.84281407 7.71872736,3.89903805 C7.71872736,4.00232592 7.71872736,4.07371141 7.73978938,4.13688442 C7.64350588,4.16025844 7.52649468,4.14983489 7.6287959,4.27491744 C7.66389926,4.23575018 7.69933694,4.19689878 7.73978938,4.13688442" id="Fill-1" fill="#899B6A" mask="url(#mask-6)"></path>
                    </g>
                </g>
            </g>
        </g>
    </g>
</svg>