<?xml version="1.0" encoding="UTF-8"?>
<svg width="106px" height="106px" viewBox="0 0 106 106" version="1.1" xmlns="http://www.w3.org/2000/svg" xmlns:xlink="http://www.w3.org/1999/xlink">
    <title>Group 3</title>
    <defs>
        <polygon id="path-1" points="0 0 106 0 106 106 0 106"></polygon>
    </defs>
    <g id="01_design" stroke="none" stroke-width="1" fill="none" fill-rule="evenodd" opacity="0.346793241">
        <g id="Calendário-Advento" transform="translate(-352.000000, -279.000000)">
            <g id="01" transform="translate(329.000000, 252.000000)">
                <g id="Group-3" transform="translate(23.000000, 27.000000)">
                    <mask id="mask-2" fill="white">
                        <use xlink:href="#path-1"></use>
                    </mask>
                    <g id="Clip-2"></g>
                    <path d="M52.0403239,96.6961142 C51.8462321,96.9226698 51.5960693,97.2549515 51.3049316,97.541922 C50.7075602,98.128809 50.7097168,98.683331 51.3157145,99.2421683 L53.8108724,99.2421683 C54.2788493,98.4999288 55.1393229,98.4632483 55.8272705,98.115863 C55.9437256,97.3412584 56.2995605,96.538604 55.5620117,95.8610947 C55.2687174,96.1394345 54.9732666,96.4177743 54.6799723,96.6961142 L52.0403239,96.6961142 Z M21.9302165,26.582531 L23.3276774,27.9785454 C23.7891846,27.9785454 24.4749756,28.185682 24.8566895,27.9332343 C25.5273844,27.493069 26.2110189,27.1521567 26.9528809,26.8824475 C27.043457,26.8479248 27.0801188,26.6623649 27.0930583,26.6407882 L27.0930583,25.2318277 C26.3015951,24.3018707 25.6826579,23.5747349 25.1780192,22.9835325 C24.3110758,23.4258554 23.6231283,23.7775561 23.1378988,24.0235308 C22.6634521,25.0268488 22.2838949,25.8316608 21.9302165,26.582531 L21.9302165,26.582531 Z M84.8030192,80.1532355 C84.326416,79.6785474 83.8519694,79.2060171 83.3883057,78.744275 C82.0469157,79.64834 80.3885091,79.7001242 79.6703695,81.3270096 C80.099528,82.1771327 80.5588786,83.0876707 80.9901937,83.9442669 L82.6464437,83.9442669 C83.4077148,83.2085004 84.112915,82.5288334 84.8008626,81.8621125 C84.8008626,81.2752254 84.8008626,80.7142305 84.8030192,80.1532355 L84.8030192,80.1532355 Z M99.4224447,52.3624076 C98.7776286,51.7172634 98.1349691,51.0160197 97.4211426,50.3902945 C97.1472575,50.1486352 96.7159424,50.083905 97.0308024,50.2112077 C95.7519531,51.0117044 94.8116862,51.6029068 94.2250977,51.9697112 L94.2250977,54.8609929 C95.2365316,55.342154 96.1983643,55.0832333 97.1494141,55.0810756 C97.8071696,54.2223217 98.8768311,53.7023226 99.4224447,52.3624076 L99.4224447,52.3624076 Z M83.2006836,22.8173917 C83.0001221,20.9466892 83.2308757,19.4276874 82.9828695,17.7295988 C81.5099284,17.9583121 80.1599121,17.5418812 78.8659668,18.0273577 C78.8659668,19.3262768 78.8594971,20.439636 78.8767497,21.555153 C78.8789063,21.6630366 79.0363363,21.7644472 79.1204427,21.8680156 C79.4158936,22.1657744 79.7113444,22.4613756 80.0671794,22.8173917 L83.2006836,22.8173917 Z M9.74772135,51.7215788 C8.90450033,52.7939422 7.33451335,52.6429051 6.79752604,53.9094592 L6.79752604,57.3336862 C7.40136719,57.5882916 7.59114583,58.4276264 8.38907878,58.5311947 C9.2064209,58.1600749 10.0280762,57.7867975 10.8562012,57.4092047 C10.994222,56.1491237 12.4736328,55.1954322 11.7403971,53.7131109 C11.1473389,53.1219085 10.5542806,52.5285485 9.74772135,51.7215788 L9.74772135,51.7215788 Z M24.1752116,81.4262625 L22.501709,81.4262625 C21.7965088,82.2375476 20.8195801,82.8114886 20.2912191,83.8450139 C21.130127,85.018788 21.1775716,86.6629348 22.5599365,87.3167098 L25.0917562,87.3167098 C25.7473551,86.4018564 26.8838704,85.9465874 27.1577555,85.0317341 C27.1340332,84.6411953 27.1814779,84.45132 27.1081543,84.3779592 C26.1398519,83.3854296 25.1564535,82.4080037 24.1752116,81.4262625 L24.1752116,81.4262625 Z M51.9303385,6.76862011 C50.3970133,8.07616993 49.3359782,8.97807723 48.3180745,9.84330409 C48.4517822,10.5920166 48.0334066,11.3623059 48.7838949,11.8607283 L53.8367513,11.8607283 C54.1516113,12.1520142 54.4556885,12.436827 54.8072103,12.7691086 C55.1673584,12.6698557 55.5447591,12.5684451 55.9717611,12.449773 C55.9717611,10.965294 55.9760742,9.56496428 55.9631348,8.16679219 C55.9609782,8.0545932 55.8315837,7.9423942 55.7237549,7.77193804 C55.3700765,7.44828709 54.9667969,7.07932501 54.6325277,6.76862011 L51.9303385,6.76862011 Z M55.3722331,59.5431433 C55.2902832,59.6510269 55.1350098,59.7589106 55.1350098,59.8667942 C55.1220703,64.3806461 55.1242269,68.8988133 55.1242269,73.3651963 C55.3722331,73.6154864 55.5727946,73.81615 55.9221598,74.165693 L55.9221598,78.4055204 C56.2693685,78.7572211 56.46993,78.9535693 56.7459717,79.2297515 L56.7459717,82.7748082 C56.4720866,83.0488326 56.2715251,83.2473385 56.0213623,83.4976286 L56.0213623,86.9153826 C56.2176107,87.1289922 56.713623,87.4245934 56.7265625,87.7417713 C56.7653809,88.5206913 57.0522054,89.1874122 57.6819255,89.459279 C60.052002,90.488489 61.5400391,92.3397724 62.7347819,94.8901419 L62.7347819,96.2063224 C63.0280762,96.5235003 63.3105876,96.8277322 63.593099,97.1319641 C63.394694,97.3283123 63.1962891,97.5289759 62.8382975,97.8871496 C63.0712077,99.1299693 62.3660075,100.35337 61.7190348,101.425733 C61.1367594,102.392371 60.2784424,103.393531 58.8637288,103.637348 C58.2943929,103.736601 57.8522949,104.569463 57.3454997,105.078674 C56.4634603,105.298756 55.3506673,104.882325 54.7532959,106 L47.975179,106 C46.7222087,104.726973 45.4412028,103.423738 44.3219401,102.286645 C44.0372721,101.639343 43.8259277,101.16034 43.9747314,101.499094 C43.0323079,100.109553 43.3212891,99.3932054 43.2630615,98.7178537 C43.2156169,98.1654894 43.2522786,97.6066521 43.2522786,97.561341 C43.7288818,96.5170273 44.0006104,95.9215096 44.332723,95.1922161 C45.719401,93.8026747 47.2203776,92.3052497 48.6739095,90.8488204 C49.1116943,90.7581981 49.4977214,90.6783642 49.9506022,90.5834266 L49.9506022,79.2189631 C49.7090658,78.9794614 49.5106608,78.7787978 49.1612956,78.4292548 L49.1612956,72.4913388 C48.8119303,72.1417958 48.6135254,71.9411322 48.3417969,71.6692654 C48.3396403,69.3799744 48.3417969,67.0130071 48.3396403,64.6460399 C47.131958,64.5403139 47.7336426,65.371018 47.5503337,65.7572414 C46.7394613,66.5383191 45.5555013,67.1899363 45.2147624,68.1414701 C44.8071696,69.2850367 43.9941406,69.9215503 43.2867839,70.8493496 L43.2867839,73.3457773 C43.5132243,73.5939097 43.7935791,73.9024569 44.0911865,74.2282655 L44.0911865,86.9671667 C43.4075521,87.6144686 42.6894124,88.2898203 41.8936361,89.0406905 L39.3833822,89.0406905 C38.7816976,88.3869155 38.1131592,87.6619374 37.3173828,86.8010259 C37.3173828,84.3585401 37.3173828,81.7110754 37.3173828,79.1261832 C36.8278402,79.0075111 36.4741618,78.8025322 36.3296712,78.9039428 C35.2513835,79.654813 33.7439372,79.7799581 32.9912923,81.3334826 C33.1702881,81.6700796 33.4139811,82.1318216 33.8452962,82.9452643 L33.8452962,86.8182873 C33.0408936,87.8884931 32.6138916,89.3557107 31.4083659,90.3482403 C30.325765,91.2415169 29.3962809,92.3203534 28.4042562,93.3128829 C27.5092773,92.9870743 27.1965739,93.8501435 26.6854655,94.117695 L21.0611165,94.117695 C20.0690918,93.6041688 19.2539062,93.3668248 18.6953532,92.8511409 C17.9793701,92.1930507 17.2267253,91.7334663 16.3446859,91.3299815 C15.6222331,90.9955422 15.119751,90.1820995 14.5223796,89.584424 C14.1428223,88.7450893 15.0421143,87.4655892 13.5993652,87.1333075 L13.5993652,82.716551 C13.849528,82.4511572 14.4361165,82.0455147 14.3735758,81.8642702 C13.9638265,80.6861807 15.8184814,80.3927372 15.3246257,79.2513282 L19.0037435,75.5703381 L21.2659912,75.5703381 C21.8396403,75.1992184 22.2838949,74.9100902 22.8920492,74.5195514 C23.2802327,74.7741568 23.7180176,75.0654426 24.3089193,75.4538238 L27.5696615,75.4538238 C28.5703125,74.3987217 29.6335042,73.2767317 30.4810384,72.3812975 C31.7965495,71.8483522 32.9761963,72.3834551 34.0221354,71.764203 C33.810791,71.5570664 33.7115885,71.3693488 33.6123861,71.3693488 C30.5198568,71.3520874 27.4251709,71.3564028 24.6518148,71.3564028 C23.7093913,71.0327518 23.4419759,70.0790604 22.5491536,70.4027113 C22.1027425,69.6173184 21.5981038,68.8556598 21.2336426,68.0314287 C21.0762126,67.6754127 21.2077637,67.1942516 21.2077637,66.4520121 C21.8051351,65.9945855 22.5836589,65.4012254 23.8085937,64.4647953 L34.3413086,64.4647953 C34.6906738,64.11741 34.8890788,63.9189041 35.1435547,63.6642987 L40.0238851,63.6642987 C42.1092936,62.6286156 42.3831787,60.1990759 44.0868734,58.9648869 L44.0868734,58.1190791 C43.4938151,57.4199931 43.2975667,57.4264661 41.9001058,58.5657174 L28.3675944,58.5657174 C28.0182292,58.9152604 27.8198242,59.1137664 27.5933838,59.3424797 L18.3308919,59.3424797 C16.9399007,60.7773322 15.5683187,62.1927657 14.6129557,63.1809799 C13.4742839,63.7203982 12.8833822,64.0008956 11.9668376,64.4345879 L5.53808594,64.4345879 C5.27282715,64.1886132 4.96875,63.9038004 4.65388997,63.6103568 L3.90771484,63.6103568 C2.86824544,62.5725161 1.87406413,61.5756712 0.841064453,60.5421459 L0.841064453,58.9303642 C0.627563477,58.7145969 0.427001953,58.5160909 0.0215657552,58.1082908 C-0.0215657552,56.3735217 0.0323486328,54.41867 0,52.5069717 C0.375244141,51.7776783 0.733235677,51.0807499 1.26590983,50.0515399 C2.184611,49.1302135 3.38366699,47.9305474 4.38647461,46.9293871 C5.21244303,46.5280599 5.80118815,46.2432471 6.68969727,45.8138702 L12.264445,45.8138702 C12.7604574,46.7265658 14.0544027,46.428807 14.6000163,47.2616687 C15.1715088,48.1312109 16.2390137,48.1527877 16.9614665,48.7547784 L16.9614665,49.648055 C17.4445394,50.1184277 18.0203451,50.5564354 18.432251,51.119588 C18.7255452,51.5209152 18.7988688,52.0840678 18.9670817,52.5652289 L30.9296061,52.5652289 C31.2164307,52.3019928 31.5226644,52.01718 31.8353678,51.7258941 L44.5311279,51.7258941 C44.9387207,51.3202516 45.3376872,50.9210821 45.6784261,50.5780121 C44.1990153,49.1000061 42.7196045,47.6220001 40.5738118,45.4772732 C41.2531331,45.9454882 41.1474609,45.8181855 41.0310059,45.8052395 C40.7528076,45.7728744 40.4659831,45.7944511 40.1834717,45.7944511 C34.3909098,45.7944511 28.598348,45.7944511 22.8057861,45.7922934 C22.674235,45.7922934 22.5426839,45.7512977 22.4111328,45.7275633 C21.2854004,44.8666517 21.0438639,43.466322 20.3063151,42.2537098 C20.7764486,41.2503918 21.7965088,40.6850815 22.5103353,39.8457467 L33.511027,39.8457467 C33.9229329,39.4357889 34.3218994,39.0344617 34.7683105,38.5878234 C33.4226074,37.0450872 31.0439046,36.749486 30.3063558,34.67812 C29.1935628,35.0816048 28.8916423,34.2012742 28.384847,33.9574572 L25.8314616,33.9574572 C25.5920817,34.1948012 25.3936768,34.3954648 25.1931152,34.5961284 C23.3233643,35.6771226 21.8633626,33.6661714 20.0949707,33.9186191 C19.1547038,32.8937244 18.2101237,31.8645144 16.8299154,30.3606164 C16.8536377,30.4102428 16.5689697,29.8211981 16.1398112,28.9279215 L16.1398112,22.6339895 C16.5042725,21.9910029 16.8277588,21.4235349 17.3690592,20.4741588 C18.0095622,19.7988072 18.9800212,18.7825432 19.9375407,17.7770676 C20.8670247,18.1158223 21.1581624,17.2095996 21.7576904,16.9506789 L23.9875895,16.9506789 C24.3477376,16.7025465 24.7833659,16.4004722 25.2233073,16.098398 C26.2972819,16.1544975 27.0003255,17.5505119 28.2597656,16.9506789 C29.6831055,18.0769841 31.8677165,18.3639546 32.2580566,20.651088 C32.3184408,21.0027887 32.7626953,21.2876015 33.0516764,21.6328292 C33.0581462,21.7256091 33.0753988,21.8615425 33.0775553,21.9996336 C33.0797119,22.7073503 33.0775553,23.4129094 33.0775553,24.1184685 C33.3600667,24.4270157 33.6425781,24.7334053 33.9358724,25.0527409 L33.9358724,29.2623608 C34.8459473,30.1707411 35.7991536,31.023022 36.6294352,31.9853441 C37.438151,32.9196165 38.5832926,33.206587 39.6443278,33.7977894 C40.192098,32.5679158 39.5947266,31.2927311 39.9289958,30.1664258 C39.6357015,29.8729823 39.43514,29.6744764 39.0857747,29.3227757 C38.8550212,27.4067621 39.150472,25.3095039 38.9628499,23.26403 C38.7364095,23.0353166 38.535848,22.8368107 38.2813721,22.57789 C38.8377686,21.6047794 39.4071045,20.6144076 39.993693,19.5938282 L43.0366211,19.5938282 C43.3191325,20.0879354 43.8129883,20.9531622 44.3068441,21.8205467 C44.4793701,21.6759827 44.6540527,21.5335762 44.8265788,21.3911698 C44.8955892,22.0578908 44.9645996,22.7267694 45.0314535,23.395648 C45.232015,23.5963116 45.4325765,23.7969752 45.7819417,24.1443605 L45.7819417,30.0844342 C46.1291504,30.4318196 46.3297119,30.6324832 46.5863444,30.8914039 L46.5863444,39.1207686 C47.1837158,40.173713 47.7056071,41.090724 48.3331706,42.1976103 L48.3331706,43.8590185 C48.7795817,43.9453254 49.2583415,44.0359476 49.8082682,44.1416736 C50.2956543,42.7348708 49.829834,41.4704745 50.088623,40.3333808 C49.8017985,40.0442527 49.6033936,39.8457467 49.402832,39.6472408 C49.331665,39.5350418 49.1979574,39.4228428 49.1979574,39.3106438 C49.1871745,33.5151342 49.1893311,27.7196246 49.1850179,21.924115 C49.1850179,21.7946547 49.1332601,21.6651943 49.1073812,21.5335762 C48.9068197,21.3329127 48.7084147,21.1344067 48.4539388,20.881959 C48.387085,20.2713376 48.3116048,19.6046166 48.2425944,18.9681031 C47.6150309,18.3510086 46.8688558,18.8019623 46.7631836,18.7782279 C45.5705973,18.1632911 44.8675537,17.800802 44.1666667,17.4404706 C44.1429443,17.1664461 44.1213786,16.8924217 44.0954997,16.5644554 C43.5498861,15.9926721 42.9740804,15.3863659 42.4241536,14.8059519 L42.4241536,7.51085961 C42.8511556,6.63052904 43.1379801,6.03932664 43.5434163,5.20646488 C44.8373617,3.91186109 46.3361816,2.41227838 47.8759766,0.87169988 L49.4977214,0.87169988 C49.8255208,0.578256356 50.1317546,0.302074216 50.4724935,0 L56.368571,0 C56.6575521,0.265393775 56.9637858,0.545891261 57.2808024,0.839334785 L58.1024577,0.839334785 C59.31014,2.04978932 60.5070394,3.24729782 61.6845296,4.42538726 C61.9497884,5.04895475 62.2021077,5.64663016 62.6808675,6.7772508 L62.6808675,13.8954139 C62.2085775,14.6700185 61.7319743,15.630183 61.0871582,16.4587294 C60.4876302,17.2354917 59.711263,17.8763206 59.2670085,18.3186435 C58.3763428,18.7674395 57.7897542,19.0630407 56.9465332,19.4859446 L55.5900472,19.4859446 C55.1177572,19.9110062 55.1177572,19.9110062 55.2773438,22.6188857 C55.4779053,22.8195493 55.6784668,23.0202129 56.0256755,23.3675983 L56.0256755,43.9323793 C56.9788818,43.9625868 57.1859131,43.1836668 57.6603597,42.8060741 C58.2081299,42.3702241 58.7515869,41.8782747 59.1462402,41.3064913 C59.5085449,40.7821768 59.6702881,40.1176135 60.2180583,38.7971177 L60.2180583,21.6112525 C60.5652669,21.2638671 60.7636719,21.0632035 61.0116781,20.8150711 L61.0116781,18.5797219 C61.5400391,17.0197244 63.151001,17.1901806 63.907959,16.2192277 C64.8460693,16.9118407 66.1270752,17.0585625 67.0026449,18.2905938 L67.0026449,29.3055143 C67.8846842,30.0110733 68.4389242,29.6377959 68.8939616,29.0401205 C69.9399007,27.6678405 70.4100342,25.9891709 71.2360026,24.4982189 C71.4279378,24.1508336 71.6284993,23.8056059 71.9886475,23.1690924 L71.9886475,17.1340811 C72.4523112,16.098398 72.6744385,15.3130051 73.118693,14.6851222 C73.601766,14.0054552 74.1948242,13.2200623 74.917277,12.9374071 C75.6720785,12.6439636 76.2716064,12.0376575 77.0220947,11.8974088 C77.8308105,11.7485293 78.7214762,11.9707696 79.2433675,11.0408126 L84.3436686,11.0408126 C84.8612467,11.3407291 85.1868896,12.1735909 86.0710856,11.856413 C86.7460938,12.8554156 88.2276611,13.2675311 88.1931559,14.7865329 C89.1959635,15.405785 88.9479574,16.8169031 89.8537191,17.4491013 L89.8537191,23.7969752 C89.4137777,24.7657704 89.1420492,25.3591304 88.8099365,26.0884239 C88.0206299,26.8802899 87.1234945,27.7800395 86.2867432,28.6150589 C85.611735,28.9106601 85.0143636,29.1738962 83.9813639,29.6270076 L79.3166911,29.6270076 C79.0967204,29.432817 78.7861735,29.1609502 78.4324951,28.852403 L76.7827148,28.852403 C76.0408529,29.4155556 75.531901,30.1232723 75.2472331,31.1114866 C75.0337321,31.8558837 73.8476156,32.0845971 73.789388,33.0426039 C73.7225342,34.1559631 72.4587809,34.3501537 72.1654867,35.27148 C72.2646891,35.3728907 72.3638916,35.5584505 72.4652507,35.5606082 C76.131429,35.5757119 79.799764,35.5735543 83.5457357,35.5735543 C83.8929443,35.9791968 84.255249,36.4085737 84.7426351,36.980357 L84.7426351,40.2815967 C84.4795329,40.5642518 84.1064453,40.9698944 83.6061198,41.5114703 L75.0919596,41.5114703 C74.744751,41.8588556 74.5441895,42.0595192 74.2746175,42.331386 L66.5972087,42.331386 C65.5857747,43.6777739 63.8238525,44.4717976 63.4184163,46.4029149 C61.9001872,47.4256519 61.7858887,49.503491 60.2202148,50.4701284 C60.4013672,50.651373 60.5005697,50.8369328 60.6019287,50.8390905 C69.3554687,50.8520366 78.1111654,50.8498789 86.8992106,50.8498789 C87.4189453,50.3061453 88.2492269,49.9134488 88.2470703,49.0309606 C89.5604248,47.7169377 90.8479004,46.428807 92.3143717,44.9615894 L92.7952881,44.9615894 C93.1187744,44.6659882 93.4228516,44.3811753 93.7398682,44.0877318 L95.3874919,44.0877318 C95.7152913,43.7899729 96.0236816,43.5116331 96.4571533,43.1146213 C96.890625,43.3347039 97.3564453,43.5698903 98.2255452,44.0078979 L99.888265,44.0078979 L105.128743,49.2510432 L105.128743,50.3902945 C105.424194,50.7096301 105.708862,51.013862 106,51.3267246 L106,54.7034828 C104.975627,55.1501211 105.368123,56.4663016 104.514119,57.0704501 C103.739909,57.6163413 103.140381,58.3650538 103.306437,59.3834755 L102.169922,59.3834755 C101.6545,59.8970016 101.156331,60.3975818 100.656006,60.8981619 C99.888265,61.4742606 98.531779,60.356586 98.1953532,61.8561687 L90.2915039,61.8561687 C89.8515625,61.71592 89.5906169,60.7492825 88.5770264,61.1160869 C87.9041748,60.3199056 87.1860352,59.4956745 86.5088704,58.6369206 C86.3600667,58.4470454 86.3600667,58.1406559 86.2888997,57.8860504 C79.957194,57.4437275 66.5260417,57.5429804 63.5887858,58.0629796 C64.6260986,59.0425632 65.6396891,59.9984123 66.4570312,60.7730169 C67.220459,61.2045515 67.7897949,61.5238871 68.505778,61.9316873 L80.155599,61.9316873 C80.3734131,62.1474546 80.571818,62.3481181 80.8651123,62.6415617 C82.5493978,62.9781587 84.3717041,62.5768315 86.1163737,62.8400676 C86.5476888,63.2543408 86.9552816,63.6448796 87.3520915,64.02463 L87.3520915,64.8898569 C87.5569661,65.0948358 87.7575277,65.2933417 88.0939535,65.6320964 C87.5612793,66.5577381 87.0005697,67.5286909 86.511027,68.3809718 C86.0883382,68.5276935 85.840332,68.689519 85.5944824,68.689519 C82.0620117,68.7046227 78.529541,68.6938343 74.9970703,68.7089381 C74.6153564,68.7110957 74.231486,68.8427138 73.8109538,68.92039 C74.7921956,71.0370672 77.300293,71.1794736 78.3505452,72.9379771 L86.9207764,72.9379771 C88.1112061,74.1398009 89.3037923,75.3437824 90.5179443,76.5693407 C90.7551676,77.1324933 91.0053304,77.7301687 91.4970296,78.9017852 L91.4970296,83.4393714 C91.2468669,83.851487 90.9082845,84.4060089 90.4273682,85.1935595 C89.0622559,86.5593665 87.4771729,88.1474138 85.7130941,89.9102327 C85.5039062,89.9102327 84.9388835,89.9102327 84.3738607,89.9123903 C84.1732992,90.1130539 83.9748942,90.3137175 83.569458,90.71936 C82.5601807,90.8725548 81.3158366,90.6697335 80.1814779,90.7776172 C79.1376953,89.9879089 79.1376953,89.9879089 78.1607666,89.927494 C76.730957,88.4947992 75.4477946,87.2131414 73.5500081,85.3122316 C73.6750895,85.5884137 73.403361,84.9950536 72.9634196,84.0413622 L72.9634196,79.3527388 C73.2502441,78.9751461 73.5715739,78.5587152 73.804484,78.2544833 C73.560791,76.3276813 71.6975098,76.5240296 70.832723,75.5336577 C70.03479,74.6188043 69.1225586,73.7988886 68.2663981,72.9422924 C68.048584,73.1602174 67.8609619,73.261628 67.8609619,73.360881 C67.8480225,77.3180532 67.850179,81.2752254 67.850179,84.9303234 C67.0134277,86.6413581 66.2370605,88.0913143 64.6153158,89.1550471 C63.465861,88.5681601 62.0446777,88.1452562 61.0612793,86.932644 L61.0612793,64.8661225 C59.2734782,63.0838846 57.4748942,61.286543 55.6655273,59.4999898 C55.6223958,59.458994 55.4735921,59.5258819 55.3722331,59.5431433 L55.3722331,59.5431433 Z" id="Fill-1" fill="#86B1B3" mask="url(#mask-2)"></path>
                </g>
            </g>
        </g>
    </g>
</svg>