<?xml version="1.0" encoding="UTF-8"?>
<svg width="48px" height="63px" viewBox="0 0 48 63" version="1.1" xmlns="http://www.w3.org/2000/svg" xmlns:xlink="http://www.w3.org/1999/xlink">
    <title>Group 25</title>
    <defs>
        <polygon id="path-1" points="0.032 0.763 6.868 0.763 6.868 6.9036 0.032 6.9036"></polygon>
        <polygon id="path-3" points="0.0228571429 0.501973684 4.90571429 0.501973684 4.90571429 4.54184211 0.0228571429 4.54184211"></polygon>
    </defs>
    <g id="01_design" stroke="none" stroke-width="1" fill="none" fill-rule="evenodd">
        <g id="Calendário-Advento" transform="translate(-668.000000, -586.000000)">
            <g id="11" transform="translate(649.000000, 585.000000)">
                <g id="Group-25" transform="translate(19.000000, 1.000000)">
                    <g id="Group-12">
                        <polygon id="Fill-1" fill="#E8AD3C" points="7.5924 48.2173 0.0004 49.3203 5.4934 54.6753 4.1964 62.2373 10.9884 58.6673 17.7774 62.2373 16.4804 54.6753 21.9754 49.3203 14.3834 48.2173 10.9884 41.3373"></polygon>
                        <g id="Group-11" transform="translate(8.000000, 0.237500)">
                            <path d="M0.6316,13.8343 L0.6316,11.4753 C1.0656,11.2043 1.6646,10.8303 2.2646,10.4563 C2.6736,9.8983 3.3646,10.0633 3.9656,10.0763 C4.7186,10.8283 5.4296,11.5393 6.1516,12.2613 L6.1516,13.4283 C5.4436,13.9913 5.5396,15.1133 4.6176,15.5543 L2.1126,15.5543 C1.7246,15.1023 1.2676,14.5713 0.6316,13.8343" id="Fill-2" fill="#E8AD3C"></path>
                            <path d="M5.2908,25.4417 C4.5788,25.2217 4.3048,25.7317 3.9478,26.0257 C3.5188,26.0037 2.8958,26.1357 2.7598,25.9357 C2.2168,25.1447 0.9168,25.5187 0.6168,23.8157 L0.6168,22.0107 C0.8998,21.7337 1.1888,21.4507 1.5188,21.1287 L4.5698,21.1287 C5.5058,21.5197 5.4788,22.7007 6.1658,23.3997 C5.9108,23.9947 5.6528,24.5967 5.2908,25.4417" id="Fill-4" fill="#E8AD3C"></path>
                            <g id="Group-8">
                                <mask id="mask-2" fill="white">
                                    <use xlink:href="#path-1"></use>
                                </mask>
                                <g id="Clip-7"></g>
                                <path d="M2.781,6.9036 C2.475,6.4956 2.084,6.3026 1.544,6.2156 C1.218,6.1626 0.778,5.7176 0.716,5.3866 C0.615,4.8596 0.483,4.4336 0.032,4.1916 L0.032,2.9316 C0.757,2.2006 1.47,1.4776 2.178,0.7616 L4.648,0.7616 C5.143,1.2606 5.889,1.6896 6.076,2.2926 C6.253,2.8626 6.673,3.2746 6.868,3.7636 C6.225,4.9696 5.799,6.1996 4.367,6.9036 L2.781,6.9036 Z" id="Fill-6" fill="#E8AD3C" mask="url(#mask-2)"></path>
                            </g>
                            <path d="M2.781,37.2738 C2.475,36.8658 2.084,36.6738 1.544,36.5858 C1.218,36.5328 0.778,36.0878 0.716,35.7568 C0.615,35.2298 0.483,34.8038 0.032,34.5618 L0.032,33.3018 C0.757,32.5708 1.47,31.8478 2.178,31.1318 L4.648,31.1318 C5.143,31.6308 5.889,32.0598 6.076,32.6628 C6.253,33.2328 6.673,33.6448 6.868,34.1338 C6.225,35.3398 5.799,36.5698 4.367,37.2738 L2.781,37.2738 Z" id="Fill-9" fill="#E8AD3C"></path>
                        </g>
                    </g>
                    <g id="Group-12" transform="translate(33.000000, 0.000000)">
                        <polygon id="Fill-1" fill="#E8AD3C" points="5.18225256 32.6086124 0 33.3474641 3.74948805 36.9345455 2.86416382 42 7.5003413 39.6086124 12.134471 42 11.2491468 36.9345455 15 33.3474641 9.81774744 32.6086124 7.5003413 28"></polygon>
                        <g id="Group-11" transform="translate(5.000000, 0.000000)">
                            <path d="M0.451142857,9.10151316 L0.451142857,7.54953947 C0.761142857,7.37125 1.189,7.12519737 1.61757143,6.87914474 C1.90971429,6.51203947 2.40328571,6.62059211 2.83257143,6.62914474 C3.37042857,7.12388158 3.87828571,7.59164474 4.394,8.06664474 L4.394,8.83440789 C3.88828571,9.20480263 3.95685714,9.94296053 3.29828571,10.2330921 L1.509,10.2330921 C1.23185714,9.93572368 0.905428571,9.58638158 0.451142857,9.10151316" id="Fill-2" fill="#E8AD3C"></path>
                            <path d="M3.77914286,16.7379605 C3.27057143,16.5932237 3.07485714,16.92875 2.81985714,17.1221711 C2.51342857,17.1076974 2.06842857,17.1945395 1.97128571,17.0629605 C1.58342857,16.5425658 0.654857143,16.7886184 0.440571429,15.6682237 L0.440571429,14.4807237 C0.642714286,14.2984868 0.849142857,14.1123026 1.08485714,13.9004605 L3.26414286,13.9004605 C3.93271429,14.1576974 3.91342857,14.9346711 4.40414286,15.3945395 C4.222,15.7859868 4.03771429,16.1820395 3.77914286,16.7379605" id="Fill-4" fill="#E8AD3C"></path>
                            <g id="Group-8">
                                <mask id="mask-4" fill="white">
                                    <use xlink:href="#path-3"></use>
                                </mask>
                                <g id="Clip-7"></g>
                                <path d="M1.98642857,4.54184211 C1.76785714,4.27342105 1.48857143,4.14644737 1.10285714,4.08921053 C0.87,4.05434211 0.555714286,3.76157895 0.511428571,3.54381579 C0.439285714,3.19710526 0.345,2.91684211 0.0228571429,2.75763158 L0.0228571429,1.92868421 C0.540714286,1.44776316 1.05,0.972105263 1.55571429,0.501052632 L3.32,0.501052632 C3.67357143,0.829342105 4.20642857,1.11157895 4.34,1.50828947 C4.46642857,1.88328947 4.76642857,2.15434211 4.90571429,2.47605263 C4.44642857,3.26947368 4.14214286,4.07868421 3.11928571,4.54184211 L1.98642857,4.54184211 Z" id="Fill-6" fill="#E8AD3C" mask="url(#mask-4)"></path>
                            </g>
                            <path d="M1.98642857,24.5222368 C1.76785714,24.2538158 1.48857143,24.1275 1.10285714,24.0696053 C0.87,24.0347368 0.555714286,23.7419737 0.511428571,23.5242105 C0.439285714,23.1775 0.345,22.8972368 0.0228571429,22.7380263 L0.0228571429,21.9090789 C0.540714286,21.4281579 1.05,20.9525 1.55571429,20.4814474 L3.32,20.4814474 C3.67357143,20.8097368 4.20642857,21.0919737 4.34,21.4886842 C4.46642857,21.8636842 4.76642857,22.1347368 4.90571429,22.4564474 C4.44642857,23.2498684 4.14214286,24.0590789 3.11928571,24.5222368 L1.98642857,24.5222368 Z" id="Fill-9" fill="#E8AD3C"></path>
                        </g>
                    </g>
                </g>
            </g>
        </g>
    </g>
</svg>