<?xml version="1.0" encoding="UTF-8"?>
<svg width="113px" height="110px" viewBox="0 0 113 110" version="1.1" xmlns="http://www.w3.org/2000/svg" xmlns:xlink="http://www.w3.org/1999/xlink">
    <title>Group 33</title>
    <defs>
        <polygon id="path-1" points="0.262971429 0.306483333 51.6525905 0.306483333 51.6525905 74 0.262971429 74"></polygon>
        <polygon id="path-3" points="0.50719786 0.93125 60.9420545 0.93125 60.9420545 29.3155876 0.50719786 29.3155876"></polygon>
    </defs>
    <g id="01_design" stroke="none" stroke-width="1" fill="none" fill-rule="evenodd">
        <g id="Calendário-Advento" transform="translate(-517.000000, -615.000000)">
            <g id="10" transform="translate(489.000000, 588.000000)">
                <g id="Group-33" transform="translate(84.500000, 82.000000) rotate(9.000000) translate(-84.500000, -82.000000) translate(35.000000, 35.000000)">
                    <path d="M76,19.9002027 L73.0101322,19.9002027 L72.4936224,19.3765812 C71.0422421,19.3765812 69.5650978,19.3790628 68.0867265,19.3691363 C68.0167953,19.3691363 67.9493177,19.2624267 67.7971866,19.1383458 C67.7444314,19.0787869 67.6192913,18.9422979 67.5002855,18.812013 L63.6148068,18.812013 C63.4025593,18.6159651 63.2025805,18.4286029 62.9915599,18.232555 L60.2519723,18.232555 C60.101068,18.0799355 59.9697936,17.9484097 59.74037,17.7151375 L56.4069802,17.7151375 L55.8193123,17.1207899 L52.4859225,17.1207899 L51.8970278,16.5239606 L49.6751769,16.5239606 C49.4445264,16.2931701 49.3144788,16.1604035 49.17707,16.0214329 C48.373474,16.0127472 47.56129,15.9680781 46.7994074,16.0412858 C46.432575,16.8378854 47.0276041,17.6692276 46.3736855,18.2672977 C45.7271282,18.8579229 46.3957691,19.7091181 45.9798622,20.3481348 L45.4891165,20.8456994 L45.4891165,23.0915642 C45.2596929,23.3248363 45.1296453,23.4563621 44.997144,23.5891287 C44.9959172,24.3373367 44.9959172,25.0867855 44.9959172,25.825067 C44.8045264,26.0322822 44.6192699,26.2345341 44.4254253,26.4454717 L44.4254253,28.1193234 C43.4856474,28.5399577 44.2806554,29.7782854 43.426758,30.2336624 C43.3703222,30.8627527 43.3126596,31.491843 43.2648119,32.0278726 C43.0513375,32.3132588 42.8906183,32.5254372 42.7078156,32.7661542 L42.7078156,34.3320555 L42.1508193,34.8953829 L42.1508193,36.5940508 C41.9250763,36.8149148 41.7913481,36.943959 41.6613005,37.0717624 L41.6613005,38.199658 C41.5287992,38.3336654 41.341089,38.4428566 41.277292,38.602921 C41.0822207,39.0917999 40.8552508,39.5484177 40.5742989,39.9975907 C40.2589948,40.5013592 40.1559382,41.134172 39.8798938,41.66772 C39.6308404,42.1429499 39.1180112,42.3886301 38.8566892,42.9234189 C38.3549017,43.9458458 35.3257743,46.995755 34.53322,47.4622993 C34.4645157,47.503246 34.3037965,47.4287975 34.2657637,47.4747074 C33.7983284,48.0479613 32.8929027,47.9102315 32.4966256,48.5914358 C31.7102057,48.335829 31.1139498,48.8234671 30.5140132,49.1684121 C29.8883125,49.527006 29.2773342,49.8359675 28.5412157,49.7838535 C27.9719508,50.6871626 27.0015013,50.0394602 26.2862395,50.3794419 C26.1549651,50.5122085 26.0236906,50.6437343 25.794267,50.8757656 L22.4608772,50.8757656 C22.2326805,51.1065562 22.1014061,51.2405636 21.9566361,51.3869791 L18.6514642,51.3869791 C18.4428973,51.5817861 18.2441453,51.7716299 18.0380321,51.9651962 L16.3977148,51.9651962 C16.1866942,52.1612441 15.9867153,52.3473655 15.7769216,52.5446541 L14.1905863,52.5446541 C13.9304911,52.7518693 13.7354197,53.0285697 13.5047693,53.0645532 C12.9784446,53.1452058 12.459481,53.0161617 12.0092219,53.5348199 C11.6706074,53.9231932 10.9958322,53.4591306 10.5050865,53.9281565 C10.0879527,54.3276971 9.48188185,54.6068792 8.91384376,54.7421274 C8.29427739,54.8910245 8.12619701,55.6044898 7.64403941,55.7087178 C6.4821991,55.9593613 6.07488022,57.1964481 5.06762479,57.5674501 C3.95240532,57.9793988 3.66531911,59.0998496 2.9549648,59.8282046 C2.35012079,60.4486093 2.35012079,61.3544 1.66675748,61.8470013 C1.59927996,62.6411193 0.853346582,63.2453934 1.04105679,64.1127191 C0.149126584,64.6884546 0.79323024,65.6711755 0.452162019,66.3933265 C0.320887559,66.5260931 0.190839964,66.6588597 0,66.8511852 C0,68.7483826 -0.00300456516,70.7063796 0.0068103477,72.6643767 C0.0068103477,72.8331267 0.0914639711,73.000636 0.136857943,73.169386 C0.266905538,73.3009118 0.399406862,73.4349192 0.542949962,73.5800939 L0.542949962,75.1273831 C0.767466094,75.5232012 0.949041982,75.8209955 1.10853432,76.1324386 C1.30483257,76.5183303 1.57596954,76.8967771 1.64712766,77.307485 C1.77962898,78.0854724 2.89607532,78.1686066 2.7942456,79.0868055 C2.77829637,79.2195721 2.96355285,79.3920446 3.08501239,79.5161255 C4.25912134,80.7135065 5.3988781,81.9481117 6.63678398,83.0722849 C7.14347886,83.5326252 7.83052276,83.7696197 8.38261161,84.2498129 C9.01321976,84.8019731 9.88061268,85.0749511 10.6400416,85.4806957 C11.096435,85.7238944 11.6730611,85.7462289 11.9981801,86.233867 C12.631242,86.0179662 12.8422626,86.9374058 13.4323843,86.7897495 C14.0593118,86.6321668 14.3905651,87.2116247 14.8776302,87.3295016 C15.3892325,87.4523417 15.9523631,87.3567994 16.3081537,87.3567994 C16.6860279,87.6459079 16.8958216,87.8059723 17.0442722,87.918886 L18.5619031,87.918886 C18.7447059,88.0839136 18.9471384,88.2663126 19.1728814,88.4698053 L20.2341189,88.4698053 C20.4451395,88.667094 20.6463452,88.8544562 20.8512315,89.0480224 L21.9345525,89.0480224 C22.1468,89.2453111 22.3492326,89.4301917 22.5590264,89.6262396 L23.6030877,89.6262396 C23.8460068,89.8371771 24.0496663,90.0133721 24.214066,90.1535835 C24.8814801,90.2801461 25.5758852,89.8557893 26.1022099,90.4451737 C26.697239,91.1152107 27.5315066,90.4414513 28.1608879,90.8459551 C28.313019,90.943979 28.4258905,91.1052842 28.557165,91.23681 C29.5423369,91.3919112 30.552046,91.1698063 31.4513374,91.3571685 C31.6611312,91.5681061 31.7924056,91.7008727 31.9236801,91.8336393 C32.7285029,91.9056062 33.5505019,91.7666356 34.1798832,91.8783084 C34.4731037,92.1587313 34.6080588,92.2865347 34.7479213,92.4205421 L36.9329662,92.4205421 C37.1513481,92.6203124 37.3525538,92.8051929 37.5660281,93 L40.7472867,93 C62.3376413,77.2863912 75.1865891,49.2676768 76,19.9002027" id="Fill-1" fill="#CF3D3D"></path>
                    <g id="Group-5" transform="translate(41.000000, 20.000000)">
                        <mask id="mask-2" fill="white">
                            <use xlink:href="#path-1"></use>
                        </mask>
                        <g id="Clip-4"></g>
                        <path d="M50.7685905,3.07038333 L49.0414476,3.07038333 C48.8185905,2.84098333 48.6873524,2.70778333 48.5598286,2.57828333 L46.3250667,2.57828333 C46.1158286,2.38341667 45.914019,2.19718333 45.7035429,2.00231667 L43.5195429,2.00231667 C43.2805905,1.79635 43.0750667,1.61875 42.8522095,1.42635 L40.114781,1.42635 C39.9464,1.25985 39.8139238,1.12911667 39.5836381,0.898483333 L36.7805905,0.898483333 C36.5490667,0.669083333 36.4165905,0.535883333 36.1863048,0.306483333 L35.8384,0.306483333 C35.0175429,29.4970167 22.0522095,57.3469167 0.262971429,72.96585 L0.37192381,72.96585 C0.52792381,73.1224833 0.6604,73.2532167 0.89192381,73.48385 L5.87278095,73.48385 C6.23059048,73.76505 6.43982857,73.9303167 6.52897143,74.0006167 L16.5922095,74.0006167 C16.9153524,73.76135 17.1283048,73.60595 17.2719238,73.49865 L18.8059238,73.49865 C18.9941143,73.3296833 19.1971619,73.1446833 19.4113524,72.9522833 C19.9115429,72.87335 20.4043048,72.9683167 20.9379238,72.59955 C21.7773524,72.0198833 22.800019,71.7103167 23.7335429,71.26015 C24.2783048,70.9962167 24.8131619,70.70145 25.3294476,70.38325 C26.0079238,69.96515 26.2592571,68.9464167 27.2806857,69.00685 C27.9418286,68.34825 28.6029714,67.6908833 29.2628762,67.0322833 C29.8571619,66.4402833 30.4514476,65.84705 31.0457333,65.25505 C31.6412571,64.66305 32.1686857,63.97485 32.8471619,63.50495 C33.5850667,62.99435 33.616019,62.09895 34.2016381,61.5229833 C34.6436381,61.0900833 35.2936381,60.7977833 35.3864952,60.0651833 C35.4644952,59.4472833 36.1355429,59.2733833 36.3844,58.80225 C36.6642095,58.2719167 36.8449714,57.6897833 37.0653524,57.1286167 C37.3005905,56.5292167 38.1499238,56.3503833 38.1684952,55.6362833 C38.1821143,55.17625 38.6364952,55.0825167 38.736781,54.7482833 C38.8630667,54.32895 38.5238286,53.79615 38.9794476,53.4569833 C39.4474476,53.10795 39.2666857,52.46045 39.7445905,52.0731833 C40.1519238,51.7451167 39.5898286,50.98045 40.1630667,50.5894833 C40.7845905,50.1676833 40.0689714,49.2957167 40.7536381,48.87515 C41.3417333,48.51255 40.6731619,47.7824167 41.1535429,47.36925 C41.286019,47.2385167 41.4172571,47.1053167 41.5509714,46.9745833 L41.5509714,45.3095833 C41.7441143,45.1023833 41.9310667,44.90135 42.0883048,44.7336167 C42.2059238,44.26125 41.8902095,43.74325 42.3470667,43.3966833 C42.8064,43.0488833 42.5785905,42.55555 42.688781,42.1349833 C42.7964952,41.72675 43.1208762,41.37155 43.2112571,40.9620833 C43.3053524,40.5304167 43.2310667,40.0629833 43.2310667,39.7904167 C43.5158286,39.41795 43.6755429,39.2082833 43.7919238,39.0565833 L43.7919238,37.5321833 C43.9553524,37.3484167 44.1361143,37.1449167 44.3391619,36.9142833 L44.3391619,35.28875 C44.534781,35.0790833 44.7229714,34.87805 44.9161143,34.6720833 L44.9161143,32.4644167 C45.1129714,32.2535167 45.2986857,32.05125 45.4943048,31.84035 L45.4943048,30.2283833 C45.7023048,29.98665 45.8793524,29.7819167 46.0464952,29.5895167 C45.7741143,28.17365 46.9465905,27.03035 46.616019,25.8081167 C46.8834476,25.4516833 47.0431619,25.2420167 47.2028762,25.0311167 C47.3266857,24.4674833 46.9651619,23.89275 47.290781,23.38585 C47.4294476,23.2464833 47.5619238,23.11575 47.6944,22.9837833 C47.784781,22.1747167 47.6238286,21.3459167 47.7563048,20.6416833 C48.0150667,20.41475 48.1549714,20.2914167 48.2824952,20.17795 L48.2824952,18.5030833 C48.4793524,18.28725 48.6650667,18.0849833 48.8606857,17.8716167 L48.8606857,16.8245167 C49.0711619,16.5790833 49.2469714,16.3731167 49.4376381,16.14865 L49.4376381,14.59095 C49.6604952,14.3109833 49.8276381,14.1037833 50.0158286,13.86945 L50.0158286,11.7357833 C50.204019,11.5483167 50.3352571,11.4175833 50.4689714,11.2856167 C50.618781,10.2940167 50.4033524,9.27898333 50.5853524,8.37741667 C50.7983048,8.16405 50.930781,8.03208333 51.0706857,7.89148333 L51.0706857,5.15471667 C51.3084,4.85131667 51.5201143,4.57751667 51.6525905,4.40855 C51.6142095,3.69321667 51.0756381,3.54275 50.7685905,3.07038333" id="Fill-3" fill="#A62D29" mask="url(#mask-2)"></path>
                    </g>
                    <g id="Group-8" transform="translate(38.000000, 0.000000)">
                        <mask id="mask-4" fill="white">
                            <use xlink:href="#path-3"></use>
                        </mask>
                        <g id="Clip-7"></g>
                        <path d="M6.636604,1.268625 C7.414084,1.163625 8.211404,1.008625 9.013684,0.958625 C9.899044,0.903625 10.790604,0.946125 11.677204,0.946125 C12.519164,0.946125 13.363604,0.909875 14.203084,0.957375 C15.007844,1.002375 15.807644,1.171125 16.612404,1.218625 C17.404764,1.266125 18.243004,1.072375 18.984524,1.271125 C19.800444,1.491125 20.630004,1.347375 21.395084,1.549875 C22.255644,1.776125 23.129844,1.636125 23.944524,1.833625 C24.756724,2.031125 25.592484,1.912375 26.348884,2.124875 C27.028404,2.313625 27.726524,2.194875 28.336604,2.402375 C28.969004,2.617375 29.610084,2.493625 30.189164,2.671125 C31.415524,3.047375 32.711324,2.993625 33.930244,3.458625 C34.663084,3.739875 35.604244,3.499875 36.307324,3.819875 C37.300564,4.271125 38.331004,3.913625 39.340364,4.283625 C40.327404,4.644875 41.488044,4.517375 42.570564,4.629875 C43.189324,4.694875 43.801884,4.817375 44.418164,4.906125 C45.034444,4.996125 45.700324,4.691125 46.276924,5.177375 C46.386044,5.269875 46.640244,5.178625 46.826244,5.193625 C47.955884,5.283625 49.116524,5.253625 50.208964,5.509875 C51.298924,5.767375 52.408724,5.794875 53.493724,6.029875 C54.076524,6.154875 56.916124,7.027375 57.383604,7.471125 C58.360724,8.394875 59.365124,9.256125 59.878484,10.642375 C60.270324,11.703625 60.642324,12.693625 60.714244,13.843625 C60.747724,14.346125 60.985804,14.884875 60.934964,15.424875 C60.886604,15.956125 60.719204,16.476125 60.674564,17.007375 C60.627444,17.568625 60.742764,18.151125 60.644804,18.698625 C60.529484,19.338625 60.344724,20.034875 60.052084,20.561125 C59.604444,21.367375 59.558564,22.348625 58.857964,23.054875 C58.560364,23.354875 58.487204,23.942375 58.435124,24.413625 C58.365684,25.041125 58.330964,25.651125 58.172244,26.282375 C57.830004,27.626125 57.144284,28.436125 55.832364,28.682375 C55.400844,28.762375 54.978004,28.898625 54.544004,28.952375 C54.145964,29.003625 53.756604,28.941125 53.382124,29.221125 C53.201084,29.357375 52.799324,29.333625 52.563724,29.229875 C51.506004,28.759875 50.315604,28.951125 49.243004,28.429875 C48.277044,27.961125 47.164764,27.811125 46.135564,27.462375 C45.179524,27.138625 44.178844,27.003625 43.225284,26.692375 C41.964204,26.281125 40.620044,26.292375 39.357724,25.868625 C38.978284,25.742375 38.518244,25.884875 38.102844,25.837375 C37.761844,25.798625 37.430764,25.578625 37.095964,25.579875 C35.738164,25.588625 34.490724,24.866125 33.119284,24.999875 C32.605924,24.568625 31.968564,24.842375 31.416764,24.698625 C30.246204,24.393625 29.044644,24.573625 27.890204,24.383625 C27.224324,24.274875 26.564644,24.198625 25.893804,24.143625 C25.043164,24.073625 24.204924,24.261125 23.327004,23.913625 C22.561924,23.611125 21.600924,24.089875 20.794924,23.587375 C20.761444,23.567375 20.703164,23.587375 20.656044,23.586125 C19.292044,23.491125 17.905724,23.521125 16.570244,23.272375 C14.780924,22.938625 12.981684,23.192375 11.213444,22.981125 C9.749004,22.806125 8.243644,22.774875 6.822604,22.413625 C5.368084,22.042375 3.882564,21.719875 2.576844,20.789875 C1.324444,19.898625 0.768924,18.672375 0.632524,17.318625 C0.455204,15.544875 0.477524,13.731125 0.627564,11.952375 C0.729244,10.742375 1.153324,9.549875 1.516644,8.376125 C1.902284,7.128625 2.418124,5.914875 2.940164,4.731125 C3.487004,3.484875 4.252084,2.261125 5.711564,1.784875 C6.037684,1.678625 6.322884,1.448625 6.636604,1.268625" id="Fill-6" fill="#B2D3D4" mask="url(#mask-4)"></path>
                    </g>
                    <path d="M60.2227021,48.4882754 C58.7830186,49.3031655 58.3644216,49.1985677 57.384469,47.7840644 C57.3082505,47.6746016 57.211465,47.576085 57.1122599,47.484866 C55.6036169,46.0886065 54.8910341,44.2155755 54.25346,42.3522745 C53.9280189,41.396299 53.5674932,40.4014033 53.5396673,39.3420462 C53.5311986,39.0124413 53.3920695,38.6779715 53.2747172,38.3580968 C52.9262896,37.4094187 53.0109769,36.4242531 53.0049278,35.4451687 C53,34.4368942 53.003718,33.429836 53.003718,32.6295409 C53.4041677,31.250309 54.1300585,30.3940663 55.6592685,30 L56.9574032,30 C57.1642821,30.1873031 57.3457548,30.397715 57.5683613,30.5436655 C58.4261223,31.1080073 59.0491786,32.1576344 59.3298564,33.1172587 C59.5464138,33.8652549 59.6190029,34.5998722 59.5633513,35.3478684 C59.5222174,35.9109939 59.7254669,36.3707379 59.9746894,36.8961596 C60.6195224,36.2478962 61.2111234,35.5643616 61.8934608,34.986641 C63.1734482,33.9029587 64.4981989,32.8630617 66.1387122,32.3558838 C66.5802958,32.2184471 67.0327677,32.1162818 67.522744,31.9873589 C67.8699618,32.0688479 68.287349,32.1673644 68.8353965,32.2962873 C68.8232984,32.2865573 68.9225034,32.3765601 69.0192889,32.4689954 C70.2545131,33.664573 70.1734553,34.1267495 69.5939524,35.7540972 C69.231007,36.7769667 68.5692366,37.6380744 67.9437607,38.5003985 C66.9105761,39.9234155 65.8048024,41.2941336 64.6941895,42.661203 C63.7227056,43.8567806 62.569749,44.8687038 61.599475,46.0460376 C61.0707845,46.6870034 60.7937362,47.5335161 60.3969159,48.285161 C60.3557821,48.361785 60.2819832,48.4201652 60.2227021,48.4882754" id="Fill-9" fill="#FFFFFF"></path>
                    <path d="M77.9522112,57 C78.3718204,57.2519913 78.6729517,57.4344678 79,57.6305989 L79,59.1661322 C78.7976003,59.3759181 78.5705177,59.6105307 78.3841618,59.8029378 C77.5449434,59.8935554 76.8032225,60.1219613 76.0491601,60.382642 C73.915324,61.1150305 71.9505656,62.2210613 69.9808708,63.2687494 C68.0901611,64.2729906 66.2562221,65.4398469 64.5987659,66.8624185 C63.8360644,67.5166029 63.0202948,68.1260991 62.3859445,68.8920037 C59.8287967,71.9742423 56.7755228,74.5673942 54.098663,77.5230164 C52.9200549,78.8251784 52.0018512,80.3520223 51.0725403,81.8639702 C49.6335276,84.2051309 48.6017827,86.7461467 47.2750771,89.1394435 C46.9418581,89.739009 46.7394583,90.4118134 46.4741172,91.0511017 C46.1606445,91.8058343 45.7829962,92.5158788 45.0079534,93 L43.88735,93 C43.588687,92.5667736 43.264107,92.0950657 43,91.712734 C43.4973603,90.5694631 43.9576963,89.5441192 44.3945835,88.5076032 C44.8302365,87.4698459 45.4041138,86.5040861 45.8348303,85.4563981 C46.22482,84.5067756 46.7863558,83.608048 47.2750771,82.6869763 C48.3623586,80.6375297 49.5841618,78.661322 50.9133356,76.7571118 C51.0182379,76.6069101 51.181145,76.4976725 51.3033253,76.3574015 C54.3528968,72.8469018 57.7727117,69.6976311 60.9629757,66.3274025 C62.6883099,64.5051205 64.7049023,63.1222716 66.7955434,61.8089376 C67.5693521,61.3223337 68.3443949,60.8332471 69.1527597,60.4111927 C70.0006171,59.9692769 70.8694549,59.604324 71.6654782,59.0320679 C72.4195406,58.4920865 73.3513198,58.1122375 74.2596503,57.914865 C74.9914981,57.7559739 75.5629071,57.0583428 76.3910182,57.3066101 C76.832842,56.7641461 77.4400411,57.1613737 77.9522112,57" id="Fill-11" fill="#FFFFFF"></path>
                    <path d="M20.8585174,85.0201798 C20.5188927,85.3402216 20.1780148,85.6602633 19.815832,86 L18.7167513,86 C18.4874106,85.771047 18.2555635,85.5408631 18.0187034,85.3045246 C17.917192,84.0489761 18.2467909,82.8475885 18.5751365,81.6462009 C18.6891803,81.2252229 18.9147612,80.8485583 18.8871902,80.3672647 C18.8608724,79.9487486 19.1253035,79.5179231 19.1303164,79.0907904 C19.1466084,77.8807863 19.684243,76.7926443 19.8885192,75.6355701 C20.1529502,74.1252191 20.6229106,72.6665672 20.8986207,71.1537543 C21.3121858,68.9023835 20.9800805,66.6682457 21.131721,64.432877 C20.6517348,62.7748144 21.1191888,61.0355105 20.7883367,59.4057593 C20.4612442,57.7957029 20.7457269,56.2188817 20.515133,54.616211 C20.9650418,54.089373 21.3999118,53.5785371 21.8924303,53 C22.3786826,53.2117199 22.8160591,53.4012832 23.2383968,53.5859226 C23.3812648,54.0044388 23.5040811,54.370025 23.6544684,54.8156216 C23.1393918,55.5615651 23.4990682,56.4995337 23.4000632,57.3894961 C23.87253,57.8424783 23.6607345,58.4210153 23.6757733,58.9453915 C23.7045975,59.9658324 23.5065875,61.0281249 23.7271556,62.0017904 C24.0442222,63.4136671 23.927672,64.8107725 23.9615092,66.2152635 C23.9940931,67.6542206 24.0341964,69.0981014 23.9489769,70.5321347 C23.87253,71.8012235 23.6231377,73.0592338 23.2647146,74.2877019 C23.0353739,75.076728 22.8010203,75.8632922 22.5466151,76.6424708 C22.2897034,77.4351897 22.3949746,78.3054571 21.9814094,79.0600172 C22.0578563,80.8140923 21.1517727,82.4081465 21.1141759,84.1474505 C21.1079097,84.419486 20.878569,84.6865978 20.7507398,84.9537096 C20.7858302,84.9758663 20.823427,84.9967921 20.8585174,85.0201798" id="Fill-13" fill="#FFFFFF"></path>
                    <path d="M76.0692826,52.0638046 L77,53.0736097 L77,53.9583532 C76.6689148,54.3242246 76.3476395,54.6807829 76.0104231,55.054637 C75.0968731,54.8537403 74.3022685,55.3287079 73.5052115,55.6839358 C72.5622318,56.1043553 71.6290619,56.5899664 70.7621091,57.1726998 C70.3010423,57.4813622 69.8387492,57.6356934 69.3359902,57.7980073 C68.1404047,58.1771831 67.8436542,58.089374 67.2452483,56.953177 C67.1814838,56.8307763 67.076027,56.7349846 67,56.6378623 C67.2440221,55.6653096 67.8080932,55.1703854 68.6725935,54.8364446 C69.7909258,54.4053816 70.8724709,53.8133351 71.8976088,53.1600884 C73.187615,52.3365451 74.5107296,51.8110207 76.0692826,52.0638046" id="Fill-15" fill="#FFFFFF"></path>
                    <path d="M40.5845986,83.3177838 C41.044018,83.1860198 41.3786091,83.0904263 41.6990445,83 C41.9782994,83.0839673 42.2781446,83.1756854 42.6294653,83.2829051 C43.1043273,83.8758433 42.9897942,84.6392996 42.9833598,85.3200804 C42.3849564,86.4465337 41.8135776,87.5213148 41.2434858,88.5960959 C41.4287978,89.4163916 40.8522715,90.1372183 40.9500751,91.0324386 C40.4958032,91.3476389 40.0080723,91.6873834 39.5576611,92 C38.8936263,91.6925506 38.2617638,91.4664849 38.1266405,90.7275728 C38.0069598,90.086838 37.842238,89.426726 38.3273951,88.8454141 C38.4522234,86.7023109 39.8961129,85.1276016 40.5845986,83.3177838" id="Fill-17" fill="#FFFFFF"></path>
                    <path d="M30.0116721,63 L30.652647,63 C30.898354,63.3287671 31.1643586,63.6845034 31.444251,64.0595034 C31.8961383,65.7572774 31.6910264,67.5680651 31.7316214,69.359589 C31.7348263,69.5034247 31.6814117,69.7191781 31.7412361,69.7821062 C32.0275382,70.0787671 32.0371528,70.484589 31.9559626,70.8249144 C31.8555432,71.2474315 31.6226557,71.625 31.4560022,72 L30.1035451,72 C29.8695893,71.619863 29.597175,71.1780822 29.3140777,70.7183219 L29.3140777,69.8745719 C29.3140777,68.8613014 29.3546728,67.8454623 29.3023265,66.8373288 C29.2531851,65.9139555 29.1036243,64.9982877 29,64.0851884 C29.3439899,63.7153253 29.6409749,63.3968322 30.0116721,63" id="Fill-19" fill="#FFFFFF"></path>
                    <path d="M27.381733,60.0305869 C26.9173236,57.8938973 26.0816165,55.8766281 26,53.626372 C26.2287561,53.4612908 26.4736056,53.2821601 26.8632957,53 L27.7840679,53 C28.1174311,53.4015806 28.5151678,53.8804332 28.7324287,54.1415191 C29.0002688,55.38958 29.0749881,56.4233865 29.4704258,57.3085029 C29.6980324,57.8154544 29.5198555,58.3809454 29.906097,58.8551149 C30.0957692,59.0881019 29.9394334,59.6161276 29.9394334,59.8947754 C29.8026395,60.1734231 29.7141258,60.3560661 29.5761824,60.6417386 C29.2071839,60.7459388 28.7427744,60.8794088 28.3151499,61 C27.9473009,60.6183228 27.6449749,60.3045514 27.381733,60.0305869" id="Fill-21" fill="#FFFFFF"></path>
                    <path d="M49.8292243,71.9843731 C49.0138304,72.0627291 48.4714372,71.8454692 48,71.3539631 L48,69.9637369 C49.5045099,68.3871182 50.4906795,66.2347013 52.4630186,65 C53.3361395,65.167397 53.8039687,65.6482182 54,66.6039245 C52.9933854,68.58657 51.344558,70.2415447 49.8292243,71.9843731" id="Fill-23" fill="#FFFFFF"></path>
                    <path d="M57.6188938,63.951252 C57.4154219,63.7281985 57.2216391,63.5170236 57,63.2754923 L57,62.2169781 C57.2410174,61.4950239 57.5559144,61.141306 58.0403714,60.8271833 C58.7900686,60.3362017 59.4465079,59.6419642 60.0666128,58.9530061 C60.7048849,58.2416107 61.4073476,57.8707348 62.3411385,58.0409945 C62.5446104,58.2614083 62.7710941,58.5095388 63,58.7589892 L63,60.2583309 C62.2115462,61.1518647 61.326201,61.9305722 60.3379088,62.5759754 C60.1489705,62.7013605 60.0036334,62.9125354 59.8522406,63.0986333 C59.2830036,63.7955105 58.5902301,64.1333903 57.6188938,63.951252" id="Fill-25" fill="#FFFFFF"></path>
                    <path d="M29.3130168,74 C29.7356815,74.1115688 30.0235835,74.1867837 30.3715161,74.2795487 C30.562634,74.6205229 30.7733538,75.0016117 31,75.4077722 C30.4584992,76.5660817 30.1399694,77.7369269 30.0566616,79.0130731 C30.007657,79.7902937 29.570291,80.5549785 28.7776417,81 L28.2447167,81 C27.842879,80.5888252 27.4949464,80.2315544 27,79.7238539 C27.1788668,78.536712 27.3344564,77.101361 27.6248086,75.6948424 C27.788974,74.9013252 28.1614089,74.1429083 29.1721286,74.1353868 C29.2370597,74.1341332 29.3019908,74.0112822 29.3130168,74" id="Fill-27" fill="#FFFFFF"></path>
                    <path d="M28.6041193,82.2535864 C29.2337365,83.1242902 29.0355029,83.7877387 28.544424,84.4187674 C28.0601031,85.0416912 28.0026603,85.8382925 27.7548682,86.5538443 C27.3651589,87.6804332 27.0824506,87.9444232 25.8446164,88 C25.7826684,87.9421075 25.7173414,87.8888463 25.661025,87.8263224 C24.9165224,87.0042483 24.8613323,86.8421492 25.196978,85.7757686 C25.4594124,84.9351689 25.7207204,84.0876221 26.0890296,83.2933364 C26.7051308,81.9641237 27.3662852,81.7418164 28.6041193,82.2535864" id="Fill-29" fill="#FFFFFF"></path>
                    <path d="M43.4414075,79.5815106 C42.4024831,78.347625 43.4523949,77.4978619 43.9932216,76.6468637 C44.5926479,75.7019964 45.4215899,74.9065786 46.1894905,74 C46.6790424,74.1284526 47.1380736,74.2470241 47.5385051,74.3507743 C48.5115047,75.5216687 47.7350583,76.4208366 47.135632,77.3162992 C46.766942,77.8708684 46.1662948,78.3043957 45.9221293,78.8972537 C45.6852887,79.47282 45.2628823,79.7346655 44.8197219,79.9162283 C44.3826656,80.0940857 43.8601513,79.9915707 43.4414075,79.5815106" id="Fill-31" fill="#FFFFFF"></path>
                </g>
            </g>
        </g>
    </g>
</svg>