<?xml version="1.0" encoding="UTF-8"?>
<svg width="109px" height="106px" viewBox="0 0 109 106" version="1.1" xmlns="http://www.w3.org/2000/svg" xmlns:xlink="http://www.w3.org/1999/xlink">
    <title>Group 3 Copy 5</title>
    <defs>
        <polygon id="path-1" points="0 0 109 0 109 106 0 106"></polygon>
    </defs>
    <g id="01_design" stroke="none" stroke-width="1" fill="none" fill-rule="evenodd">
        <g id="Calendário-Advento" transform="translate(-514.000000, -949.000000)">
            <g id="20" transform="translate(489.000000, 924.000000)">
                <g id="Group-3-Copy-5" transform="translate(25.000000, 25.000000)">
                    <mask id="mask-2" fill="white">
                        <use xlink:href="#path-1"></use>
                    </mask>
                    <g id="Clip-2"></g>
                    <path d="M72.0977879,39.8980043 C72.9905834,38.3426274 74.8612024,38.6804882 76.0637432,37.6090739 C76.9079512,36.8542139 78.3321725,35.9867337 79.4010977,35.9441206 C81.0864768,35.8771572 82.2890177,35.125341 83.637321,34.4374444 C85.3439572,33.5699641 87.0809606,32.7694472 89.3645735,31.6736827 L91.3991753,31.6736827 C91.9063075,31.1958076 92.4012927,30.7331515 92.9144982,30.2522326 L95.5898479,30.2522326 L96.7620215,29.0773295 C98.1376553,29.0773295 99.6742352,29.0773295 101.210815,29.0803733 C103.679668,31.0436181 103.7981,34.3826561 105.726417,36.5954917 C104.475288,38.4400287 102.173455,38.4856856 100.806932,39.9406174 C99.1306625,39.5814501 97.9038279,40.9755061 96.5494512,41.1611773 C94.9308798,41.383374 93.6676046,42.5430581 92.3284114,42.5582771 C90.5944448,42.5795836 89.5255196,43.8458004 88.083078,44.0040775 C86.6892238,44.1593108 86.1395776,46.0708112 84.5392266,45.4620531 C83.8164874,47.1239627 81.8304731,46.6734817 80.6582994,47.8149031 C79.6713657,48.7736971 77.958656,48.9411055 76.6376832,49.6076956 C74.4694656,50.7065039 72.3619825,51.9209763 70.1482142,53.1324049 C71.2900206,54.1886001 72.4834513,53.5828859 73.5645233,53.7046375 C74.4694656,53.8050826 75.3926283,53.7229002 76.2975706,53.7229002 L77.5183318,54.9495477 L83.020867,54.9495477 C83.5856968,55.5156927 83.907589,55.8413783 84.4754555,56.4075233 L89.974954,56.4075233 C90.5397838,56.9736683 90.8647128,57.2993539 91.4295425,57.8654989 L96.9290411,57.8654989 C97.4938708,58.4316439 97.8187998,58.7573295 98.2196467,59.1591098 L102.200786,59.1591098 C102.741322,59.6339411 103.24238,60.0752907 103.813284,60.5775162 L105.893436,60.5775162 C107.08383,61.524135 107.949295,62.2089878 109,63.0460302 C108.395693,63.9713424 107.931075,64.6835894 107.293364,65.6636899 L107.293364,69.4471213 C106.664763,70.1076238 106.042235,70.7620388 105.468296,71.3677531 C104.086588,72.1713137 103.345629,71.2490452 102.513568,70.3389519 L98.5172452,70.3389519 C97.9797459,69.8641206 97.4786872,69.422771 96.907784,68.9205456 L91.532791,68.9205456 C91.0195854,68.4426705 90.5246002,67.9800144 90.0205048,67.5082268 C88.5082186,67.6938981 86.8805371,67.0090452 85.4289853,67.9800144 C85.930044,69.6358363 88.3138686,70.1471931 87.9798295,72.3143719 C90.7341338,75.0385642 93.4975483,77.7779756 96.2214855,80.4747739 L96.2214855,83.332893 C95.1647072,84.4195262 93.3123085,84.2825556 92.4498802,85.7557502 C91.608709,87.1893754 89.4283446,86.5745298 88.6570179,88.1633884 L81.3719285,80.8582915 C81.0439628,78.0793108 78.5599265,76.9348457 76.9838692,75.114659 C75.9331643,73.9032304 74.7852844,72.7678966 73.5857804,71.7056138 C72.2860645,70.5581048 71.502591,68.6161665 69.3100797,68.7713999 C68.1773834,67.6330223 67.0598707,66.4794257 65.8968073,65.3745298 C65.5992088,65.0914573 65.1710314,64.936224 64.7884047,64.7535966 C63.6465983,64.2026705 62.4956817,63.6700072 61.2081128,63.0612491 C60.8558533,63.8891601 60.6098791,64.4613927 60.394272,64.9666619 C61.4024628,66.315061 62.7234357,67.4260445 63.1182092,68.8018378 C63.4826155,70.0802297 65.2348025,70.7224695 64.6092383,72.3295908 C65.9939823,73.0053123 65.5688416,74.8985499 66.5891793,75.5986217 C68.7361397,77.0779038 68.7422132,79.9847236 70.8891737,81.460962 C72.1767426,82.346705 73.7619101,83.5611773 74.0716554,84.8974013 C74.4360617,86.4588658 75.4260322,87.1711127 76.282387,88.1329505 C77.3482755,89.3291601 78.532596,90.418837 79.7017329,91.5906963 L79.7017329,94.3514142 C77.2389536,95.4045657 75.0646626,97.215621 72.3255419,97.8122039 C71.8882543,97.9065614 71.4114894,97.824379 70.8922104,97.824379 C69.6896696,96.3390093 68.0042904,95.3832592 67.20867,93.2678248 C66.5466652,91.5054702 64.5485039,90.245341 63.1333928,88.7691027 C62.4987184,88.1086001 61.8397504,87.4694042 61.1929292,86.8210768 C61.0319831,86.6597559 60.7374213,86.5014788 60.7283111,86.3340704 C60.6280994,84.2855994 58.6117178,83.4911701 57.9193459,81.9753625 C57.4668747,80.9830869 57.0872848,80.0364681 56.404023,79.1537688 C56.0608737,78.7124192 56.1610854,77.9271213 56.0062127,76.9531084 C55.1194907,77.7688442 54.5030367,78.3349892 53.6679389,79.1050682 L53.6679389,84.6752046 L52.2133504,86.1331802 L52.2133504,91.6454846 L50.9318549,92.9330079 L50.9318549,103.875434 C50.3093275,104.535937 49.6928735,105.190352 48.9306569,106 C48.4812225,105.643877 48.031788,105.287753 47.4183708,104.806834 L43.7287569,104.806834 C43.370424,104.615075 43.0910459,104.560287 43.0120912,104.408098 C42.4047473,103.221019 41.0655541,103.525398 40.0118126,102.928816 L40.0118126,94.4153338 C40.1636485,94.223575 40.5644955,93.7061307 41.1232518,92.9847523 L41.1232518,87.9624982 C42.3227559,86.3736396 43.2489553,84.9004451 42.2741684,83.0163388 C41.7609628,82.7910983 38.51471,85.0313281 36.5833565,88.2425269 C35.162172,90.5984207 33.3371037,92.4216511 31.6001003,94.4427279 L31.6001003,95.7728643 C30.9411322,96.430323 30.2912743,97.0816942 29.6869672,97.6874085 C28.7850616,97.1760517 27.8953028,96.6707825 25.979133,95.5811055 C25.210843,94.8232017 23.5831615,93.2130366 21.7489831,91.3989375 C22.7693208,89.3261163 23.5497576,87.1071931 25.3960829,85.4057143 C27.0146543,83.9203446 28.4813896,82.3771429 29.4136625,80.2038765 C30.2487602,78.2680258 32.7813841,77.4035894 33.2885162,74.9046375 C33.4798295,73.96715 34.8554633,73.3005599 35.6024962,72.4361235 C36.1642893,71.7817085 37.1967738,71.4377602 37.1178191,70.308514 C37.205884,69.0270782 36.2736112,68.610079 35.4111829,68.9448959 C34.2268624,69.4045083 33.3613974,70.6220244 31.8339277,70.2750323 C30.3763024,69.9402154 29.8570235,72.1895765 28.2840029,71.6386504 C27.4519418,73.154458 25.5843595,72.8896482 24.3878921,73.924537 C23.4799131,74.7098349 22.1103527,74.9776884 21.0262439,75.7234171 C20.0059063,76.4234889 18.408592,76.3960948 17.5613473,77.2087868 C15.0165766,79.6559943 11.6184878,80.5995693 8.83685296,82.5719454 C6.98749095,81.7349031 6.95712375,79.6651256 5.96411657,78.2436755 C5.1320555,77.0444221 4.69780465,75.56514 4.1056444,74.2471788 C4.50952805,71.3464465 7.75578091,72.0434745 9.0646069,70.1958938 C10.5040118,68.159598 13.2522427,68.1687294 15.2018165,66.8051113 C16.8264612,65.6728212 18.7395944,64.9575305 20.5859197,64.0230869 C20.2245501,63.6821823 20.0636039,63.3930223 19.8935477,63.3899785 C17.6068981,63.3625844 15.3202485,63.3717157 13.0487825,63.3717157 C12.70867,63.7126202 12.383741,64.035262 12.0618488,64.3609476 C11.6579651,64.4918306 11.2540815,64.7262024 10.8471611,64.73229 C7.88332312,64.7627279 4.91948515,64.7505528 2.04978548,64.7505528 C1.30882599,64.0048241 0.658968073,63.3564968 0,62.6929505 L0,55.801809 C1.09625564,55.2326202 2.21984176,54.6543001 3.8687803,53.798995 L12.8362122,53.798995 C13.3706748,53.3241637 13.8717334,52.8828141 14.676464,52.1736109 L18.9309077,52.1736109 C19.0857804,50.9987078 19.0857804,50.9987078 14.4456734,50.9621823 C13.9355045,50.487351 13.4405193,50.0246949 12.9728645,49.5894329 C12.2349418,49.5894329 11.5486432,49.5955205 10.8623447,49.5863891 C10.6437009,49.5803015 10.4280938,49.5316009 10.2124868,49.501163 C9.88755781,49.1785212 9.56566557,48.8528356 9.0494233,48.3353912 C7.71023012,48.2653841 6.16757675,48.1862455 4.70084137,48.1131945 C4.4700507,47.8818665 4.25140692,47.7448959 4.16334206,47.5470495 C4.07527721,47.3583345 4.11475456,47.1056999 4.11475456,46.8804594 C4.11171784,43.7240488 4.11171784,40.5645944 4.11171784,37.1159799 C6.10684237,37.2377315 7.63734886,37.332089 9.16785535,37.4294903 C10.2823313,39.5479684 13.3099404,37.5725485 14.3424249,39.9040919 L18.4328857,39.9040919 C18.949128,40.381967 19.4410765,40.8446231 19.9482086,41.3194544 C21.5273026,41.3194544 23.1337271,41.3194544 24.6581601,41.1276956 C24.8828774,42.0043073 24.7826656,43.0696339 25.9852064,42.138234 C25.6086533,41.8155922 25.2351368,41.4959943 24.6581601,41.1276956 C24.8434,39.9588801 23.8959436,39.9740991 22.9667075,39.9284422 C22.7723575,39.9223546 22.5324567,39.800603 22.4018778,39.6545011 C21.2145205,38.3182771 19.9148047,37.1616368 18.1109935,36.7476813 C15.7605728,33.6795406 11.8067644,32.5229002 9.46241712,29.4547595 C8.74575138,28.5172721 7.30634646,29.1960373 6.58664401,28.024178 C6.00359392,27.0745154 5.01362345,26.3774874 4.16030534,25.5191385 L4.16030534,22.2074946 C5.3689196,21.2426131 6.96319719,19.9703087 8.08982003,19.0723905 C8.4967404,17.148715 8.4967404,17.148715 9.62032652,16.4547308 C11.4787987,16.902168 12.2835293,18.7193108 13.6105756,19.878995 C14.7706023,20.8986648 16.4650917,20.8408327 17.4793559,22.2440201 C18.5391709,23.7111271 19.9998328,24.8890739 21.2600713,26.1674659 L22.2834457,26.1674659 C25.0407868,28.1307107 27.5126762,29.9235032 30.0392266,31.6371572 C30.2700173,31.7954343 30.8409205,31.4545298 31.527219,31.2749462 C29.6201594,28.4442211 28.9703014,24.9529935 26.152226,22.7553769 C26.249401,20.8834458 24.919318,19.544178 24.108514,18.1227279 C23.3766646,16.8382484 23.4070318,15.0150179 21.7945339,14.2479828 C20.4067532,13.590524 20.8895916,11.8373008 19.8814008,10.8998134 C19.4562601,10.5041206 19.337828,9.77361091 19.0159358,9.06136396 C22.0921324,7.81949749 24.5609851,5.6005743 27.5430434,5.28097631 C30.564579,6.98245513 31.5909901,9.7127351 32.987881,12.1660302 C34.0446593,14.0257861 34.6702234,16.0620818 36.1491057,17.7696482 C37.5004458,19.3250251 37.7889341,21.8787653 39.2404859,23.2576023 C40.7801025,24.7186217 40.9440854,26.8797128 42.5322895,28.1459296 C42.3804536,29.418234 43.121413,30.2157071 43.9777679,30.9918737 C44.657993,31.6128069 46.4223269,35.6640919 46.7624394,36.708112 C47.4821419,38.9209476 48.0894857,41.2464034 50.3002173,42.5978464 C51.4723909,41.1916152 50.6221095,39.5327495 50.8741572,37.9469347 C51.2901878,37.4934099 51.7487324,36.9972721 52.2254973,36.4737401 L52.2254973,24.1494329 C52.5473895,23.8146159 52.8571349,23.4858866 53.169917,23.1571572 C53.3187162,22.9897487 53.592021,22.8192965 53.592021,22.651888 C53.613278,17.1548026 53.6102413,11.6546734 53.6102413,6.20933238 C54.1021898,5.67362527 54.5576977,5.17748744 55.0344626,4.65699928 L55.0344626,1.9936827 L57.0235137,0 C57.3484426,0.304379038 57.6703349,0.611801866 58.2716053,1.18403446 C59.929654,1.8049677 61.9976598,0.992275664 64.0231515,1.49145729 C64.1840976,1.771486 64.5819078,2.13978464 64.5849446,2.51112706 C64.6244219,7.97168701 64.6092383,13.4322469 64.6092383,18.5823403 C63.9806374,19.2124049 63.6587452,19.5350467 63.2366412,19.9581335 C63.2366412,22.5970998 63.2275311,25.3334673 63.2518248,28.0698349 C63.2548615,28.2494185 63.4856522,28.4259584 63.7771772,28.8368701 C64.9280938,27.9359081 64.840029,26.2861737 65.9696885,25.3456425 C67.0720176,24.4325054 67.8888951,22.971486 68.386917,21.5896052 C68.8363515,20.3507825 70.0085251,19.2732807 69.9872681,18.1775162 C69.9569009,16.4455994 70.8709534,15.2950467 71.4843706,13.9314286 C72.0917145,12.5799856 72.6960216,11.2254989 73.3306959,9.80100503 C75.2347189,9.74317301 77.1934028,9.00353195 78.9364796,10.7628428 C79.4162813,11.2498492 80.652226,10.9819957 81.7909957,11.0824408 C82.2707973,11.529878 82.923692,12.1416798 83.6191007,12.7869634 C83.4733382,13.1065614 83.3184655,13.417028 83.19396,13.7396698 C82.0551903,16.7073654 79.5104196,19.1210912 79.7351368,22.6184063 C77.9404357,25.0382197 76.9352817,27.8689447 75.5869783,30.5231299 C75.1982783,31.2932089 74.6152282,32.017631 73.9714437,32.5929074 C72.2951747,34.0843647 72.6292138,37.0307538 70.1117736,37.5725485 C70.1117736,38.5678679 70.1117736,39.2557645 70.3030869,39.8645226 C69.4285117,40.0897631 68.36566,39.989318 69.2948961,41.194659 C69.6137516,40.817229 69.9356438,40.4428428 70.3030869,39.8645226 C70.7980721,39.9406174 71.9277317,40.1962958 72.0977879,39.8980043 Z" id="Fill-1" fill="#34596F" mask="url(#mask-2)"></path>
                </g>
            </g>
        </g>
    </g>
</svg>