<?xml version="1.0" encoding="UTF-8"?>
<svg width="102px" height="107px" viewBox="0 0 102 107" version="1.1" xmlns="http://www.w3.org/2000/svg" xmlns:xlink="http://www.w3.org/1999/xlink">
    <title>Group 23</title>
    <defs>
        <polygon id="path-1" points="0.21863057 0.2848 50.991 0.2848 50.991 64 0.21863057 64"></polygon>
        <polygon id="path-3" points="0.1613 0.862 5.9903 0.862 5.9903 5.3897 0.1613 5.3897"></polygon>
        <polygon id="path-5" points="0.3634 0.8798 34.742 0.8798 34.742 20.1138 0.3634 20.1138"></polygon>
        <polygon id="path-7" points="0.1534 0.8859 29.9724 0.8859 29.9724 19 0.1534 19"></polygon>
    </defs>
    <g id="01_design" stroke="none" stroke-width="1" fill="none" fill-rule="evenodd">
        <g id="Calendário-Advento" transform="translate(-524.000000, -1092.000000)">
            <g id="22" transform="translate(331.000000, 1092.000000)">
                <g id="Group-23" transform="translate(193.000000, 0.000000)">
                    <g id="Group-21" transform="translate(43.000000, 0.000000)">
                        <path d="M22.6828,42.4225 C22.6208,41.3185 22.5588,40.2335 22.4988,39.1715 C22.7728,38.8895 22.9758,38.6785 23.1168,38.5335 C26.6668,38.3335 30.1228,38.1385 33.4568,37.9495 C33.7848,38.1945 34.0248,38.3735 34.2138,38.5145 C34.2688,39.4915 34.3198,40.3925 34.3698,41.2625 C34.2148,41.4595 34.0788,41.6335 33.9578,41.7875 C33.9708,42.0145 33.9858,42.2285 33.9978,42.4515 C30.2258,42.6185 26.4538,42.5505244 22.6828,42.4225" id="Fill-1" fill="#CF3D3D"></path>
                        <g id="Group-5" transform="translate(8.000000, 42.138000)">
                            <mask id="mask-2" fill="white">
                                <use xlink:href="#path-1"></use>
                            </mask>
                            <g id="Clip-4"></g>
                            <path d="M0.504,19.8568 C1.067,15.3548 2.544,11.1598 4.759,7.4248 C4.765,7.4168 4.776,7.4108 4.783,7.4018 C5.108,6.9208 5.629,6.8108 6.038,6.5898 C7.082,6.0268 8.038,5.2998 9.15,4.8638 C9.478,4.2128 10.194,4.4678 10.684,4.2108 C10.789,4.0908 10.89,3.9788 10.997,3.8598 C11.44,3.8348 11.89,3.8088 12.333,3.7838 C12.495,3.6168 12.65,3.4568 12.801,3.2998 C13.46,3.2318 14.132,3.2838 14.842,3.1048 C14.788,2.1438 14.735,1.2088 14.683,0.2848 C18.454,0.4128 22.226,0.4808 25.998,0.3138 C26.04,1.0878 26.079,1.8578 26.135,2.6178 C26.144,2.7398 26.28,2.8528 26.358,2.9698 C26.778,3.0208 27.205,2.8328 27.618,3.2008 C27.914,3.4648 28.379,3.6098 28.751,3.7248 C31.16,4.4698 31.826,4.7258 33.186,5.6228 C33.412,5.7708 33.731,5.7748 33.965,5.9158 C34.278,6.1038 34.54,6.5338 34.842,6.5508 C35.478,6.5878 35.667,7.3098 36.114,7.3468 C36.823,7.4058 37.135,7.9078 37.569,8.2738 C38.434,9.0038 39.264,9.7748 40.108,10.5288 C40.558,10.9298 41.008,11.3328 41.458,11.7348 C41.908,12.1358 42.443,12.4778 42.784,12.9578 C43.117,13.4258 43.316,14.0328 43.856,14.2788 C44.485,14.5648 44.388,15.3228 44.887,15.6508 C45.461,16.0288 45.793,16.6668 45.942,17.2218 C46.132,17.9248 47.14,17.9828 46.995,18.8148 C47.558,19.1088 47.474,19.8628 47.98,20.1978 C47.74,20.8728 48.378,21.2478 48.539,21.7878 C48.615,22.0428 48.86,22.2468 49.014,22.4548 C49.037,22.8598 49.058,23.2368 49.082,23.6478 C49.215,23.7868 49.368,23.9438 49.546,24.1288 C49.561,24.3888 49.578,24.6858 49.595,24.9838 C49.762,25.1448 49.922,25.2998 50.089,25.4608 C50.13,26.2018 50.173,26.9548 50.215,27.7008 C50.381,27.8588 50.542,28.0128 50.686,28.1508 C50.789,29.9778 50.891,31.7828 50.991,33.5598 C50.838,33.7538 50.701,33.9268 50.555,34.1128 C50.615,35.1618 50.674,36.2098 50.732,37.2328 C50.609,37.3708 50.508,37.4828 50.332,37.6798 C50.373,38.4068 50.419,39.2128 50.46,39.9398 C50.284,40.1368 50.184,40.2498 50.058,40.3898 C50.062,40.8698 50.066,41.3778 50.068,41.8208 C49.909,41.9998 49.808,42.1118 49.693,42.2408 C49.718,42.6728 49.743,43.1208 49.768,43.5678 C49.247,43.9358 49.434,44.6858 48.93,45.0538 C49.25,45.7688 48.752,46.3718 48.48,46.8808 C48.143,47.5138 48.109,48.3128 47.647,48.7948 C47.069,49.3978 47.005,50.2998 46.339,50.7878 C45.646,51.2948 45.693,52.2458 45.027,52.7848 C44.506,53.2068 44.109,53.7808 43.657,54.2868 C43.427,54.9688 43.221,55.4958 42.916,55.5298 C42.469,55.5798 42.268,55.8448 42.025,56.1158 C41.47,56.7318 40.919,57.3528 40.364,57.9728 C40.216,57.9818 40.066,57.9908 39.92,57.9988 C39.514,58.3048 39.352,58.8248 38.771,59.0088 C38.327,59.1498 38.013,59.6578 37.596,59.9348 C37.193,60.2028 36.626,60.2918 36.326,60.6308 C36.006,60.9938 35.503,60.8778 35.222,61.2938 C34.933,61.7198 34.228,61.2598 33.857,61.8448 C33.604,62.2428 32.79,61.7688 32.529,62.4198 C32.026,62.4948 31.523,62.5688 31.047,62.6378 C30.922,62.7788 30.821,62.8908 30.646,63.0868 C29.768,63.1368 28.81,63.1908 27.934,63.2408 C27.758,63.4378 27.657,63.5498 27.534,63.6878 C25.679,63.7938 23.799,63.9018 21.919,64.0001395 C21.786,64.0058 21.65,63.9308 21.508,63.8918 C21.401,63.7948 21.291,63.6928 21.182,63.5928 C19.821,63.6698 18.465,63.7468 17.119,63.8228 C16.942,63.6748 16.771,63.5338 16.593,63.3848 C16.244,63.4048 15.896,63.4238 15.547,63.4438 C3.937,52.5398 -1.081,36.5008 0.504,19.8568" id="Fill-3" fill="#1C3243" mask="url(#mask-2)"></path>
                        </g>
                        <path d="M0.3854,73.5651 C0.3364,72.6881 0.2814,71.7301 0.2324,70.8531 C0.4084,70.6561 0.5084,70.5441 0.6844,70.3471 C0.6514,69.7701 0.6144,69.1141 0.5824,68.5391 C0.7584,68.3411 0.8584,68.2291 0.9174,68.1641 C1.0724,67.6131 0.7554,67.0881 1.0504,66.5531 C1.1274,66.4751 1.2324,66.3691 1.3314,66.2681 C1.3134,65.9521 1.2964,65.6511 1.2804,65.3661 C1.4294,65.1831 1.5694,65.0111 1.7014,64.8501 C1.6914,64.6811 1.6994,64.5271 1.6714,64.3801 C1.5564,63.7771 2.4124,63.3981 2.0494,62.7261 C2.0124,62.6581 2.1674,62.4841 2.2364,62.3611 C2.7194,61.4971 2.8544,60.4381 3.6814,59.7651 C3.4484,58.9571 4.4734,58.8011 4.5324,58.0581 C4.5914,57.3291 5.5814,57.0561 5.7564,56.2811 C5.9134,55.5881 6.5284,55.2171 6.9374,54.7031 C7.2644,54.2901 7.6854,53.9451 7.9744,53.5091 C8.3204,52.9881 8.9874,52.9611 9.3514,52.4841 C9.6704,52.0661 10.0694,51.7081 10.3934,51.2931 C10.7174,50.8781 11.3034,50.9171 11.6324,50.4471 C11.8944,50.0731 12.4884,49.9281 12.7594,49.5631 C10.5444,53.2971 9.0674,57.4931 8.5044,61.9951 C6.9194,78.6381 11.9374,94.6771 23.5474,105.5821 C23.1464,105.6041 22.7444,105.6281 22.3434,105.6501 C21.9604,104.9061 20.9994,105.6111 20.5954,104.9331 C20.0874,104.9171 19.5784,104.9011 19.3384,104.8931 C18.2634,104.4351 17.4284,104.0731 16.5884,103.7231 C15.4804,103.2611 14.3584,102.8321 13.3894,102.0941 C13.2884,102.0171 13.0954,102.0641 12.9874,101.9921 C12.4434,101.6271 12.0864,101.0361 11.3984,100.8251 C10.6684,100.6001 10.2334,99.9261 9.6654,99.4561 C9.0274,98.9251 8.4234,98.3551 7.8044,97.8021 C7.2974,97.3501 6.7354,96.9451 6.3034,96.4291 C6.0024,96.0681 5.9114,95.5391 5.6664,95.1201 C5.5224,94.8741 5.2604,94.6961 5.0524,94.4861 C5.0004,94.4331 4.2204,92.9091 4.1864,92.8141 C4.1144,92.6171 4.0554,92.4131 3.9594,92.2271 C3.7034,91.7321 3.2774,91.2661 3.2024,90.7481 C3.1084,90.0871 2.3604,89.6851 2.5824,88.9251 C2.6144,88.8171 2.3084,88.6091 2.1354,88.4211 C2.1124,88.0091 2.0874,87.5601 2.0614,87.1161 C1.8934,86.9541 1.7334,86.8001 1.5684,86.6421 C1.5344,86.0451 1.5004,85.4431 1.4674,84.8561 C1.2994,84.6921 1.1404,84.5381 0.9734,84.3751 C0.9304,83.6261 0.8884,82.8781 0.8474,82.1451 C0.7174,82.0291 0.6044,81.9281 0.4394,81.7811 C0.2944,79.2171 0.1474,76.6021 0.0004,73.9971 C0.1094,73.8751 0.2104,73.7621 0.3854,73.5651" id="Fill-6" fill="#13222E"></path>
                        <path d="M26.5885,19.7995 C26.9545,20.1625 27.3265,20.5315 27.6985,20.9015 C28.2455,20.6645 28.3865,21.4115 28.8515,21.3785 C29.3175,21.4195 29.4545,20.6595 30.0035,20.9035 C30.3215,20.5855 30.6735,20.2945 30.9465,19.9425 C31.2005,19.6145 31.1675,19.1105 31.5635,18.8625 L31.5635,17.1215 C31.0125,16.5495 30.4945,16.0115 29.9955,15.4925 L28.2025,15.4925 C27.6535,16.0415 27.1255,16.5705 26.5885,17.1065 L26.5885,19.7995 Z" id="Fill-8" fill="#E8AD3C"></path>
                        <g id="Group-12" transform="translate(26.000000, 0.138000)">
                            <mask id="mask-4" fill="white">
                                <use xlink:href="#path-3"></use>
                            </mask>
                            <g id="Clip-11"></g>
                            <path d="M1.7443,0.8617 C1.2203,1.3887 0.6913,1.9217 0.1613,2.4547 L0.1613,3.8147 C0.4743,4.1257 0.7643,4.4827 1.1223,4.7467 C1.4553,4.9917 1.8623,5.1357 2.3623,5.3897 L4.4823,5.3897 C4.7843,5.0827 5.1383,4.7907 5.4013,4.4307 C5.6453,4.0967 5.7913,3.6927 5.9903,3.2997 C5.8913,3.1937 5.7393,3.0317 5.5833,2.8647 L5.5833,1.9967 C5.2523,1.3157 4.4263,1.3757 4.0053,0.8617 L1.7443,0.8617 Z" id="Fill-10" fill="#E8AD3C" mask="url(#mask-4)"></path>
                        </g>
                        <path d="M27.0294,34.0417 C27.1874,34.1987 27.5594,34.5717 27.9394,34.9517 L30.1144,34.9517 C30.4644,34.7527 30.7664,34.5807 31.2194,34.3227 C31.2854,34.1927 31.3894,33.8357 31.6124,33.5817 C31.9124,33.2407 31.7344,32.8737 31.7954,32.5237 C31.1844,32.0777 31.4004,30.8897 30.2904,30.8647 C30.1164,30.8617 29.9474,30.6117 29.7394,30.4457 L27.9814,30.4457 C27.1604,30.9617 26.7674,31.8147 26.3554,32.6827 C26.5324,33.0397 26.7174,33.4117 27.0294,34.0417" id="Fill-13" fill="#E8AD3C"></path>
                        <path d="M28.1745,13.2155 L29.2305,13.2155 C30.3675,12.8405 31.0445,12.3125 31.5705,11.6165 L31.5705,9.8205 C31.1915,9.4405 30.8195,9.0695 30.6635,8.9125 C30.0335,8.6005 29.6625,8.4155 29.2365,8.2035 C29.0235,8.3615 28.7985,8.5285 28.5445,8.7185 L27.7695,8.7185 C26.9875,9.0305 27.1635,9.9285 26.5995,10.3155 C26.6685,10.6635 26.4215,11.0805 26.7825,11.3615 C27.0515,11.5695 26.9625,11.9195 27.1125,12.1225 C27.4215,12.5365 27.8335,12.8735 28.1745,13.2155" id="Fill-15" fill="#E8AD3C"></path>
                        <path d="M26.5822,24.9216 L26.5822,26.6596 C26.8872,26.8736 27.3142,27.1746 28.0052,27.6616 L30.5322,27.6616 C30.6852,27.3956 30.9492,26.9356 31.2132,26.4756 C31.7152,26.0556 31.4442,25.3866 31.5692,24.8696 C31.0012,23.9896 30.1932,23.6276 29.4412,23.2006 C29.2702,23.1046 28.9502,23.1046 28.7792,23.2006 C28.0322,23.6246 27.1762,23.9036 26.5822,24.9216" id="Fill-17" fill="#E8AD3C"></path>
                        <path d="M29.591,72.0866 C28.932,70.9466 28.42,69.9056 27.764,68.9656 C26.992,67.8576 26.115,66.8426 24.998,66.0196 C23.903,65.2116 22.785,64.4396 21.682,63.6456 C20.715,62.9466 19.628,62.5336 18.533,62.2326 C17.361,61.9096 16.142,61.6056 14.885,61.7366 C14.607,61.7666 13.14,62.1436 12.852,62.2926 C11.84,62.8176 11.174,63.6556 10.811,64.7076 C10.37,65.9856 10.518,67.2716 10.921,68.5396 C11.312,69.7736 11.716,70.9976 12.382,72.1206 C12.953,73.0866 13.461,74.0916 14.046,75.0496 C14.748,76.1966 15.48,77.3286 16.24,78.4396 C17.34,80.0476 18.237,81.7816 19.375,83.3706 C19.825,83.9986 20.287,84.6336 20.699,85.2986 C21.101,85.9456 21.705,86.4646 22.193,87.0626 C22.787,87.7896 23.354,88.5396 23.931,89.2816 C24.13,89.5376 24.323,89.7966 24.515,90.0586 C24.705,90.3176 24.891,90.5806 25.075,90.8446 C25.237,91.0776 25.365,91.3446 25.561,91.5436 C25.996,91.9846 26.464,92.3926 26.726,92.6356 C28.306,93.0476 29.226,92.4446 30.084,91.4956 C31.586,89.8326 33.207,88.2776 34.7,86.6086 C36.574,84.5136 38.277,82.2746 39.773,79.8906 C40.657,78.4826 41.652,77.1296 42.432,75.6726 C43.366,73.9266 44.394,72.1906 44.927,70.2656 C45.378,68.6346 45.856,66.9886 45.673,65.2496 C45.622,64.7656 45.653,64.2706 45.668,63.7796 C45.701,62.6126 45.19,61.6116 44.521,60.7576 C43.869,59.9256 42.906,59.5126 41.789,59.4636 C40.195,59.3936 38.938,60.0866 37.83,61.1046 C36.913,61.9456 36.028,62.8246 35.407,63.9396 C35.146,64.4086 34.76,64.8236 34.376,65.2076 C33.293,66.2876 32.577,67.6366 31.677,68.8486 C30.946,69.8336 30.34,70.9126 29.591,72.0866" id="Fill-19" fill="#CF3D3D"></path>
                    </g>
                    <g id="Group-19" transform="translate(0.000000, 1.000000)">
                        <path d="M13.9768,21.2113 C14.1268,21.0393 14.2258,20.9263 14.3258,20.8123 C14.2998,19.3993 14.0958,17.9933 14.0938,16.5383 C15.1448,16.4673 16.1008,16.4003 17.0378,16.3373 C17.1728,16.4543 17.2868,16.5533 17.4838,16.7263 C19.1138,16.6133 20.8238,16.4963 22.4668,16.3833 C22.7578,16.6523 22.9738,16.8543 23.1408,17.0083 C23.2608,18.7633 23.3768,20.4543 23.4918,22.1233 L14.0388,22.1233 C14.0188,21.8173 13.9978,21.5083 13.9768,21.2113" id="Fill-1" fill="#A62D29"></path>
                        <path d="M9.2751,27.7562 C9.7231,27.4832 10.1481,26.9592 10.8461,27.1222 C11.0131,27.1612 11.2741,26.7952 11.4401,26.6592 C11.8991,26.6282 12.2751,26.6022 12.6711,26.5742 C12.8141,26.4252 12.9671,26.2652 13.0441,26.1842 C13.5991,25.9182 14.1661,26.2042 14.6501,25.8122 C14.6271,25.4802 14.6031,25.1252 14.5811,24.8142 C14.4221,24.6752 14.3091,24.5762 14.2011,24.4832 C14.1471,23.6842 14.0921,22.8972 14.0391,22.1232 L23.4911,22.1232 C23.4991,22.2322 23.5061,22.3422 23.5141,22.4502 C23.3921,22.5902 23.2941,22.7032 23.1151,22.9072 C23.1711,23.7122 23.2231,24.6062 23.3031,25.4952 C23.3141,25.6122 23.4661,25.7172 23.5551,25.8312 C24.0041,25.8002 24.4541,25.7692 24.7471,25.7492 C25.1351,25.9152 25.3951,26.0262 25.6541,26.1382 C26.4241,26.4702 27.2041,26.7812 27.9611,27.1432 C28.3401,27.3242 28.5401,27.7352 29.0891,27.7682 C29.4481,27.7882 29.8291,28.2572 30.1081,28.6002 C30.4221,28.9862 30.9251,28.8612 31.2561,29.1512 C32.6181,30.3432 33.9881,31.5252 35.3411,32.7272 C35.4861,32.8562 35.4941,33.1352 35.6351,33.2742 C36.1991,33.8302 36.6841,34.4462 37.1291,35.3092 C37.1351,35.4092 37.1561,35.7112 37.1761,36.0032 C37.3431,36.1592 37.5061,36.3122 37.6751,36.4692 C37.7221,37.1562 37.7691,37.8422 37.8161,38.5192 C27.6961,36.8562 17.1741,34.2582 9.1461,27.8312 C9.1891,27.8062 9.2331,27.7822 9.2751,27.7562" id="Fill-3" fill="#CF3D3D"></path>
                        <g id="Group-7" transform="translate(4.000000, 26.951900)">
                            <mask id="mask-6" fill="white">
                                <use xlink:href="#path-5"></use>
                            </mask>
                            <g id="Clip-6"></g>
                            <path d="M34.3894,20.1138 C21.8204,18.8868 10.0844,13.5518 0.3634,5.2898 C0.4914,5.1428 0.6184,4.9968 0.7464,4.8498 C1.1924,4.3388 1.6094,3.7978 2.0934,3.3238 C2.5514,2.8758 3.1784,2.5728 3.5514,2.0718 C3.9794,1.4968 4.5864,1.2078 5.1464,0.8798 C13.1744,7.3058 23.6964,9.9038 33.8154,11.5668 C33.8194,11.6278 33.8244,11.6908 33.8284,11.7518 C33.9554,11.8618 34.0694,11.9618 34.2404,12.1098 C34.4054,14.5168 34.5744,16.9778 34.7424,19.4228 C34.6094,19.6068 34.4824,19.7838 34.3764,19.9298 C34.3814,19.9938 34.3854,20.0528 34.3894,20.1138" id="Fill-5" fill="#A62D29" mask="url(#mask-6)"></path>
                        </g>
                        <path d="M0.0002,42.6087 C0.1362,42.4527 0.2352,42.3387 0.3592,42.1967 C0.3102,41.4787 0.2582,40.7337 0.2072,39.9877 C0.3502,39.7987 0.4822,39.6247 0.6042,39.4637 C0.7342,39.0477 0.4582,38.6217 0.8332,38.1897 C1.1332,37.8447 1.2542,37.3117 1.3662,36.8407 C1.4222,36.6047 1.5872,36.4387 1.7462,36.2837 C10.5582,45.6047 23.4212,51.9277 36.3542,53.0377 C36.2922,53.1057 36.2342,53.1747 36.1852,53.2507 C36.0392,53.4777 36.0432,53.8017 35.8962,54.0287 C35.6942,54.3417 35.4192,54.6107 35.1632,54.8867 C34.9082,55.1617 34.6392,55.4217 34.4462,55.6167 C34.4502,55.8977 34.4522,56.0457 34.4542,56.1907 C34.2542,56.4207 34.0562,56.6477 33.8512,56.8827 C33.7102,56.8927 33.5622,56.9027 33.3422,56.9187 C33.0852,57.2317 32.8332,57.6157 32.5062,57.9197 C32.1462,58.2547 31.7562,58.6507 31.3102,58.7747 C30.8582,58.9007 30.6072,59.2467 30.2202,59.4177 C30.1392,59.4527 30.0562,59.4877 29.9722,59.5227 C18.9962,57.7477 8.7802,52.2947 0.1532,44.8377 C0.1012,44.0777 0.0492,43.3337 0.0002,42.6087" id="Fill-8" fill="#A62D29"></path>
                        <g id="Group-12" transform="translate(0.000000, 43.951900)">
                            <mask id="mask-8" fill="white">
                                <use xlink:href="#path-7"></use>
                            </mask>
                            <g id="Clip-11"></g>
                            <path d="M29.9724,15.5709 C29.5964,15.7289 29.2104,15.8939 28.9484,16.1689 C28.5704,16.5629 28.1374,16.4499 27.7404,16.5459 C27.5774,16.7139 27.4244,16.8729 27.2624,17.0419 C26.8154,17.0719 26.3694,17.1019 25.9434,17.1319 C25.8264,17.2659 25.7264,17.3809 25.5544,17.5789 C25.1284,17.6079 24.6234,17.6419 24.2484,17.6689 C23.9774,17.9159 23.8184,18.0609 23.6394,18.2229 C22.7464,18.2849 21.8554,18.3459 21.0124,18.4039 C20.8704,18.5659 20.7714,18.6799 20.6344,18.8389 C19.8544,18.8909 19.0324,18.9539 18.2104,18.9999 C18.0754,19.0069 17.9364,18.9459 17.7994,18.9159 C17.6854,18.8169 17.5724,18.7169 17.4494,18.6109 C16.7074,18.6619 15.9574,18.7139 15.2144,18.7639 C15.0334,18.6179 14.8594,18.4779 14.6804,18.3349 C14.3864,18.3549 14.0864,18.3759 13.9514,18.3839 C13.5554,18.2169 13.2934,18.1139 13.0364,17.9969 C11.8024,17.4319 10.4634,17.0479 9.5324,15.9589 C9.2814,15.6649 8.9204,15.6329 8.5824,15.5089 C8.1864,15.3619 7.8394,14.9879 7.5604,14.6399 C7.2994,14.3159 7.2424,13.8629 6.8424,13.5929 C6.4074,13.3009 6.0244,12.9259 5.6434,12.5609 C5.3374,12.2669 5.3594,11.7709 4.9354,11.5069 C4.1804,11.0339 3.8774,10.1919 3.3984,9.4839 C2.6884,8.4359 2.2214,7.2419 1.3744,6.2449 C1.3464,5.8289 1.3154,5.3819 1.2864,4.9669 C1.1074,4.7879 0.9524,4.6329 0.7854,4.4659 C0.7544,4.0189 0.7244,3.5759 0.6984,3.1919 C0.5064,2.9879 0.3584,2.8299 0.2804,2.7469 C0.2364,2.1069 0.1944,1.4929 0.1534,0.8859 C8.7804,8.3419 18.9954,13.7959 29.9724,15.5709" id="Fill-10" fill="#CF3D3D" mask="url(#mask-8)"></path>
                        </g>
                        <path d="M37.1794,51.5941 C36.9264,51.8181 36.9964,52.1341 36.8904,52.3791 C36.7834,52.6301 36.5494,52.8231 36.3544,53.0371 C23.4214,51.9281 10.5584,45.6051 1.7464,36.2831 C1.9124,36.1211 2.0724,35.9721 2.0994,35.7701 C2.1774,35.1941 2.5374,34.8681 2.8434,34.4691 C3.1034,34.1291 3.5594,33.8831 3.4084,33.3371 C3.7274,32.9721 4.0454,32.6071 4.3634,32.2411 C14.0844,40.5041 25.8204,45.8391 38.3894,47.0661 C38.4134,47.4161 38.4364,47.7501 38.4634,48.1391 C37.9074,48.8291 37.6874,49.7101 37.5974,50.6351 C37.1764,50.8341 37.4594,51.3461 37.1794,51.5941" id="Fill-13" fill="#CF3D3D"></path>
                        <path d="M16.1579,0.7591 C16.2579,0.6571 16.0499,0.8711 15.8339,1.0921 C15.8429,1.6611 15.7499,2.2141 15.3209,2.6711 C15.6799,3.4171 16.0779,4.1451 16.4109,4.9051 C16.4949,5.0971 16.7169,5.2271 16.8759,5.3851 C17.7209,5.4581 17.7209,5.4581 18.2679,5.8671 L19.1599,5.8671 C19.4379,5.7141 19.6049,5.2671 20.1219,5.4481 C20.4639,5.0891 20.8679,4.7421 21.1629,4.3211 C21.3079,4.1131 21.2799,3.8061 21.4799,3.5551 C21.8339,3.1141 21.6979,2.6951 21.4129,2.1761 C20.9519,1.3351 20.5199,0.5641 19.5119,0.3121 C19.3869,0.2801 19.2979,0.1111 19.1869,0.0001 L17.4669,0.0001 C17.1229,0.1991 16.8249,0.3721 16.1579,0.7591" id="Fill-15" fill="#E8AD3C"></path>
                        <path d="M21.2229,10.1898 C20.6989,9.9378 20.8179,9.3028 20.4529,8.9208 C20.0809,8.5328 19.4259,8.6848 19.1849,8.1458 L17.3699,8.1458 C16.8519,8.6738 16.3269,9.2108 15.7889,9.7588 L15.7889,11.5428 C16.3169,12.0678 16.8479,12.5968 17.3789,13.1268 L18.2719,13.1268 C18.4379,13.2818 18.5999,13.4338 18.7549,13.5788 L19.4639,13.5788 C20.0119,13.1608 20.8469,13.1608 21.2229,12.3058 L21.2229,10.1898 Z" id="Fill-17" fill="#E8AD3C"></path>
                    </g>
                </g>
            </g>
        </g>
    </g>
</svg>