<?xml version="1.0" encoding="UTF-8"?>
<svg width="533px" height="161px" viewBox="0 0 533 161" version="1.1" xmlns="http://www.w3.org/2000/svg" xmlns:xlink="http://www.w3.org/1999/xlink">
    <title>Group 23</title>
    <defs>
        <filter id="filter-1">
            <feColorMatrix in="SourceGraphic" type="matrix" values="0 0 0 0 0.282565 0 0 0 0 0.641250 0 0 0 0 0.846213 0 0 0 1.000000 0"></feColorMatrix>
        </filter>
        <polygon id="path-2" points="0 0.0809666667 6.865495 0.0809666667 6.865495 6.947675 0 6.947675"></polygon>
        <polygon id="path-4" points="0.2744 0.0809666667 6.77470769 0.0809666667 6.77470769 6.947675 0.2744 6.947675"></polygon>
        <polygon id="path-6" points="0.19025641 0.0809666667 6.6905641 0.0809666667 6.6905641 6.947675 0.19025641 6.947675"></polygon>
        <polygon id="path-8" points="0.106112821 0.0809666667 6.60642051 0.0809666667 6.60642051 6.947675 0.106112821 6.947675"></polygon>
        <polygon id="path-10" points="0.0219692308 0.0809666667 6.52227692 0.0809666667 6.52227692 6.947675 0.0219692308 6.947675"></polygon>
        <polygon id="path-12" points="0.476430769 0.0809666667 6.97530256 0.0809666667 6.97530256 6.947675 0.476430769 6.947675"></polygon>
        <polygon id="path-14" points="0.392287179 0.0809666667 6.89115897 0.0809666667 6.89115897 6.947675 0.392287179 6.947675"></polygon>
        <polygon id="path-16" points="0.306707692 0.0809666667 6.80701538 0.0809666667 6.80701538 6.947675 0.306707692 6.947675"></polygon>
        <polygon id="path-18" points="0.222564103 0.0809666667 6.72287179 0.0809666667 6.72287179 6.947675 0.222564103 6.947675"></polygon>
        <polygon id="path-20" points="0.131623333 0.0809666667 6.99757333 0.0809666667 6.99757333 6.947675 0.131623333 6.947675"></polygon>
        <polygon id="path-22" points="0.0427466667 0.0809666667 6.90869667 0.0809666667 6.90869667 6.947675 0.0427466667 6.947675"></polygon>
        <polygon id="path-24" points="0.49588 0.0809666667 6.83228 0.0809666667 6.83228 6.947675 0.49588 6.947675"></polygon>
        <polygon id="path-26" points="0.41244 0.0809666667 6.75024 0.0809666667 6.75024 6.947675 0.41244 6.947675"></polygon>
        <polygon id="path-28" points="0.3304 0.0809666667 6.6682 0.0809666667 6.6682 6.947675 0.3304 6.947675"></polygon>
        <polygon id="path-30" points="0 0.0469538462 6.865495 0.0469538462 6.865495 6.54726154 0 6.54726154"></polygon>
        <polygon id="path-32" points="0 0.17836 6.865495 0.17836 6.865495 6.51756 0 6.51756"></polygon>
        <polygon id="path-34" points="0 0.133443333 6.865495 0.133443333 6.865495 6.99939333 0 6.99939333"></polygon>
        <filter id="filter-36">
            <feColorMatrix in="SourceGraphic" type="matrix" values="0 0 0 0 0.282565 0 0 0 0 0.641250 0 0 0 0 0.846213 0 0 0 1.000000 0"></feColorMatrix>
        </filter>
        <polygon id="path-37" points="0 0.0809666667 6.865495 0.0809666667 6.865495 6.947675 0 6.947675"></polygon>
        <polygon id="path-39" points="0.2744 0.0809666667 6.77470769 0.0809666667 6.77470769 6.947675 0.2744 6.947675"></polygon>
        <polygon id="path-41" points="0.19025641 0.0809666667 6.6905641 0.0809666667 6.6905641 6.947675 0.19025641 6.947675"></polygon>
        <polygon id="path-43" points="0.106112821 0.0809666667 6.60642051 0.0809666667 6.60642051 6.947675 0.106112821 6.947675"></polygon>
        <polygon id="path-45" points="0.0219692308 0.0809666667 6.52227692 0.0809666667 6.52227692 6.947675 0.0219692308 6.947675"></polygon>
        <polygon id="path-47" points="0.476430769 0.0809666667 6.97530256 0.0809666667 6.97530256 6.947675 0.476430769 6.947675"></polygon>
        <polygon id="path-49" points="0.392287179 0.0809666667 6.89115897 0.0809666667 6.89115897 6.947675 0.392287179 6.947675"></polygon>
        <polygon id="path-51" points="0.306707692 0.0809666667 6.80701538 0.0809666667 6.80701538 6.947675 0.306707692 6.947675"></polygon>
        <polygon id="path-53" points="0.222564103 0.0809666667 6.72287179 0.0809666667 6.72287179 6.947675 0.222564103 6.947675"></polygon>
        <polygon id="path-55" points="0.131623333 0.0809666667 6.99757333 0.0809666667 6.99757333 6.947675 0.131623333 6.947675"></polygon>
        <polygon id="path-57" points="0.0427466667 0.0809666667 6.90869667 0.0809666667 6.90869667 6.947675 0.0427466667 6.947675"></polygon>
        <polygon id="path-59" points="0.49588 0.0809666667 6.83228 0.0809666667 6.83228 6.947675 0.49588 6.947675"></polygon>
        <polygon id="path-61" points="0.41244 0.0809666667 6.75024 0.0809666667 6.75024 6.947675 0.41244 6.947675"></polygon>
        <polygon id="path-63" points="0.3304 0.0809666667 6.6682 0.0809666667 6.6682 6.947675 0.3304 6.947675"></polygon>
        <polygon id="path-65" points="0 0.0469538462 6.865495 0.0469538462 6.865495 6.54726154 0 6.54726154"></polygon>
        <polygon id="path-67" points="0 0.17836 6.865495 0.17836 6.865495 6.51756 0 6.51756"></polygon>
        <polygon id="path-69" points="0 0.133443333 6.865495 0.133443333 6.865495 6.99939333 0 6.99939333"></polygon>
    </defs>
    <g id="01_design" stroke="none" stroke-width="1" fill="none" fill-rule="evenodd">
        <g id="Calendário-Advento" transform="translate(-500.000000, -262.000000)">
            <g id="02" transform="translate(489.000000, 252.000000)">
                <g id="Group-23" transform="translate(11.000000, 10.500000)">
                    <g filter="url(#filter-1)" id="Group-130">
                        <g>
                            <g id="Group-3" transform="translate(0.000000, 0.500000)">
                                <mask id="mask-3" fill="white">
                                    <use xlink:href="#path-2"></use>
                                </mask>
                                <g id="Clip-2"></g>
                                <path d="M6.865495,3.51394167 C6.865495,5.409775 5.32911167,6.947675 3.43327833,6.947675 C1.537445,6.947675 -0.000455,5.409775 -0.000455,3.51394167 C-0.000455,1.61810833 1.537445,0.0802083333 3.43327833,0.0802083333 C5.32911167,0.0802083333 6.865495,1.61810833 6.865495,3.51394167" id="Fill-1" fill="#F05E22" mask="url(#mask-3)"></path>
                            </g>
                            <g id="Group-6" transform="translate(38.000000, 0.500000)">
                                <mask id="mask-5" fill="white">
                                    <use xlink:href="#path-4"></use>
                                </mask>
                                <g id="Clip-5"></g>
                                <path d="M6.77470769,3.51394167 C6.77470769,5.409775 5.32014359,6.947675 3.52527179,6.947675 C1.7289641,6.947675 0.2744,5.409775 0.2744,3.51394167 C0.2744,1.61810833 1.7289641,0.0802083333 3.52527179,0.0802083333 C5.32014359,0.0802083333 6.77470769,1.61810833 6.77470769,3.51394167" id="Fill-4" fill="#F05E22" mask="url(#mask-5)"></path>
                            </g>
                            <g id="Group-9" transform="translate(79.000000, 0.500000)">
                                <mask id="mask-7" fill="white">
                                    <use xlink:href="#path-6"></use>
                                </mask>
                                <g id="Clip-8"></g>
                                <path d="M6.6905641,3.51394167 C6.6905641,5.409775 5.2345641,6.947675 3.43969231,6.947675 C1.64482051,6.947675 0.19025641,5.409775 0.19025641,3.51394167 C0.19025641,1.61810833 1.64482051,0.0802083333 3.43969231,0.0802083333 C5.2345641,0.0802083333 6.6905641,1.61810833 6.6905641,3.51394167" id="Fill-7" fill="#F05E22" mask="url(#mask-7)"></path>
                            </g>
                            <g id="Group-12" transform="translate(117.000000, 0.500000)">
                                <mask id="mask-9" fill="white">
                                    <use xlink:href="#path-8"></use>
                                </mask>
                                <g id="Clip-11"></g>
                                <path d="M6.60642051,3.51394167 C6.60642051,5.409775 5.15042051,6.947675 3.35554872,6.947675 C1.56067692,6.947675 0.106112821,5.409775 0.106112821,3.51394167 C0.106112821,1.61810833 1.56067692,0.0802083333 3.35554872,0.0802083333 C5.15042051,0.0802083333 6.60642051,1.61810833 6.60642051,3.51394167" id="Fill-10" fill="#F05E22" mask="url(#mask-9)"></path>
                            </g>
                            <g id="Group-15" transform="translate(156.000000, 0.500000)">
                                <mask id="mask-11" fill="white">
                                    <use xlink:href="#path-10"></use>
                                </mask>
                                <g id="Clip-14"></g>
                                <path d="M6.52227692,3.51394167 C6.52227692,5.409775 5.06627692,6.947675 3.27140513,6.947675 C1.47653333,6.947675 0.0219692308,5.409775 0.0219692308,3.51394167 C0.0219692308,1.61810833 1.47653333,0.0802083333 3.27140513,0.0802083333 C5.06627692,0.0802083333 6.52227692,1.61810833 6.52227692,3.51394167" id="Fill-13" fill="#F05E22" mask="url(#mask-11)"></path>
                            </g>
                            <g id="Group-18" transform="translate(195.000000, 0.500000)">
                                <mask id="mask-13" fill="white">
                                    <use xlink:href="#path-12"></use>
                                </mask>
                                <g id="Clip-17"></g>
                                <path d="M6.97530256,3.51394167 C6.97530256,5.409775 5.52073846,6.947675 3.72586667,6.947675 C1.92955897,6.947675 0.476430769,5.409775 0.476430769,3.51394167 C0.476430769,1.61810833 1.92955897,0.0802083333 3.72586667,0.0802083333 C5.52073846,0.0802083333 6.97530256,1.61810833 6.97530256,3.51394167" id="Fill-16" fill="#F05E22" mask="url(#mask-13)"></path>
                            </g>
                            <g id="Group-21" transform="translate(234.000000, 0.500000)">
                                <mask id="mask-15" fill="white">
                                    <use xlink:href="#path-14"></use>
                                </mask>
                                <g id="Clip-20"></g>
                                <path d="M6.89115897,3.51394167 C6.89115897,5.409775 5.43515897,6.947675 3.64028718,6.947675 C1.84541538,6.947675 0.392287179,5.409775 0.392287179,3.51394167 C0.392287179,1.61810833 1.84541538,0.0802083333 3.64028718,0.0802083333 C5.43515897,0.0802083333 6.89115897,1.61810833 6.89115897,3.51394167" id="Fill-19" fill="#F05E22" mask="url(#mask-15)"></path>
                            </g>
                            <g id="Group-24" transform="translate(273.000000, 0.500000)">
                                <mask id="mask-17" fill="white">
                                    <use xlink:href="#path-16"></use>
                                </mask>
                                <g id="Clip-23"></g>
                                <path d="M6.80701538,3.51394167 C6.80701538,5.409775 5.35101538,6.947675 3.55614359,6.947675 C1.76127179,6.947675 0.306707692,5.409775 0.306707692,3.51394167 C0.306707692,1.61810833 1.76127179,0.0802083333 3.55614359,0.0802083333 C5.35101538,0.0802083333 6.80701538,1.61810833 6.80701538,3.51394167" id="Fill-22" fill="#F05E22" mask="url(#mask-17)"></path>
                            </g>
                            <g id="Group-27" transform="translate(311.000000, 0.500000)">
                                <mask id="mask-19" fill="white">
                                    <use xlink:href="#path-18"></use>
                                </mask>
                                <g id="Clip-26"></g>
                                <path d="M6.72287179,3.51394167 C6.72287179,5.409775 5.26687179,6.947675 3.472,6.947675 C1.67712821,6.947675 0.222564103,5.409775 0.222564103,3.51394167 C0.222564103,1.61810833 1.67712821,0.0802083333 3.472,0.0802083333 C5.26687179,0.0802083333 6.72287179,1.61810833 6.72287179,3.51394167" id="Fill-25" fill="#F05E22" mask="url(#mask-19)"></path>
                            </g>
                            <g id="Group-30" transform="translate(351.000000, 0.500000)">
                                <mask id="mask-21" fill="white">
                                    <use xlink:href="#path-20"></use>
                                </mask>
                                <g id="Clip-29"></g>
                                <path d="M6.99757333,3.51394167 C6.99757333,5.409775 5.45967333,6.947675 3.56384,6.947675 C1.66800667,6.947675 0.131623333,5.409775 0.131623333,3.51394167 C0.131623333,1.61810833 1.66800667,0.0802083333 3.56384,0.0802083333 C5.45967333,0.0802083333 6.99757333,1.61810833 6.99757333,3.51394167" id="Fill-28" fill="#F05E22" mask="url(#mask-21)"></path>
                            </g>
                            <g id="Group-33" transform="translate(390.000000, 0.500000)">
                                <mask id="mask-23" fill="white">
                                    <use xlink:href="#path-22"></use>
                                </mask>
                                <g id="Clip-32"></g>
                                <path d="M6.90869667,3.51394167 C6.90869667,5.409775 5.37079667,6.947675 3.47496333,6.947675 C1.57913,6.947675 0.0427466667,5.409775 0.0427466667,3.51394167 C0.0427466667,1.61810833 1.57913,0.0802083333 3.47496333,0.0802083333 C5.37079667,0.0802083333 6.90869667,1.61810833 6.90869667,3.51394167" id="Fill-31" fill="#F05E22" mask="url(#mask-23)"></path>
                            </g>
                            <g id="Group-36" transform="translate(428.000000, 0.500000)">
                                <mask id="mask-25" fill="white">
                                    <use xlink:href="#path-24"></use>
                                </mask>
                                <g id="Clip-35"></g>
                                <path d="M6.83228,3.51394167 C6.83228,5.409775 5.41268,6.947675 3.66268,6.947675 C1.91268,6.947675 0.49588,5.409775 0.49588,3.51394167 C0.49588,1.61810833 1.91268,0.0802083333 3.66268,0.0802083333 C5.41268,0.0802083333 6.83228,1.61810833 6.83228,3.51394167" id="Fill-34" fill="#F05E22" mask="url(#mask-25)"></path>
                            </g>
                            <g id="Group-39" transform="translate(467.000000, 0.500000)">
                                <mask id="mask-27" fill="white">
                                    <use xlink:href="#path-26"></use>
                                </mask>
                                <g id="Clip-38"></g>
                                <path d="M6.75024,3.51394167 C6.75024,5.409775 5.33064,6.947675 3.58064,6.947675 C1.83064,6.947675 0.41244,5.409775 0.41244,3.51394167 C0.41244,1.61810833 1.83064,0.0802083333 3.58064,0.0802083333 C5.33064,0.0802083333 6.75024,1.61810833 6.75024,3.51394167" id="Fill-37" fill="#F05E22" mask="url(#mask-27)"></path>
                            </g>
                            <g id="Group-42" transform="translate(507.000000, 0.500000)">
                                <mask id="mask-29" fill="white">
                                    <use xlink:href="#path-28"></use>
                                </mask>
                                <g id="Clip-41"></g>
                                <path d="M6.6682,3.51394167 C6.6682,5.409775 5.2486,6.947675 3.4986,6.947675 C1.7486,6.947675 0.3304,5.409775 0.3304,3.51394167 C0.3304,1.61810833 1.7486,0.0802083333 3.4986,0.0802083333 C5.2486,0.0802083333 6.6682,1.61810833 6.6682,3.51394167" id="Fill-40" fill="#F05E22" mask="url(#mask-29)"></path>
                            </g>
                            <g id="Group-45" transform="translate(0.000000, 44.500000)">
                                <mask id="mask-31" fill="white">
                                    <use xlink:href="#path-30"></use>
                                </mask>
                                <g id="Clip-44"></g>
                                <path d="M6.865495,3.29782564 C6.865495,5.09269744 5.32911167,6.54726154 3.43327833,6.54726154 C1.537445,6.54726154 -0.000455,5.09269744 -0.000455,3.29782564 C-0.000455,1.50295385 1.537445,0.0469538462 3.43327833,0.0469538462 C5.32911167,0.0469538462 6.865495,1.50295385 6.865495,3.29782564" id="Fill-43" fill="#F05E22" mask="url(#mask-31)"></path>
                            </g>
                            <path d="M47,48.0007731 C47,49.9336205 45.4336205,51.5 43.5007731,51.5 C41.5663795,51.5 40,49.9336205 40,48.0007731 C40,46.0679258 41.5663795,44.5 43.5007731,44.5 C45.4336205,44.5 47,46.0679258 47,48.0007731" id="Fill-46" fill="#F05E22"></path>
                            <path d="M85,48.0007731 C85,49.9336205 83.4320742,51.5 81.4992269,51.5 C79.5663795,51.5 78,49.9336205 78,48.0007731 C78,46.0679258 79.5663795,44.5 81.4992269,44.5 C83.4320742,44.5 85,46.0679258 85,48.0007731" id="Fill-48" fill="#F05E22"></path>
                            <path d="M124,48.0007731 C124,49.9336205 122.432074,51.5 120.499227,51.5 C118.56638,51.5 117,49.9336205 117,48.0007731 C117,46.0679258 118.56638,44.5 120.499227,44.5 C122.432074,44.5 124,46.0679258 124,48.0007731" id="Fill-50" fill="#F05E22"></path>
                            <path d="M163,48.0007731 C163,49.9336205 161.432074,51.5 159.499227,51.5 C157.56638,51.5 156,49.9336205 156,48.0007731 C156,46.0679258 157.56638,44.5 159.499227,44.5 C161.432074,44.5 163,46.0679258 163,48.0007731" id="Fill-52" fill="#F05E22"></path>
                            <path d="M202,48.0007731 C202,49.9336205 200.433274,51.5 198.5,51.5 C196.565179,51.5 195,49.9336205 195,48.0007731 C195,46.0679258 196.565179,44.5 198.5,44.5 C200.433274,44.5 202,46.0679258 202,48.0007731" id="Fill-54" fill="#F05E22"></path>
                            <path d="M241,48.0007731 C241,49.9336205 239.431728,51.5 237.498453,51.5 C235.565179,51.5 234,49.9336205 234,48.0007731 C234,46.0679258 235.565179,44.5 237.498453,44.5 C239.431728,44.5 241,46.0679258 241,48.0007731" id="Fill-56" fill="#F05E22"></path>
                            <path d="M280,48.0007731 C280,49.9336205 278.432074,51.5 276.499227,51.5 C274.56638,51.5 273,49.9336205 273,48.0007731 C273,46.0679258 274.56638,44.5 276.499227,44.5 C278.432074,44.5 280,46.0679258 280,48.0007731" id="Fill-58" fill="#F05E22"></path>
                            <path d="M319,48.0007731 C319,49.9336205 317.432074,51.5 315.499227,51.5 C313.56638,51.5 312,49.9336205 312,48.0007731 C312,46.0679258 313.56638,44.5 315.499227,44.5 C317.432074,44.5 319,46.0679258 319,48.0007731" id="Fill-60" fill="#F05E22"></path>
                            <path d="M358,48.0007731 C358,49.9336205 356.432074,51.5 354.499227,51.5 C352.56638,51.5 351,49.9336205 351,48.0007731 C351,46.0679258 352.56638,44.5 354.499227,44.5 C356.432074,44.5 358,46.0679258 358,48.0007731" id="Fill-62" fill="#F05E22"></path>
                            <path d="M396,48.0007731 C396,49.9336205 394.432074,51.5 392.499227,51.5 C390.56638,51.5 389,49.9336205 389,48.0007731 C389,46.0679258 390.56638,44.5 392.499227,44.5 C394.432074,44.5 396,46.0679258 396,48.0007731" id="Fill-64" fill="#F05E22"></path>
                            <path d="M435,48.0007731 C435,49.9336205 433.431728,51.5 431.498453,51.5 C429.565179,51.5 428,49.9336205 428,48.0007731 C428,46.0679258 429.565179,44.5 431.498453,44.5 C433.431728,44.5 435,46.0679258 435,48.0007731" id="Fill-66" fill="#F05E22"></path>
                            <path d="M474,48.0007731 C474,49.9336205 472.432074,51.5 470.499227,51.5 C468.56638,51.5 467,49.9336205 467,48.0007731 C467,46.0679258 468.56638,44.5 470.499227,44.5 C472.432074,44.5 474,46.0679258 474,48.0007731" id="Fill-68" fill="#F05E22"></path>
                            <path d="M513,48.0007731 C513,49.9336205 511.432074,51.5 509.499227,51.5 C507.56638,51.5 506,49.9336205 506,48.0007731 C506,46.0679258 507.56638,44.5 509.499227,44.5 C511.432074,44.5 513,46.0679258 513,48.0007731" id="Fill-70" fill="#F05E22"></path>
                            <g id="Group-74" transform="translate(0.000000, 86.500000)">
                                <mask id="mask-33" fill="white">
                                    <use xlink:href="#path-32"></use>
                                </mask>
                                <g id="Clip-73"></g>
                                <path d="M6.865495,3.34796 C6.865495,5.09796 5.32911167,6.51756 3.43327833,6.51756 C1.537445,6.51756 -0.000455,5.09796 -0.000455,3.34796 C-0.000455,1.59796 1.537445,0.17836 3.43327833,0.17836 C5.32911167,0.17836 6.865495,1.59796 6.865495,3.34796" id="Fill-72" fill="#F05E22" mask="url(#mask-33)"></path>
                            </g>
                            <path d="M47,90 C47,91.9324205 45.4336205,93.5 43.5007731,93.5 C41.5663795,93.5 40,91.9324205 40,90 C40,88.0675795 41.5663795,86.5 43.5007731,86.5 C45.4336205,86.5 47,88.0675795 47,90" id="Fill-75" fill="#F05E22"></path>
                            <path d="M85,90 C85,91.9324205 83.4320742,93.5 81.4992269,93.5 C79.5663795,93.5 78,91.9324205 78,90 C78,88.0675795 79.5663795,86.5 81.4992269,86.5 C83.4320742,86.5 85,88.0675795 85,90" id="Fill-77" fill="#F05E22"></path>
                            <path d="M124,90 C124,91.9324205 122.432074,93.5 120.499227,93.5 C118.56638,93.5 117,91.9324205 117,90 C117,88.0675795 118.56638,86.5 120.499227,86.5 C122.432074,86.5 124,88.0675795 124,90" id="Fill-79" fill="#F05E22"></path>
                            <path d="M163,90 C163,91.9324205 161.432074,93.5 159.499227,93.5 C157.56638,93.5 156,91.9324205 156,90 C156,88.0675795 157.56638,86.5 159.499227,86.5 C161.432074,86.5 163,88.0675795 163,90" id="Fill-81" fill="#F05E22"></path>
                            <path d="M202,90 C202,91.9324205 200.433274,93.5 198.5,93.5 C196.565179,93.5 195,91.9324205 195,90 C195,88.0675795 196.565179,86.5 198.5,86.5 C200.433274,86.5 202,88.0675795 202,90" id="Fill-83" fill="#F05E22"></path>
                            <path d="M241,90 C241,91.9324205 239.431728,93.5 237.498453,93.5 C235.565179,93.5 234,91.9324205 234,90 C234,88.0675795 235.565179,86.5 237.498453,86.5 C239.431728,86.5 241,88.0675795 241,90" id="Fill-85" fill="#F05E22"></path>
                            <path d="M280,90 C280,91.9324205 278.432074,93.5 276.499227,93.5 C274.56638,93.5 273,91.9324205 273,90 C273,88.0675795 274.56638,86.5 276.499227,86.5 C278.432074,86.5 280,88.0675795 280,90" id="Fill-87" fill="#F05E22"></path>
                            <path d="M319,90 C319,91.9324205 317.432074,93.5 315.499227,93.5 C313.56638,93.5 312,91.9324205 312,90 C312,88.0675795 313.56638,86.5 315.499227,86.5 C317.432074,86.5 319,88.0675795 319,90" id="Fill-89" fill="#F05E22"></path>
                            <path d="M358,90 C358,91.9324205 356.432074,93.5 354.499227,93.5 C352.56638,93.5 351,91.9324205 351,90 C351,88.0675795 352.56638,86.5 354.499227,86.5 C356.432074,86.5 358,88.0675795 358,90" id="Fill-91" fill="#F05E22"></path>
                            <path d="M396,90 C396,91.9324205 394.432074,93.5 392.499227,93.5 C390.56638,93.5 389,91.9324205 389,90 C389,88.0675795 390.56638,86.5 392.499227,86.5 C394.432074,86.5 396,88.0675795 396,90" id="Fill-93" fill="#F05E22"></path>
                            <path d="M435,90 C435,91.9324205 433.431728,93.5 431.498453,93.5 C429.565179,93.5 428,91.9324205 428,90 C428,88.0675795 429.565179,86.5 431.498453,86.5 C433.431728,86.5 435,88.0675795 435,90" id="Fill-95" fill="#F05E22"></path>
                            <path d="M474,90 C474,91.9324205 472.432074,93.5 470.499227,93.5 C468.56638,93.5 467,91.9324205 467,90 C467,88.0675795 468.56638,86.5 470.499227,86.5 C472.432074,86.5 474,88.0675795 474,90" id="Fill-97" fill="#F05E22"></path>
                            <path d="M513,90 C513,91.9324205 511.432074,93.5 509.499227,93.5 C507.56638,93.5 506,91.9324205 506,90 C506,88.0675795 507.56638,86.5 509.499227,86.5 C511.432074,86.5 513,88.0675795 513,90" id="Fill-99" fill="#F05E22"></path>
                            <g id="Group-103" transform="translate(0.000000, 130.500000)">
                                <mask id="mask-35" fill="white">
                                    <use xlink:href="#path-34"></use>
                                </mask>
                                <g id="Clip-102"></g>
                                <path d="M6.865495,3.56717667 C6.865495,5.46301 5.32911167,6.99939333 3.43327833,6.99939333 C1.537445,6.99939333 -0.000455,5.46301 -0.000455,3.56717667 C-0.000455,1.67134333 1.537445,0.133443333 3.43327833,0.133443333 C5.32911167,0.133443333 6.865495,1.67134333 6.865495,3.56717667" id="Fill-101" fill="#F05E22" mask="url(#mask-35)"></path>
                            </g>
                            <path d="M47,134.000773 C47,135.93362 45.4336205,137.5 43.5007731,137.5 C41.5663795,137.5 40,135.93362 40,134.000773 C40,132.067926 41.5663795,130.5 43.5007731,130.5 C45.4336205,130.5 47,132.067926 47,134.000773" id="Fill-104" fill="#F05E22"></path>
                            <path d="M85,134.000773 C85,135.93362 83.4320742,137.5 81.4992269,137.5 C79.5663795,137.5 78,135.93362 78,134.000773 C78,132.067926 79.5663795,130.5 81.4992269,130.5 C83.4320742,130.5 85,132.067926 85,134.000773" id="Fill-106" fill="#F05E22"></path>
                            <path d="M124,134.000773 C124,135.93362 122.432074,137.5 120.499227,137.5 C118.56638,137.5 117,135.93362 117,134.000773 C117,132.067926 118.56638,130.5 120.499227,130.5 C122.432074,130.5 124,132.067926 124,134.000773" id="Fill-108" fill="#F05E22"></path>
                            <path d="M163,134.000773 C163,135.93362 161.432074,137.5 159.499227,137.5 C157.56638,137.5 156,135.93362 156,134.000773 C156,132.067926 157.56638,130.5 159.499227,130.5 C161.432074,130.5 163,132.067926 163,134.000773" id="Fill-110" fill="#F05E22"></path>
                            <path d="M202,134.000773 C202,135.93362 200.433274,137.5 198.5,137.5 C196.565179,137.5 195,135.93362 195,134.000773 C195,132.067926 196.565179,130.5 198.5,130.5 C200.433274,130.5 202,132.067926 202,134.000773" id="Fill-112" fill="#F05E22"></path>
                            <path d="M241,134.000773 C241,135.93362 239.431728,137.5 237.498453,137.5 C235.565179,137.5 234,135.93362 234,134.000773 C234,132.067926 235.565179,130.5 237.498453,130.5 C239.431728,130.5 241,132.067926 241,134.000773" id="Fill-114" fill="#F05E22"></path>
                            <path d="M280,134.000773 C280,135.93362 278.432074,137.5 276.499227,137.5 C274.56638,137.5 273,135.93362 273,134.000773 C273,132.067926 274.56638,130.5 276.499227,130.5 C278.432074,130.5 280,132.067926 280,134.000773" id="Fill-116" fill="#F05E22"></path>
                            <path d="M319,134.000773 C319,135.93362 317.432074,137.5 315.499227,137.5 C313.56638,137.5 312,135.93362 312,134.000773 C312,132.067926 313.56638,130.5 315.499227,130.5 C317.432074,130.5 319,132.067926 319,134.000773" id="Fill-118" fill="#F05E22"></path>
                            <path d="M358,134.000773 C358,135.93362 356.432074,137.5 354.499227,137.5 C352.56638,137.5 351,135.93362 351,134.000773 C351,132.067926 352.56638,130.5 354.499227,130.5 C356.432074,130.5 358,132.067926 358,134.000773" id="Fill-120" fill="#F05E22"></path>
                            <path d="M396,134.000773 C396,135.93362 394.432074,137.5 392.499227,137.5 C390.56638,137.5 389,135.93362 389,134.000773 C389,132.067926 390.56638,130.5 392.499227,130.5 C394.432074,130.5 396,132.067926 396,134.000773" id="Fill-122" fill="#F05E22"></path>
                            <path d="M435,134.000773 C435,135.93362 433.431728,137.5 431.498453,137.5 C429.565179,137.5 428,135.93362 428,134.000773 C428,132.067926 429.565179,130.5 431.498453,130.5 C433.431728,130.5 435,132.067926 435,134.000773" id="Fill-124" fill="#F05E22"></path>
                            <path d="M474,134.000773 C474,135.93362 472.432074,137.5 470.499227,137.5 C468.56638,137.5 467,135.93362 467,134.000773 C467,132.067926 468.56638,130.5 470.499227,130.5 C472.432074,130.5 474,132.067926 474,134.000773" id="Fill-126" fill="#F05E22"></path>
                            <path d="M513,134.000773 C513,135.93362 511.432074,137.5 509.499227,137.5 C507.56638,137.5 506,135.93362 506,134.000773 C506,132.067926 507.56638,130.5 509.499227,130.5 C511.432074,130.5 513,132.067926 513,134.000773" id="Fill-128" fill="#F05E22"></path>
                        </g>
                    </g>
                    <g filter="url(#filter-36)" id="Group-130">
                        <g transform="translate(19.000000, 22.000000)">
                            <g id="Group-3" transform="translate(0.000000, 0.500000)">
                                <mask id="mask-38" fill="white">
                                    <use xlink:href="#path-37"></use>
                                </mask>
                                <g id="Clip-2"></g>
                                <path d="M6.865495,3.51394167 C6.865495,5.409775 5.32911167,6.947675 3.43327833,6.947675 C1.537445,6.947675 -0.000455,5.409775 -0.000455,3.51394167 C-0.000455,1.61810833 1.537445,0.0802083333 3.43327833,0.0802083333 C5.32911167,0.0802083333 6.865495,1.61810833 6.865495,3.51394167" id="Fill-1" fill="#F05E22" mask="url(#mask-38)"></path>
                            </g>
                            <g id="Group-6" transform="translate(38.000000, 0.500000)">
                                <mask id="mask-40" fill="white">
                                    <use xlink:href="#path-39"></use>
                                </mask>
                                <g id="Clip-5"></g>
                                <path d="M6.77470769,3.51394167 C6.77470769,5.409775 5.32014359,6.947675 3.52527179,6.947675 C1.7289641,6.947675 0.2744,5.409775 0.2744,3.51394167 C0.2744,1.61810833 1.7289641,0.0802083333 3.52527179,0.0802083333 C5.32014359,0.0802083333 6.77470769,1.61810833 6.77470769,3.51394167" id="Fill-4" fill="#F05E22" mask="url(#mask-40)"></path>
                            </g>
                            <g id="Group-9" transform="translate(79.000000, 0.500000)">
                                <mask id="mask-42" fill="white">
                                    <use xlink:href="#path-41"></use>
                                </mask>
                                <g id="Clip-8"></g>
                                <path d="M6.6905641,3.51394167 C6.6905641,5.409775 5.2345641,6.947675 3.43969231,6.947675 C1.64482051,6.947675 0.19025641,5.409775 0.19025641,3.51394167 C0.19025641,1.61810833 1.64482051,0.0802083333 3.43969231,0.0802083333 C5.2345641,0.0802083333 6.6905641,1.61810833 6.6905641,3.51394167" id="Fill-7" fill="#F05E22" mask="url(#mask-42)"></path>
                            </g>
                            <g id="Group-12" transform="translate(117.000000, 0.500000)">
                                <mask id="mask-44" fill="white">
                                    <use xlink:href="#path-43"></use>
                                </mask>
                                <g id="Clip-11"></g>
                                <path d="M6.60642051,3.51394167 C6.60642051,5.409775 5.15042051,6.947675 3.35554872,6.947675 C1.56067692,6.947675 0.106112821,5.409775 0.106112821,3.51394167 C0.106112821,1.61810833 1.56067692,0.0802083333 3.35554872,0.0802083333 C5.15042051,0.0802083333 6.60642051,1.61810833 6.60642051,3.51394167" id="Fill-10" fill="#F05E22" mask="url(#mask-44)"></path>
                            </g>
                            <g id="Group-15" transform="translate(156.000000, 0.500000)">
                                <mask id="mask-46" fill="white">
                                    <use xlink:href="#path-45"></use>
                                </mask>
                                <g id="Clip-14"></g>
                                <path d="M6.52227692,3.51394167 C6.52227692,5.409775 5.06627692,6.947675 3.27140513,6.947675 C1.47653333,6.947675 0.0219692308,5.409775 0.0219692308,3.51394167 C0.0219692308,1.61810833 1.47653333,0.0802083333 3.27140513,0.0802083333 C5.06627692,0.0802083333 6.52227692,1.61810833 6.52227692,3.51394167" id="Fill-13" fill="#F05E22" mask="url(#mask-46)"></path>
                            </g>
                            <g id="Group-18" transform="translate(195.000000, 0.500000)">
                                <mask id="mask-48" fill="white">
                                    <use xlink:href="#path-47"></use>
                                </mask>
                                <g id="Clip-17"></g>
                                <path d="M6.97530256,3.51394167 C6.97530256,5.409775 5.52073846,6.947675 3.72586667,6.947675 C1.92955897,6.947675 0.476430769,5.409775 0.476430769,3.51394167 C0.476430769,1.61810833 1.92955897,0.0802083333 3.72586667,0.0802083333 C5.52073846,0.0802083333 6.97530256,1.61810833 6.97530256,3.51394167" id="Fill-16" fill="#F05E22" mask="url(#mask-48)"></path>
                            </g>
                            <g id="Group-21" transform="translate(234.000000, 0.500000)">
                                <mask id="mask-50" fill="white">
                                    <use xlink:href="#path-49"></use>
                                </mask>
                                <g id="Clip-20"></g>
                                <path d="M6.89115897,3.51394167 C6.89115897,5.409775 5.43515897,6.947675 3.64028718,6.947675 C1.84541538,6.947675 0.392287179,5.409775 0.392287179,3.51394167 C0.392287179,1.61810833 1.84541538,0.0802083333 3.64028718,0.0802083333 C5.43515897,0.0802083333 6.89115897,1.61810833 6.89115897,3.51394167" id="Fill-19" fill="#F05E22" mask="url(#mask-50)"></path>
                            </g>
                            <g id="Group-24" transform="translate(273.000000, 0.500000)">
                                <mask id="mask-52" fill="white">
                                    <use xlink:href="#path-51"></use>
                                </mask>
                                <g id="Clip-23"></g>
                                <path d="M6.80701538,3.51394167 C6.80701538,5.409775 5.35101538,6.947675 3.55614359,6.947675 C1.76127179,6.947675 0.306707692,5.409775 0.306707692,3.51394167 C0.306707692,1.61810833 1.76127179,0.0802083333 3.55614359,0.0802083333 C5.35101538,0.0802083333 6.80701538,1.61810833 6.80701538,3.51394167" id="Fill-22" fill="#F05E22" mask="url(#mask-52)"></path>
                            </g>
                            <g id="Group-27" transform="translate(311.000000, 0.500000)">
                                <mask id="mask-54" fill="white">
                                    <use xlink:href="#path-53"></use>
                                </mask>
                                <g id="Clip-26"></g>
                                <path d="M6.72287179,3.51394167 C6.72287179,5.409775 5.26687179,6.947675 3.472,6.947675 C1.67712821,6.947675 0.222564103,5.409775 0.222564103,3.51394167 C0.222564103,1.61810833 1.67712821,0.0802083333 3.472,0.0802083333 C5.26687179,0.0802083333 6.72287179,1.61810833 6.72287179,3.51394167" id="Fill-25" fill="#F05E22" mask="url(#mask-54)"></path>
                            </g>
                            <g id="Group-30" transform="translate(351.000000, 0.500000)">
                                <mask id="mask-56" fill="white">
                                    <use xlink:href="#path-55"></use>
                                </mask>
                                <g id="Clip-29"></g>
                                <path d="M6.99757333,3.51394167 C6.99757333,5.409775 5.45967333,6.947675 3.56384,6.947675 C1.66800667,6.947675 0.131623333,5.409775 0.131623333,3.51394167 C0.131623333,1.61810833 1.66800667,0.0802083333 3.56384,0.0802083333 C5.45967333,0.0802083333 6.99757333,1.61810833 6.99757333,3.51394167" id="Fill-28" fill="#F05E22" mask="url(#mask-56)"></path>
                            </g>
                            <g id="Group-33" transform="translate(390.000000, 0.500000)">
                                <mask id="mask-58" fill="white">
                                    <use xlink:href="#path-57"></use>
                                </mask>
                                <g id="Clip-32"></g>
                                <path d="M6.90869667,3.51394167 C6.90869667,5.409775 5.37079667,6.947675 3.47496333,6.947675 C1.57913,6.947675 0.0427466667,5.409775 0.0427466667,3.51394167 C0.0427466667,1.61810833 1.57913,0.0802083333 3.47496333,0.0802083333 C5.37079667,0.0802083333 6.90869667,1.61810833 6.90869667,3.51394167" id="Fill-31" fill="#F05E22" mask="url(#mask-58)"></path>
                            </g>
                            <g id="Group-36" transform="translate(428.000000, 0.500000)">
                                <mask id="mask-60" fill="white">
                                    <use xlink:href="#path-59"></use>
                                </mask>
                                <g id="Clip-35"></g>
                                <path d="M6.83228,3.51394167 C6.83228,5.409775 5.41268,6.947675 3.66268,6.947675 C1.91268,6.947675 0.49588,5.409775 0.49588,3.51394167 C0.49588,1.61810833 1.91268,0.0802083333 3.66268,0.0802083333 C5.41268,0.0802083333 6.83228,1.61810833 6.83228,3.51394167" id="Fill-34" fill="#F05E22" mask="url(#mask-60)"></path>
                            </g>
                            <g id="Group-39" transform="translate(467.000000, 0.500000)">
                                <mask id="mask-62" fill="white">
                                    <use xlink:href="#path-61"></use>
                                </mask>
                                <g id="Clip-38"></g>
                                <path d="M6.75024,3.51394167 C6.75024,5.409775 5.33064,6.947675 3.58064,6.947675 C1.83064,6.947675 0.41244,5.409775 0.41244,3.51394167 C0.41244,1.61810833 1.83064,0.0802083333 3.58064,0.0802083333 C5.33064,0.0802083333 6.75024,1.61810833 6.75024,3.51394167" id="Fill-37" fill="#F05E22" mask="url(#mask-62)"></path>
                            </g>
                            <g id="Group-42" transform="translate(507.000000, 0.500000)">
                                <mask id="mask-64" fill="white">
                                    <use xlink:href="#path-63"></use>
                                </mask>
                                <g id="Clip-41"></g>
                                <path d="M6.6682,3.51394167 C6.6682,5.409775 5.2486,6.947675 3.4986,6.947675 C1.7486,6.947675 0.3304,5.409775 0.3304,3.51394167 C0.3304,1.61810833 1.7486,0.0802083333 3.4986,0.0802083333 C5.2486,0.0802083333 6.6682,1.61810833 6.6682,3.51394167" id="Fill-40" fill="#F05E22" mask="url(#mask-64)"></path>
                            </g>
                            <g id="Group-45" transform="translate(0.000000, 44.500000)">
                                <mask id="mask-66" fill="white">
                                    <use xlink:href="#path-65"></use>
                                </mask>
                                <g id="Clip-44"></g>
                                <path d="M6.865495,3.29782564 C6.865495,5.09269744 5.32911167,6.54726154 3.43327833,6.54726154 C1.537445,6.54726154 -0.000455,5.09269744 -0.000455,3.29782564 C-0.000455,1.50295385 1.537445,0.0469538462 3.43327833,0.0469538462 C5.32911167,0.0469538462 6.865495,1.50295385 6.865495,3.29782564" id="Fill-43" fill="#F05E22" mask="url(#mask-66)"></path>
                            </g>
                            <path d="M47,48.0007731 C47,49.9336205 45.4336205,51.5 43.5007731,51.5 C41.5663795,51.5 40,49.9336205 40,48.0007731 C40,46.0679258 41.5663795,44.5 43.5007731,44.5 C45.4336205,44.5 47,46.0679258 47,48.0007731" id="Fill-46" fill="#F05E22"></path>
                            <path d="M85,48.0007731 C85,49.9336205 83.4320742,51.5 81.4992269,51.5 C79.5663795,51.5 78,49.9336205 78,48.0007731 C78,46.0679258 79.5663795,44.5 81.4992269,44.5 C83.4320742,44.5 85,46.0679258 85,48.0007731" id="Fill-48" fill="#F05E22"></path>
                            <path d="M124,48.0007731 C124,49.9336205 122.432074,51.5 120.499227,51.5 C118.56638,51.5 117,49.9336205 117,48.0007731 C117,46.0679258 118.56638,44.5 120.499227,44.5 C122.432074,44.5 124,46.0679258 124,48.0007731" id="Fill-50" fill="#F05E22"></path>
                            <path d="M163,48.0007731 C163,49.9336205 161.432074,51.5 159.499227,51.5 C157.56638,51.5 156,49.9336205 156,48.0007731 C156,46.0679258 157.56638,44.5 159.499227,44.5 C161.432074,44.5 163,46.0679258 163,48.0007731" id="Fill-52" fill="#F05E22"></path>
                            <path d="M202,48.0007731 C202,49.9336205 200.433274,51.5 198.5,51.5 C196.565179,51.5 195,49.9336205 195,48.0007731 C195,46.0679258 196.565179,44.5 198.5,44.5 C200.433274,44.5 202,46.0679258 202,48.0007731" id="Fill-54" fill="#F05E22"></path>
                            <path d="M241,48.0007731 C241,49.9336205 239.431728,51.5 237.498453,51.5 C235.565179,51.5 234,49.9336205 234,48.0007731 C234,46.0679258 235.565179,44.5 237.498453,44.5 C239.431728,44.5 241,46.0679258 241,48.0007731" id="Fill-56" fill="#F05E22"></path>
                            <path d="M280,48.0007731 C280,49.9336205 278.432074,51.5 276.499227,51.5 C274.56638,51.5 273,49.9336205 273,48.0007731 C273,46.0679258 274.56638,44.5 276.499227,44.5 C278.432074,44.5 280,46.0679258 280,48.0007731" id="Fill-58" fill="#F05E22"></path>
                            <path d="M319,48.0007731 C319,49.9336205 317.432074,51.5 315.499227,51.5 C313.56638,51.5 312,49.9336205 312,48.0007731 C312,46.0679258 313.56638,44.5 315.499227,44.5 C317.432074,44.5 319,46.0679258 319,48.0007731" id="Fill-60" fill="#F05E22"></path>
                            <path d="M358,48.0007731 C358,49.9336205 356.432074,51.5 354.499227,51.5 C352.56638,51.5 351,49.9336205 351,48.0007731 C351,46.0679258 352.56638,44.5 354.499227,44.5 C356.432074,44.5 358,46.0679258 358,48.0007731" id="Fill-62" fill="#F05E22"></path>
                            <path d="M396,48.0007731 C396,49.9336205 394.432074,51.5 392.499227,51.5 C390.56638,51.5 389,49.9336205 389,48.0007731 C389,46.0679258 390.56638,44.5 392.499227,44.5 C394.432074,44.5 396,46.0679258 396,48.0007731" id="Fill-64" fill="#F05E22"></path>
                            <path d="M435,48.0007731 C435,49.9336205 433.431728,51.5 431.498453,51.5 C429.565179,51.5 428,49.9336205 428,48.0007731 C428,46.0679258 429.565179,44.5 431.498453,44.5 C433.431728,44.5 435,46.0679258 435,48.0007731" id="Fill-66" fill="#F05E22"></path>
                            <path d="M474,48.0007731 C474,49.9336205 472.432074,51.5 470.499227,51.5 C468.56638,51.5 467,49.9336205 467,48.0007731 C467,46.0679258 468.56638,44.5 470.499227,44.5 C472.432074,44.5 474,46.0679258 474,48.0007731" id="Fill-68" fill="#F05E22"></path>
                            <path d="M513,48.0007731 C513,49.9336205 511.432074,51.5 509.499227,51.5 C507.56638,51.5 506,49.9336205 506,48.0007731 C506,46.0679258 507.56638,44.5 509.499227,44.5 C511.432074,44.5 513,46.0679258 513,48.0007731" id="Fill-70" fill="#F05E22"></path>
                            <g id="Group-74" transform="translate(0.000000, 86.500000)">
                                <mask id="mask-68" fill="white">
                                    <use xlink:href="#path-67"></use>
                                </mask>
                                <g id="Clip-73"></g>
                                <path d="M6.865495,3.34796 C6.865495,5.09796 5.32911167,6.51756 3.43327833,6.51756 C1.537445,6.51756 -0.000455,5.09796 -0.000455,3.34796 C-0.000455,1.59796 1.537445,0.17836 3.43327833,0.17836 C5.32911167,0.17836 6.865495,1.59796 6.865495,3.34796" id="Fill-72" fill="#F05E22" mask="url(#mask-68)"></path>
                            </g>
                            <path d="M47,90 C47,91.9324205 45.4336205,93.5 43.5007731,93.5 C41.5663795,93.5 40,91.9324205 40,90 C40,88.0675795 41.5663795,86.5 43.5007731,86.5 C45.4336205,86.5 47,88.0675795 47,90" id="Fill-75" fill="#F05E22"></path>
                            <path d="M85,90 C85,91.9324205 83.4320742,93.5 81.4992269,93.5 C79.5663795,93.5 78,91.9324205 78,90 C78,88.0675795 79.5663795,86.5 81.4992269,86.5 C83.4320742,86.5 85,88.0675795 85,90" id="Fill-77" fill="#F05E22"></path>
                            <path d="M124,90 C124,91.9324205 122.432074,93.5 120.499227,93.5 C118.56638,93.5 117,91.9324205 117,90 C117,88.0675795 118.56638,86.5 120.499227,86.5 C122.432074,86.5 124,88.0675795 124,90" id="Fill-79" fill="#F05E22"></path>
                            <path d="M163,90 C163,91.9324205 161.432074,93.5 159.499227,93.5 C157.56638,93.5 156,91.9324205 156,90 C156,88.0675795 157.56638,86.5 159.499227,86.5 C161.432074,86.5 163,88.0675795 163,90" id="Fill-81" fill="#F05E22"></path>
                            <path d="M202,90 C202,91.9324205 200.433274,93.5 198.5,93.5 C196.565179,93.5 195,91.9324205 195,90 C195,88.0675795 196.565179,86.5 198.5,86.5 C200.433274,86.5 202,88.0675795 202,90" id="Fill-83" fill="#F05E22"></path>
                            <path d="M241,90 C241,91.9324205 239.431728,93.5 237.498453,93.5 C235.565179,93.5 234,91.9324205 234,90 C234,88.0675795 235.565179,86.5 237.498453,86.5 C239.431728,86.5 241,88.0675795 241,90" id="Fill-85" fill="#F05E22"></path>
                            <path d="M280,90 C280,91.9324205 278.432074,93.5 276.499227,93.5 C274.56638,93.5 273,91.9324205 273,90 C273,88.0675795 274.56638,86.5 276.499227,86.5 C278.432074,86.5 280,88.0675795 280,90" id="Fill-87" fill="#F05E22"></path>
                            <path d="M319,90 C319,91.9324205 317.432074,93.5 315.499227,93.5 C313.56638,93.5 312,91.9324205 312,90 C312,88.0675795 313.56638,86.5 315.499227,86.5 C317.432074,86.5 319,88.0675795 319,90" id="Fill-89" fill="#F05E22"></path>
                            <path d="M358,90 C358,91.9324205 356.432074,93.5 354.499227,93.5 C352.56638,93.5 351,91.9324205 351,90 C351,88.0675795 352.56638,86.5 354.499227,86.5 C356.432074,86.5 358,88.0675795 358,90" id="Fill-91" fill="#F05E22"></path>
                            <path d="M396,90 C396,91.9324205 394.432074,93.5 392.499227,93.5 C390.56638,93.5 389,91.9324205 389,90 C389,88.0675795 390.56638,86.5 392.499227,86.5 C394.432074,86.5 396,88.0675795 396,90" id="Fill-93" fill="#F05E22"></path>
                            <path d="M435,90 C435,91.9324205 433.431728,93.5 431.498453,93.5 C429.565179,93.5 428,91.9324205 428,90 C428,88.0675795 429.565179,86.5 431.498453,86.5 C433.431728,86.5 435,88.0675795 435,90" id="Fill-95" fill="#F05E22"></path>
                            <path d="M474,90 C474,91.9324205 472.432074,93.5 470.499227,93.5 C468.56638,93.5 467,91.9324205 467,90 C467,88.0675795 468.56638,86.5 470.499227,86.5 C472.432074,86.5 474,88.0675795 474,90" id="Fill-97" fill="#F05E22"></path>
                            <path d="M513,90 C513,91.9324205 511.432074,93.5 509.499227,93.5 C507.56638,93.5 506,91.9324205 506,90 C506,88.0675795 507.56638,86.5 509.499227,86.5 C511.432074,86.5 513,88.0675795 513,90" id="Fill-99" fill="#F05E22"></path>
                            <g id="Group-103" transform="translate(0.000000, 130.500000)">
                                <mask id="mask-70" fill="white">
                                    <use xlink:href="#path-69"></use>
                                </mask>
                                <g id="Clip-102"></g>
                                <path d="M6.865495,3.56717667 C6.865495,5.46301 5.32911167,6.99939333 3.43327833,6.99939333 C1.537445,6.99939333 -0.000455,5.46301 -0.000455,3.56717667 C-0.000455,1.67134333 1.537445,0.133443333 3.43327833,0.133443333 C5.32911167,0.133443333 6.865495,1.67134333 6.865495,3.56717667" id="Fill-101" fill="#F05E22" mask="url(#mask-70)"></path>
                            </g>
                            <path d="M47,134.000773 C47,135.93362 45.4336205,137.5 43.5007731,137.5 C41.5663795,137.5 40,135.93362 40,134.000773 C40,132.067926 41.5663795,130.5 43.5007731,130.5 C45.4336205,130.5 47,132.067926 47,134.000773" id="Fill-104" fill="#F05E22"></path>
                            <path d="M85,134.000773 C85,135.93362 83.4320742,137.5 81.4992269,137.5 C79.5663795,137.5 78,135.93362 78,134.000773 C78,132.067926 79.5663795,130.5 81.4992269,130.5 C83.4320742,130.5 85,132.067926 85,134.000773" id="Fill-106" fill="#F05E22"></path>
                            <path d="M124,134.000773 C124,135.93362 122.432074,137.5 120.499227,137.5 C118.56638,137.5 117,135.93362 117,134.000773 C117,132.067926 118.56638,130.5 120.499227,130.5 C122.432074,130.5 124,132.067926 124,134.000773" id="Fill-108" fill="#F05E22"></path>
                            <path d="M163,134.000773 C163,135.93362 161.432074,137.5 159.499227,137.5 C157.56638,137.5 156,135.93362 156,134.000773 C156,132.067926 157.56638,130.5 159.499227,130.5 C161.432074,130.5 163,132.067926 163,134.000773" id="Fill-110" fill="#F05E22"></path>
                            <path d="M202,134.000773 C202,135.93362 200.433274,137.5 198.5,137.5 C196.565179,137.5 195,135.93362 195,134.000773 C195,132.067926 196.565179,130.5 198.5,130.5 C200.433274,130.5 202,132.067926 202,134.000773" id="Fill-112" fill="#F05E22"></path>
                            <path d="M241,134.000773 C241,135.93362 239.431728,137.5 237.498453,137.5 C235.565179,137.5 234,135.93362 234,134.000773 C234,132.067926 235.565179,130.5 237.498453,130.5 C239.431728,130.5 241,132.067926 241,134.000773" id="Fill-114" fill="#F05E22"></path>
                            <path d="M280,134.000773 C280,135.93362 278.432074,137.5 276.499227,137.5 C274.56638,137.5 273,135.93362 273,134.000773 C273,132.067926 274.56638,130.5 276.499227,130.5 C278.432074,130.5 280,132.067926 280,134.000773" id="Fill-116" fill="#F05E22"></path>
                            <path d="M319,134.000773 C319,135.93362 317.432074,137.5 315.499227,137.5 C313.56638,137.5 312,135.93362 312,134.000773 C312,132.067926 313.56638,130.5 315.499227,130.5 C317.432074,130.5 319,132.067926 319,134.000773" id="Fill-118" fill="#F05E22"></path>
                            <path d="M358,134.000773 C358,135.93362 356.432074,137.5 354.499227,137.5 C352.56638,137.5 351,135.93362 351,134.000773 C351,132.067926 352.56638,130.5 354.499227,130.5 C356.432074,130.5 358,132.067926 358,134.000773" id="Fill-120" fill="#F05E22"></path>
                            <path d="M396,134.000773 C396,135.93362 394.432074,137.5 392.499227,137.5 C390.56638,137.5 389,135.93362 389,134.000773 C389,132.067926 390.56638,130.5 392.499227,130.5 C394.432074,130.5 396,132.067926 396,134.000773" id="Fill-122" fill="#F05E22"></path>
                            <path d="M435,134.000773 C435,135.93362 433.431728,137.5 431.498453,137.5 C429.565179,137.5 428,135.93362 428,134.000773 C428,132.067926 429.565179,130.5 431.498453,130.5 C433.431728,130.5 435,132.067926 435,134.000773" id="Fill-124" fill="#F05E22"></path>
                            <path d="M474,134.000773 C474,135.93362 472.432074,137.5 470.499227,137.5 C468.56638,137.5 467,135.93362 467,134.000773 C467,132.067926 468.56638,130.5 470.499227,130.5 C472.432074,130.5 474,132.067926 474,134.000773" id="Fill-126" fill="#F05E22"></path>
                            <path d="M513,134.000773 C513,135.93362 511.432074,137.5 509.499227,137.5 C507.56638,137.5 506,135.93362 506,134.000773 C506,132.067926 507.56638,130.5 509.499227,130.5 C511.432074,130.5 513,132.067926 513,134.000773" id="Fill-128" fill="#F05E22"></path>
                        </g>
                    </g>
                </g>
            </g>
        </g>
    </g>
</svg>