<?xml version="1.0" encoding="UTF-8"?>
<svg width="140px" height="282px" viewBox="0 0 140 282" version="1.1" xmlns="http://www.w3.org/2000/svg" xmlns:xlink="http://www.w3.org/1999/xlink">
    <title>Group 29</title>
    <defs>
        <polygon id="path-1" points="0 0 36 0 36 35 0 35"></polygon>
    </defs>
    <g id="01_design" stroke="none" stroke-width="1" fill="none" fill-rule="evenodd">
        <g id="Calendário-Advento" transform="translate(-1138.000000, -952.000000)">
            <g id="25" transform="translate(1129.000000, 924.000000)">
                <g id="Group-29" transform="translate(9.000000, 28.000000)">
                    <path d="M16.7695437,247.40201 C16.8876135,247.419957 17.1570736,247.480258 17.1976375,247.409907 C17.4105979,247.043073 17.8568006,247.122757 18.1436452,246.870065 C18.3450159,246.692032 18.6847384,246.487437 18.9397114,246.477387 C19.3417284,246.461594 19.628573,246.284279 19.9501867,246.122039 C20.3572742,245.917444 20.7716053,245.728643 21.3163203,245.470208 L21.8016382,245.470208 C21.9226054,245.357502 22.0406753,245.248385 22.1630913,245.134961 L22.8012481,245.134961 L23.0808492,244.857861 C23.408982,244.857861 23.7755057,244.857861 24.1420293,244.858579 C24.73093,245.321608 24.7591798,246.109117 25.2191453,246.631012 C24.920711,247.066045 24.3716499,247.076813 24.0456901,247.419957 C23.6458461,247.335248 23.3532067,247.664034 23.0301443,247.707825 C22.6440631,247.76023 22.3427314,248.03374 22.0232908,248.03733 C21.6096841,248.042355 21.3547111,248.340991 21.0106424,248.37832 C20.6781635,248.414932 20.5470552,248.865757 20.1653201,248.722182 C19.9929236,249.114142 19.5191954,249.007897 19.2395944,249.2771 C19.004179,249.50323 18.5956427,249.542714 18.2805483,249.699928 C17.7633588,249.959081 17.2606564,250.245513 16.7326015,250.531228 C17.004959,250.78033 17.2896306,250.637473 17.547501,250.666188 C17.7633588,250.689878 17.9835627,250.670495 18.1994205,250.670495 L18.4906112,250.959799 L19.8031426,250.959799 C19.9378726,251.093324 20.0146543,251.170136 20.1501087,251.303661 L21.4619156,251.303661 C21.5966457,251.437186 21.6741517,251.513999 21.8088817,251.647523 L23.1206887,251.647523 C23.2554187,251.781048 23.3329247,251.857861 23.4285396,251.95262 L24.3781691,251.95262 C24.5071043,252.064609 24.6266228,252.168701 24.7628016,252.28715 L25.2589848,252.28715 C25.542932,252.510409 25.7493732,252.671931 26,252.869347 C25.8558533,253.087581 25.745027,253.255564 25.5929125,253.486719 L25.5929125,254.379038 C25.442971,254.534817 25.2944782,254.68916 25.1575751,254.832017 C24.8279935,255.021536 24.6512509,254.80402 24.4527776,254.589375 L23.4995264,254.589375 C23.3713155,254.477387 23.251797,254.373295 23.1156182,254.254846 L21.8335098,254.254846 C21.7110938,254.142139 21.5930239,254.033022 21.472781,253.921752 C21.1120522,253.965542 20.7237978,253.80402 20.3775561,254.033022 C20.4970747,254.423546 21.0656934,254.544149 20.9860144,255.055276 C21.6430044,255.697775 22.3021675,256.343862 22.951914,256.979899 L22.951914,257.653984 C22.6998384,257.910266 22.2579818,257.877961 22.052265,258.225413 C21.8516187,258.563532 21.3315317,258.418521 21.1475456,258.793252 L19.4098178,257.070352 C19.3315875,256.414932 18.739065,256.145011 18.3631248,255.715721 C18.1124979,255.430007 17.8386917,255.16224 17.5525715,254.911701 C17.2425475,254.641062 17.0556639,254.183058 16.5326796,254.21967 C16.2624951,253.951184 15.9959325,253.67911 15.7185045,253.418521 C15.6475177,253.351759 15.5453836,253.315147 15.4541149,253.272075 C15.1817574,253.142139 14.9072268,253.016511 14.6001003,252.872936 C14.5160751,253.068198 14.4574024,253.203159 14.4059731,253.322326 C14.646459,253.640345 14.9615535,253.902369 15.0557196,254.226849 C15.1426422,254.528356 15.5605951,254.679828 15.4113779,255.058866 C15.7416838,255.218234 15.6402741,255.664752 15.8836574,255.829864 C16.3957765,256.178751 16.3972252,256.864322 16.9093442,257.212491 C17.2164707,257.421393 17.5945841,257.707825 17.6684683,258.022972 C17.7553909,258.391242 17.9915306,258.559225 18.1957987,258.786073 C18.4500474,259.068198 18.7325458,259.325197 19.0114225,259.601579 L19.0114225,260.252692 C18.4239706,260.501077 17.9053324,260.928212 17.2519641,261.068916 C17.147657,261.09117 17.0339332,261.071788 16.9100685,261.071788 C16.6232239,260.721464 16.2212069,260.496052 16.0314259,259.997128 C15.8735165,259.581479 15.3968908,259.284279 15.0593414,258.936109 C14.9079512,258.78033 14.7507661,258.629576 14.5964785,258.476669 C14.5580877,258.438622 14.4878253,258.401292 14.4856522,258.361809 C14.4617485,257.878679 13.9807767,257.691314 13.8156238,257.333812 C13.7076949,257.099785 13.6171505,256.876525 13.4541706,256.668342 C13.3723185,256.56425 13.3962222,256.379038 13.3592801,256.149318 C13.1477684,256.341709 13.0007244,256.475233 12.8015267,256.656856 L12.8015267,257.970567 L12.4545607,258.314429 L12.4545607,259.614501 L12.1488828,259.918162 L12.1488828,262.498923 C12.00039,262.654702 11.853346,262.809045 11.6715328,263 C11.5643283,262.916009 11.4571238,262.832017 11.310804,262.718593 L10.4307127,262.718593 C10.3452388,262.673367 10.2785981,262.660445 10.2597649,262.624551 C10.1148939,262.34458 9.79545328,262.416368 9.54410208,262.275664 L9.54410208,260.267767 C9.58031983,260.222541 9.6759347,260.100503 9.80921602,259.930366 L9.80921602,258.745872 C10.0953363,258.371141 10.3162646,258.02369 10.0837466,257.579325 C9.96133058,257.526202 9.18699504,258.054559 8.72630523,258.811917 C8.38730707,259.367552 7.95196969,259.797559 7.5376386,260.274228 L7.5376386,260.58794 C7.38045356,260.743001 7.22544158,260.896626 7.08129492,261.039483 C6.86616148,260.91888 6.65392545,260.799713 6.19685741,260.542714 C6.01359559,260.363963 5.62534128,259.984207 5.18783084,259.556353 C5.43121413,259.06748 5.61737338,258.544149 6.05778124,258.142857 C6.44386248,257.792534 6.79372597,257.428571 7.01610297,256.916009 C7.21530061,256.45944 7.81941272,256.255564 7.94038001,255.666188 C7.98601438,255.445083 8.31414721,255.287868 8.49233855,255.083991 C8.62634424,254.929648 8.87262495,254.848528 8.85379172,254.582197 C8.87479802,254.279971 8.65242102,254.181622 8.44670418,254.260589 C8.16420572,254.368988 7.95776453,254.656138 7.59341394,254.5743 C7.24572352,254.495334 7.12185881,255.025844 6.74664289,254.895908 C6.54816961,255.25341 6.10269126,255.190955 5.81729537,255.435032 C5.60071321,255.620244 5.27402909,255.683417 5.01543433,255.859296 C4.77205104,256.024408 4.39104029,256.017947 4.18894523,256.20962 C3.5819357,256.786791 2.7713824,257.009332 2.10787318,257.474515 C1.66674096,257.2771 1.65949741,256.788945 1.42263331,256.453697 C1.22416003,256.170854 1.12057726,255.821967 0.979328021,255.511127 C1.07566724,254.826992 1.85000279,254.991385 2.16219981,254.555635 C2.5055441,254.075377 3.16108542,254.077531 3.62612136,253.755922 C4.01365131,253.488873 4.46999499,253.320172 4.91040285,253.099785 C4.8242046,253.019383 4.78581379,252.951184 4.7452499,252.950467 C4.19981055,252.944006 3.6543712,252.946159 3.11255363,252.946159 C3.03142587,253.026561 2.95391988,253.102656 2.87713824,253.179469 C2.78079902,253.210337 2.6844598,253.265614 2.58739622,253.26705 C1.8804257,253.274228 1.17345517,253.271357 0.488939656,253.271357 C0.312197025,253.095477 0.157185045,252.94257 0,252.786073 L0,251.160804 C0.261492171,251.026561 0.529503538,250.890165 0.922828328,250.688442 L3.06184878,250.688442 C3.18933526,250.576454 3.30885385,250.472362 3.50080793,250.305097 L4.51562935,250.305097 C4.55257146,250.027997 4.55257146,250.027997 3.44575695,250.019383 C3.3240653,249.907394 3.20599543,249.798277 3.09444475,249.695621 C2.91842648,249.695621 2.75472224,249.697057 2.591018,249.694903 C2.53886443,249.693467 2.48743523,249.681981 2.43600602,249.674803 C2.35850003,249.598708 2.28171839,249.521895 2.15857804,249.399856 C1.83913746,249.383345 1.4711651,249.364681 1.12130161,249.347452 C1.06625063,249.292893 1.01409706,249.260589 0.993090767,249.213927 C0.972084471,249.169419 0.981501087,249.109835 0.981501087,249.056712 C0.980776731,248.312276 0.980776731,247.567121 0.980776731,246.753769 C1.456678,246.782484 1.82175294,246.804738 2.18682788,246.82771 C2.45266618,247.327351 3.17484816,246.86145 3.42112888,247.411342 L4.39683513,247.411342 C4.51997548,247.524049 4.637321,247.633166 4.75828829,247.745154 C5.13495292,247.745154 5.51813674,247.745154 5.88176297,247.699928 C5.93536524,247.906676 5.91146153,248.157933 6.19830612,247.938263 C6.1084861,247.862168 6.01939043,247.786791 5.88176297,247.699928 C5.92594863,247.424264 5.69994985,247.427854 5.47829721,247.417085 C5.43193849,247.41565 5.37471444,247.386935 5.34356717,247.352477 C5.06034435,247.03733 4.75032039,246.764537 4.32005349,246.666906 C3.75940269,245.943288 2.81629242,245.670495 2.25709032,244.946877 C2.08614253,244.725772 1.74279824,244.885858 1.57112609,244.609476 C1.43204992,244.385499 1.19591018,244.221106 0.992366412,244.018665 L0.992366412,243.237617 C1.28065972,243.01005 1.66094612,242.709978 1.92968184,242.498205 C2.02674542,242.044508 2.02674542,242.044508 2.29475678,241.880833 C2.73806207,241.98636 2.93001616,242.414932 3.24655931,242.688442 C3.52326294,242.92893 3.92745306,242.915291 4.16938764,243.246231 C4.42218755,243.592247 4.77060233,243.870065 5.07120967,244.171572 L5.31531732,244.171572 C5.9730317,244.634602 6.56265671,245.05743 7.16532011,245.461594 C7.22037109,245.498923 7.35654984,245.418521 7.52025408,245.376167 C7.06535911,244.708543 6.91034713,243.88514 6.23814565,243.366834 C6.26132501,242.925341 5.9440575,242.609476 5.75065471,242.274228 C5.57608514,241.971285 5.58332869,241.541278 5.19869616,241.360373 C4.86766591,241.205312 4.98283836,240.791816 4.74235248,240.570711 C4.64094278,240.477387 4.61269293,240.305097 4.53591129,240.137114 C5.26968296,239.844221 5.85858361,239.32089 6.56990026,239.245513 C7.29063353,239.646805 7.53546554,240.290739 7.86866886,240.869347 C8.12074441,241.307968 8.26996155,241.788227 8.62272246,242.190955 C8.94506046,242.557789 9.01387419,243.160086 9.3601159,243.485284 C9.7273639,243.829864 9.76647908,244.339555 10.1453168,244.638191 C10.109099,244.938263 10.2858416,245.126346 10.4901098,245.309404 C10.6523653,245.455851 11.0732156,246.411342 11.1543433,246.657574 C11.3260155,247.179469 11.4708865,247.727925 11.998217,248.046662 C12.277818,247.715004 12.0749986,247.323762 12.1351201,246.949749 C12.2343567,246.842785 12.3437343,246.725772 12.4574581,246.602297 L12.4574581,243.695621 C12.5342397,243.616655 12.6081239,243.539124 12.6827325,243.461594 C12.7182259,243.422111 12.7834178,243.38191 12.7834178,243.342426 C12.7884883,242.045944 12.787764,240.748744 12.787764,239.464465 C12.9051095,239.338119 13.0137627,239.221106 13.1274865,239.098349 L13.1274865,238.470208 L13.601939,238 C13.679445,238.071788 13.7562267,238.144293 13.899649,238.279253 C14.2951468,238.4257 14.7884326,238.234027 15.2715774,238.351759 C15.3099682,238.417803 15.4048588,238.504666 15.4055831,238.592247 C15.4149997,239.880115 15.4113779,241.167983 15.4113779,242.382627 C15.2614365,242.531228 15.1846548,242.607322 15.0839695,242.707107 C15.0839695,243.329505 15.0817964,243.974874 15.0875912,244.620244 C15.0883156,244.662599 15.1433666,244.704235 15.2129047,244.801149 C15.4874352,244.588658 15.4664289,244.199569 15.735889,243.977746 C15.9988299,243.762383 16.1936814,243.417803 16.3124756,243.091888 C16.4196802,242.799713 16.6992812,242.545585 16.6942107,242.28715 C16.6869672,241.878679 16.904998,241.607322 17.0513178,241.285714 C17.1961888,240.966978 17.3403354,240.647523 17.4917256,240.311558 C17.9458963,240.297918 18.4131053,240.123475 18.8288851,240.538406 C18.9433331,240.653266 19.2381457,240.590093 19.5097788,240.613783 C19.6242269,240.719311 19.7799632,240.863604 19.9458405,241.015793 C19.9110715,241.09117 19.8741294,241.164393 19.8444308,241.240488 C19.5727977,241.940416 18.9657882,242.509691 19.0193904,243.33453 C18.5912966,243.90524 18.3515351,244.572864 18.0299214,245.198851 C17.937204,245.380474 17.7981278,245.551328 17.6445646,245.687006 C17.2447206,246.038765 17.3243996,246.733668 16.7239093,246.86145 C16.7239093,247.096195 16.7239093,247.258435 16.7695437,247.40201 C16.5609294,247.455133 16.3074051,247.431443 16.5290578,247.715721 C16.6051151,247.626705 16.6818967,247.538406 16.7695437,247.40201" id="Fill-1-Copy" fill="#143E56"></path>
                    <path d="M130.769544,124.40201 C130.887614,124.419957 131.157074,124.480258 131.197637,124.409907 C131.410598,124.043073 131.856801,124.122757 132.143645,123.870065 C132.345016,123.692032 132.684738,123.487437 132.939711,123.477387 C133.341728,123.461594 133.628573,123.284279 133.950187,123.122039 C134.357274,122.917444 134.771605,122.728643 135.31632,122.470208 L135.801638,122.470208 C135.922605,122.357502 136.040675,122.248385 136.163091,122.134961 L136.801248,122.134961 L137.080849,121.857861 C137.408982,121.857861 137.775506,121.857861 138.142029,121.858579 C138.73093,122.321608 138.75918,123.109117 139.219145,123.631012 C138.920711,124.066045 138.37165,124.076813 138.04569,124.419957 C137.645846,124.335248 137.353207,124.664034 137.030144,124.707825 C136.644063,124.76023 136.342731,125.03374 136.023291,125.03733 C135.609684,125.042355 135.354711,125.340991 135.010642,125.37832 C134.678163,125.414932 134.547055,125.865757 134.16532,125.722182 C133.992924,126.114142 133.519195,126.007897 133.239594,126.2771 C133.004179,126.50323 132.595643,126.542714 132.280548,126.699928 C131.763359,126.959081 131.260656,127.245513 130.732602,127.531228 C131.004959,127.78033 131.289631,127.637473 131.547501,127.666188 C131.763359,127.689878 131.983563,127.670495 132.199421,127.670495 L132.490611,127.959799 L133.803143,127.959799 C133.937873,128.093324 134.014654,128.170136 134.150109,128.303661 L135.461916,128.303661 C135.596646,128.437186 135.674152,128.513999 135.808882,128.647523 L137.120689,128.647523 C137.255419,128.781048 137.332925,128.857861 137.42854,128.95262 L138.378169,128.95262 C138.507104,129.064609 138.626623,129.168701 138.762802,129.28715 L139.258985,129.28715 C139.542932,129.510409 139.749373,129.671931 140,129.869347 C139.855853,130.087581 139.745027,130.255564 139.592912,130.486719 L139.592912,131.379038 C139.442971,131.534817 139.294478,131.68916 139.157575,131.832017 C138.827994,132.021536 138.651251,131.80402 138.452778,131.589375 L137.499526,131.589375 C137.371316,131.477387 137.251797,131.373295 137.115618,131.254846 L135.83351,131.254846 C135.711094,131.142139 135.593024,131.033022 135.472781,130.921752 C135.112052,130.965542 134.723798,130.80402 134.377556,131.033022 C134.497075,131.423546 135.065693,131.544149 134.986014,132.055276 C135.643004,132.697775 136.302167,133.343862 136.951914,133.979899 L136.951914,134.653984 C136.699838,134.910266 136.257982,134.877961 136.052265,135.225413 C135.851619,135.563532 135.331532,135.418521 135.147546,135.793252 L133.409818,134.070352 C133.331587,133.414932 132.739065,133.145011 132.363125,132.715721 C132.112498,132.430007 131.838692,132.16224 131.552571,131.911701 C131.242548,131.641062 131.055664,131.183058 130.53268,131.21967 C130.262495,130.951184 129.995932,130.67911 129.718504,130.418521 C129.647518,130.351759 129.545384,130.315147 129.454115,130.272075 C129.181757,130.142139 128.907227,130.016511 128.6001,129.872936 C128.516075,130.068198 128.457402,130.203159 128.405973,130.322326 C128.646459,130.640345 128.961553,130.902369 129.05572,131.226849 C129.142642,131.528356 129.560595,131.679828 129.411378,132.058866 C129.741684,132.218234 129.640274,132.664752 129.883657,132.829864 C130.395776,133.178751 130.397225,133.864322 130.909344,134.212491 C131.216471,134.421393 131.594584,134.707825 131.668468,135.022972 C131.755391,135.391242 131.991531,135.559225 132.195799,135.786073 C132.450047,136.068198 132.732546,136.325197 133.011423,136.601579 L133.011423,137.252692 C132.423971,137.501077 131.905332,137.928212 131.251964,138.068916 C131.147657,138.09117 131.033933,138.071788 130.910069,138.071788 C130.623224,137.721464 130.221207,137.496052 130.031426,136.997128 C129.873516,136.581479 129.396891,136.284279 129.059341,135.936109 C128.907951,135.78033 128.750766,135.629576 128.596479,135.476669 C128.558088,135.438622 128.487825,135.401292 128.485652,135.361809 C128.461748,134.878679 127.980777,134.691314 127.815624,134.333812 C127.707695,134.099785 127.61715,133.876525 127.454171,133.668342 C127.372318,133.56425 127.396222,133.379038 127.35928,133.149318 C127.147768,133.341709 127.000724,133.475233 126.801527,133.656856 L126.801527,134.970567 L126.454561,135.314429 L126.454561,136.614501 L126.148883,136.918162 L126.148883,139.498923 C126.00039,139.654702 125.853346,139.809045 125.671533,140 C125.564328,139.916009 125.457124,139.832017 125.310804,139.718593 L124.430713,139.718593 C124.345239,139.673367 124.278598,139.660445 124.259765,139.624551 C124.114894,139.34458 123.795453,139.416368 123.544102,139.275664 L123.544102,137.267767 C123.58032,137.222541 123.675935,137.100503 123.809216,136.930366 L123.809216,135.745872 C124.095336,135.371141 124.316265,135.02369 124.083747,134.579325 C123.961331,134.526202 123.186995,135.054559 122.726305,135.811917 C122.387307,136.367552 121.95197,136.797559 121.537639,137.274228 L121.537639,137.58794 C121.380454,137.743001 121.225442,137.896626 121.081295,138.039483 C120.866161,137.91888 120.653925,137.799713 120.196857,137.542714 C120.013596,137.363963 119.625341,136.984207 119.187831,136.556353 C119.431214,136.06748 119.617373,135.544149 120.057781,135.142857 C120.443862,134.792534 120.793726,134.428571 121.016103,133.916009 C121.215301,133.45944 121.819413,133.255564 121.94038,132.666188 C121.986014,132.445083 122.314147,132.287868 122.492339,132.083991 C122.626344,131.929648 122.872625,131.848528 122.853792,131.582197 C122.874798,131.279971 122.652421,131.181622 122.446704,131.260589 C122.164206,131.368988 121.957765,131.656138 121.593414,131.5743 C121.245724,131.495334 121.121859,132.025844 120.746643,131.895908 C120.54817,132.25341 120.102691,132.190955 119.817295,132.435032 C119.600713,132.620244 119.274029,132.683417 119.015434,132.859296 C118.772051,133.024408 118.39104,133.017947 118.188945,133.20962 C117.581936,133.786791 116.771382,134.009332 116.107873,134.474515 C115.666741,134.2771 115.659497,133.788945 115.422633,133.453697 C115.22416,133.170854 115.120577,132.821967 114.979328,132.511127 C115.075667,131.826992 115.850003,131.991385 116.1622,131.555635 C116.505544,131.075377 117.161085,131.077531 117.626121,130.755922 C118.013651,130.488873 118.469995,130.320172 118.910403,130.099785 C118.824205,130.019383 118.785814,129.951184 118.74525,129.950467 C118.199811,129.944006 117.654371,129.946159 117.112554,129.946159 C117.031426,130.026561 116.95392,130.102656 116.877138,130.179469 C116.780799,130.210337 116.68446,130.265614 116.587396,130.26705 C115.880426,130.274228 115.173455,130.271357 114.48894,130.271357 C114.312197,130.095477 114.157185,129.94257 114,129.786073 L114,128.160804 C114.261492,128.026561 114.529504,127.890165 114.922828,127.688442 L117.061849,127.688442 C117.189335,127.576454 117.308854,127.472362 117.500808,127.305097 L118.515629,127.305097 C118.552571,127.027997 118.552571,127.027997 117.445757,127.019383 C117.324065,126.907394 117.205995,126.798277 117.094445,126.695621 C116.918426,126.695621 116.754722,126.697057 116.591018,126.694903 C116.538864,126.693467 116.487435,126.681981 116.436006,126.674803 C116.3585,126.598708 116.281718,126.521895 116.158578,126.399856 C115.839137,126.383345 115.471165,126.364681 115.121302,126.347452 C115.066251,126.292893 115.014097,126.260589 114.993091,126.213927 C114.972084,126.169419 114.981501,126.109835 114.981501,126.056712 C114.980777,125.312276 114.980777,124.567121 114.980777,123.753769 C115.456678,123.782484 115.821753,123.804738 116.186828,123.82771 C116.452666,124.327351 117.174848,123.86145 117.421129,124.411342 L118.396835,124.411342 C118.519975,124.524049 118.637321,124.633166 118.758288,124.745154 C119.134953,124.745154 119.518137,124.745154 119.881763,124.699928 C119.935365,124.906676 119.911462,125.157933 120.198306,124.938263 C120.108486,124.862168 120.01939,124.786791 119.881763,124.699928 C119.925949,124.424264 119.69995,124.427854 119.478297,124.417085 C119.431938,124.41565 119.374714,124.386935 119.343567,124.352477 C119.060344,124.03733 118.75032,123.764537 118.320053,123.666906 C117.759403,122.943288 116.816292,122.670495 116.25709,121.946877 C116.086143,121.725772 115.742798,121.885858 115.571126,121.609476 C115.43205,121.385499 115.19591,121.221106 114.992366,121.018665 L114.992366,120.237617 C115.28066,120.01005 115.660946,119.709978 115.929682,119.498205 C116.026745,119.044508 116.026745,119.044508 116.294757,118.880833 C116.738062,118.98636 116.930016,119.414932 117.246559,119.688442 C117.523263,119.92893 117.927453,119.915291 118.169388,120.246231 C118.422188,120.592247 118.770602,120.870065 119.07121,121.171572 L119.315317,121.171572 C119.973032,121.634602 120.562657,122.05743 121.16532,122.461594 C121.220371,122.498923 121.35655,122.418521 121.520254,122.376167 C121.065359,121.708543 120.910347,120.88514 120.238146,120.366834 C120.261325,119.925341 119.944058,119.609476 119.750655,119.274228 C119.576085,118.971285 119.583329,118.541278 119.198696,118.360373 C118.867666,118.205312 118.982838,117.791816 118.742352,117.570711 C118.640943,117.477387 118.612693,117.305097 118.535911,117.137114 C119.269683,116.844221 119.858584,116.32089 120.5699,116.245513 C121.290634,116.646805 121.535466,117.290739 121.868669,117.869347 C122.120744,118.307968 122.269962,118.788227 122.622722,119.190955 C122.94506,119.557789 123.013874,120.160086 123.360116,120.485284 C123.727364,120.829864 123.766479,121.339555 124.145317,121.638191 C124.109099,121.938263 124.285842,122.126346 124.49011,122.309404 C124.652365,122.455851 125.073216,123.411342 125.154343,123.657574 C125.326015,124.179469 125.470886,124.727925 125.998217,125.046662 C126.277818,124.715004 126.074999,124.323762 126.13512,123.949749 C126.234357,123.842785 126.343734,123.725772 126.457458,123.602297 L126.457458,120.695621 C126.53424,120.616655 126.608124,120.539124 126.682732,120.461594 C126.718226,120.422111 126.783418,120.38191 126.783418,120.342426 C126.788488,119.045944 126.787764,117.748744 126.787764,116.464465 C126.905109,116.338119 127.013763,116.221106 127.127486,116.098349 L127.127486,115.470208 L127.601939,115 C127.679445,115.071788 127.756227,115.144293 127.899649,115.279253 C128.295147,115.4257 128.788433,115.234027 129.271577,115.351759 C129.309968,115.417803 129.404859,115.504666 129.405583,115.592247 C129.415,116.880115 129.411378,118.167983 129.411378,119.382627 C129.261436,119.531228 129.184655,119.607322 129.083969,119.707107 C129.083969,120.329505 129.081796,120.974874 129.087591,121.620244 C129.088316,121.662599 129.143367,121.704235 129.212905,121.801149 C129.487435,121.588658 129.466429,121.199569 129.735889,120.977746 C129.99883,120.762383 130.193681,120.417803 130.312476,120.091888 C130.41968,119.799713 130.699281,119.545585 130.694211,119.28715 C130.686967,118.878679 130.904998,118.607322 131.051318,118.285714 C131.196189,117.966978 131.340335,117.647523 131.491726,117.311558 C131.945896,117.297918 132.413105,117.123475 132.828885,117.538406 C132.943333,117.653266 133.238146,117.590093 133.509779,117.613783 C133.624227,117.719311 133.779963,117.863604 133.945841,118.015793 C133.911071,118.09117 133.874129,118.164393 133.844431,118.240488 C133.572798,118.940416 132.965788,119.509691 133.01939,120.33453 C132.591297,120.90524 132.351535,121.572864 132.029921,122.198851 C131.937204,122.380474 131.798128,122.551328 131.644565,122.687006 C131.244721,123.038765 131.3244,123.733668 130.723909,123.86145 C130.723909,124.096195 130.723909,124.258435 130.769544,124.40201 C130.560929,124.455133 130.307405,124.431443 130.529058,124.715721 C130.605115,124.626705 130.681897,124.538406 130.769544,124.40201" id="Fill-1-Copy-2" fill="#143E56"></path>
                    <path d="M10.9647016,52.0172864 C11.0419012,52.0287724 11.2180866,52.0673654 11.2446091,52.0223403 C11.3838525,51.7875664 11.6756004,51.8385642 11.8631526,51.6768413 C11.9948181,51.5629002 12.2169443,51.4319598 12.3836574,51.4255276 C12.6465147,51.41542 12.834067,51.3019383 13.0443528,51.1981048 C13.3105254,51.0671644 13.5814342,50.9463317 13.937594,50.7809332 L14.2549173,50.7809332 C14.3340113,50.7088011 14.4112108,50.6389663 14.491252,50.5663747 L14.9085084,50.5663747 L15.0913245,50.3890309 C15.3058728,50.3890309 15.5455229,50.3890309 15.785173,50.3894903 C16.1702234,50.6858291 16.1886945,51.1898349 16.4894411,51.5238478 C16.294311,51.8022685 15.9353095,51.8091601 15.722182,52.0287724 C15.4607455,51.9745585 15.2694044,52.1849821 15.0581713,52.2130079 C14.8057335,52.246547 14.608709,52.4215937 14.399844,52.4238909 C14.1294088,52.427107 13.9626957,52.618234 13.7377278,52.6421249 C13.5203377,52.6655564 13.434613,52.9540847 13.185017,52.8621967 C13.0722962,53.113051 12.7625508,53.0450538 12.5797348,53.2173439 C12.4258093,53.3620675 12.1586895,53.3873367 11.9526662,53.4879541 C11.6145038,53.6538119 11.2858138,53.8371285 10.9405472,54.0199856 C11.1186271,54.1794113 11.3047585,54.0879828 11.473366,54.1063604 C11.6145038,54.1215219 11.7584833,54.109117 11.8996211,54.109117 L12.090015,54.2942714 L12.9482086,54.2942714 C13.0363013,54.3797272 13.0865047,54.4288873 13.175071,54.5143431 L14.032791,54.5143431 C14.1208837,54.599799 14.1715607,54.6489591 14.2596534,54.7344149 L15.1173734,54.7344149 C15.2054661,54.8198708 15.2561431,54.8690309 15.3186605,54.929677 L15.9395721,54.929677 C16.0238759,55.0013496 16.1020226,55.0679684 16.1910626,55.143776 L16.5154901,55.143776 C16.7011478,55.2866619 16.8361286,55.3900359 17,55.5163819 C16.9057503,55.6560517 16.8332869,55.7635607 16.7338274,55.9115004 L16.7338274,56.4825844 C16.6357887,56.5822828 16.5386973,56.6810625 16.4491837,56.772491 C16.2336881,56.8937832 16.1181256,56.7545729 15.9883546,56.6172003 L15.3650749,56.6172003 C15.2812448,56.5455276 15.203098,56.4789088 15.1140581,56.4031012 L14.2757564,56.4031012 C14.1957152,56.3309691 14.1185156,56.2611342 14.0398952,56.189921 C13.8040341,56.2179469 13.5501755,56.1145729 13.3237867,56.2611342 C13.4019335,56.5110696 13.7737226,56.5882556 13.7216248,56.9153769 C14.1511952,57.3265757 14.5821864,57.7400718 15.0070207,58.1471357 L15.0070207,58.5785499 C14.842202,58.74257 14.5532958,58.7218952 14.4187887,58.9442642 C14.2875968,59.1606604 13.94754,59.0678536 13.8272413,59.3076813 L12.6910347,58.2050251 C12.6398841,57.7855564 12.2524656,57.6128069 12.0066585,57.3380617 C11.8427871,57.1552046 11.66376,56.9838335 11.4766813,56.8234889 C11.2739734,56.65028 11.1517802,56.3571572 10.8098289,56.3805887 C10.6331699,56.2087581 10.4588789,56.0346303 10.2774837,55.8678536 C10.2310693,55.8251256 10.1642893,55.8016942 10.1046136,55.7741278 C9.92653368,55.6909691 9.74703293,55.6105671 9.54621942,55.5186791 C9.49127988,55.6436468 9.45291692,55.7300215 9.41929013,55.8062886 C9.5765309,56.0098205 9.78255419,56.1775162 9.84412437,56.3851831 C9.90095838,56.5781479 10.1742352,56.6750897 10.0766702,56.9176741 C10.2926394,57.0196698 10.2263331,57.3054415 10.3854683,57.4111127 C10.7203154,57.6344006 10.7212626,58.0731658 11.0561097,58.2959943 C11.2569232,58.4296913 11.5041511,58.6130079 11.55246,58.8147021 C11.609294,59.0503948 11.7636931,59.1579038 11.897253,59.3030869 C12.0634925,59.4836468 12.248203,59.6481263 12.4305455,59.8250108 L12.4305455,60.2417229 C12.0464423,60.4006892 11.7073327,60.674056 11.2801304,60.7641062 C11.2119296,60.7783489 11.1375717,60.765944 11.0565833,60.765944 C10.869031,60.5417373 10.6061737,60.3974731 10.4820861,60.0781622 C10.3788377,59.8121464 10.0671979,59.6219383 9.84649245,59.3991098 C9.74750655,59.2994113 9.64473171,59.2029289 9.54385134,59.1050682 C9.51874965,59.0807179 9.47280883,59.056827 9.47138798,59.0315578 C9.45575862,58.7223546 9.14127709,58.6024408 9.03329247,58.3736396 C8.96272357,58.2238622 8.90352148,58.0809763 8.79695771,57.9477387 C8.74343901,57.8811199 8.75906837,57.7625844 8.73491391,57.6155635 C8.59661782,57.7386935 8.50047362,57.8241493 8.37022901,57.9403877 L8.37022901,58.781163 L8.14336658,59.0012347 L8.14336658,59.8332807 L7.94350031,60.0276238 L7.94350031,61.6793108 C7.84640887,61.7790093 7.75026467,61.8777889 7.63138686,62 C7.56129158,61.9462455 7.4911963,61.892491 7.39552571,61.8198995 L6.82008135,61.8198995 C6.76419457,61.7909548 6.72062183,61.7826849 6.7083078,61.7597128 C6.61358444,61.5805312 6.40471945,61.6264752 6.24037444,61.536425 L6.24037444,60.2513711 C6.26405527,60.2224264 6.32657269,60.1443216 6.41371817,60.0354343 L6.41371817,59.2773582 C6.60079679,59.0375305 6.7452499,58.8151615 6.59321892,58.5307681 C6.51317769,58.4967696 6.00688137,58.8349174 5.70566111,59.3196267 C5.48400847,59.6752333 5.1993648,59.9504379 4.92845601,60.2555061 L4.92845601,60.4562814 C4.82568117,60.5555205 4.72432719,60.6538406 4.63007745,60.7452692 C4.48941327,60.6680833 4.35064356,60.5918162 4.05179139,60.4273367 C3.93196635,60.3129361 3.67810776,60.0698923 3.39204324,59.796066 C3.55117847,59.4831874 3.67289798,59.1482556 3.96085697,58.8914286 C4.2132947,58.6672218 4.4420516,58.4342857 4.58745194,58.1062455 C4.71769655,57.8140416 5.11269293,57.6835607 5.19178693,57.3063604 C5.22162478,57.1648528 5.43617318,57.0642355 5.5526829,56.9337545 C5.640302,56.8349749 5.8013317,56.7830581 5.78901766,56.6126059 C5.80275255,56.4191816 5.6573522,56.3562383 5.52284504,56.4067767 C5.33813451,56.4761522 5.20315373,56.6599282 4.9649245,56.607552 C4.73758845,56.5570136 4.65659999,56.8965398 4.41126651,56.8133812 C4.28149551,57.0421823 3.99022121,57.0022111 3.8036162,57.1584207 C3.66200479,57.2769562 3.44840363,57.3173869 3.27932245,57.4299497 C3.12018722,57.535621 2.8710648,57.531486 2.73892573,57.6541565 C2.34203488,58.0235463 1.81205773,58.1659727 1.37822477,58.4636899 C1.08979217,58.3373439 1.085056,58.0249246 0.930183318,57.8103661 C0.800412325,57.6293467 0.732685128,57.4060589 0.64032986,57.2071213 C0.703320889,56.7692749 1.20961721,56.8744867 1.41374603,56.5956066 C1.63824037,56.2882412 2.06686354,56.2896195 2.3709255,56.0837904 C2.62431047,55.9128787 2.92268903,55.8049103 3.21064802,55.6638622 C3.15428762,55.6124049 3.12918594,55.5687581 3.1026634,55.5682986 C2.74602998,55.5641637 2.38939656,55.565542 2.03513122,55.565542 C1.98208614,55.6169993 1.93140915,55.6656999 1.88120577,55.71486 C1.81821474,55.7346159 1.75522371,55.7699928 1.69175907,55.7709117 C1.22950911,55.7755061 0.767259152,55.7736683 0.319691313,55.7736683 C0.204128824,55.6611055 0.102774837,55.5632448 0,55.4630869 L0,54.4229146 C0.170975651,54.3369993 0.346213852,54.2497057 0.603387753,54.120603 L2.00197805,54.120603 C2.0853346,54.0489304 2.16348136,53.9823116 2.2889898,53.875262 L2.95252688,53.875262 C2.97668134,53.6979182 2.97668134,53.6979182 2.25299493,53.6924049 C2.17342731,53.6207322 2.09622778,53.5508973 2.0232908,53.4851974 C1.90820193,53.4851974 1.80116454,53.4861163 1.69412715,53.484738 C1.66002675,53.4838191 1.62639996,53.4764681 1.59277317,53.4718737 C1.54209617,53.423173 1.4918928,53.3740129 1.41137795,53.2959081 C1.20251295,53.285341 0.96191564,53.2733955 0.733158745,53.262369 C0.697163871,53.2274515 0.663063465,53.2067767 0.649328579,53.1769131 C0.635593693,53.1484279 0.64175071,53.1102943 0.64175071,53.0762958 C0.641277094,52.5998564 0.641277094,52.1229576 0.641277094,51.6024121 C0.952443305,51.6207897 1.19114615,51.6350323 1.429849,51.6497344 C1.60366635,51.9695047 2.07586226,51.6713281 2.23689196,52.0232592 L2.87485374,52.0232592 C2.95536859,52.0953912 3.0320945,52.1652261 3.1111885,52.2368988 C3.35746921,52.2368988 3.60801248,52.2368988 3.84576809,52.2079541 C3.88081574,52.3402728 3.86518638,52.5010768 4.05273862,52.3604882 C3.99401014,52.3117875 3.93575528,52.2635463 3.84576809,52.2079541 C3.87465872,52.0315291 3.72689029,52.0338263 3.58196356,52.0269347 C3.55165209,52.0260158 3.51423636,52.0076382 3.49387084,51.9855851 C3.30868669,51.7838909 3.10597872,51.6093037 2.82465036,51.5468198 C2.45807099,51.0837042 1.84142196,50.909117 1.47578983,50.4460014 C1.36401627,50.3044939 1.13952193,50.406949 1.02727475,50.2300646 C0.936340335,50.0867193 0.781941272,49.9815075 0.648854962,49.8519454 L0.648854962,49.3520747 C0.837354432,49.2064322 1.08600323,49.0143862 1.26171505,48.8788514 C1.3251797,48.5884853 1.3251797,48.5884853 1.5004179,48.483733 C1.79027135,48.5512706 1.9157798,48.8255564 2.12275032,49.000603 C2.30367192,49.1545154 2.56795008,49.1457861 2.72613807,49.3575879 C2.89143032,49.579038 3.11923998,49.7568413 3.31579094,49.9498062 L3.47539979,49.9498062 C3.90544381,50.246145 4.29096785,50.5167552 4.68501699,50.77542 C4.72101187,50.7993108 4.81005182,50.7478536 4.91708921,50.7207466 C4.61965788,50.2934673 4.51830389,49.7664896 4.07878754,49.4347739 C4.09394328,49.1522182 3.88649914,48.9500646 3.76004346,48.7355061 C3.64590182,48.5416224 3.65063799,48.2664178 3.39914749,48.1506389 C3.18270463,48.0513999 3.2580097,47.7867624 3.10076893,47.6452548 C3.03446258,47.5855276 3.01599153,47.475262 2.96578815,47.3677531 C3.44556193,47.1803015 3.83061236,46.8453697 4.29570402,46.7971285 C4.76695269,47.0539555 4.92703516,47.4660732 5.14489887,47.8363819 C5.3097175,48.1170998 5.40728255,48.4244652 5.63793392,48.6822111 C5.84869337,48.9169849 5.89368697,49.3024551 6.12007578,49.5105815 C6.36019948,49.7311127 6.38577478,50.0573151 6.63347635,50.2484422 C6.60979551,50.4404882 6.725358,50.5608615 6.85891793,50.6780187 C6.96500808,50.7717444 7.24017942,51.3832592 7.29322449,51.5408471 C7.40547167,51.87486 7.50019502,52.2258722 7.84498802,52.4298636 C8.02780409,52.2176023 7.8951914,51.9672075 7.93450159,51.7278392 C7.99938708,51.6593826 8.07090322,51.5844939 8.14526105,51.5054702 L8.14526105,49.6451974 C8.19546442,49.594659 8.24377333,49.5450395 8.29255586,49.49542 C8.31576308,49.4701508 8.35838859,49.4444221 8.35838859,49.4191529 C8.36170391,48.5894042 8.36123029,47.759196 8.36123029,46.9372577 C8.4379562,46.8563963 8.50899872,46.7815075 8.58335655,46.7029433 L8.58335655,46.3009332 L8.89357553,46 C8.94425252,46.045944 8.9944559,46.0923475 9.08823202,46.1787222 C9.34682677,46.272448 9.66935978,46.1497775 9.98526216,46.2251256 C10.0103638,46.2673941 10.0724076,46.3229864 10.0728813,46.379038 C10.0790383,47.2032735 10.0766702,48.027509 10.0766702,48.8048816 C9.97863153,48.8999856 9.92842815,48.9486863 9.86259542,49.0125485 C9.86259542,49.410883 9.86117457,49.8239196 9.8649635,50.2369562 C9.86543712,50.2640632 9.90143199,50.2907107 9.9468992,50.3527351 C10.1264,50.2167408 10.1126651,49.9677243 10.2888505,49.8257574 C10.4607734,49.6879253 10.5881763,49.4673941 10.6658494,49.2588083 C10.7359447,49.0718162 10.9187608,48.9091744 10.9154455,48.743776 C10.9107093,48.4823546 11.053268,48.3086863 11.1489385,48.1028571 C11.2436619,47.8988658 11.3379116,47.6944149 11.4368975,47.479397 C11.7338552,47.4706676 12.0393381,47.3590237 12.3111941,47.62458 C12.3860255,47.6980905 12.5787875,47.6576597 12.7563938,47.6728212 C12.8312253,47.7403589 12.9330529,47.8327064 13.0415111,47.9301077 C13.0187775,47.9783489 12.9946231,48.0252118 12.9752048,48.0739124 C12.7975985,48.5218665 12.4007076,48.8862024 12.4357553,49.4140991 C12.1558478,49.7793539 11.9990806,50.2066332 11.7887948,50.6072649 C11.7281718,50.7235032 11.6372374,50.83285 11.5368307,50.9196841 C11.2753942,51.1448098 11.3274921,51.5895477 10.9348638,51.6713281 C10.9348638,51.821565 10.9348638,51.9253984 10.9647016,52.0172864 C10.8283,52.051285 10.6625341,52.0361235 10.8074609,52.2180617 C10.8571906,52.1610912 10.907394,52.10458 10.9647016,52.0172864" id="Fill-1-Copy-4" fill="#E8AD3C"></path>
                    <path d="M93.1896139,237.897688 C93.2895191,237.912764 93.5175238,237.963417 93.5518471,237.904322 C93.7320444,237.596181 94.1096005,237.663116 94.3523152,237.450854 C94.5227057,237.301307 94.8101633,237.129447 95.0259096,237.121005 C95.3660779,237.107739 95.6087926,236.958794 95.8809272,236.822513 C96.2253859,236.650653 96.5759737,236.49206 97.0368864,236.274975 L97.44754,236.274975 C97.5498969,236.180302 97.6498022,236.088643 97.753385,235.993367 L98.2933638,235.993367 L98.5299493,235.760603 C98.8076002,235.760603 99.1177356,235.760603 99.427871,235.761206 C99.9261715,236.150151 99.9500752,236.811658 100.339277,237.25005 C100.086755,237.615477 99.6221653,237.624523 99.3463532,237.912764 C99.0080236,237.841608 98.7604056,238.117789 98.4870452,238.154573 C98.1603611,238.198593 97.9053881,238.428342 97.6350922,238.431357 C97.2851173,238.435578 97.0693709,238.686432 96.7782359,238.717789 C96.4969076,238.748543 96.3859698,239.127236 96.0629632,239.006633 C95.9170892,239.335879 95.5162423,239.246633 95.2796568,239.472764 C95.0804591,239.662714 94.7347746,239.695879 94.4681562,239.82794 C94.0305344,240.045628 93.6051708,240.286231 93.1583552,240.526231 C93.3888115,240.735477 93.6296874,240.615477 93.8478854,240.639598 C94.0305344,240.659497 94.2168608,240.643216 94.3995097,240.643216 L94.6459018,240.886231 L95.7565053,240.886231 C95.8705076,240.998392 95.9354767,241.062915 96.0500919,241.175075 L97.1600825,241.175075 C97.2740848,241.287236 97.3396668,241.351759 97.4536691,241.46392 L98.5636597,241.46392 C98.677662,241.57608 98.743244,241.640603 98.8241489,241.720201 L99.6276815,241.720201 C99.7367805,241.814271 99.8379116,241.901709 99.9531398,242.001206 L100.372987,242.001206 C100.61325,242.188744 100.787931,242.324422 101,242.490251 C100.87803,242.673568 100.784254,242.814673 100.655541,243.008844 L100.655541,243.758392 C100.528668,243.889246 100.40302,244.018894 100.287179,244.138894 C100.008302,244.29809 99.8587508,244.115377 99.6908118,243.935075 L98.8842146,243.935075 C98.7757285,243.841005 98.6745974,243.753568 98.5593693,243.65407 L97.4745083,243.65407 C97.3709255,243.559397 97.2710202,243.467739 97.1692762,243.374271 C96.8640441,243.411055 96.5355213,243.275377 96.2425475,243.467739 C96.3436786,243.795779 96.8248175,243.897085 96.7573968,244.326432 C97.3133114,244.866131 97.8710648,245.408844 98.4208503,245.943116 L98.4208503,246.509347 C98.2075556,246.724623 97.8336769,246.697487 97.6596088,246.989347 C97.4898312,247.273367 97.0497576,247.151558 96.894077,247.466332 L95.423692,246.019095 C95.3574971,245.468543 94.8561319,245.241809 94.5380286,244.881206 C94.3259598,244.641206 94.0942776,244.416281 93.8521759,244.205829 C93.5898479,243.978492 93.4317156,243.593769 92.9891904,243.624523 C92.7605728,243.398995 92.5350198,243.170452 92.300273,242.951558 C92.2402073,242.895477 92.1537861,242.864724 92.0765588,242.828543 C91.8461024,242.719397 91.6138073,242.613869 91.353931,242.493266 C91.2828328,242.657286 91.2331866,242.770653 91.1896696,242.870754 C91.3931576,243.137889 91.659776,243.35799 91.7394551,243.630553 C91.813005,243.883819 92.1666574,244.011055 92.0403967,244.329447 C92.3198863,244.463317 92.2340781,244.838392 92.4400178,244.977085 C92.8733493,245.270151 92.8745751,245.84603 93.3079066,246.138492 C93.5677829,246.31397 93.887725,246.554573 93.9502424,246.819296 C94.0237923,247.128643 94.2236028,247.269749 94.3964451,247.460302 C94.6115785,247.697286 94.8506157,247.913166 95.0865883,248.145327 L95.0865883,248.692261 C94.5895136,248.900905 94.1506658,249.259698 93.5978158,249.377889 C93.5095559,249.396583 93.4133281,249.380302 93.3085195,249.380302 C93.0658049,249.08603 92.7256366,248.896683 92.5650527,248.477588 C92.431437,248.128442 92.0281384,247.878794 91.7425196,247.586332 C91.6144202,247.455477 91.4814175,247.328844 91.3508664,247.200402 C91.3183819,247.168442 91.2589291,247.137085 91.2570903,247.10392 C91.2368641,246.69809 90.829888,246.540704 90.6901432,246.240402 C90.5988187,246.043819 90.5222043,245.856281 90.3842982,245.681407 C90.3150387,245.59397 90.3352649,245.438392 90.3040062,245.245427 C90.1250348,245.407035 90.0006129,245.519196 89.8320611,245.671759 L89.8320611,246.775276 L89.5384744,247.064121 L89.5384744,248.156181 L89.2798239,248.411256 L89.2798239,250.579095 C89.1541762,250.70995 89.0297543,250.839598 88.8759124,251 C88.7852009,250.929447 88.6944893,250.858894 88.5706803,250.763618 L87.8259876,250.763618 C87.7536636,250.725628 87.6972753,250.714774 87.6813395,250.684623 C87.5587563,250.449447 87.2884605,250.509749 87.0757787,250.391558 L87.0757787,248.704925 C87.1064245,248.666935 87.1873294,248.564422 87.3001059,248.421508 L87.3001059,247.426533 C87.5422076,247.111759 87.7291469,246.819899 87.532401,246.446633 C87.4288182,246.40201 86.7736112,246.845829 86.3837967,247.48201 C86.0969521,247.948744 85.7285897,248.30995 85.3780019,248.710352 L85.3780019,248.973869 C85.2449992,249.104121 85.1138352,249.233166 84.9918649,249.353166 C84.8098289,249.251859 84.6302446,249.151759 84.2434947,248.935879 C84.088427,248.785729 83.7599042,248.466734 83.389703,248.107337 C83.5956427,247.696683 83.7531621,247.257085 84.1258149,246.92 C84.452499,246.625729 84.7485374,246.32 84.9367025,245.889447 C85.1052544,245.50593 85.6164261,245.334673 85.7187831,244.839598 C85.7573968,244.653869 86.0350476,244.521809 86.1858249,244.350553 C86.2992144,244.220905 86.5076057,244.152764 86.4916699,243.929045 C86.5094445,243.675176 86.3212793,243.592563 86.1472112,243.658894 C85.9081741,243.74995 85.7334931,243.991156 85.4251964,243.922412 C85.1309968,243.85608 85.0261882,244.301709 84.7086978,244.192563 C84.5407589,244.492864 84.1638157,244.440402 83.9223269,244.645427 C83.739065,244.801005 83.46264,244.85407 83.2438291,245.001809 C83.0378893,245.140503 82.7154956,245.135075 82.5444921,245.29608 C82.0308687,245.780905 81.3450159,245.967839 80.783585,246.358593 C80.4103193,246.192764 80.4041901,245.782714 80.2037666,245.501106 C80.0358277,245.263518 79.9481808,244.970452 79.8286622,244.709347 C79.91018,244.134673 80.565387,244.272764 80.8295537,243.906734 C81.1200758,243.503317 81.6747646,243.505126 82.0682565,243.234975 C82.3961665,243.010653 82.7823034,242.868945 83.1549563,242.683819 C83.0820193,242.616281 83.0495347,242.558995 83.0152115,242.558392 C82.5536859,242.552965 82.0921602,242.554774 81.6336992,242.554774 C81.5650527,242.622312 81.4994707,242.686231 81.4345016,242.750754 C81.3529838,242.776683 81.271466,242.823116 81.1893353,242.824322 C80.5911294,242.830352 79.9929236,242.82794 79.4137182,242.82794 C79.2641667,242.680201 79.1330027,242.551759 79,242.420302 L79,241.055075 C79.2212626,240.942312 79.4480415,240.827739 79.7808547,240.658291 L81.5907951,240.658291 C81.6986683,240.564221 81.7997994,240.476784 81.9622221,240.336281 L82.8209171,240.336281 C82.8521759,240.103518 82.8521759,240.103518 81.9156405,240.096281 C81.8126706,240.002211 81.7127654,239.910553 81.6183763,239.824322 C81.4694378,239.824322 81.3309188,239.825528 81.1923998,239.823719 C81.1482699,239.822513 81.1047529,239.812864 81.0612359,239.806834 C80.9956539,239.742915 80.9306848,239.678392 80.8264891,239.575879 C80.5561932,239.56201 80.244832,239.546332 79.9487937,239.531859 C79.9022121,239.48603 79.8580821,239.458894 79.8403076,239.419698 C79.822533,239.382312 79.8305009,239.332261 79.8305009,239.287638 C79.829888,238.662312 79.829888,238.036382 79.829888,237.353166 C80.2325737,237.377286 80.5414833,237.39598 80.8503928,237.415276 C81.0753329,237.834975 81.68641,237.443618 81.8948014,237.905528 L82.720399,237.905528 C82.8245946,238.000201 82.923887,238.091859 83.0262439,238.18593 C83.3449602,238.18593 83.6691926,238.18593 83.9768764,238.14794 C84.0222321,238.321608 84.0020059,238.532663 84.2447206,238.348141 C84.168719,238.284221 84.0933304,238.220905 83.9768764,238.14794 C84.0142642,237.916382 83.8230345,237.919397 83.6354823,237.910352 C83.5962556,237.909146 83.5478353,237.885025 83.5214799,237.85608 C83.2818298,237.591357 83.0195019,237.362211 82.6554299,237.280201 C82.181033,236.672362 81.3830167,236.443216 80.9098457,235.835377 C80.7651975,235.649648 80.4746754,235.784121 80.3294144,235.55196 C80.2117346,235.363819 80.011924,235.225729 79.8396947,235.055678 L79.8396947,234.399598 C80.0836351,234.208442 80.4054159,233.956382 80.6328077,233.778492 C80.7149384,233.397387 80.7149384,233.397387 80.9417173,233.259899 C81.3168218,233.348543 81.4792444,233.708543 81.7470886,233.938291 C81.9812225,234.140302 82.3232295,234.128844 82.5279434,234.406834 C82.741851,234.697487 83.0366635,234.930854 83.2910236,235.184121 L83.4975762,235.184121 C84.0541037,235.573065 84.5530172,235.928241 85.0629632,236.267739 C85.1095448,236.299095 85.2247729,236.231558 85.3632919,236.19598 C84.9783808,235.635176 84.8472168,234.943518 84.2784309,234.508141 C84.2980442,234.137286 84.0295871,233.87196 83.8659386,233.590352 C83.7182259,233.335879 83.724355,232.974673 83.3988968,232.822714 C83.1187942,232.692462 83.2162478,232.345126 83.0127598,232.159397 C82.9269516,232.081005 82.9030479,231.936281 82.8380788,231.795176 C83.4589625,231.549146 83.9572631,231.109548 84.5591464,231.046231 C85.1689976,231.383317 85.3761631,231.924221 85.6581044,232.410251 C85.8713991,232.778693 85.9976598,233.182111 86.2961498,233.520402 C86.5688973,233.828543 86.6271243,234.334472 86.9200981,234.607638 C87.2308464,234.897085 87.2639438,235.325226 87.5844988,235.57608 C87.553853,235.828141 87.7034045,235.986131 87.8762467,236.139899 C88.0135399,236.262915 88.369644,237.065528 88.4382905,237.272362 C88.5835516,237.710754 88.7061347,238.171457 89.1523374,238.439196 C89.3889229,238.160603 89.2173065,237.83196 89.2681785,237.517789 C89.352148,237.42794 89.4446983,237.329648 89.5409261,237.22593 L89.5409261,234.784322 C89.6058951,234.71799 89.6684125,234.652864 89.7315429,234.587739 C89.7615758,234.554573 89.8167382,234.520804 89.8167382,234.487638 C89.8210286,233.398593 89.8204157,232.308945 89.8204157,231.230151 C89.919708,231.12402 90.0116454,231.025729 90.1078732,230.922613 L90.1078732,230.394975 L90.509333,230 C90.574915,230.060302 90.6398841,230.121206 90.7612414,230.234573 C91.0958935,230.357588 91.5132891,230.196583 91.922104,230.295477 C91.9545885,230.350955 92.0348805,230.42392 92.0354934,230.497487 C92.0434613,231.579296 92.0403967,232.661106 92.0403967,233.681407 C91.9135232,233.806231 91.8485541,233.870151 91.7633588,233.95397 C91.7633588,234.476784 91.76152,235.018894 91.7664234,235.561005 C91.7670363,235.596583 91.8136179,235.631558 91.8724578,235.712965 C92.1047529,235.534472 92.0869783,235.207638 92.314983,235.021307 C92.5374714,234.840402 92.7023458,234.550955 92.802864,234.277186 C92.8935755,234.031759 93.130161,233.818291 93.1258706,233.601206 C93.1197415,233.25809 93.3042291,233.030151 93.4280381,232.76 C93.5506213,232.492261 93.6725915,232.22392 93.8006909,231.941709 C94.1849891,231.930251 94.5803198,231.783719 94.9321335,232.132261 C95.0289742,232.228744 95.2784309,232.175678 95.5082744,232.195578 C95.6051151,232.284221 95.736892,232.405427 95.8772497,232.533266 C95.8478297,232.596583 95.816571,232.65809 95.7914415,232.72201 C95.561598,233.30995 95.0479746,233.788141 95.0933304,234.481005 C94.7310971,234.960402 94.528222,235.521206 94.2560874,236.047035 C94.1776341,236.199598 94.0599543,236.343116 93.9300162,236.457085 C93.5916866,236.752563 93.6591074,237.336281 93.1510002,237.443618 C93.1510002,237.640804 93.1510002,237.777085 93.1896139,237.897688 C93.0130941,237.942312 92.7985736,237.922412 92.9861258,238.161206 C93.050482,238.086432 93.1154511,238.012261 93.1896139,237.897688" id="Fill-1-Copy-5" fill="#E8AD3C"></path>
                    <path d="M110.739789,274.512965 C110.794283,274.521579 110.918649,274.550524 110.937371,274.516755 C111.035661,274.340675 111.2416,274.378923 111.37399,274.257631 C111.46693,274.172175 111.623725,274.07397 111.741405,274.069146 C111.926952,274.061565 112.059341,273.976454 112.207778,273.898579 C112.395665,273.800373 112.586895,273.709749 112.838302,273.5857 L113.062295,273.5857 C113.118126,273.531601 113.172619,273.479225 113.229119,273.424781 L113.523653,273.424781 L113.6527,273.291773 C113.804146,273.291773 113.97331,273.291773 114.142475,273.292118 C114.414275,273.514372 114.427314,273.892376 114.639606,274.142886 C114.501867,274.351701 114.248454,274.35687 114.098011,274.521579 C113.913467,274.480919 113.778403,274.638737 113.629297,274.659756 C113.451106,274.68491 113.31203,274.816195 113.164596,274.817918 C112.9737,274.82033 112.856021,274.963676 112.69722,274.981594 C112.543768,274.999167 112.483256,275.215564 112.307071,275.146648 C112.227503,275.334788 112.008859,275.28379 111.879813,275.413008 C111.77116,275.521551 111.582604,275.540503 111.437176,275.615966 C111.198473,275.740359 110.966457,275.877846 110.722739,276.014989 C110.848443,276.134559 110.979829,276.065987 111.098847,276.07977 C111.198473,276.091141 111.300106,276.081838 111.399733,276.081838 L111.534128,276.220704 L112.139912,276.220704 C112.202095,276.284795 112.237533,276.321665 112.30005,276.385757 L112.9055,276.385757 C112.967683,276.449849 113.003455,276.486719 113.065638,276.550811 L113.671087,276.550811 C113.73327,276.614903 113.769042,276.651773 113.813172,276.697258 L114.251463,276.697258 C114.310971,276.751012 114.366134,276.800976 114.428985,276.857832 L114.657993,276.857832 C114.789046,276.964996 114.884326,277.042527 115,277.137286 C114.933471,277.242039 114.88232,277.32267 114.812113,277.433625 L114.812113,277.861938 C114.74291,277.936712 114.674375,278.010797 114.611188,278.079368 C114.459074,278.170337 114.3775,278.06593 114.285897,277.9629 L113.845935,277.9629 C113.786761,277.909146 113.731599,277.859182 113.668747,277.802326 L113.077005,277.802326 C113.020505,277.748227 112.966011,277.695851 112.910514,277.642441 C112.744024,277.66346 112.56483,277.58593 112.405026,277.695851 C112.460188,277.883302 112.722628,277.941192 112.685853,278.186533 C112.989079,278.494932 113.293308,278.805054 113.593191,279.110352 L113.593191,279.433912 C113.476848,279.556927 113.272915,279.541421 113.177968,279.708198 C113.085362,279.870495 112.845322,279.80089 112.760406,279.980761 L111.958377,279.153769 C111.922271,278.839167 111.648799,278.709605 111.475288,278.503546 C111.359614,278.366403 111.233242,278.237875 111.101187,278.117617 C110.958099,277.98771 110.871845,277.767868 110.630467,277.785441 C110.505767,277.656569 110.382738,277.525973 110.254694,277.40089 C110.221931,277.368844 110.174792,277.351271 110.132668,277.330596 C110.006965,277.268227 109.880259,277.207925 109.738508,277.139009 C109.699727,277.232735 109.672647,277.297516 109.648911,277.354716 C109.759904,277.507365 109.905332,277.633137 109.948794,277.788887 C109.988912,277.933611 110.181813,278.006317 110.112944,278.188256 C110.265393,278.264752 110.218588,278.479081 110.330919,278.558335 C110.567281,278.7258 110.56795,279.054874 110.804313,279.221996 C110.946063,279.322268 111.120577,279.459756 111.154678,279.611027 C111.194796,279.787796 111.303783,279.868428 111.398061,279.977315 C111.515406,280.112735 111.64579,280.236095 111.774503,280.368758 L111.774503,280.681292 C111.503371,280.800517 111.264,281.005542 110.962445,281.07308 C110.914303,281.083762 110.861815,281.074458 110.804647,281.074458 C110.672257,280.906303 110.486711,280.798105 110.39912,280.558622 C110.326238,280.35911 110.106257,280.216454 109.950465,280.049332 C109.880593,279.974559 109.808046,279.902197 109.736836,279.828801 C109.719117,279.810538 109.686689,279.79262 109.685686,279.773668 C109.674653,279.541766 109.452666,279.451831 109.376442,279.28023 C109.326628,279.167897 109.284839,279.060732 109.209617,278.960804 C109.171839,278.91084 109.182872,278.821938 109.165822,278.711673 C109.068201,278.80402 109.000334,278.868112 108.908397,278.955291 L108.908397,279.585872 L108.748259,279.750926 L108.748259,280.374961 L108.607177,280.520718 L108.607177,281.759483 C108.538642,281.834257 108.470775,281.908342 108.386861,282 C108.337382,281.959684 108.287903,281.919368 108.220371,281.864925 L107.814175,281.864925 C107.774726,281.843216 107.743968,281.837014 107.735276,281.819785 C107.668413,281.685398 107.520978,281.719856 107.40497,281.652319 L107.40497,280.688528 C107.421686,280.66682 107.465816,280.608241 107.52733,280.526576 L107.52733,279.958019 C107.659386,279.778148 107.761353,279.611371 107.654037,279.398076 C107.597537,279.372577 107.240152,279.626188 107.027525,279.98972 C106.871065,280.256425 106.67014,280.462828 106.47891,280.69163 L106.47891,280.842211 C106.406363,280.91664 106.334819,280.99038 106.26829,281.058952 C106.168998,281.001062 106.071043,280.943862 105.860088,280.820503 C105.775506,280.734702 105.596311,280.552419 105.394383,280.34705 C105.506714,280.112391 105.592634,279.861192 105.795899,279.668571 C105.97409,279.500416 106.135566,279.325714 106.238201,279.079684 C106.330139,278.860531 106.60896,278.76267 106.664791,278.47977 C106.685853,278.37364 106.837299,278.298177 106.919541,278.200316 C106.98139,278.126231 107.095058,278.087294 107.086365,277.959454 C107.096061,277.814386 106.993425,277.767179 106.898479,277.805083 C106.768095,277.857114 106.672814,277.994946 106.504653,277.955664 C106.34418,277.91776 106.287012,278.172405 106.113835,278.110036 C106.022232,278.281637 105.816627,278.251658 105.684906,278.368816 C105.584945,278.457717 105.434167,278.48804 105.314816,278.572462 C105.202485,278.651716 105.026634,278.648615 104.933359,278.740617 C104.653201,279.01766 104.2791,279.12448 103.972865,279.347767 C103.769265,279.253008 103.765922,279.018693 103.6566,278.857775 C103.564997,278.72201 103.51719,278.554544 103.451998,278.405341 C103.496462,278.076956 103.853847,278.155865 103.997938,277.946705 C104.156405,277.716181 104.458963,277.717215 104.673594,277.562843 C104.852454,277.434659 105.063075,277.353683 105.26634,277.247897 C105.226556,277.209304 105.208837,277.176569 105.190115,277.176224 C104.938374,277.173123 104.686633,277.174156 104.436563,277.174156 C104.39912,277.212749 104.363348,277.249275 104.32791,277.286145 C104.283446,277.300962 104.238981,277.327495 104.194183,277.328184 C103.867889,277.33163 103.541595,277.330251 103.225664,277.330251 C103.144091,277.245829 103.072547,277.172434 103,277.097315 L103,276.317186 C103.120689,276.252749 103.244386,276.187279 103.425921,276.090452 L104.413161,276.090452 C104.472001,276.036698 104.527163,275.986734 104.615758,275.906447 L105.084137,275.906447 C105.101187,275.773439 105.101187,275.773439 104.590349,275.769304 C104.534184,275.715549 104.47969,275.663173 104.428205,275.613898 C104.346966,275.613898 104.27141,275.614587 104.195854,275.613553 C104.171784,275.612864 104.148047,275.607351 104.12431,275.603905 C104.088538,275.56738 104.053101,275.53051 103.996267,275.471931 C103.848833,275.464006 103.678999,275.455047 103.517524,275.446777 C103.492116,275.420589 103.468045,275.405083 103.45835,275.382685 C103.448654,275.361321 103.453001,275.332721 103.453001,275.307222 C103.452666,274.949892 103.452666,274.592218 103.452666,274.201809 C103.672313,274.215592 103.840809,274.226274 104.009305,274.237301 C104.132,274.477128 104.465315,274.253496 104.578983,274.517444 L105.029309,274.517444 C105.086143,274.571543 105.140302,274.62392 105.196133,274.677674 C105.369978,274.677674 105.546832,274.677674 105.71466,274.655966 C105.739399,274.755205 105.728367,274.875808 105.860757,274.770366 C105.819301,274.733841 105.77818,274.69766 105.71466,274.655966 C105.735053,274.523647 105.630746,274.52537 105.528445,274.520201 C105.507049,274.519512 105.480637,274.505729 105.466262,274.489189 C105.335544,274.337918 105.192456,274.206978 104.993871,274.160115 C104.735109,273.812778 104.299827,273.681838 104.041734,273.334501 C103.962835,273.22837 103.804368,273.305212 103.725135,273.172548 C103.660946,273.065039 103.551959,272.986131 103.458015,272.888959 L103.458015,272.514056 C103.591074,272.404824 103.766591,272.26079 103.890622,272.159139 C103.935421,271.941364 103.935421,271.941364 104.059119,271.8628 C104.263721,271.913453 104.352315,272.119167 104.498412,272.250452 C104.626121,272.365887 104.812671,272.35934 104.924333,272.518191 C105.04101,272.684279 105.201816,272.817631 105.340558,272.962355 L105.453223,272.962355 C105.756784,273.184609 106.028918,273.387566 106.307071,273.581565 C106.332479,273.599483 106.395331,273.56089 106.470886,273.54056 C106.260935,273.220101 106.189391,272.824867 105.879144,272.57608 C105.889842,272.364164 105.743411,272.212548 105.654148,272.05163 C105.573578,271.906217 105.576921,271.699813 105.399398,271.612979 C105.246615,271.53855 105.299772,271.340072 105.188778,271.233941 C105.141974,271.189146 105.128935,271.106447 105.093498,271.025815 C105.432161,270.885226 105.703962,270.634027 106.032262,270.597846 C106.364908,270.790467 106.477907,271.099555 106.631693,271.377286 C106.748036,271.587825 106.816905,271.818349 106.979718,272.011658 C107.128489,272.187739 107.16025,272.476841 107.320053,272.632936 C107.489553,272.798335 107.507606,273.042986 107.682454,273.186332 C107.665738,273.330366 107.747312,273.420646 107.841589,273.508514 C107.916476,273.578808 108.110715,274.037444 108.148158,274.155635 C108.227392,274.406145 108.294255,274.669404 108.537639,274.822398 C108.666685,274.663202 108.573076,274.475406 108.600825,274.295879 C108.646626,274.244537 108.697108,274.18837 108.749596,274.129103 L108.749596,272.733898 C108.785034,272.695994 108.819134,272.65878 108.853569,272.621565 C108.86995,272.602613 108.900039,272.583317 108.900039,272.564365 C108.902379,271.942053 108.902045,271.319397 108.902045,270.702943 C108.956204,270.642297 109.006352,270.586131 109.05884,270.527207 L109.05884,270.2257 L109.277818,270 C109.31359,270.034458 109.349028,270.069261 109.415223,270.134042 C109.59776,270.204336 109.82543,270.112333 110.04842,270.168844 C110.066139,270.200546 110.109935,270.24224 110.110269,270.284279 C110.114615,270.902455 110.112944,271.520632 110.112944,272.103661 C110.04374,272.174989 110.008302,272.211515 109.961832,272.259411 C109.961832,272.558162 109.960829,272.86794 109.963504,273.177717 C109.963838,273.198047 109.989246,273.218033 110.021341,273.264551 C110.148047,273.162556 110.138352,272.975793 110.262718,272.869318 C110.384075,272.765944 110.474007,272.600546 110.528835,272.444106 C110.578314,272.303862 110.707361,272.181881 110.70502,272.057832 C110.701677,271.861766 110.802307,271.731515 110.869839,271.577143 C110.936703,271.424149 111.003232,271.270811 111.073104,271.109548 C111.282721,271.103001 111.498356,271.019268 111.690255,271.218435 C111.743077,271.273568 111.879144,271.243245 112.004513,271.254616 C112.057335,271.305269 112.129214,271.37453 112.205773,271.447581 C112.189725,271.483762 112.172675,271.518909 112.158968,271.555434 C112.033599,271.8914 111.753441,272.164652 111.77818,272.560574 C111.580598,272.834515 111.469939,273.154975 111.321502,273.455449 C111.27871,273.542627 111.214521,273.624637 111.143645,273.689763 C110.959102,273.858607 110.995877,274.192161 110.718727,274.253496 C110.718727,274.366174 110.718727,274.444049 110.739789,274.512965 C110.643506,274.538464 110.526495,274.527093 110.628796,274.663546 C110.663899,274.620818 110.699337,274.578435 110.739789,274.512965" id="Fill-1-Copy-3" fill="#143E56"></path>
                    <g id="Group-3" transform="translate(79.000000, 0.000000)">
                        <mask id="mask-2" fill="white">
                            <use xlink:href="#path-1"></use>
                        </mask>
                        <g id="Clip-2"></g>
                        <path d="M23.2193681,13.1628141 C23.3828495,13.1879397 23.7559481,13.2723618 23.8121134,13.1738693 C24.1069817,12.6603015 24.7248008,12.7718593 25.1219702,12.4180905 C25.4007912,12.1688442 25.8711762,11.8824121 26.2242157,11.8683417 C26.7808547,11.8462312 27.1780242,11.5979899 27.6233354,11.3708543 C28.186995,11.0844221 28.7606842,10.8201005 29.514905,10.4582915 L30.1868836,10.4582915 C30.3543768,10.3005025 30.5178581,10.1477387 30.6873572,9.98894472 L31.5709589,9.98894472 L31.9580988,9.60100503 C32.4124366,9.60100503 32.9199309,9.60100503 33.4274252,9.60201005 C34.2428261,10.2502513 34.2819413,11.3527638 34.9188165,12.0834171 C34.5055998,12.6924623 33.7453613,12.7075377 33.2940324,13.1879397 C32.7404023,13.0693467 32.3352092,13.5296482 31.8878921,13.5909548 C31.3533181,13.6643216 30.9360896,14.0472362 30.4937873,14.0522613 C29.921101,14.0592965 29.5680615,14.4773869 29.0916588,14.5296482 C28.6313033,14.5809045 28.4497688,15.2120603 27.9212125,15.0110553 C27.6825096,15.559799 27.0265783,15.4110553 26.6394383,15.7879397 C26.3134786,16.1045226 25.747813,16.159799 25.3115284,16.3798995 C24.5954198,16.7427136 23.8993704,17.1437186 23.1682175,17.5437186 C23.5453279,17.8924623 23.9394885,17.6924623 24.2965398,17.7326633 C24.5954198,17.7658291 24.9003176,17.7386935 25.1991976,17.7386935 L25.6023848,18.1437186 L27.4197359,18.1437186 C27.6062852,18.3306533 27.7125982,18.438191 27.9001504,18.6251256 L29.7164986,18.6251256 C29.9030479,18.8120603 30.0103638,18.919598 30.1969131,19.1065327 L32.0132613,19.1065327 C32.1998106,19.2934673 32.3071265,19.401005 32.4395164,19.5336683 L33.7543879,19.5336683 C33.9329136,19.6904523 34.0984008,19.8361809 34.286956,20.0020101 L34.9739789,20.0020101 C35.3671366,20.3145729 35.6529782,20.5407035 36,20.8170854 C35.8004123,21.1226131 35.6469605,21.3577889 35.4363403,21.681407 L35.4363403,22.9306533 C35.228729,23.1487437 35.0231236,23.3648241 34.8335655,23.5648241 C34.3772218,23.8301508 34.1325013,23.5256281 33.8576921,23.2251256 L32.5378058,23.2251256 C32.3602831,23.0683417 32.1947958,22.9226131 32.0062406,22.7567839 L30.2310135,22.7567839 C30.0615145,22.598995 29.8980331,22.4462312 29.7315429,22.2904523 C29.2320722,22.3517588 28.6944893,22.1256281 28.2150777,22.4462312 C28.380565,22.9929648 29.1678832,23.161809 29.0575584,23.8773869 C29.9672369,24.7768844 30.8799242,25.681407 31.7795732,26.5718593 L31.7795732,27.5155779 C31.4305455,27.8743719 30.8187441,27.8291457 30.5339054,28.3155779 C30.2560874,28.7889447 29.535967,28.5859296 29.2812169,29.1105528 L26.8751323,26.6984925 C26.7668134,25.7809045 25.9463977,25.4030151 25.425865,24.8020101 C25.0788433,24.4020101 24.699727,24.0271357 24.3035605,23.6763819 C23.8742965,23.2974874 23.6155346,22.6562814 22.8914025,22.7075377 C22.5173009,22.3316583 22.1482142,21.9507538 21.7640831,21.5859296 C21.6657937,21.4924623 21.5243773,21.441206 21.3980052,21.3809045 C21.0208949,21.198995 20.6407756,21.0231156 20.2155235,20.8221106 C20.0991809,21.0954774 20.0179417,21.2844221 19.946732,21.4512563 C20.2797125,21.8964824 20.7159971,22.2633166 20.846381,22.7175879 C20.9667354,23.1396985 21.5454393,23.3517588 21.338831,23.8824121 C21.7961776,24.1055276 21.6557642,24.7306533 21.9927564,24.961809 C22.7018443,25.4502513 22.7038502,26.4100503 23.4129381,26.8974874 C23.8381902,27.1899497 24.3617318,27.5909548 24.464033,28.0321608 C24.5843874,28.5477387 24.9113501,28.7829146 25.1941829,29.1005025 C25.5462194,29.4954774 25.9373711,29.8552764 26.3235081,30.2422111 L26.3235081,31.1537688 C25.5101131,31.5015075 24.7919987,32.0994975 23.8873349,32.2964824 C23.7429097,32.3276382 23.585446,32.3005025 23.413941,32.3005025 C23.0167716,31.8100503 22.4601326,31.4944724 22.1973589,30.7959799 C21.9787151,30.2140704 21.3187719,29.7979899 20.8513958,29.3105528 C20.6417786,29.0924623 20.4241377,28.881407 20.2105087,28.6673367 C20.1573522,28.6140704 20.0600657,28.561809 20.0570569,28.5065327 C20.0239594,27.8301508 19.3579986,27.5678392 19.1293252,27.0673367 C18.9798852,26.7396985 18.8545161,26.4271357 18.6288516,26.1356784 C18.5155179,25.9899497 18.5486154,25.7306533 18.4974648,25.4090452 C18.2046024,25.678392 18.001003,25.8653266 17.7251908,26.119598 L17.7251908,27.958794 L17.2447763,28.440201 L17.2447763,30.2603015 L16.8215301,30.6854271 L16.8215301,34.2984925 C16.6159247,34.5165829 16.4123252,34.7326633 16.1605839,35 C16.0121469,34.8824121 15.8637098,34.7648241 15.6611133,34.6060302 L14.4425252,34.6060302 C14.3241767,34.5427136 14.2319051,34.5246231 14.2058283,34.4743719 C14.0052376,34.0824121 13.5629353,34.1829146 13.2149106,33.9859296 L13.2149106,31.1748744 C13.2650582,31.1115578 13.397448,30.9407035 13.5819914,30.7025126 L13.5819914,29.0442211 C13.9781579,28.519598 14.2840586,28.0331658 13.9621107,27.4110553 C13.7926116,27.3366834 12.7204547,28.0763819 12.0825765,29.1366834 C11.6131944,29.9145729 11.0104196,30.5165829 10.4367304,31.1839196 L10.4367304,31.6231156 C10.2190895,31.840201 10.0044576,32.0552764 9.80486989,32.2552764 C9.50699281,32.0864322 9.21312754,31.919598 8.58026411,31.559799 C8.32651697,31.3095477 7.78893408,30.7778894 7.18315039,30.1788945 C7.52014264,29.4944724 7.7779016,28.761809 8.38769711,28.2 C8.92227113,27.7095477 9.4066975,27.2 9.71460411,26.4824121 C9.99041623,25.8432161 10.8268791,25.5577889 10.9943723,24.7326633 C11.0575584,24.4231156 11.5118961,24.2030151 11.7586226,23.9175879 C11.9441689,23.7015075 12.285173,23.5879397 12.2590962,23.2150754 C12.2881819,22.7919598 11.9802753,22.6542714 11.6954366,22.7648241 C11.3042848,22.9165829 11.0184432,23.318593 10.5139578,23.2040201 C10.0325403,23.0934673 9.86103527,23.8361809 9.34150554,23.6542714 C9.06669638,24.1547739 8.4498802,24.0673367 8.05471667,24.4090452 C7.75483368,24.6683417 7.30250181,24.7567839 6.94444754,25.0030151 C6.60745529,25.2341709 6.07990193,25.2251256 5.80007801,25.4934673 C4.95960328,26.3015075 3.83729871,26.6130653 2.91859364,27.2643216 C2.30779517,26.9879397 2.29776564,26.3045226 1.96979997,25.8351759 C1.69499081,25.439196 1.55156851,24.9507538 1.35599265,24.5155779 C1.48938541,23.5577889 2.56154232,23.7879397 2.99381512,23.1778894 C3.46921491,22.5055276 4.3768875,22.5085427 5.02078342,22.0582915 C5.55736335,21.6844221 6.18922383,21.4482412 6.79901933,21.1396985 C6.67966791,21.0271357 6.62651139,20.9316583 6.57034602,20.9306533 C5.8151223,20.921608 5.05989859,20.9246231 4.30968964,20.9246231 C4.19735889,21.0371859 4.0900429,21.1437186 3.98372987,21.2512563 C3.8503371,21.2944724 3.71694434,21.3718593 3.58254862,21.3738693 C2.60366635,21.3839196 1.62478409,21.3798995 0.676993369,21.3798995 C0.432272803,21.1336683 0.217640831,20.919598 0,20.7005025 L0,18.4251256 C0.362066083,18.2371859 0.733158745,18.0462312 1.2777623,17.7638191 L4.23948292,17.7638191 C4.41600267,17.6070352 4.58148994,17.4613065 4.84727252,17.2271357 L6.25240987,17.2271357 C6.30356048,16.839196 6.30356048,16.839196 4.77104809,16.8271357 C4.60255196,16.6703518 4.4390706,16.5175879 4.28461581,16.3738693 C4.0408982,16.3738693 3.81423079,16.3758794 3.58756338,16.3728643 C3.51535076,16.3708543 3.44414108,16.3547739 3.37293141,16.3447236 C3.26561542,16.238191 3.15930239,16.1306533 2.98880036,15.959799 C2.54649802,15.9366834 2.03699783,15.9105528 1.55257146,15.8864322 C1.47634702,15.8100503 1.4041344,15.7648241 1.37504875,15.6994975 C1.34596311,15.6371859 1.3590015,15.5537688 1.3590015,15.479397 C1.35799855,14.4371859 1.35799855,13.3939698 1.35799855,12.2552764 C2.01693876,12.2954774 2.52242715,12.3266332 3.02791553,12.358794 C3.39599933,13.0582915 4.39594361,12.4060302 4.73694768,13.1758794 L6.08792556,13.1758794 C6.25842759,13.3336683 6.420906,13.4864322 6.58839918,13.6432161 C7.10993481,13.6432161 7.64049702,13.6432161 8.1439795,13.5798995 C8.21819803,13.8693467 8.18510057,14.2211055 8.58227002,13.9135678 C8.45790383,13.8070352 8.33454059,13.7015075 8.1439795,13.5798995 C8.20515964,13.1939698 7.89223826,13.198995 7.5853346,13.1839196 C7.5211456,13.1819095 7.4419123,13.1417085 7.39878531,13.0934673 C7.00663063,12.6522613 6.57736669,12.2703518 5.98161253,12.1336683 C5.2053268,11.120603 3.89948181,10.7386935 3.12520198,9.72562814 C2.88850504,9.4160804 2.41310525,9.64020101 2.17540536,9.25326633 C1.98283836,8.93969849 1.65587563,8.70954774 1.3740458,8.42613065 L1.3740458,7.33266332 C1.77322115,7.01407035 2.29977155,6.59396985 2.67186716,6.29748744 C2.80626289,5.66231156 2.80626289,5.66231156 3.17735555,5.43316583 C3.79116287,5.58090452 4.05694545,6.18090452 4.49523597,6.5638191 C4.87836407,6.90050251 5.43801192,6.88140704 5.77299827,7.34472362 C6.12302892,7.82914573 6.60544938,8.21809045 7.02167493,8.64020101 L7.35967014,8.64020101 C8.27035159,9.28844221 9.08675545,9.88040201 9.92121246,10.4462312 C9.9974369,10.4984925 10.1859921,10.3859296 10.4126595,10.3266332 C9.78280493,9.3919598 9.56817295,8.23919598 8.63743244,7.51356784 C8.66952694,6.89547739 8.23023347,6.45326633 7.96244498,5.9839196 C7.72073327,5.55979899 7.7307628,4.95778894 7.19819468,4.70452261 C6.7398451,4.48743719 6.89931465,3.90854271 6.56633421,3.59899497 C6.42592077,3.46834171 6.38680559,3.22713568 6.28049256,2.9919598 C7.29648409,2.58190955 8.11188499,1.84924623 9.09678498,1.74371859 C10.0947234,2.30552764 10.4337215,3.20703518 10.89508,4.01708543 C11.2441077,4.63115578 11.450716,5.30351759 11.9391542,5.86733668 C12.3854683,6.38090452 12.4807489,7.2241206 12.9601605,7.67939698 C13.4686577,8.16180905 13.5228172,8.87537688 14.0473617,9.29346734 C13.997214,9.71356784 14.2419346,9.97688442 14.5247674,10.2331658 C14.7494289,10.438191 15.3321446,11.7758794 15.4444754,12.120603 C15.6821753,12.8512563 15.8827659,13.6190955 16.6129158,14.0653266 C17.0000557,13.601005 16.7192288,13.0532663 16.802474,12.5296482 C16.9398785,12.3798995 17.0913245,12.2160804 17.2487881,12.0432161 L17.2487881,7.97386935 C17.3551011,7.86331658 17.4574024,7.75477387 17.5607065,7.64623116 C17.6098512,7.59095477 17.700117,7.53467337 17.700117,7.47939698 C17.7071377,5.66432161 17.7061347,3.84824121 17.7061347,2.05025126 C17.8686131,1.87336683 18.0190561,1.70954774 18.1765198,1.53768844 L18.1765198,0.658291457 L18.8334541,0 C18.94077,0.100502513 19.0470831,0.20201005 19.2456678,0.390954774 C19.7932802,0.595979899 20.4762913,0.327638191 21.145261,0.492462312 C21.1984176,0.584924623 21.3298044,0.706532663 21.3308074,0.829145729 C21.3438458,2.6321608 21.338831,4.43517588 21.338831,6.13567839 C21.1312197,6.34371859 21.0249067,6.45025126 20.8854962,6.58994975 C20.8854962,7.46130653 20.8824873,8.36482412 20.8905109,9.26834171 C20.8915139,9.32763819 20.9677383,9.38592965 21.0640218,9.52160804 C21.4441411,9.2241206 21.4150554,8.67939698 21.788154,8.36884422 C22.152226,8.06733668 22.4220204,7.58492462 22.5865047,7.12864322 C22.7349418,6.71959799 23.1220817,6.3638191 23.115061,6.00201005 C23.1050315,5.43015075 23.4069204,5.05025126 23.6095169,4.6 C23.8101075,4.15376884 24.0096952,3.70653266 24.2193124,3.2361809 C24.848164,3.21708543 25.4950688,2.97286432 26.0707639,3.55376884 C26.2292305,3.71457286 26.6374324,3.62613065 27.0135399,3.65929648 C27.1720065,3.80703518 27.3876414,4.00904523 27.6173177,4.22211055 C27.5691759,4.32763819 27.5180253,4.43015075 27.4769042,4.53668342 C27.1007968,5.51658291 26.2603221,6.31356784 26.3345406,7.46834171 C25.7417953,8.26733668 25.4098178,9.20201005 24.9645066,10.078392 C24.8361286,10.3326633 24.6435616,10.5718593 24.4309355,10.761809 C23.8773054,11.2542714 23.9876302,12.2271357 23.1561821,12.4060302 C23.1561821,12.7346734 23.1561821,12.961809 23.2193681,13.1628141 C22.9305176,13.2371859 22.579484,13.2040201 22.8863877,13.6020101 C22.9916978,13.4773869 23.0980108,13.3537688 23.2193681,13.1628141" id="Fill-1" fill="#143E56" mask="url(#mask-2)"></path>
                    </g>
                </g>
            </g>
        </g>
    </g>
</svg>