<?xml version="1.0" encoding="UTF-8"?>
<svg width="88px" height="106px" viewBox="0 0 88 106" version="1.1" xmlns="http://www.w3.org/2000/svg" xmlns:xlink="http://www.w3.org/1999/xlink">
    <title>Group 26</title>
    <defs>
        <polygon id="path-1" points="0.000454545455 0.0334423077 69.4036364 0.0334423077 69.4036364 93.0961538 0.000454545455 93.0961538"></polygon>
    </defs>
    <g id="01_design" stroke="none" stroke-width="1" fill="none" fill-rule="evenodd">
        <g id="Calendário-Advento" transform="translate(-854.000000, -285.000000)">
            <g id="03" transform="translate(809.000000, 252.000000)">
                <g id="Group-26" transform="translate(89.000000, 86.000000) rotate(11.000000) translate(-89.000000, -86.000000) translate(54.000000, 39.000000)">
                    <g id="Group-3">
                        <mask id="mask-2" fill="white">
                            <use xlink:href="#path-1"></use>
                        </mask>
                        <g id="Clip-2"></g>
                        <path d="M29.035,79.1507115 C29.0822727,78.7385577 29.1322727,78.2947692 29.1868182,77.8247692 C29.3704545,77.6638846 29.5686364,77.4903462 29.7822727,77.30325 C29.8613636,76.6163269 29.9422727,75.9077115 30.0222727,75.2063269 C30.2304545,75.0273654 30.4322727,74.8547308 30.6422727,74.6739615 C30.7631818,73.6191731 30.885,72.5553462 31.0213636,71.3613654 C31.3231818,71.3559423 31.6322727,71.3505192 32.0559091,71.3432885 C31.9513636,72.2579808 31.8622727,73.0325769 31.7931818,73.6354423 C32.0240909,74.0259038 32.2540909,74.2437308 32.265,74.4724038 C32.2868182,74.9143846 32.1168182,75.3663077 32.1568182,75.8028654 C32.185,76.1155962 32.5013636,76.3957885 32.5568182,76.7139423 C32.6577273,77.2942115 32.1586364,77.9088269 32.6731818,78.49 C33.1504545,79.0277885 32.3922727,79.9424808 33.2277273,80.3907885 C32.855,81.0677692 33.9722727,81.4130385 33.6095455,82.0873077 C34.2113636,82.5473654 34.0159091,83.1845769 33.9277273,83.7305 C34.8668182,84.5566154 34.8940909,85.85725 35.7831818,86.6074423 C35.7613636,86.8026731 35.7404545,86.9789231 35.7177273,87.1831923 C36.0459091,87.5854038 36.3877273,88.0002692 36.725,88.4178462 C37.0077273,88.7667308 37.2622727,89.1400192 37.5722727,89.4608846 C37.9240909,89.8278462 38.0959091,90.3358077 38.7031818,90.5111538 C39.065,90.616 39.2868182,91.1357115 39.6213636,91.4086731 C40.0077273,91.7232115 40.4495455,91.9726731 41.0122727,92.3468654 C41.1768182,92.3649423 41.5322727,92.4047115 41.8795455,92.4444808 C42.0604545,92.6523654 42.2340909,92.8512115 42.4459091,93.0962914 C43.1795455,93.1079038 43.8277273,92.3622308 44.6177273,92.7346154 C45.2777273,92.2121923 45.9113636,91.7105577 46.4304545,91.3002115 C46.7904545,90.7759808 47.1613636,90.3981731 47.3295455,89.94625 C47.5059091,89.4690192 47.3668182,88.8634423 48.0231818,88.5995192 C48.3259091,85.9539615 48.6304545,83.2966538 48.9413636,80.5751731 C48.8286364,80.4151923 48.6786364,80.2018846 48.5086364,79.9623654 C48.6677273,78.5758654 48.8295455,77.1577308 48.9922727,75.7432115 C48.8268182,75.5217692 48.6695455,75.3102692 48.5068182,75.0924423 C48.6286364,74.0331346 48.7504545,72.9675 48.8713636,71.9063846 C48.7568182,71.7626731 48.6440909,71.6225769 48.4486364,71.3776346 C48.5259091,70.7006538 48.615,69.9260577 48.6931818,69.2454615 C48.4968182,69.0005192 48.385,68.8604231 48.1886364,68.6154808 C48.2668182,67.9366923 48.355,67.163 48.4331818,66.4824038 C48.2368182,66.2383654 48.125,66.0991731 47.9295455,65.8533269 C48.0068182,65.1736346 48.095,64.4008462 48.1731818,63.7211538 C47.9768182,63.4762115 47.865,63.3361154 47.7295455,63.1661923 C47.7868182,62.6681731 47.8468182,62.1421346 47.9068182,61.6160962 C47.745,61.3883269 47.5931818,61.1741154 47.425,60.9382115 C47.5022727,60.2585192 47.5840909,59.5499038 47.6640909,58.8521346 C47.4986364,58.6279808 47.3413636,58.4155769 47.1795455,58.1950385 C47.2395455,57.669 47.3004545,57.1384423 47.3586364,56.6259615 C47.1940909,56.3981923 47.0386364,56.1857885 46.895,55.9869423 C46.9477273,55.51875 46.9986364,55.0749615 47.0604545,54.5344615 C46.9359091,54.3112115 46.5931818,53.9831154 46.6413636,53.7309423 C46.8422727,52.6824808 45.8713636,51.7379615 46.415,50.6867885 C45.6095455,50.0839231 46.4540909,48.9378462 45.6322727,48.3123846 C45.5495455,48.2500192 45.7204545,47.8559423 45.7804545,47.5865962 C47.3022727,48.5591346 48.8068182,49.4159808 50.1731818,50.4508846 C50.6595455,50.81875 51.2595455,50.6117692 51.5868182,50.9751154 C51.8995455,51.324 52.4077273,51.3764231 52.6186364,51.6683654 C53.0077273,52.20525 53.5295455,52.1184808 54.0222727,52.2621923 C54.2422727,52.3254615 54.395,52.6146923 54.6095455,52.8334231 C55.095,52.8876538 55.6268182,52.9491154 56.1577273,53.0087692 C56.3368182,53.2175577 56.5095455,53.4182115 56.6868182,53.6251923 C57.215,53.6839423 57.7495455,53.7454038 58.2704545,53.80325 C58.4513636,54.0129423 58.625,54.2117885 58.7704545,54.379 C60.7722727,54.6049615 62.7322727,54.8273077 64.6831818,55.0469423 C65.0840909,54.4992115 65.6268182,54.6266538 65.9868182,54.6718462 C66.9786364,53.8873077 67.8813636,53.1723654 69.0113636,52.2793654 C69.1104545,51.4161923 69.2513636,50.1815385 69.4040909,48.8483654 C69.335,48.5446731 68.7540909,48.3069615 69.0622727,47.6914423 C68.4059091,46.8978654 67.6686364,46.1097115 67.0613636,45.2347885 C66.6886364,44.6988077 66.0940909,44.5388269 65.6713636,44.1311923 C65.1686364,43.6467308 64.8059091,42.9372115 64.2204545,42.6425577 C63.5986364,42.3307308 63.4531818,41.5046154 62.925,41.4223654 C62.2504545,41.3175192 62.0759091,40.4796538 61.3677273,40.5980577 C60.9240909,40.0765385 60.565,39.5134423 59.8359091,39.2440962 C59.3122727,39.0488654 58.9059091,38.5372885 58.4477273,38.1676154 C57.7004545,38.3764038 57.6113636,37.2203846 56.8713636,37.4165192 C56.4913636,36.4503077 55.1431818,37.0549808 54.7431818,36.1204038 C53.8122727,36.2351923 53.2868182,35.1659423 52.3459091,35.30875 C51.9459091,34.3841154 50.6104545,34.9481154 50.2295455,33.9936538 C49.7404545,33.8635 49.1540909,34.0668654 48.805,33.4612885 C48.5986364,33.1024615 48.0859091,33.1151154 47.745,32.8005769 C47.2822727,32.3739615 46.3859091,32.5854615 45.9868182,31.8895 C45.155,32.1579423 44.8240909,31.1709423 44.1259091,31.1474423 C43.3740909,31.1221346 43.0122727,30.3990577 42.3131818,30.2309423 C42.6277273,29.76275 42.9359091,29.3045 43.2431818,28.84625 C43.5222727,28.4304808 43.8013636,28.0147115 44.1768182,27.4570385 C44.2159091,27.1144808 44.2768182,26.5830192 44.3368182,26.0587885 C44.545,25.8798269 44.7459091,25.7071923 44.9368182,25.5435962 C45.2222727,23.0480769 45.5068182,20.5625 45.7895455,18.0859615 C45.6695455,17.9359231 45.5577273,17.7967308 45.445,17.6566346 C45.2386364,17.1324038 45.4768182,16.6181154 45.4840909,15.9881346 C45.3977273,15.8534615 45.2022727,15.6573269 45.1340909,15.4250385 C44.7831818,14.2256346 44.4095455,13.0388846 43.8068182,11.9334808 C43.6940909,11.7265 43.8159091,11.3251923 43.6731818,11.2167308 C42.9886364,10.6961154 43.0777273,9.79588462 42.5786364,9.18940385 C41.4977273,7.87430769 40.4477273,6.53390385 39.3804545,5.20615385 C39.2159091,5.00278846 39.0368182,4.65571154 38.8522727,4.64667308 C37.9731818,4.60690385 37.9531818,3.55030769 37.2695455,3.38490385 C36.8659091,3.28638462 36.7313636,2.95376923 36.4486364,2.79740385 C36.1568182,2.63651923 35.7640909,2.6555 35.3695455,2.58771154 C35.2268182,2.42501923 35.0522727,2.22798077 34.865,2.01557692 C34.5304545,1.97761538 34.175,1.93694231 33.825,1.89717308 C33.705,1.75526923 33.5904545,1.61969231 33.3368182,1.31871154 C32.7422727,1.14878846 31.9331818,1.19126923 31.1640909,1.03128846 C31.0522727,0.891192308 30.9404545,0.752 30.8286364,0.611 C30.6740909,0.546826923 30.5240909,0.445596154 30.3640909,0.425711538 C29.2104545,0.283807692 28.055,0.158173077 26.9513636,0.0334423077 C26.7540909,0.189807692 26.6131818,0.300980769 26.4140909,0.459153846 C25.9459091,0.406730769 25.4240909,0.347076923 24.9668182,0.295557692 C23.7277273,1.01863462 22.225,1.00869231 21.2868182,2.10505769 C21.075,2.08065385 20.8995455,2.06076923 20.735,2.04178846 C19.2440909,3.22130769 17.7659091,4.39088462 16.2786364,5.56859615 C16.2595455,5.734 16.2395455,5.90934615 16.2131818,6.13621154 C15.1731818,6.51492308 14.8786364,7.64201923 14.0877273,8.33255769 C13.4204545,8.91644231 13.0340909,9.81757692 12.4268182,10.7205192 C12.4086364,10.8850192 12.3686364,11.2384231 12.3286364,11.5845962 C12.1204545,11.7635577 11.9186364,11.9361923 11.7077273,12.1178654 C11.6686364,12.4613269 11.6286364,12.8129231 11.5913636,13.1410192 C11.375,13.3317308 11.1777273,13.5052692 10.9977273,13.66525 C10.9431818,14.1370577 10.8922727,14.58175 10.8313636,15.1204423 C10.7086364,15.2496923 10.5340909,15.4340769 10.2131818,15.7748269 C10.1040909,16.7265769 10.0177273,17.8753654 9.82318182,19.0060769 C9.73227273,19.5339231 10.3495455,19.7833846 10.2286364,20.17475 C9.95136364,21.0758846 10.9677273,21.7971538 10.5086364,22.6865385 C10.9513636,23.3156154 11.1368182,24.0585769 11.3286364,24.7726154 C11.4595455,25.2570769 11.8431818,25.6005385 11.8477273,26.1871346 C11.8504545,26.7167885 12.2313636,27.3097115 12.5959091,27.7516923 C12.9495455,28.1819231 12.9859091,28.6853654 13.2013636,29.1345769 C13.4259091,29.6027692 13.8213636,29.9652115 14.3877273,30.0384231 C14.895,30.6729231 15.3995455,31.3029038 15.9031818,31.9328846 C15.6086364,32.5294231 14.6613636,32.6270385 14.705,33.4829808 C14.0013636,34.0388462 13.3459091,34.6778654 12.5786364,35.1279808 C11.9204545,35.5148269 11.7331818,36.1972308 11.2695455,36.6907308 C10.7977273,37.1914615 10.0277273,37.3821731 9.81590909,38.1576731 C9.62863636,38.8482115 8.53409091,38.8509231 8.55863636,39.7303654 C7.81772727,40.2085 7.48590909,41.0734808 6.83590909,41.5977115 C6.335,42.0017308 6.15863636,42.5738654 5.745,42.9977692 C5.39227273,43.3593077 4.89318182,43.5265192 4.74954545,44.1619231 C4.62227273,44.7205 3.68590909,44.7937115 3.56136364,45.4752115 C3.42227273,46.2407692 2.44045455,46.2226923 2.24227273,47.0316346 C2.09409091,47.6345 1.51136364,48.1325192 1.02409091,48.8140192 C0.984090909,49.1601923 0.924090909,49.6871346 0.863181818,50.2140769 C0.653181818,50.3975577 0.455,50.5710962 0.241363636,50.7563846 C0.163181818,51.4451154 0.0813636364,52.1537308 0.000454545455,52.8695769 C0.151363636,53.07475 0.307727273,53.2889615 0.473181818,53.5122115 C0.434090909,53.8556731 0.393181818,54.2081731 0.354090909,54.5516346 C0.643181818,54.9122692 0.923181818,55.2611538 1.20318182,55.6118462 C1.23863636,55.8585962 1.27409091,56.1071538 1.30772727,56.3421538 C2.02318182,56.7832308 2.73136364,57.2206923 3.72409091,57.8325962 C4.25681818,57.8931538 5.13590909,57.9925769 6.16590909,58.1091731 C6.25045455,58.0540385 6.46863636,57.7865 6.67681818,57.7946346 C8.25954545,57.8524808 9.545,56.9251346 10.9931818,56.5536538 C11.1540909,56.5120769 11.3340909,56.4912885 11.465,56.4018077 C12.0486364,56.0077308 12.5713636,55.3732308 13.2031818,55.2412692 C13.9013636,55.09575 14.2486364,54.6167115 14.7431818,54.2859038 C15.3377273,53.8873077 15.875,53.4046538 16.4422727,52.9644808 C16.4831818,52.9319423 16.5677273,52.9554423 16.6259091,52.9527308 C16.685,53.0250385 16.7968182,53.0991538 16.7904545,53.1624231 C16.7222727,53.87375 16.6359091,54.5841731 16.5540909,55.2945962 L16.1313636,55.6290192 C16.0613636,55.7790577 15.9468182,55.9245769 15.9286364,56.0809423 C15.2195455,62.2054038 14.5204545,68.3316731 13.8231818,74.4263077 C13.9622727,74.6016538 14.0740909,74.7408462 14.2704545,74.9866923 C14.1113636,76.3740962 13.9413636,77.8609231 13.7822727,79.2510385 C13.9786364,79.4959808 14.0904545,79.6351731 14.285,79.8801154 C14.2368182,80.3058269 14.145,80.8255385 14.1268182,81.3470577 C14.1086364,81.8514038 13.7613636,82.4054615 14.2377273,82.8564808 C14.7577273,83.3499808 14.035,84.0522692 14.5977273,84.5755962 C14.955,84.9073077 14.7104545,85.6150192 15.2277273,85.9268462 C15.7586364,86.2486154 15.5322727,86.8894423 15.8304545,87.3015962 C16.0077273,87.3368462 16.1786364,87.3702885 16.3840909,87.4109615 C16.7077273,87.7941923 17.0486364,88.1991154 17.3777273,88.5886731 C18.6413636,88.7323846 19.8895455,88.8733846 21.1277273,89.0134808 C22.4059091,88.0020769 23.6731818,87.0006154 24.9395455,85.9973462 C24.7813636,85.2733654 25.8686364,85.1621923 25.7140909,84.4409231 C26.1204545,84.1019808 26.5268182,83.7621346 26.915,83.4376538 C26.9495455,83.1375769 26.8768182,82.7697115 27.0268182,82.6214808 C27.945,81.7113077 28.1840909,80.4106731 29.035,79.1507115" id="Fill-1" fill="#A1672A" mask="url(#mask-2)"></path>
                    </g>
                    <path d="M43.1848467,83 C43.5886146,82.6486486 43.9914813,82.2972973 44.3321606,82 C45.0198279,80.7792793 44.8467845,79.4855856 45,78.2126126 C44.9351087,78.1243243 44.8278579,78.0315315 44.7900046,77.9171171 C44.5241306,77.1117117 44.1951679,76.3630631 43.6318755,75.6891892 C43.1208567,75.0765766 42.7432255,74.3963964 42.071781,73.8738739 C41.3111109,73.2837838 40.75593,72.4297297 40.0295082,71.5954955 C40.3206176,71.4864865 40.5657625,71.3783784 40.8208213,71.3018018 C42.0735835,70.9234234 43.1578086,70.3045045 43.6444932,69.0225225 C43.8409696,68.5054054 43.822043,67.9072072 43.8815267,67.4774775 C43.3227406,66.3252252 42.8333522,65.2882883 41.7851778,64.6603604 C41.3904225,64.4234234 41.0966092,64.0171171 40.6982489,63.790991 C39.8528597,63.3099099 39.2084532,62.6297297 38.605505,61.8828829 C38.6226291,61.6252252 38.6415558,61.3594595 38.6631862,61.0468468 C40.1818224,59.9333333 41.5742811,58.6954955 41.3444579,56.4351351 C41.3111109,56.3702703 41.1876373,56.2315315 41.1587967,56.0756757 C40.9361835,54.8315315 39.8726876,54.3423423 38.9858401,53.7576577 C38.299074,53.3045045 38.2278738,53.4081081 37.8087843,52.8765766 C38.2413929,52.390991 38.6487659,51.8423423 39.1480683,51.3936937 C40.0141866,50.6153153 40.4278685,49.5621622 40.5486384,48.518018 C40.678421,47.3801802 40.224182,46.2495495 39.3148028,45.4513514 C38.8218093,45.0198198 38.2332815,44.6765766 37.6447536,44.3801802 C36.9354558,44.0234234 36.3586445,43.5432432 35.8881827,42.9054054 C35.9359499,42.2081081 35.9855196,41.4963964 36.0350893,40.7846847 C35.8296003,40.5495495 35.6241112,40.3144144 35.4141158,40.0747748 C35.0653252,40.0495495 34.7111269,40.0261261 34.3361995,40 C34.018052,40.2855856 33.6872867,40.5837838 33.4214127,40.8234234 C33.2600858,41.3702703 32.8959736,41.9297297 33.02846,42.3198198 C33.2087135,42.8504505 33.0951538,43.3387387 33.1501311,43.7072072 C33.701707,45.0747748 34.6786813,45.8801802 35.8061673,46.5351351 C36.2703202,46.8045045 36.7533997,47.0414414 37.2040336,47.3288288 C37.3842872,47.4441441 37.5023533,47.6567568 37.6519637,47.8279279 C37.7997716,48.7846847 37.3644593,49.4648649 36.6479514,50.0522523 C36.1513529,50.4576577 35.714238,50.9378378 35.3059637,51.3315315 C35.2645054,51.9378378 35.2654066,52.4306306 35.1906014,52.9126126 C34.9869149,54.2162162 35.6953114,55.0369369 36.653359,55.7108108 C37.1932184,56.0900901 37.7790425,56.4027027 38.3892008,56.7720721 C38.3666691,57.1018018 38.3396311,57.4900901 38.3098892,57.9207207 C37.2130463,58.4279279 36.3189887,59.1882883 35.6944101,60.327027 C35.727757,60.9252252 35.7106329,61.5324324 35.8043648,62.1216216 C36.0116564,63.4243243 36.8561443,64.3504505 37.7970678,65.1756757 C38.2603195,65.5810811 38.8533537,65.8342342 39.3445446,66.2135135 C39.8889104,66.6342342 40.3846077,67.118018 40.8523656,67.5324324 C40.9154544,68.190991 40.7865731,68.527027 40.1187337,68.590991 C39.641963,68.6369369 39.1579822,68.8477477 38.7262749,69.0774775 C37.8349211,69.5504505 37.3608542,70.4531532 37.2103425,71.3315315 C37.097684,71.9882883 37.2950617,72.8459459 37.8628604,73.4234234 C38.5955911,74.1693694 39.1760076,75.0387387 40.035817,75.6936937 C40.8965278,76.3477477 41.4976734,77.309009 42.024915,78.2648649 C42.3475689,78.8486486 42.2862827,79.509009 42.139376,80.1459459 C41.7995981,80.4414414 41.4634252,80.7342342 41.0812877,81.0666667 C41.0578547,81.4063063 41.0308167,81.7963964 41.0010748,82.2216216 C41.1723157,82.418018 41.3778048,82.6540541 41.5823925,82.8891892 C42.1168443,82.9261261 42.6503949,82.9630631 43.1848467,83" id="Fill-4" fill="#FFFFFF"></path>
                    <path d="M26.1831143,55.0363545 C25.594571,55.2568236 25.1439675,55.4996981 24.6639369,55.5857348 C24.0266549,55.7004504 23.3636241,55.7604969 22.7189853,55.723752 C21.7239794,55.6681867 19.9739827,57.1505275 20.0300783,58.13278 C20.0576662,58.6167365 19.9721435,59.1060703 19.948234,59.4439437 C20.2250332,60.6170901 20.9607123,61.3528833 21.5998335,62.1693358 C22.2932111,63.0556932 22.9737142,63.9940311 23.0941817,65.2854781 C22.8900307,65.3930239 22.6104727,65.5408995 22.0577938,65.8330659 C21.5005168,65.9262723 20.5735612,66.0813177 19.5620024,66.2515987 C19.1307106,66.6396601 18.6313684,67.0886642 18.0740915,67.5914412 C17.9683376,67.7984671 17.7384379,68.0798788 17.6860208,68.3890733 C17.5030206,69.4690133 17.7007343,70.4933879 18.3619259,71.4012544 C18.5449261,71.6530911 18.776665,71.8717677 18.9854139,72.1065763 C19.3744043,72.5412409 19.8112137,72.9436418 20.1358321,73.4204286 C20.413551,73.8255181 20.5606868,74.3148519 20.7749533,74.7853652 C20.4733249,75.5865821 19.939038,76.0481332 18.967022,76.0660575 C18.4860718,76.0750197 18.0106392,76.3609125 17.4616386,76.5446367 C17.3374928,76.7507664 17.1682866,77.0330743 17,77.3135899 C17.1324222,78.036836 17.3512868,78.6552249 18.1844433,78.8398453 C19.2438212,79.2691327 20.2020432,78.7493275 21.0968129,78.2913613 C22.0329646,77.8136783 22.841292,77.106564 23.4243177,76.1153494 C23.4427096,75.8482771 23.4473076,75.4915832 23.4960464,75.1411628 C23.6726094,73.8685365 23.1824632,72.819964 22.3676986,71.8789375 C21.9851454,71.4388955 21.5952355,71.0051271 21.2016472,70.5740473 C20.8439233,70.182401 20.6158627,69.7432553 20.6103451,69.0997724 C20.7262146,69.0011886 20.8954208,68.7385974 21.0499134,68.7466633 C22.0145726,68.7941628 22.8983071,68.3532246 23.8896347,68.3478473 C24.5122031,67.7787503 25.1577615,67.1890403 25.6892897,66.7023952 C25.9274658,65.1859981 25.9605713,63.8864852 25.2000631,62.6819713 C24.8864799,62.1854677 24.6464646,61.6414647 24.3080522,61.1628855 C23.7875592,60.4235075 23.2100511,59.7217706 22.683121,59.0397504 C22.8532468,58.5764068 23.1318852,58.5091906 23.5254735,58.4383896 C24.2795446,58.3021648 25.0446509,58.3003724 25.7996415,58.1058935 C27.1082307,57.7698126 28.2108298,57.2625545 28.7460363,55.9585606 C28.7754635,55.8850709 28.8784585,55.8402601 28.985132,55.7497423 C29.0945643,54.186742 28.6108553,52.9069459 27.1698438,51.9784663 C26.6438333,51.6388006 26.1205815,51.2462581 25.6423901,50.8402723 C24.9848769,50.2819299 24.3990925,49.617834 24.5351931,48.6185534 C24.6032434,48.1238423 24.2464391,47.6560177 24.3669065,47.1164958 C24.4717408,46.6450863 24.45059,46.1458941 24.4956503,45.5104772 C24.9949925,45.0094925 25.5770986,44.4260561 26.2346118,43.7682337 C26.2539234,43.499369 26.2805917,43.1131 26.3072601,42.7411704 C26.1150639,42.5269749 25.9357422,42.3253263 25.7269932,42.0932064 C25.3150129,42.0645275 24.8690075,42.0349524 24.3549517,42 C23.2201667,42.4221176 22.4394273,43.262768 22.0173314,44.4368107 C21.9327283,44.6716192 21.8131805,44.9055315 21.7911101,45.1475098 C21.701909,46.1190077 21.5676476,47.0958829 21.5979943,48.0664845 C21.6255823,48.9761435 21.7506477,49.9055193 21.9971002,50.7829145 C22.2076884,51.5267736 22.7833573,52.1021441 23.4233981,52.5869969 C24.3411577,53.2815641 25.3885808,53.8381141 26.1831143,55.0363545" id="Fill-6" fill="#FFFFFF"></path>
                    <path d="M33.6764244,21.2890872 C33.2557183,21.0987077 32.7671276,20.8770718 32.1927878,20.6166023 C31.7810139,21.1451186 31.4183671,21.6130166 31.0798371,22.0477638 C31.5871854,23.8000132 31.2093539,25.2160201 30.0338778,26.398078 C29.6185311,26.8148292 29.13262,27.0108917 28.5404159,26.9919485 C28.1322149,26.9777411 27.7222274,27.1397057 27.3104535,27.1577018 C26.9192236,27.176645 26.5235277,27.1103437 26.1707062,27.0847703 C25.1506503,26.3128335 24.3262093,25.4357616 23.9894658,24.1514102 C23.9564167,24.0282792 23.8242203,23.8966237 23.847444,23.7981189 C24.088613,22.7912859 23.6143138,21.8176035 23.7429373,20.8704417 C23.5285648,20.585346 23.3365228,20.3305595 23.1641315,20.1013463 C22.6889391,20.0663013 22.2503686,20.0340978 21.7850016,20 C21.0364842,20.8041404 20.8122862,21.7408834 21.1597484,22.8291723 C21.19905,22.9523034 21.2133415,23.0896418 21.2124483,23.2203502 C21.1802924,26.087409 22.5058292,28.095392 24.7549543,29.5189762 C24.8951897,29.6089566 25.0398911,29.6913597 25.2899924,29.8410112 C25.9509744,29.8893165 26.7414731,29.9821383 27.532865,29.9982401 C29.0602693,30.0294964 30.5108567,29.6458959 31.7685089,28.7290433 C32.6849514,28.060347 33.3057385,27.1046607 33.5486941,25.9112369 C33.6183651,25.5731001 33.7952225,25.2595895 33.8640003,24.9223999 C33.9283121,24.6051007 33.8899037,24.2660168 33.9417104,23.9449289 C34.0837322,23.079223 33.9551087,22.2485621 33.6764244,21.2890872" id="Fill-8" fill="#FFFFFF"></path>
                    <path d="M18.2035245,13 C17.6303043,13.4501812 16.8005179,13.3951901 16.3894398,14.2060755 C16.0317733,14.9135032 15.9106435,15.4652781 16.067063,16.2584545 C16.2492345,17.17839 17.1705835,17.2632067 17.5110821,17.9053907 C18.3961876,18.071296 19.2078522,18.0703639 19.9632439,17.4757146 C20.6566401,16.9304641 20.5345566,16.0431504 21,15.4261319 C20.9027147,15.0952533 20.8054294,14.768103 20.6566401,14.2657269 C19.6132076,13.0904091 19.6132076,13.0904091 18.2035245,13" id="Fill-10" fill="#6E461D"></path>
                    <path d="M36.3525933,17 C36.8694598,16.6385542 37.3678066,16.2880613 37.8560518,15.9457831 C37.9057182,15.1736035 37.9503337,14.4625776 38,13.6894852 C37.7668208,13.0733844 37.5210146,12.3824388 36.796223,12.0949252 C36.3879489,12.0648047 35.9788331,12.0337714 35.528469,12 C34.9535181,12.275648 34.3162739,12.5476451 34.099089,13.3691128 C33.9197851,14.1650237 33.9526154,14.9262505 34.4593803,15.6710478 C34.9493091,16.3921139 35.7246089,16.4897773 36.3525933,17" id="Fill-12" fill="#6E461D"></path>
                    <path d="M15.872971,43.1024155 C15.8138676,41.8512077 16.2815995,40.7806763 15.7211365,39.7942029 C15.2044915,39.5111111 14.7235123,39.2483092 14.2720848,39 C12.9065931,39.3671498 12.9065931,39.3671498 12.0791458,40.4763285 C12.0587654,41.2830918 11.7632485,42.163285 12.4633178,43.0463768 C12.9218784,43.3091787 13.4792844,43.626087 14.1324785,44 C14.7041508,43.7043478 15.2809182,43.4067633 15.872971,43.1024155" id="Fill-14" fill="#6E461D"></path>
                    <path d="M11.9035299,46.5699184 C11.935979,46.0616764 11.96492,45.6017031 12,45.0603353 C11.6413067,44.7517936 11.2808595,44.3788934 10.8616531,44.1082096 C10.666082,43.9832786 10.3214207,43.9643496 10.1109406,44.0627801 C9.41460206,44.3855186 8.54900241,44.3722683 8.08682307,45.2032489 C8.05963604,45.6433467 8.02981802,46.1042665 8,46.5699184 C8.2604692,47.0194808 8.52269239,47.4699896 8.75948257,47.8788548 C9.35321201,47.9233378 9.8688884,47.9611957 10.3836878,48 C10.8704232,47.5419196 11.3562815,47.0847857 11.9035299,46.5699184" id="Fill-16" fill="#6E461D"></path>
                    <path d="M55.8727018,45.1032083 C55.8146215,43.8517588 56.2813019,42.7800541 55.7208779,41.7943564 C55.2042688,41.5112099 54.723323,41.2473908 54.2719269,41 C52.9065301,41.3662543 52.9065301,41.3672207 52.0791403,42.4766138 C52.0587613,43.283533 51.7632649,44.1638964 52.4632856,45.0471589 C52.9218144,45.3100116 53.4791816,45.6269811 54.1323304,46 C54.7049819,45.7052571 55.2806902,45.407615 55.8727018,45.1032083" id="Fill-18" fill="#6E461D"></path>
                    <path d="M49.9035299,40.5699184 C49.935979,40.0616764 49.965797,39.6017031 50,39.0603353 C49.6421837,38.7517936 49.2808595,38.3788934 48.8625301,38.1082096 C48.666959,37.9832786 48.3214207,37.9643496 48.1109406,38.0627801 C47.4146021,38.3855186 46.5490024,38.3722683 46.0877001,39.2032489 C46.059636,39.6433467 46.029818,40.1042665 46,40.5699184 C46.2604692,41.0194808 46.5226924,41.4699896 46.7594826,41.8788548 C47.354089,41.9233378 47.8688884,41.9611957 48.3836878,42 C48.8704232,41.5419196 49.3562815,41.0847857 49.9035299,40.5699184" id="Fill-20" fill="#6E461D"></path>
                    <path d="M62.88833,47.8678103 C62.9376258,47.1422805 62.9688129,46.6962664 63,46.2401615 C62.6750503,45.8738648 62.3450704,45.5035318 62.0070423,45.1220989 C61.4336016,45.0827447 60.8390342,45.0413724 60.2364185,45 C59.8712274,45.3249243 59.5020121,45.6569122 59.1217304,45.9969728 C59.082495,46.5711403 59.0412475,47.1675076 59,47.7719475 C59.3249497,48.1382442 59.6539235,48.5085772 59.9939638,48.8900101 C60.4678068,48.9223007 60.9617706,48.9566095 61.5895372,49 C61.9979879,48.6448032 62.4778672,48.2250252 62.88833,47.8678103" id="Fill-22" fill="#6E461D"></path>
                    <path d="M6.14028378,49 C5.7908619,49.3248851 5.43154138,49.6589363 5.04945399,50.014375 C4.97422435,50.699791 4.91879198,51.4076128 5.40283533,52.0451617 C5.72949035,52.476984 6.1452331,52.8578838 6.61640822,52.9515811 C8.18435232,53.2601711 8.64067948,52.0329404 9,50.9941226 C8.94753722,50.5724849 8.97723314,50.2201016 8.84954072,49.9451204 C8.70799021,49.6406043 8.42389933,49.406361 8.20513945,49.1466566 C7.51817405,49.0977711 6.83912755,49.049904 6.14028378,49" id="Fill-24" fill="#6E461D"></path>
                </g>
            </g>
        </g>
    </g>
</svg>