<?xml version="1.0" encoding="UTF-8"?>
<svg width="53px" height="55px" viewBox="0 0 53 55" version="1.1" xmlns="http://www.w3.org/2000/svg" xmlns:xlink="http://www.w3.org/1999/xlink">
    <title>Fill 31</title>
    <g id="01_design" stroke="none" stroke-width="1" fill="none" fill-rule="evenodd">
        <g id="Calendário-Advento" transform="translate(-784.000000, -69.000000)" fill="#008CDC">
            <path d="M836.999616,89.8955985 L836.999616,88.1860465 C836.999616,83.5226827 834.277202,79.5017546 830.345597,77.6398127 L815.753031,70.2829375 L815.730739,70.2810036 C814.148333,69.4633582 812.355684,69 810.454646,69 C808.593965,69 806.83783,69.4436326 805.280408,70.2284021 L805.27003,70.2299492 L790.464146,77.7229696 L790.454921,77.7365068 C789.633547,78.1453295 788.87021,78.653167 788.173752,79.2387466 L788.175289,79.2480292 C787.823601,79.5636388 787.598367,80.0177144 787.598367,80.5298064 C787.598367,81.1788173 787.95928,81.7377093 788.486236,82.0320462 L788.486236,82.032433 L788.50161,82.0397817 C788.559264,82.0718842 788.616149,82.1047602 788.677262,82.1291271 L801.688575,88.6706774 L801.695494,88.6706774 C801.982225,88.8153318 802.305087,88.8984888 802.64755,88.8984888 C802.98963,88.8984888 803.311722,88.8157186 803.59807,88.671451 L803.604219,88.671451 L808.567444,86.1589511 L808.571672,86.1585643 C809.146673,85.8684819 809.79547,85.7048755 810.483088,85.7048755 C810.488469,85.7048755 810.494235,85.7052623 810.5,85.7052623 L810.5,85.7048755 C811.196458,85.7071962 811.852174,85.8777646 812.432556,86.1775163 L812.440243,86.1786767 L817.830491,88.8961681 C819.282982,89.5838567 820.288465,91.0690783 820.288465,92.7917806 L820.288465,93.4229998 L820.289234,93.4229998 L820.289234,98.2638941 C820.289234,99.9572014 819.316806,101.42115 817.904287,102.123923 L817.901213,102.129338 L812.432556,104.897497 L812.428712,104.897884 C811.852943,105.18758 811.203761,105.351186 810.516912,105.351186 C810.510762,105.351186 810.505765,105.350799 810.5,105.350799 L810.5,105.351186 C809.803158,105.348865 809.147057,105.178297 808.567444,104.878932 L808.559757,104.878545 L803.168356,102.16028 L786.884228,94.3067841 L786.877694,94.3106518 C786.614793,94.1837891 786.321911,94.1110752 786.011349,94.1110752 C784.900553,94.1110752 784,95.0169056 784,96.1350764 L784,101.29042 L784.000384,101.29042 L784.000384,102.107292 L784,102.107292 L784,120.622668 C784,122.488478 785.502074,124 787.356221,124 C788.334798,124 789.213058,123.57648 789.826495,122.904649 L794.719382,117.980211 C795.307066,117.439884 796.085777,117.106483 796.944819,117.106483 C797.476772,117.106483 797.977207,117.2376 798.423447,117.462704 L805.246584,120.902694 L805.269646,120.905788 C806.851667,121.722273 808.643547,122.186792 810.54497,122.186792 C812.404882,122.186792 814.162555,121.742386 815.720361,120.95839 L815.72997,120.956843 L830.535854,113.463049 L830.544694,113.449512 C834.368295,111.546571 837,107.583273 837,102.999972 L837,89.8955985 L836.999616,89.8955985 Z" id="Fill-31"></path>
        </g>
    </g>
</svg>